<svg width="135" height="48" viewBox="0 0 135 48" fill="none" xmlns="http://www.w3.org/2000/svg">
<g clip-path="url(#clip0_1_236)">
<path d="M135 0H0V48H135V0Z" fill="#E76F00"/>
<path d="M42.2898 19.5455V29H41.1449V19.5455H42.2898ZM46.3071 19.5455V29H45.2176V19.5455H46.3071ZM50.172 19.5455V29H49.0825V19.5455H50.172ZM57.4163 26.1009V21.9091H58.5057V29H57.4163V27.7997H57.3424C57.1762 28.1598 56.9177 28.466 56.5668 28.7184C56.216 28.9677 55.7728 29.0923 55.2373 29.0923C54.7941 29.0923 54.4002 28.9954 54.0555 28.8015C53.7108 28.6045 53.4399 28.3091 53.243 27.9151C53.046 27.5181 52.9475 27.018 52.9475 26.4148V21.9091H54.037V26.3409C54.037 26.858 54.1816 27.2704 54.4709 27.5781C54.7633 27.8859 55.1357 28.0398 55.5881 28.0398C55.859 28.0398 56.1344 27.9705 56.4145 27.832C56.6976 27.6935 56.9346 27.4812 57.1254 27.195C57.3193 26.9087 57.4163 26.544 57.4163 26.1009ZM66.3039 23.4972L65.3253 23.7741C65.2637 23.611 65.1729 23.4525 65.0529 23.2987C64.9359 23.1417 64.7759 23.0124 64.5728 22.9109C64.3696 22.8093 64.1096 22.7585 63.7926 22.7585C63.3586 22.7585 62.997 22.8585 62.7077 23.0586C62.4215 23.2556 62.2784 23.5064 62.2784 23.8111C62.2784 24.0819 62.3769 24.2958 62.5738 24.4528C62.7708 24.6097 63.0786 24.7405 63.4971 24.8452L64.5497 25.1037C65.1837 25.2576 65.6561 25.493 65.9669 25.81C66.2778 26.1239 66.4332 26.5286 66.4332 27.0241C66.4332 27.4304 66.3163 27.7936 66.0824 28.1136C65.8515 28.4337 65.5284 28.6861 65.1129 28.8707C64.6974 29.0554 64.2142 29.1477 63.6633 29.1477C62.9401 29.1477 62.3415 28.9908 61.8675 28.6768C61.3936 28.3629 61.0935 27.9044 60.9673 27.3011L62.0014 27.0426C62.0999 27.4242 62.2861 27.7105 62.56 27.9013C62.837 28.0921 63.1986 28.1875 63.6449 28.1875C64.1527 28.1875 64.5558 28.0798 64.8544 27.8643C65.156 27.6458 65.3068 27.3842 65.3068 27.0795C65.3068 26.8333 65.2206 26.6271 65.0483 26.4609C64.8759 26.2917 64.6112 26.1655 64.2542 26.0824L63.0724 25.8054C62.423 25.6515 61.946 25.413 61.6413 25.0898C61.3397 24.7636 61.1889 24.3558 61.1889 23.8665C61.1889 23.4664 61.3012 23.1125 61.5259 22.8047C61.7536 22.4969 62.0629 22.2553 62.4538 22.0799C62.8477 21.9045 63.294 21.8168 63.7926 21.8168C64.4943 21.8168 65.0452 21.9706 65.4453 22.2784C65.8485 22.5862 66.1347 22.9924 66.3039 23.4972ZM71.937 21.9091V22.8324H68.2623V21.9091H71.937ZM69.3333 20.2102H70.4228V26.9688C70.4228 27.2765 70.4674 27.5073 70.5567 27.6612C70.649 27.812 70.766 27.9136 70.9075 27.9659C71.0522 28.0152 71.2045 28.0398 71.3646 28.0398C71.4846 28.0398 71.5831 28.0336 71.66 28.0213C71.737 28.0059 71.7985 27.9936 71.8447 27.9844L72.0663 28.9631C71.9924 28.9908 71.8893 29.0185 71.757 29.0462C71.6246 29.0769 71.4569 29.0923 71.2538 29.0923C70.946 29.0923 70.6444 29.0262 70.349 28.8938C70.0566 28.7615 69.8134 28.5599 69.6195 28.2891C69.4287 28.0182 69.3333 27.6766 69.3333 27.2642V20.2102ZM74.3559 29V21.9091H75.4084V22.9801H75.4823C75.6116 22.6293 75.8455 22.3446 76.184 22.1261C76.5225 21.9076 76.9042 21.7983 77.3289 21.7983C77.4089 21.7983 77.5089 21.7998 77.629 21.8029C77.749 21.806 77.8398 21.8106 77.9013 21.8168V22.9247C77.8644 22.9155 77.7798 22.9016 77.6474 22.8832C77.5182 22.8616 77.3812 22.8509 77.2366 22.8509C76.8919 22.8509 76.5841 22.9232 76.3133 23.0678C76.0455 23.2094 75.8331 23.4064 75.6762 23.6587C75.5223 23.908 75.4454 24.1927 75.4454 24.5128V29H74.3559ZM82.0594 29.1662C81.6101 29.1662 81.2023 29.0816 80.8361 28.9123C80.4698 28.7399 80.179 28.4922 79.9636 28.169C79.7481 27.8428 79.6404 27.4489 79.6404 26.9872C79.6404 26.581 79.7204 26.2517 79.8805 25.9993C80.0405 25.7438 80.2544 25.5438 80.5221 25.3991C80.7899 25.2545 81.0854 25.1468 81.4085 25.076C81.7347 25.0021 82.0625 24.9437 82.3918 24.9006C82.8227 24.8452 83.172 24.8036 83.4398 24.7759C83.7106 24.7451 83.9076 24.6944 84.0307 24.6236C84.1569 24.5528 84.2199 24.4297 84.2199 24.2543V24.2173C84.2199 23.7618 84.0953 23.4079 83.846 23.1555C83.5998 22.9032 83.2259 22.777 82.7242 22.777C82.2041 22.777 81.7963 22.8909 81.5008 23.1186C81.2054 23.3464 80.9976 23.5895 80.8776 23.848L79.8435 23.4787C80.0282 23.0478 80.2744 22.7124 80.5822 22.4723C80.893 22.2292 81.2315 22.0599 81.5978 21.9645C81.9671 21.866 82.3303 21.8168 82.6873 21.8168C82.915 21.8168 83.1766 21.8445 83.4721 21.8999C83.7706 21.9522 84.0584 22.0614 84.3354 22.2276C84.6154 22.3938 84.8478 22.6446 85.0324 22.9801C85.2171 23.3156 85.3094 23.7649 85.3094 24.3281V29H84.2199V28.0398H84.1645C84.0907 28.1937 83.9676 28.3583 83.7952 28.5337C83.6229 28.7092 83.3936 28.8584 83.1074 28.9815C82.8211 29.1046 82.4718 29.1662 82.0594 29.1662ZM82.2256 28.1875C82.6565 28.1875 83.0197 28.1029 83.3151 27.9336C83.6136 27.7643 83.8383 27.5458 83.9891 27.2781C84.143 27.0103 84.2199 26.7287 84.2199 26.4332V25.4361C84.1738 25.4915 84.0722 25.5423 83.9153 25.5884C83.7614 25.6315 83.5829 25.67 83.3797 25.7038C83.1797 25.7346 82.9843 25.7623 82.7935 25.7869C82.6057 25.8085 82.4534 25.8269 82.3364 25.8423C82.0533 25.8793 81.7886 25.9393 81.5424 26.0224C81.2993 26.1024 81.1023 26.224 80.9515 26.3871C80.8037 26.5471 80.7299 26.7656 80.7299 27.0426C80.7299 27.4212 80.8699 27.7074 81.15 27.9013C81.4331 28.0921 81.7917 28.1875 82.2256 28.1875ZM91.1618 21.9091V22.8324H87.4871V21.9091H91.1618ZM88.5581 20.2102H89.6476V26.9688C89.6476 27.2765 89.6922 27.5073 89.7815 27.6612C89.8738 27.812 89.9907 27.9136 90.1323 27.9659C90.277 28.0152 90.4293 28.0398 90.5893 28.0398C90.7094 28.0398 90.8079 28.0336 90.8848 28.0213C90.9617 28.0059 91.0233 27.9936 91.0695 27.9844L91.291 28.9631C91.2172 28.9908 91.1141 29.0185 90.9817 29.0462C90.8494 29.0769 90.6817 29.0923 90.4785 29.0923C90.1708 29.0923 89.8692 29.0262 89.5737 28.8938C89.2813 28.7615 89.0382 28.5599 88.8443 28.2891C88.6535 28.0182 88.5581 27.6766 88.5581 27.2642V20.2102ZM96.3851 29.1477C95.745 29.1477 95.1833 28.9954 94.7001 28.6907C94.22 28.386 93.8445 27.9598 93.5737 27.4119C93.306 26.8641 93.1721 26.224 93.1721 25.4915C93.1721 24.7528 93.306 24.1081 93.5737 23.5572C93.8445 23.0063 94.22 22.5785 94.7001 22.2738C95.1833 21.9691 95.745 21.8168 96.3851 21.8168C97.0253 21.8168 97.5854 21.9691 98.0655 22.2738C98.5487 22.5785 98.9242 23.0063 99.192 23.5572C99.4628 24.1081 99.5982 24.7528 99.5982 25.4915C99.5982 26.224 99.4628 26.8641 99.192 27.4119C98.9242 27.9598 98.5487 28.386 98.0655 28.6907C97.5854 28.9954 97.0253 29.1477 96.3851 29.1477ZM96.3851 28.169C96.8714 28.169 97.2715 28.0444 97.5854 27.7951C97.8994 27.5458 98.1317 27.218 98.2825 26.8118C98.4333 26.4055 98.5087 25.9654 98.5087 25.4915C98.5087 25.0175 98.4333 24.5759 98.2825 24.1665C98.1317 23.7572 97.8994 23.4264 97.5854 23.174C97.2715 22.9216 96.8714 22.7955 96.3851 22.7955C95.8989 22.7955 95.4988 22.9216 95.1849 23.174C94.8709 23.4264 94.6386 23.7572 94.4878 24.1665C94.337 24.5759 94.2616 25.0175 94.2616 25.4915C94.2616 25.9654 94.337 26.4055 94.4878 26.8118C94.6386 27.218 94.8709 27.5458 95.1849 27.7951C95.4988 28.0444 95.8989 28.169 96.3851 28.169ZM102.041 29V21.9091H103.094V22.9801H103.168C103.297 22.6293 103.531 22.3446 103.869 22.1261C104.208 21.9076 104.59 21.7983 105.014 21.7983C105.094 21.7983 105.194 21.7998 105.314 21.8029C105.434 21.806 105.525 21.8106 105.587 21.8168V22.9247C105.55 22.9155 105.465 22.9016 105.333 22.8832C105.204 22.8616 105.067 22.8509 104.922 22.8509C104.577 22.8509 104.27 22.9232 103.999 23.0678C103.731 23.2094 103.519 23.4064 103.362 23.6587C103.208 23.908 103.131 24.1927 103.131 24.5128V29H102.041Z" fill="white"/>
<path d="M42.2898 19.5455H42.7898V19.0455H42.2898V19.5455ZM42.2898 29V29.5H42.7898V29H42.2898ZM41.1449 29H40.6449V29.5H41.1449V29ZM41.1449 19.5455V19.0455H40.6449V19.5455H41.1449ZM41.7898 19.5455V29H42.7898V19.5455H41.7898ZM42.2898 28.5H41.1449V29.5H42.2898V28.5ZM41.6449 29V19.5455H40.6449V29H41.6449ZM41.1449 20.0455H42.2898V19.0455H41.1449V20.0455ZM46.3071 19.5455H46.8071V19.0455H46.3071V19.5455ZM46.3071 29V29.5H46.8071V29H46.3071ZM45.2176 29H44.7176V29.5H45.2176V29ZM45.2176 19.5455V19.0455H44.7176V19.5455H45.2176ZM45.8071 19.5455V29H46.8071V19.5455H45.8071ZM46.3071 28.5H45.2176V29.5H46.3071V28.5ZM45.7176 29V19.5455H44.7176V29H45.7176ZM45.2176 20.0455H46.3071V19.0455H45.2176V20.0455ZM50.172 19.5455H50.672V19.0455H50.172V19.5455ZM50.172 29V29.5H50.672V29H50.172ZM49.0825 29H48.5825V29.5H49.0825V29ZM49.0825 19.5455V19.0455H48.5825V19.5455H49.0825ZM49.672 19.5455V29H50.672V19.5455H49.672ZM50.172 28.5H49.0825V29.5H50.172V28.5ZM49.5825 29V19.5455H48.5825V29H49.5825ZM49.0825 20.0455H50.172V19.0455H49.0825V20.0455ZM57.4163 21.9091V21.4091H56.9163V21.9091H57.4163ZM58.5057 21.9091H59.0057V21.4091H58.5057V21.9091ZM58.5057 29V29.5H59.0057V29H58.5057ZM57.4163 29H56.9163V29.5H57.4163V29ZM57.4163 27.7997H57.9163V27.2997H57.4163V27.7997ZM57.3424 27.7997V27.2997H57.0225L56.8884 27.5902L57.3424 27.7997ZM56.5668 28.7184L56.8564 29.126L56.8588 29.1243L56.5668 28.7184ZM54.0555 28.8015L53.8074 29.2356L53.8103 29.2373L54.0555 28.8015ZM53.243 27.9151L52.7951 28.1373L52.7958 28.1387L53.243 27.9151ZM52.9475 21.9091V21.4091H52.4475V21.9091H52.9475ZM54.037 21.9091H54.537V21.4091H54.037V21.9091ZM54.4709 27.5781L54.1066 27.9206L54.1084 27.9225L54.4709 27.5781ZM56.4145 27.832L56.1948 27.3829L56.1929 27.3838L56.4145 27.832ZM57.1254 27.195L56.7115 26.9145L56.7094 26.9176L57.1254 27.195ZM57.9163 26.1009V21.9091H56.9163V26.1009H57.9163ZM57.4163 22.4091H58.5057V21.4091H57.4163V22.4091ZM58.0057 21.9091V29H59.0057V21.9091H58.0057ZM58.5057 28.5H57.4163V29.5H58.5057V28.5ZM57.9163 29V27.7997H56.9163V29H57.9163ZM57.4163 27.2997H57.3424V28.2997H57.4163V27.2997ZM56.8884 27.5902C56.7616 27.865 56.5621 28.1059 56.2749 28.3125L56.8588 29.1243C57.2732 28.8262 57.5908 28.4546 57.7964 28.0092L56.8884 27.5902ZM56.2772 28.3108C56.0297 28.4867 55.6946 28.5923 55.2373 28.5923V29.5923C55.851 29.5923 56.4023 29.4487 56.8564 29.126L56.2772 28.3108ZM55.2373 28.5923C54.8694 28.5923 54.5618 28.5126 54.3006 28.3657L53.8103 29.2373C54.2386 29.4782 54.7188 29.5923 55.2373 29.5923V28.5923ZM54.3035 28.3674C54.0538 28.2247 53.848 28.0072 53.6902 27.6915L52.7958 28.1387C53.0318 28.6109 53.3677 28.9844 53.8074 29.2356L54.3035 28.3674ZM53.6909 27.6929C53.5382 27.3853 53.4475 26.9673 53.4475 26.4148H52.4475C52.4475 27.0687 52.5538 27.651 52.7951 28.1373L53.6909 27.6929ZM53.4475 26.4148V21.9091H52.4475V26.4148H53.4475ZM52.9475 22.4091H54.037V21.4091H52.9475V22.4091ZM53.537 21.9091V26.3409H54.537V21.9091H53.537ZM53.537 26.3409C53.537 26.9552 53.7116 27.5003 54.1066 27.9206L54.8353 27.2357C54.6517 27.0404 54.537 26.7607 54.537 26.3409H53.537ZM54.1084 27.9225C54.5019 28.3367 55.0087 28.5398 55.5881 28.5398V27.5398C55.2627 27.5398 55.0247 27.4351 54.8334 27.2338L54.1084 27.9225ZM55.5881 28.5398C55.9469 28.5398 56.2977 28.4476 56.6361 28.2802L56.1929 27.3838C55.9711 27.4935 55.7711 27.5398 55.5881 27.5398V28.5398ZM56.6342 28.2812C57.004 28.1003 57.3062 27.8252 57.5414 27.4723L56.7094 26.9176C56.5631 27.1371 56.3913 27.2868 56.1948 27.3829L56.6342 28.2812ZM57.5394 27.4754C57.8032 27.0859 57.9163 26.616 57.9163 26.1009H56.9163C56.9163 26.4721 56.8354 26.7316 56.7115 26.9145L57.5394 27.4754ZM66.3039 23.4972L66.4401 23.9783L66.9448 23.8354L66.778 23.3382L66.3039 23.4972ZM65.3253 23.7741L64.8575 23.9507L65.0196 24.3803L65.4614 24.2553L65.3253 23.7741ZM65.0529 23.2987L64.6518 23.5975L64.6586 23.6062L65.0529 23.2987ZM64.5728 22.9109L64.7964 22.4637L64.7964 22.4637L64.5728 22.9109ZM62.7077 23.0586L62.9912 23.4705L62.9921 23.4698L62.7077 23.0586ZM62.5738 24.4528L62.2622 24.8438L62.2622 24.8438L62.5738 24.4528ZM63.4971 24.8452L63.3759 25.3302L63.3779 25.3307L63.4971 24.8452ZM64.5497 25.1037L64.4304 25.5893L64.4318 25.5896L64.5497 25.1037ZM65.9669 25.81L65.6099 26.1601L65.6117 26.1618L65.9669 25.81ZM66.0824 28.1136L65.6787 27.8186L65.6768 27.8212L66.0824 28.1136ZM61.8675 28.6768L62.1436 28.26L62.1436 28.26L61.8675 28.6768ZM60.9673 27.3011L60.846 26.8161L60.3794 26.9327L60.4779 27.4035L60.9673 27.3011ZM62.0014 27.0426L62.4855 26.9177L62.3615 26.4372L61.8801 26.5575L62.0014 27.0426ZM62.56 27.9013L62.2742 28.3115L62.2763 28.313L62.56 27.9013ZM64.8544 27.8643L65.147 28.2698L65.1477 28.2692L64.8544 27.8643ZM65.0483 26.4609L64.6979 26.8177L64.7012 26.8209L65.0483 26.4609ZM64.2542 26.0824L64.1401 26.5692L64.1409 26.5694L64.2542 26.0824ZM63.0724 25.8054L62.9571 26.2919L62.9583 26.2922L63.0724 25.8054ZM61.6413 25.0898L61.2742 25.4293L61.2775 25.4329L61.6413 25.0898ZM61.5259 22.8047L61.124 22.5073L61.1221 22.5099L61.5259 22.8047ZM62.4538 22.0799L62.2504 21.6231L62.2491 21.6237L62.4538 22.0799ZM65.4453 22.2784L65.1404 22.6747L65.1419 22.6758L65.4453 22.2784ZM66.1678 23.0161L65.1891 23.293L65.4614 24.2553L66.4401 23.9783L66.1678 23.0161ZM65.7931 23.5976C65.7117 23.3821 65.5945 23.18 65.4471 22.9911L64.6586 23.6062C64.7513 23.725 64.8157 23.8399 64.8575 23.9507L65.7931 23.5976ZM65.4538 22.9999C65.2832 22.771 65.0582 22.5946 64.7964 22.4637L64.3492 23.3581C64.4936 23.4303 64.5886 23.5124 64.6519 23.5974L65.4538 22.9999ZM64.7964 22.4637C64.5019 22.3164 64.1583 22.2585 63.7926 22.2585V23.2585C64.0609 23.2585 64.2374 23.3022 64.3492 23.3581L64.7964 22.4637ZM63.7926 22.2585C63.281 22.2585 62.814 22.3772 62.4233 22.6473L62.9921 23.4698C63.18 23.3399 63.4363 23.2585 63.7926 23.2585V22.2585ZM62.4243 22.6467C62.0245 22.9218 61.7784 23.3167 61.7784 23.8111H62.7784C62.7784 23.6961 62.8184 23.5894 62.9912 23.4705L62.4243 22.6467ZM61.7784 23.8111C61.7784 24.221 61.9363 24.5841 62.2622 24.8438L62.8854 24.0617C62.8175 24.0076 62.7784 23.9429 62.7784 23.8111H61.7784ZM62.2622 24.8438C62.5416 25.0664 62.9305 25.2189 63.3759 25.3302L63.6184 24.3601C63.2266 24.2621 63 24.153 62.8854 24.0617L62.2622 24.8438ZM63.3779 25.3307L64.4304 25.5893L64.6689 24.6181L63.6164 24.3596L63.3779 25.3307ZM64.4318 25.5896C65.015 25.7311 65.3884 25.9341 65.6099 26.1601L66.3239 25.4599C65.9238 25.0519 65.3524 24.784 64.6676 24.6178L64.4318 25.5896ZM65.6117 26.1618C65.8182 26.3704 65.9332 26.6429 65.9332 27.0241H66.9332C66.9332 26.4144 66.7374 25.8775 66.3222 25.4582L65.6117 26.1618ZM65.9332 27.0241C65.9332 27.3272 65.8483 27.5864 65.6787 27.8186L66.4861 28.4086C66.7842 28.0007 66.9332 27.5336 66.9332 27.0241H65.9332ZM65.6768 27.8212C65.5052 28.0592 65.2569 28.2596 64.9098 28.4138L65.316 29.3276C65.7998 29.1126 66.1979 28.8083 66.4879 28.4061L65.6768 27.8212ZM64.9098 28.4138C64.5703 28.5647 64.1588 28.6477 63.6633 28.6477V29.6477C64.2697 29.6477 64.8245 29.5461 65.316 29.3276L64.9098 28.4138ZM63.6633 28.6477C63.0117 28.6477 62.516 28.5067 62.1436 28.26L61.5914 29.0937C62.1669 29.4749 62.8685 29.6477 63.6633 29.6477V28.6477ZM62.1436 28.26C61.7891 28.0252 61.5584 27.6851 61.4567 27.1988L60.4779 27.4035C60.6285 28.1236 60.998 28.7007 61.5914 29.0937L62.1436 28.26ZM61.0886 27.7862L62.1227 27.5277L61.8801 26.5575L60.846 26.8161L61.0886 27.7862ZM61.5173 27.1676C61.6399 27.6429 61.885 28.0404 62.2742 28.3115L62.8458 27.491C62.6871 27.3805 62.5598 27.2055 62.4855 26.9177L61.5173 27.1676ZM62.2763 28.313C62.6601 28.5774 63.1299 28.6875 63.6449 28.6875V27.6875C63.2673 27.6875 63.0139 27.6068 62.8436 27.4895L62.2763 28.313ZM63.6449 28.6875C64.2188 28.6875 64.7364 28.5661 65.147 28.2698L64.5618 27.4589C64.3753 27.5934 64.0865 27.6875 63.6449 27.6875V28.6875ZM65.1477 28.2692C65.5467 27.9802 65.8068 27.5808 65.8068 27.0795H64.8068C64.8068 27.1877 64.7653 27.3115 64.561 27.4594L65.1477 28.2692ZM65.8068 27.0795C65.8068 26.7019 65.6685 26.3644 65.3953 26.101L64.7012 26.8209C64.7727 26.8899 64.8068 26.9648 64.8068 27.0795H65.8068ZM65.3986 26.1042C65.1352 25.8455 64.7712 25.6893 64.3676 25.5954L64.1409 26.5694C64.4513 26.6416 64.6167 26.7379 64.6979 26.8177L65.3986 26.1042ZM64.3683 25.5956L63.1865 25.3186L62.9583 26.2922L64.1401 26.5692L64.3683 25.5956ZM63.1877 25.3189C62.5887 25.1769 62.217 24.9715 62.0051 24.7468L61.2775 25.4329C61.675 25.8545 62.2574 26.1261 62.9571 26.2919L63.1877 25.3189ZM62.0084 24.7504C61.8012 24.5263 61.6889 24.2438 61.6889 23.8665H60.6889C60.6889 24.4678 60.8782 25.001 61.2742 25.4293L62.0084 24.7504ZM61.6889 23.8665C61.6889 23.5667 61.7708 23.3172 61.9297 23.0995L61.1221 22.5099C60.8316 22.9077 60.6889 23.3661 60.6889 23.8665H61.6889ZM61.9278 23.1021C62.0987 22.8712 62.3364 22.6806 62.6585 22.5361L62.2491 21.6237C61.7894 21.83 61.4086 22.1226 61.124 22.5073L61.9278 23.1021ZM62.6572 22.5367C62.9779 22.3939 63.3532 22.3168 63.7926 22.3168V21.3168C63.2348 21.3168 62.7176 21.4151 62.2504 21.6231L62.6572 22.5367ZM63.7926 22.3168C64.4262 22.3168 64.8562 22.456 65.1404 22.6747L65.7501 21.8821C65.2342 21.4852 64.5623 21.3168 63.7926 21.3168V22.3168ZM65.1419 22.6758C65.4616 22.9199 65.6907 23.2412 65.8299 23.6561L66.778 23.3382C66.5786 22.7437 66.2353 22.2525 65.7487 21.881L65.1419 22.6758ZM71.937 21.9091H72.437V21.4091H71.937V21.9091ZM71.937 22.8324V23.3324H72.437V22.8324H71.937ZM68.2623 22.8324H67.7623V23.3324H68.2623V22.8324ZM68.2623 21.9091V21.4091H67.7623V21.9091H68.2623ZM69.3333 20.2102V19.7102H68.8333V20.2102H69.3333ZM70.4228 20.2102H70.9228V19.7102H70.4228V20.2102ZM70.5567 27.6612L70.1241 27.9122L70.1303 27.9223L70.5567 27.6612ZM70.9075 27.9659L70.7342 28.4351L70.7464 28.4392L70.9075 27.9659ZM71.66 28.0213L71.739 28.515L71.7486 28.5135L71.7581 28.5116L71.66 28.0213ZM71.8447 27.9844L72.3323 27.874L72.2247 27.3985L71.7466 27.4941L71.8447 27.9844ZM72.0663 28.9631L72.2418 29.4312L72.6503 29.2781L72.5539 28.8527L72.0663 28.9631ZM71.757 29.0462L71.6545 28.5566L71.6437 28.5592L71.757 29.0462ZM70.349 28.8938L70.1428 29.3493L70.1446 29.3501L70.349 28.8938ZM69.6195 28.2891L69.2108 28.577L69.213 28.5801L69.6195 28.2891ZM71.437 21.9091V22.8324H72.437V21.9091H71.437ZM71.937 22.3324H68.2623V23.3324H71.937V22.3324ZM68.7623 22.8324V21.9091H67.7623V22.8324H68.7623ZM68.2623 22.4091H71.937V21.4091H68.2623V22.4091ZM69.3333 20.7102H70.4228V19.7102H69.3333V20.7102ZM69.9228 20.2102V26.9688H70.9228V20.2102H69.9228ZM69.9228 26.9688C69.9228 27.3085 69.9692 27.6449 70.1242 27.9121L70.9892 27.4104C70.9657 27.3698 70.9228 27.2446 70.9228 26.9688H69.9228ZM70.1303 27.9223C70.2707 28.1517 70.4699 28.3372 70.7342 28.4349L71.0809 27.4969C71.062 27.4899 71.0273 27.4723 70.9831 27.4001L70.1303 27.9223ZM70.7464 28.4392C70.9454 28.507 71.1523 28.5398 71.3646 28.5398V27.5398C71.2567 27.5398 71.159 27.5233 71.0687 27.4926L70.7464 28.4392ZM71.3646 28.5398C71.4986 28.5398 71.626 28.5331 71.739 28.515L71.581 27.5276C71.5402 27.5341 71.4707 27.5398 71.3646 27.5398V28.5398ZM71.7581 28.5116C71.835 28.4962 71.8966 28.4839 71.9427 28.4747L71.7466 27.4941C71.7005 27.5033 71.6389 27.5156 71.562 27.531L71.7581 28.5116ZM71.357 28.0948L71.5786 29.0735L72.5539 28.8527L72.3323 27.874L71.357 28.0948ZM71.8907 28.4949C71.8516 28.5096 71.7769 28.5312 71.6545 28.5568L71.8594 29.5356C72.0018 29.5058 72.1333 29.472 72.2418 29.4312L71.8907 28.4949ZM71.6437 28.5592C71.5619 28.5782 71.4356 28.5923 71.2538 28.5923V29.5923C71.4782 29.5923 71.6874 29.5757 71.8702 29.5332L71.6437 28.5592ZM71.2538 28.5923C71.0201 28.5923 70.7879 28.5426 70.5533 28.4375L70.1446 29.3501C70.5009 29.5097 70.8719 29.5923 71.2538 29.5923V28.5923ZM70.5551 28.4383C70.3459 28.3436 70.1708 28.2002 70.0261 27.998L69.213 28.5801C69.456 28.9196 69.7672 29.1793 70.1428 29.3493L70.5551 28.4383ZM70.0283 28.0011C69.91 27.8332 69.8333 27.599 69.8333 27.2642H68.8333C68.8333 27.7542 68.9475 28.2032 69.2108 28.577L70.0283 28.0011ZM69.8333 27.2642V20.2102H68.8333V27.2642H69.8333ZM74.3559 29H73.8559V29.5H74.3559V29ZM74.3559 21.9091V21.4091H73.8559V21.9091H74.3559ZM75.4084 21.9091H75.9084V21.4091H75.4084V21.9091ZM75.4084 22.9801H74.9084V23.4801H75.4084V22.9801ZM75.4823 22.9801V23.4801H75.8309L75.9515 23.153L75.4823 22.9801ZM76.184 22.1261L75.9128 21.706L75.9128 21.706L76.184 22.1261ZM77.9013 21.8168H78.4013V21.3643L77.9511 21.3192L77.9013 21.8168ZM77.9013 22.9247L77.7801 23.4098L78.4013 23.5651V22.9247H77.9013ZM77.6474 22.8832L77.5652 23.3765L77.5783 23.3784L77.6474 22.8832ZM76.3133 23.0678L76.547 23.5098L76.5488 23.5089L76.3133 23.0678ZM75.6762 23.6587L75.2516 23.3947L75.2507 23.3961L75.6762 23.6587ZM75.4454 29V29.5H75.9454V29H75.4454ZM74.8559 29V21.9091H73.8559V29H74.8559ZM74.3559 22.4091H75.4084V21.4091H74.3559V22.4091ZM74.9084 21.9091V22.9801H75.9084V21.9091H74.9084ZM75.4084 23.4801H75.4823V22.4801H75.4084V23.4801ZM75.9515 23.153C76.0403 22.9119 76.2002 22.7107 76.4551 22.5462L75.9128 21.706C75.4908 21.9784 75.1828 22.3466 75.0131 22.8073L75.9515 23.153ZM76.4551 22.5462C76.7084 22.3827 76.9949 22.2983 77.3289 22.2983V21.2983C76.8134 21.2983 76.3367 21.4324 75.9128 21.706L76.4551 22.5462ZM77.3289 22.2983C77.4031 22.2983 77.4985 22.2997 77.6161 22.3027L77.6418 21.3031C77.5194 21.2999 77.4147 21.2983 77.3289 21.2983V22.2983ZM77.6161 22.3027C77.733 22.3057 77.8089 22.31 77.8516 22.3143L77.9511 21.3192C77.8706 21.3112 77.765 21.3062 77.6418 21.3031L77.6161 22.3027ZM77.4013 21.8168V22.9247H78.4013V21.8168H77.4013ZM78.0226 22.4396C77.9546 22.4227 77.8414 22.4054 77.7165 22.388L77.5783 23.3784C77.6425 23.3873 77.6925 23.3948 77.7294 23.4008C77.7706 23.4076 77.7833 23.4106 77.7801 23.4098L78.0226 22.4396ZM77.7296 22.39C77.5706 22.3635 77.4059 22.3509 77.2366 22.3509V23.3509C77.3565 23.3509 77.4658 23.3598 77.5652 23.3764L77.7296 22.39ZM77.2366 22.3509C76.8199 22.3509 76.4295 22.4389 76.0777 22.6268L76.5488 23.5089C76.7387 23.4075 76.9638 23.3509 77.2366 23.3509V22.3509ZM76.0795 22.6258C75.7351 22.8079 75.4562 23.0656 75.2516 23.3947L76.1008 23.9228C76.21 23.7471 76.3559 23.6109 76.547 23.5098L76.0795 22.6258ZM75.2507 23.3961C75.0436 23.7316 74.9454 24.1088 74.9454 24.5128H75.9454C75.9454 24.2766 76.001 24.0845 76.1017 23.9214L75.2507 23.3961ZM74.9454 24.5128V29H75.9454V24.5128H74.9454ZM75.4454 28.5H74.3559V29.5H75.4454V28.5ZM80.8361 28.9123L80.6232 29.3647L80.6263 29.3662L80.8361 28.9123ZM79.9636 28.169L79.5463 28.4446L79.5475 28.4464L79.9636 28.169ZM79.8805 25.9993L80.3027 26.2671L80.3042 26.2647L79.8805 25.9993ZM81.4085 25.076L81.5155 25.5644L81.5189 25.5637L81.4085 25.076ZM82.3918 24.9006L82.3281 24.4046L82.3269 24.4048L82.3918 24.9006ZM83.4398 24.7759L83.4912 25.2733L83.4962 25.2727L83.4398 24.7759ZM84.0307 24.6236L83.786 24.1875L83.7814 24.1901L84.0307 24.6236ZM83.846 23.1555L83.4881 23.5047L83.4903 23.5069L83.846 23.1555ZM81.5008 23.1186L81.8061 23.5146L81.8061 23.5146L81.5008 23.1186ZM80.8776 23.848L80.7094 24.3189L81.139 24.4723L81.3311 24.0586L80.8776 23.848ZM79.8435 23.4787L79.3839 23.2817L79.1744 23.7707L79.6754 23.9496L79.8435 23.4787ZM80.5822 22.4723L80.8897 22.8666L80.8902 22.8661L80.5822 22.4723ZM81.5978 21.9645L81.7238 22.4483L81.7266 22.4476L81.5978 21.9645ZM83.4721 21.8999L83.3799 22.3913L83.3858 22.3924L83.4721 21.8999ZM84.3354 22.2276L84.0781 22.6564L84.0802 22.6576L84.3354 22.2276ZM85.0324 22.9801L84.5944 23.2212L84.5944 23.2212L85.0324 22.9801ZM85.3094 29V29.5H85.8094V29H85.3094ZM84.2199 29H83.7199V29.5H84.2199V29ZM84.2199 28.0398H84.7199V27.5398H84.2199V28.0398ZM84.1645 28.0398V27.5398H83.8499L83.7138 27.8234L84.1645 28.0398ZM83.7952 28.5337L84.1519 28.8841L84.1519 28.8841L83.7952 28.5337ZM83.1074 28.9815L82.9098 28.5222L83.1074 28.9815ZM83.3151 27.9336L83.0685 27.4986L83.0666 27.4998L83.3151 27.9336ZM83.9891 27.2781L83.5556 27.0289L83.5535 27.0327L83.9891 27.2781ZM84.2199 25.4361H84.7199V24.055L83.8358 25.116L84.2199 25.4361ZM83.9153 25.5884L84.0501 26.0699L84.0563 26.0681L83.9153 25.5884ZM83.3797 25.7038L83.4558 26.1981L83.4619 26.197L83.3797 25.7038ZM82.7935 25.7869L82.8505 26.2837L82.8574 26.2828L82.7935 25.7869ZM82.3364 25.8423L82.4011 26.3381L82.4016 26.3381L82.3364 25.8423ZM81.5424 26.0224L81.6987 26.4973L81.7023 26.4961L81.5424 26.0224ZM80.9515 26.3871L80.5843 26.0476L80.5841 26.0479L80.9515 26.3871ZM81.15 27.9013L80.8654 28.3124L80.8706 28.3159L81.15 27.9013ZM82.0594 28.6662C81.6742 28.6662 81.3392 28.594 81.0458 28.4584L80.6263 29.3662C81.0654 29.5691 81.5459 29.6662 82.0594 29.6662V28.6662ZM81.049 28.4599C80.7615 28.3246 80.5423 28.1358 80.3796 27.8917L79.5475 28.4464C79.8157 28.8486 80.1782 29.1553 80.6232 29.3647L81.049 28.4599ZM80.3808 27.8935C80.2285 27.6629 80.1404 27.3689 80.1404 26.9872H79.1404C79.1404 27.5288 79.2677 28.0227 79.5463 28.4446L80.3808 27.8935ZM80.1404 26.9872C80.1404 26.6428 80.2086 26.4154 80.3027 26.2671L79.4582 25.7315C79.2322 26.0879 79.1404 26.5192 79.1404 26.9872H80.1404ZM80.3042 26.2647C80.4178 26.0833 80.5673 25.943 80.7598 25.8391L80.2845 24.9592C79.9414 25.1446 79.6631 25.4044 79.4567 25.7338L80.3042 26.2647ZM80.7598 25.8391C80.9831 25.7184 81.234 25.6261 81.5155 25.5644L81.3015 24.5876C80.9367 24.6675 80.5967 24.7906 80.2845 24.9592L80.7598 25.8391ZM81.5189 25.5637C81.8302 25.4932 82.1428 25.4374 82.4567 25.3963L82.3269 24.4048C81.9822 24.4499 81.6393 24.5111 81.2981 24.5883L81.5189 25.5637ZM82.4556 25.3965C82.8845 25.3413 83.2293 25.3004 83.4912 25.2733L83.3883 24.2786C83.1147 24.3069 82.7609 24.349 82.3281 24.4047L82.4556 25.3965ZM83.4962 25.2727C83.784 25.24 84.0651 25.1805 84.2799 25.057L83.7814 24.1901C83.75 24.2082 83.6372 24.2503 83.3833 24.2791L83.4962 25.2727ZM84.2753 25.0597C84.5952 24.8802 84.7199 24.5651 84.7199 24.2543H83.7199C83.7199 24.2834 83.7146 24.2755 83.7277 24.2501C83.7342 24.2373 83.7436 24.2237 83.7557 24.2114C83.7676 24.1992 83.7787 24.1916 83.786 24.1875L84.2753 25.0597ZM84.7199 24.2543V24.2173H83.7199V24.2543H84.7199ZM84.7199 24.2173C84.7199 23.6693 84.5677 23.1746 84.2017 22.8042L83.4903 23.5069C83.6229 23.6412 83.7199 23.8543 83.7199 24.2173H84.7199ZM84.2039 22.8064C83.8298 22.4229 83.3029 22.277 82.7242 22.277V23.277C83.1488 23.277 83.3698 23.3835 83.4881 23.5047L84.2039 22.8064ZM82.7242 22.277C82.1363 22.277 81.6072 22.4053 81.1956 22.7226L81.8061 23.5146C81.9854 23.3764 82.2718 23.277 82.7242 23.277V22.277ZM81.1956 22.7226C80.8555 22.9848 80.5868 23.2871 80.4241 23.6375L81.3311 24.0586C81.4085 23.8918 81.5553 23.7079 81.8061 23.5146L81.1956 22.7226ZM81.0458 23.3771L80.0117 23.0078L79.6754 23.9496L80.7094 24.3189L81.0458 23.3771ZM80.3031 23.6757C80.4612 23.3068 80.6606 23.0452 80.8897 22.8666L80.2746 22.078C79.8882 22.3795 79.5952 22.7889 79.3839 23.2817L80.3031 23.6757ZM80.8902 22.8661C81.1495 22.6633 81.4266 22.5258 81.7238 22.4483L81.4717 21.4806C81.0365 21.594 80.6365 21.795 80.2741 22.0785L80.8902 22.8661ZM81.7266 22.4476C82.0569 22.3595 82.3767 22.3168 82.6873 22.3168V21.3168C82.2838 21.3168 81.8773 21.3725 81.469 21.4814L81.7266 22.4476ZM82.6873 22.3168C82.8761 22.3168 83.1058 22.3399 83.3799 22.3913L83.5642 21.4084C83.2474 21.349 82.9539 21.3168 82.6873 21.3168V22.3168ZM83.3858 22.3924C83.62 22.4334 83.8502 22.5196 84.0781 22.6564L84.5926 21.7989C84.2665 21.6032 83.9212 21.471 83.5584 21.4074L83.3858 22.3924ZM84.0802 22.6576C84.271 22.7708 84.4451 22.95 84.5944 23.2212L85.4705 22.739C85.2504 22.3393 84.9598 22.0168 84.5905 21.7976L84.0802 22.6576ZM84.5944 23.2212C84.7237 23.4561 84.8094 23.8123 84.8094 24.3281H85.8094C85.8094 23.7175 85.7105 23.175 85.4705 22.739L84.5944 23.2212ZM84.8094 24.3281V29H85.8094V24.3281H84.8094ZM85.3094 28.5H84.2199V29.5H85.3094V28.5ZM84.7199 29V28.0398H83.7199V29H84.7199ZM84.2199 27.5398H84.1645V28.5398H84.2199V27.5398ZM83.7138 27.8234C83.6717 27.9111 83.5879 28.0314 83.4386 28.1833L84.1519 28.8841C84.3473 28.6853 84.5097 28.4762 84.6153 28.2561L83.7138 27.8234ZM83.4386 28.1833C83.322 28.3019 83.1517 28.4182 82.9098 28.5222L83.3049 29.4409C83.6355 29.2987 83.9237 29.1164 84.1519 28.8841L83.4386 28.1833ZM82.9098 28.5222C82.7027 28.6113 82.4248 28.6662 82.0594 28.6662V29.6662C82.5189 29.6662 82.9396 29.598 83.3049 29.4409L82.9098 28.5222ZM82.2256 28.6875C82.7209 28.6875 83.175 28.5901 83.5637 28.3674L83.0666 27.4998C82.8643 27.6156 82.5921 27.6875 82.2256 27.6875V28.6875ZM83.5617 28.3685C83.9299 28.1598 84.2243 27.8794 84.4248 27.5234L83.5535 27.0327C83.4523 27.2123 83.2974 27.3688 83.0685 27.4986L83.5617 28.3685ZM84.4226 27.5272C84.618 27.1872 84.7199 26.8202 84.7199 26.4332H83.7199C83.7199 26.6372 83.668 26.8334 83.5556 27.0289L84.4226 27.5272ZM84.7199 26.4332V25.4361H83.7199V26.4332H84.7199ZM83.8358 25.116C83.8573 25.0903 83.8758 25.076 83.8831 25.0708C83.8908 25.0652 83.8927 25.0649 83.8855 25.0685C83.8787 25.0719 83.8663 25.0775 83.847 25.0848C83.8279 25.0919 83.8038 25.1 83.7742 25.1087L84.0563 26.0681C84.152 26.04 84.2467 26.0059 84.3328 25.9629C84.4137 25.9225 84.5187 25.8585 84.6041 25.7562L83.8358 25.116ZM83.7804 25.1069C83.648 25.144 83.4877 25.1789 83.2975 25.2106L83.4619 26.197C83.678 26.161 83.8748 26.119 84.0501 26.0699L83.7804 25.1069ZM83.3037 25.2096C83.1075 25.2398 82.9161 25.267 82.7295 25.291L82.8574 26.2828C83.0525 26.2577 83.2519 26.2294 83.4558 26.198L83.3037 25.2096ZM82.7364 25.2902C82.5474 25.3119 82.392 25.3307 82.2712 25.3466L82.4016 26.3381C82.5147 26.3232 82.664 26.3051 82.8505 26.2837L82.7364 25.2902ZM82.2718 25.3465C81.9594 25.3873 81.6625 25.4541 81.3825 25.5486L81.7023 26.4961C81.9147 26.4244 82.1472 26.3712 82.4011 26.3381L82.2718 25.3465ZM81.3861 25.5474C81.0747 25.6499 80.801 25.8133 80.5843 26.0476L81.3186 26.7265C81.4035 26.6347 81.5238 26.5549 81.6987 26.4973L81.3861 25.5474ZM80.5841 26.0479C80.3298 26.3234 80.2299 26.6754 80.2299 27.0426H81.2299C81.2299 26.8559 81.2777 26.7708 81.3189 26.7262L80.5841 26.0479ZM80.2299 27.0426C80.2299 27.5639 80.4338 28.0136 80.8654 28.3124L81.4346 27.4902C81.3061 27.4012 81.2299 27.2784 81.2299 27.0426H80.2299ZM80.8706 28.3159C81.2561 28.5757 81.719 28.6875 82.2256 28.6875V27.6875C81.8643 27.6875 81.6102 27.6085 81.4294 27.4866L80.8706 28.3159ZM91.1618 21.9091H91.6618V21.4091H91.1618V21.9091ZM91.1618 22.8324V23.3324H91.6618V22.8324H91.1618ZM87.4871 22.8324H86.9871V23.3324H87.4871V22.8324ZM87.4871 21.9091V21.4091H86.9871V21.9091H87.4871ZM88.5581 20.2102V19.7102H88.0581V20.2102H88.5581ZM89.6476 20.2102H90.1476V19.7102H89.6476V20.2102ZM89.7815 27.6612L89.3488 27.9122L89.355 27.9223L89.7815 27.6612ZM90.1323 27.9659L89.9589 28.4351L89.9712 28.4392L90.1323 27.9659ZM90.8848 28.0213L90.9638 28.515L90.9734 28.5135L90.9829 28.5116L90.8848 28.0213ZM91.0695 27.9844L91.5571 27.874L91.4495 27.3985L90.9714 27.4941L91.0695 27.9844ZM91.291 28.9631L91.4666 29.4312L91.875 29.2781L91.7787 28.8527L91.291 28.9631ZM90.9817 29.0462L90.8793 28.5566L90.8685 28.5592L90.9817 29.0462ZM89.5737 28.8938L89.3675 29.3493L89.3693 29.3501L89.5737 28.8938ZM88.8443 28.2891L88.4356 28.577L88.4378 28.5801L88.8443 28.2891ZM90.6618 21.9091V22.8324H91.6618V21.9091H90.6618ZM91.1618 22.3324H87.4871V23.3324H91.1618V22.3324ZM87.9871 22.8324V21.9091H86.9871V22.8324H87.9871ZM87.4871 22.4091H91.1618V21.4091H87.4871V22.4091ZM88.5581 20.7102H89.6476V19.7102H88.5581V20.7102ZM89.1476 20.2102V26.9688H90.1476V20.2102H89.1476ZM89.1476 26.9688C89.1476 27.3085 89.194 27.6449 89.3489 27.9121L90.214 27.4104C90.1905 27.3698 90.1476 27.2446 90.1476 26.9688H89.1476ZM89.355 27.9223C89.4955 28.1517 89.6947 28.3372 89.959 28.4349L90.3056 27.4969C90.2868 27.4899 90.2521 27.4723 90.2079 27.4001L89.355 27.9223ZM89.9712 28.4392C90.1701 28.507 90.3771 28.5398 90.5893 28.5398V27.5398C90.4815 27.5398 90.3838 27.5233 90.2934 27.4926L89.9712 28.4392ZM90.5893 28.5398C90.7233 28.5398 90.8507 28.5331 90.9638 28.515L90.8058 27.5276C90.765 27.5341 90.6954 27.5398 90.5893 27.5398V28.5398ZM90.9829 28.5116C91.0598 28.4962 91.1213 28.4839 91.1675 28.4747L90.9714 27.4941C90.9252 27.5033 90.8637 27.5156 90.7867 27.531L90.9829 28.5116ZM90.5818 28.0948L90.8034 29.0735L91.7787 28.8527L91.5571 27.874L90.5818 28.0948ZM91.1155 28.4949C91.0763 28.5096 91.0016 28.5312 90.8793 28.5568L91.0842 29.5356C91.2265 29.5058 91.358 29.472 91.4666 29.4312L91.1155 28.4949ZM90.8685 28.5592C90.7867 28.5782 90.6603 28.5923 90.4785 28.5923V29.5923C90.703 29.5923 90.9121 29.5757 91.095 29.5332L90.8685 28.5592ZM90.4785 28.5923C90.2449 28.5923 90.0127 28.5426 89.7781 28.4375L89.3693 29.3501C89.7257 29.5097 90.0967 29.5923 90.4785 29.5923V28.5923ZM89.7799 28.4383C89.5707 28.3436 89.3956 28.2002 89.2509 27.998L88.4378 28.5801C88.6808 28.9196 88.992 29.1793 89.3675 29.3493L89.7799 28.4383ZM89.2531 28.0011C89.1348 27.8332 89.0581 27.599 89.0581 27.2642H88.0581C88.0581 27.7542 88.1722 28.2032 88.4356 28.577L89.2531 28.0011ZM89.0581 27.2642V20.2102H88.0581V27.2642H89.0581ZM94.7001 28.6907L94.4322 29.1129L94.4334 29.1136L94.7001 28.6907ZM93.5737 27.4119L93.1245 27.6315L93.1255 27.6335L93.5737 27.4119ZM93.5737 23.5572L93.125 23.3366L93.124 23.3386L93.5737 23.5572ZM94.7001 22.2738L94.4334 21.8509L94.4322 21.8516L94.7001 22.2738ZM98.0655 22.2738L97.7976 22.696L97.7989 22.6967L98.0655 22.2738ZM99.192 23.5572L98.7423 23.7757L98.7433 23.7778L99.192 23.5572ZM99.192 27.4119L98.7437 27.1903L98.7428 27.1924L99.192 27.4119ZM98.0655 28.6907L97.7989 28.2678L97.7976 28.2685L98.0655 28.6907ZM97.5854 27.7951L97.2745 27.4035L97.2745 27.4035L97.5854 27.7951ZM98.2825 26.8118L98.7513 26.9858L98.7513 26.9858L98.2825 26.8118ZM98.2825 24.1665L98.7517 23.9937L98.7517 23.9937L98.2825 24.1665ZM97.5854 23.174L97.8987 22.7843L97.8987 22.7843L97.5854 23.174ZM95.1849 23.174L94.8716 22.7843L94.8716 22.7843L95.1849 23.174ZM94.4878 24.1665L94.0186 23.9937L94.0186 23.9937L94.4878 24.1665ZM94.4878 26.8118L94.019 26.9858L94.019 26.9858L94.4878 26.8118ZM95.1849 27.7951L95.4958 27.4035L95.4958 27.4035L95.1849 27.7951ZM96.3851 28.6477C95.8277 28.6477 95.3608 28.5162 94.9668 28.2678L94.4334 29.1136C95.0058 29.4746 95.6623 29.6477 96.3851 29.6477V28.6477ZM94.968 28.2685C94.5711 28.0166 94.2553 27.6624 94.0219 27.1903L93.1255 27.6335C93.4338 28.2571 93.869 28.7554 94.4322 29.1129L94.968 28.2685ZM94.0229 27.1924C93.7946 26.7253 93.6721 26.163 93.6721 25.4915H92.6721C92.6721 26.2849 92.8173 27.0029 93.1245 27.6315L94.0229 27.1924ZM93.6721 25.4915C93.6721 24.8132 93.7949 24.2459 94.0234 23.7757L93.124 23.3386C92.817 23.9702 92.6721 24.6925 92.6721 25.4915H93.6721ZM94.0224 23.7778C94.256 23.3026 94.5718 22.9474 94.968 22.696L94.4322 21.8516C93.8683 22.2095 93.4331 22.71 93.125 23.3366L94.0224 23.7778ZM94.9668 22.6967C95.3608 22.4483 95.8277 22.3168 96.3851 22.3168V21.3168C95.6623 21.3168 95.0058 21.4899 94.4334 21.8509L94.9668 22.6967ZM96.3851 22.3168C96.9427 22.3168 97.4074 22.4483 97.7976 22.696L98.3335 21.8516C97.7635 21.4899 97.1079 21.3168 96.3851 21.3168V22.3168ZM97.7989 22.6967C98.1974 22.9481 98.5122 23.3024 98.7423 23.7757L99.6417 23.3386C99.3362 22.7102 98.9 22.2089 98.3322 21.8509L97.7989 22.6967ZM98.7433 23.7778C98.9742 24.2475 99.0982 24.814 99.0982 25.4915H100.098C100.098 24.6917 99.9514 23.9687 99.6407 23.3366L98.7433 23.7778ZM99.0982 25.4915C99.0982 26.1622 98.9744 26.7238 98.7437 27.1903L99.6402 27.6335C99.9512 27.0044 100.098 26.2857 100.098 25.4915H99.0982ZM98.7428 27.1924C98.5129 27.6626 98.1982 28.016 97.7989 28.2678L98.3322 29.1136C98.8993 28.756 99.3355 28.2569 99.6412 27.6315L98.7428 27.1924ZM97.7976 28.2685C97.4074 28.5162 96.9427 28.6477 96.3851 28.6477V29.6477C97.1079 29.6477 97.7635 29.4746 98.3335 29.1129L97.7976 28.2685ZM96.3851 28.669C96.9595 28.669 97.4764 28.5202 97.8964 28.1867L97.2745 27.4035C97.0667 27.5686 96.7833 27.669 96.3851 27.669V28.669ZM97.8964 28.1867C98.2875 27.876 98.5714 27.4704 98.7513 26.9858L97.8138 26.6378C97.6921 26.9657 97.5112 27.2156 97.2745 27.4035L97.8964 28.1867ZM98.7513 26.9858C98.9246 26.5189 99.0087 26.0193 99.0087 25.4915H98.0087C98.0087 25.9116 97.9421 26.2922 97.8138 26.6378L98.7513 26.9858ZM99.0087 25.4915C99.0087 24.9636 98.9246 24.463 98.7517 23.9937L97.8133 24.3394C97.9421 24.6888 98.0087 25.0714 98.0087 25.4915H99.0087ZM98.7517 23.9937C98.5722 23.5066 98.2891 23.0982 97.8987 22.7843L97.2722 23.5637C97.5096 23.7546 97.6912 24.0078 97.8133 24.3394L98.7517 23.9937ZM97.8987 22.7843C97.4786 22.4466 96.9609 22.2955 96.3851 22.2955V23.2955C96.7819 23.2955 97.0644 23.3967 97.2722 23.5637L97.8987 22.7843ZM96.3851 22.2955C95.8094 22.2955 95.2917 22.4466 94.8716 22.7843L95.4981 23.5637C95.7059 23.3967 95.9884 23.2955 96.3851 23.2955V22.2955ZM94.8716 22.7843C94.4812 23.0982 94.1981 23.5066 94.0186 23.9937L94.9569 24.3394C95.0791 24.0078 95.2607 23.7546 95.4981 23.5637L94.8716 22.7843ZM94.0186 23.9937C93.8457 24.463 93.7616 24.9636 93.7616 25.4915H94.7616C94.7616 25.0714 94.8282 24.6888 94.9569 24.3394L94.0186 23.9937ZM93.7616 25.4915C93.7616 26.0193 93.8457 26.5189 94.019 26.9858L94.9565 26.6378C94.8282 26.2922 94.7616 25.9116 94.7616 25.4915H93.7616ZM94.019 26.9858C94.1989 27.4704 94.4828 27.876 94.8739 28.1867L95.4958 27.4035C95.2591 27.2156 95.0782 26.9657 94.9565 26.6378L94.019 26.9858ZM94.8739 28.1867C95.2939 28.5202 95.8108 28.669 96.3851 28.669V27.669C95.987 27.669 95.7036 27.5686 95.4958 27.4035L94.8739 28.1867ZM102.041 29H101.541V29.5H102.041V29ZM102.041 21.9091V21.4091H101.541V21.9091H102.041ZM103.094 21.9091H103.594V21.4091H103.094V21.9091ZM103.094 22.9801H102.594V23.4801H103.094V22.9801ZM103.168 22.9801V23.4801H103.516L103.637 23.153L103.168 22.9801ZM103.869 22.1261L103.598 21.706L103.598 21.706L103.869 22.1261ZM105.587 21.8168H106.087V21.3643L105.637 21.3192L105.587 21.8168ZM105.587 22.9247L105.465 23.4098L106.087 23.5651V22.9247H105.587ZM105.333 22.8832L105.251 23.3765L105.264 23.3784L105.333 22.8832ZM103.999 23.0678L104.232 23.5098L104.234 23.5089L103.999 23.0678ZM103.362 23.6587L102.937 23.3947L102.936 23.3961L103.362 23.6587ZM103.131 29V29.5H103.631V29H103.131ZM102.541 29V21.9091H101.541V29H102.541ZM102.041 22.4091H103.094V21.4091H102.041V22.4091ZM102.594 21.9091V22.9801H103.594V21.9091H102.594ZM103.094 23.4801H103.168V22.4801H103.094V23.4801ZM103.637 23.153C103.726 22.9119 103.886 22.7107 104.141 22.5462L103.598 21.706C103.176 21.9784 102.868 22.3466 102.699 22.8073L103.637 23.153ZM104.141 22.5462C104.394 22.3827 104.68 22.2983 105.014 22.2983V21.2983C104.499 21.2983 104.022 21.4324 103.598 21.706L104.141 22.5462ZM105.014 22.2983C105.089 22.2983 105.184 22.2997 105.302 22.3027L105.327 21.3031C105.205 21.2999 105.1 21.2983 105.014 21.2983V22.2983ZM105.302 22.3027C105.418 22.3057 105.494 22.31 105.537 22.3143L105.637 21.3192C105.556 21.3112 105.45 21.3062 105.327 21.3031L105.302 22.3027ZM105.087 21.8168V22.9247H106.087V21.8168H105.087ZM105.708 22.4396C105.64 22.4227 105.527 22.4054 105.402 22.388L105.264 23.3784C105.328 23.3873 105.378 23.3948 105.415 23.4008C105.456 23.4076 105.469 23.4106 105.465 23.4098L105.708 22.4396ZM105.415 22.39C105.256 22.3635 105.091 22.3509 104.922 22.3509V23.3509C105.042 23.3509 105.151 23.3598 105.251 23.3764L105.415 22.39ZM104.922 22.3509C104.505 22.3509 104.115 22.4389 103.763 22.6268L104.234 23.5089C104.424 23.4075 104.649 23.3509 104.922 23.3509V22.3509ZM103.765 22.6258C103.421 22.8079 103.142 23.0656 102.937 23.3947L103.786 23.9228C103.895 23.7471 104.041 23.6109 104.232 23.5098L103.765 22.6258ZM102.936 23.3961C102.729 23.7316 102.631 24.1088 102.631 24.5128H103.631C103.631 24.2766 103.686 24.0845 103.787 23.9214L102.936 23.3961ZM102.631 24.5128V29H103.631V24.5128H102.631ZM103.131 28.5H102.041V29.5H103.131V28.5Z" fill="white"/>
<path d="M21.25 9.5H19C10.9919 9.5 4.5 15.9919 4.5 24C4.5 32.0081 10.9919 38.5 19 38.5H21.25C29.2581 38.5 35.75 32.0081 35.75 24C35.75 15.9919 29.2581 9.5 21.25 9.5Z" fill="white"/>
<g clip-path="url(#clip1_1_236)">
<path d="M15.0104 16H25.9896C26.385 15.9996 26.7766 16.0746 27.142 16.2205C27.5074 16.3664 27.8395 16.5804 28.1191 16.8503C28.3987 17.1203 28.6204 17.4408 28.7716 17.7935C28.9227 18.1462 29.0003 18.5243 29 18.906V29.094C29.0003 29.4757 28.9227 29.8538 28.7716 30.2065C28.6204 30.5593 28.3987 30.8797 28.1191 31.1497C27.8395 31.4196 27.5074 31.6336 27.142 31.7795C26.7766 31.9254 26.385 32.0004 25.9896 32H15.0104C14.6149 32.0004 14.2233 31.9254 13.8579 31.7795C13.4925 31.6336 13.1605 31.4196 12.8809 31.1497C12.6013 30.8797 12.3795 30.5593 12.2284 30.2065C12.0772 29.8538 11.9996 29.4757 12 29.094V18.906C11.9996 18.5243 12.0772 18.1462 12.2284 17.7935C12.3795 17.4408 12.6013 17.1203 12.8809 16.8503C13.1605 16.5804 13.4925 16.3664 13.8579 16.2205C14.2233 16.0746 14.6149 15.9996 15.0104 16V16Z" fill="#330000"/>
<path d="M20.2379 25.6H17.6029L17.0646 27.2069C17.0586 27.2362 17.0414 27.2622 17.0165 27.2799C16.9916 27.2976 16.9608 27.3057 16.93 27.3026H15.5983C15.5204 27.3026 15.4992 27.2616 15.5204 27.1795L17.8013 20.8411C17.8225 20.7727 17.8438 20.6975 17.8721 20.6154C17.9006 20.4689 17.9148 20.3201 17.9146 20.171C17.9125 20.1539 17.9171 20.1366 17.9276 20.1226C17.9381 20.1087 17.9537 20.0991 17.9713 20.0958H19.8058C19.8625 20.0958 19.8908 20.1163 19.8979 20.1505L22.4833 27.1932C22.5046 27.2684 22.4833 27.3026 22.4125 27.3026H20.9321C20.9071 27.3049 20.882 27.2987 20.8612 27.2849C20.8405 27.2712 20.8255 27.2508 20.8188 27.2274L20.2379 25.6ZM18.0138 24.212H19.8129C19.7704 24.0684 19.7138 23.8975 19.65 23.7197C19.5863 23.5419 19.5225 23.3368 19.4588 23.1317C19.395 22.9265 19.3242 22.7146 19.2533 22.5026C19.1825 22.2906 19.1188 22.0923 19.0621 21.8941C19.0054 21.6958 18.9558 21.5248 18.9063 21.3607H18.8921C18.8284 21.6587 18.748 21.9532 18.6513 22.2428C18.545 22.571 18.4388 22.9129 18.3254 23.2547C18.2263 23.6035 18.12 23.9248 18.0138 24.212V24.212Z" fill="#FF9A00"/>
<path d="M24.0275 21.265C23.9112 21.2674 23.7956 21.2475 23.6874 21.2064C23.5792 21.1654 23.4805 21.1039 23.3971 21.0257C23.2348 20.8544 23.1484 20.6286 23.1563 20.3966C23.1521 20.2836 23.1726 20.1709 23.2166 20.0661C23.2605 19.9612 23.3268 19.8665 23.4113 19.788C23.5815 19.6327 23.8074 19.547 24.0417 19.5487C24.3179 19.5487 24.5304 19.6308 24.6863 19.788C24.8432 19.9538 24.927 20.1721 24.92 20.3966C24.9243 20.5121 24.9046 20.6273 24.862 20.7354C24.8195 20.8434 24.7549 20.9421 24.6721 21.0257C24.5886 21.1077 24.4879 21.1716 24.3767 21.2128C24.2655 21.2541 24.1464 21.2719 24.0275 21.265V21.265ZM23.2342 27.2V21.9351C23.2342 21.8667 23.2625 21.8393 23.3263 21.8393H24.7288C24.7925 21.8393 24.8208 21.8735 24.8208 21.9351V27.2C24.8208 27.2752 24.7925 27.3094 24.7288 27.3094H23.3404C23.3255 27.3106 23.3106 27.3085 23.2966 27.3033C23.2827 27.2982 23.2701 27.29 23.2599 27.2795C23.2497 27.269 23.2421 27.2564 23.2376 27.2426C23.2332 27.2288 23.232 27.2143 23.2342 27.2V27.2Z" fill="#FF9A00"/>
</g>
</g>
<defs>
<clipPath id="clip0_1_236">
<rect width="135" height="48" fill="white"/>
</clipPath>
<clipPath id="clip1_1_236">
<rect width="17" height="16" fill="white" transform="translate(12 16)"/>
</clipPath>
</defs>
</svg>
