<svg width="106" height="48" viewBox="0 0 106 48" fill="none" xmlns="http://www.w3.org/2000/svg">
<g clip-path="url(#clip0_1_130)">
<path d="M106 0H0V48H106V0Z" fill="#000B1D"/>
<path d="M21.25 9.5H19C10.9919 9.5 4.5 15.9919 4.5 24C4.5 32.0081 10.9919 38.5 19 38.5H21.25C29.2581 38.5 35.75 32.0081 35.75 24C35.75 15.9919 29.2581 9.5 21.25 9.5Z" fill="white"/>
<g clip-path="url(#clip1_1_130)">
<path d="M14.8333 16H25.1666C25.5388 15.9996 25.9074 16.0745 26.2513 16.2204C26.5952 16.3664 26.9077 16.5804 27.1709 16.8503C27.4341 17.1202 27.6427 17.4407 27.785 17.7935C27.9273 18.1462 28.0003 18.5242 28 18.906V29.094C28.0003 29.4757 27.9273 29.8538 27.785 30.2065C27.6427 30.5592 27.4341 30.8797 27.1709 31.1496C26.9077 31.4195 26.5952 31.6336 26.2513 31.7795C25.9074 31.9254 25.5388 32.0003 25.1666 32H14.8333C14.4611 32.0003 14.0925 31.9254 13.7486 31.7795C13.4047 31.6336 13.0922 31.4195 12.8291 31.1496C12.5659 30.8797 12.3572 30.5592 12.2149 30.2065C12.0727 29.8538 11.9996 29.4757 12 29.094V18.906C11.9996 18.5242 12.0727 18.1462 12.2149 17.7935C12.3572 17.4407 12.5659 17.1202 12.8291 16.8503C13.0922 16.5804 13.4047 16.3664 13.7486 16.2204C14.0925 16.0745 14.4611 15.9996 14.8333 16V16Z" fill="#000B1D"/>
<path d="M18.3333 29.1282C19.2538 29.1282 20 28.3629 20 27.4188V25.7094H18.3333C17.4128 25.7094 16.6667 26.4747 16.6667 27.4188C16.6667 28.3629 17.4128 29.1282 18.3333 29.1282Z" fill="#0ACF83"/>
<path d="M16.6667 24C16.6667 23.0559 17.4128 22.2906 18.3333 22.2906H20V25.7094H18.3333C17.4128 25.7094 16.6667 24.9441 16.6667 24Z" fill="#A259FF"/>
<path d="M16.6667 20.5812C16.6667 19.6371 17.4128 18.8718 18.3333 18.8718H20V22.2906H18.3333C17.4128 22.2906 16.6667 21.5253 16.6667 20.5812Z" fill="#F24E1E"/>
<path d="M20 18.8718H21.6667C22.5871 18.8718 23.3333 19.6371 23.3333 20.5812C23.3333 21.5253 22.5871 22.2906 21.6667 22.2906H20V18.8718Z" fill="#FF7262"/>
<path d="M23.3333 24C23.3333 24.9441 22.5871 25.7094 21.6667 25.7094C20.7462 25.7094 20 24.9441 20 24C20 23.0559 20.7462 22.2906 21.6667 22.2906C22.5871 22.2906 23.3333 23.0559 23.3333 24Z" fill="#1ABCFE"/>
</g>
<path d="M41.1449 29V19.5455H46.8139V20.5611H42.2898V23.7557H46.3892V24.7713H42.2898V29H41.1449ZM49.407 29V21.9091H50.4965V29H49.407ZM49.961 20.7273C49.7487 20.7273 49.5655 20.6549 49.4117 20.5103C49.2609 20.3656 49.1855 20.1918 49.1855 19.9886C49.1855 19.7855 49.2609 19.6116 49.4117 19.467C49.5655 19.3223 49.7487 19.25 49.961 19.25C50.1734 19.25 50.355 19.3223 50.5058 19.467C50.6596 19.6116 50.7366 19.7855 50.7366 19.9886C50.7366 20.1918 50.6596 20.3656 50.5058 20.5103C50.355 20.6549 50.1734 20.7273 49.961 20.7273ZM56.1342 31.8068C55.6079 31.8068 55.1555 31.7391 54.777 31.6037C54.3984 31.4714 54.083 31.2959 53.8306 31.0774C53.5813 30.862 53.3828 30.6312 53.2351 30.3849L54.103 29.7756C54.2015 29.9048 54.3261 30.0526 54.4769 30.2188C54.6277 30.388 54.8339 30.5342 55.0955 30.6573C55.3602 30.7835 55.7064 30.8466 56.1342 30.8466C56.7067 30.8466 57.1791 30.7081 57.5515 30.4311C57.9239 30.1541 58.1101 29.7202 58.1101 29.1293V27.6889H58.0177C57.9377 27.8182 57.8238 27.9782 57.6761 28.169C57.5315 28.3568 57.3222 28.5245 57.0483 28.6722C56.7774 28.8169 56.4112 28.8892 55.9496 28.8892C55.3771 28.8892 54.8631 28.7538 54.4077 28.483C53.9552 28.2121 53.5967 27.8182 53.332 27.3011C53.0704 26.7841 52.9396 26.1562 52.9396 25.4176C52.9396 24.6913 53.0673 24.0588 53.3228 23.5202C53.5782 22.9786 53.9337 22.56 54.3892 22.2646C54.8447 21.966 55.371 21.8168 55.968 21.8168C56.4297 21.8168 56.7959 21.8937 57.0667 22.0476C57.3407 22.1984 57.5499 22.3707 57.6946 22.5646C57.8423 22.7554 57.9562 22.9124 58.0362 23.0355H58.147V21.9091H59.1996V29.2031C59.1996 29.8125 59.0611 30.308 58.7841 30.6896C58.5102 31.0743 58.1408 31.3559 57.6761 31.5344C57.2145 31.716 56.7005 31.8068 56.1342 31.8068ZM56.0973 27.9105C56.5343 27.9105 56.9036 27.8105 57.2052 27.6104C57.5069 27.4104 57.7361 27.1226 57.8931 26.7472C58.0501 26.3717 58.1285 25.9223 58.1285 25.3991C58.1285 24.8883 58.0516 24.4374 57.8977 24.0465C57.7438 23.6557 57.5161 23.3494 57.2145 23.1278C56.9129 22.9062 56.5405 22.7955 56.0973 22.7955C55.6356 22.7955 55.2509 22.9124 54.9432 23.1463C54.6385 23.3802 54.4092 23.6941 54.2553 24.0881C54.1045 24.482 54.0291 24.919 54.0291 25.3991C54.0291 25.8916 54.106 26.3271 54.2599 26.7056C54.4169 27.0811 54.6477 27.3765 54.9524 27.592C55.2602 27.8043 55.6418 27.9105 56.0973 27.9105ZM61.9739 29V21.9091H63.0264V23.017H63.1188C63.2665 22.6385 63.505 22.3446 63.8343 22.1353C64.1636 21.9229 64.5591 21.8168 65.0208 21.8168C65.4886 21.8168 65.8779 21.9229 66.1887 22.1353C66.5026 22.3446 66.7473 22.6385 66.9227 23.017H66.9966C67.1782 22.6508 67.4506 22.36 67.8137 22.1445C68.1769 21.926 68.6124 21.8168 69.1202 21.8168C69.7542 21.8168 70.2728 22.0153 70.6759 22.4123C71.0791 22.8062 71.2807 23.4202 71.2807 24.2543V29H70.1912V24.2543C70.1912 23.7311 70.0481 23.3571 69.7619 23.1325C69.4757 22.9078 69.1387 22.7955 68.7509 22.7955C68.2523 22.7955 67.866 22.9463 67.5921 23.2479C67.3182 23.5464 67.1813 23.925 67.1813 24.3835V29H66.0733V24.1435C66.0733 23.7403 65.9425 23.4156 65.6809 23.1694C65.4193 22.9201 65.0823 22.7955 64.6699 22.7955C64.3868 22.7955 64.1221 22.8709 63.8759 23.0217C63.6327 23.1725 63.4358 23.3817 63.285 23.6495C63.1372 23.9142 63.0634 24.2204 63.0634 24.5682V29H61.9739ZM76.1394 29.1662C75.69 29.1662 75.2822 29.0816 74.916 28.9123C74.5497 28.7399 74.2589 28.4922 74.0435 28.169C73.828 27.8428 73.7203 27.4489 73.7203 26.9872C73.7203 26.581 73.8003 26.2517 73.9604 25.9993C74.1204 25.7438 74.3343 25.5438 74.6021 25.3991C74.8698 25.2545 75.1653 25.1468 75.4884 25.076C75.8147 25.0021 76.1424 24.9437 76.4717 24.9006C76.9026 24.8452 77.2519 24.8036 77.5197 24.7759C77.7905 24.7451 77.9875 24.6944 78.1106 24.6236C78.2368 24.5528 78.2999 24.4297 78.2999 24.2543V24.2173C78.2999 23.7618 78.1752 23.4079 77.9259 23.1555C77.6797 22.9032 77.3058 22.777 76.8041 22.777C76.284 22.777 75.8762 22.8909 75.5808 23.1186C75.2853 23.3464 75.0776 23.5895 74.9575 23.848L73.9234 23.4787C74.1081 23.0478 74.3543 22.7124 74.6621 22.4723C74.9729 22.2292 75.3115 22.0599 75.6777 21.9645C76.047 21.866 76.4102 21.8168 76.7672 21.8168C76.9949 21.8168 77.2565 21.8445 77.552 21.8999C77.8505 21.9522 78.1383 22.0614 78.4153 22.2276C78.6953 22.3938 78.9277 22.6446 79.1124 22.9801C79.297 23.3156 79.3894 23.7649 79.3894 24.3281V29H78.2999V28.0398H78.2445C78.1706 28.1937 78.0475 28.3583 77.8751 28.5337C77.7028 28.7092 77.4735 28.8584 77.1873 28.9815C76.9011 29.1046 76.5518 29.1662 76.1394 29.1662ZM76.3055 28.1875C76.7364 28.1875 77.0996 28.1029 77.395 27.9336C77.6936 27.7643 77.9182 27.5458 78.069 27.2781C78.2229 27.0103 78.2999 26.7287 78.2999 26.4332V25.4361C78.2537 25.4915 78.1521 25.5423 77.9952 25.5884C77.8413 25.6315 77.6628 25.67 77.4597 25.7038C77.2596 25.7346 77.0642 25.7623 76.8734 25.7869C76.6856 25.8085 76.5333 25.8269 76.4163 25.8423C76.1332 25.8793 75.8685 25.9393 75.6223 26.0224C75.3792 26.1024 75.1822 26.224 75.0314 26.3871C74.8837 26.5471 74.8098 26.7656 74.8098 27.0426C74.8098 27.4212 74.9498 27.7074 75.2299 27.9013C75.5131 28.0921 75.8716 28.1875 76.3055 28.1875Z" fill="white"/>
<path d="M41.1449 29H40.6449V29.5H41.1449V29ZM41.1449 19.5455V19.0455H40.6449V19.5455H41.1449ZM46.8139 19.5455H47.3139V19.0455H46.8139V19.5455ZM46.8139 20.5611V21.0611H47.3139V20.5611H46.8139ZM42.2898 20.5611V20.0611H41.7898V20.5611H42.2898ZM42.2898 23.7557H41.7898V24.2557H42.2898V23.7557ZM46.3892 23.7557H46.8892V23.2557H46.3892V23.7557ZM46.3892 24.7713V25.2713H46.8892V24.7713H46.3892ZM42.2898 24.7713V24.2713H41.7898V24.7713H42.2898ZM42.2898 29V29.5H42.7898V29H42.2898ZM41.6449 29V19.5455H40.6449V29H41.6449ZM41.1449 20.0455H46.8139V19.0455H41.1449V20.0455ZM46.3139 19.5455V20.5611H47.3139V19.5455H46.3139ZM46.8139 20.0611H42.2898V21.0611H46.8139V20.0611ZM41.7898 20.5611V23.7557H42.7898V20.5611H41.7898ZM42.2898 24.2557H46.3892V23.2557H42.2898V24.2557ZM45.8892 23.7557V24.7713H46.8892V23.7557H45.8892ZM46.3892 24.2713H42.2898V25.2713H46.3892V24.2713ZM41.7898 24.7713V29H42.7898V24.7713H41.7898ZM42.2898 28.5H41.1449V29.5H42.2898V28.5ZM49.407 29H48.907V29.5H49.407V29ZM49.407 21.9091V21.4091H48.907V21.9091H49.407ZM50.4965 21.9091H50.9965V21.4091H50.4965V21.9091ZM50.4965 29V29.5H50.9965V29H50.4965ZM49.4117 20.5103L49.0655 20.8712L49.0692 20.8746L49.4117 20.5103ZM49.4117 19.467L49.0692 19.1026L49.0655 19.1061L49.4117 19.467ZM50.5058 19.467L50.1596 19.8278L50.1633 19.8313L50.5058 19.467ZM50.5058 20.5103L50.1633 20.146L50.1597 20.1495L50.5058 20.5103ZM49.907 29V21.9091H48.907V29H49.907ZM49.407 22.4091H50.4965V21.4091H49.407V22.4091ZM49.9965 21.9091V29H50.9965V21.9091H49.9965ZM50.4965 28.5H49.407V29.5H50.4965V28.5ZM49.961 20.2273C49.8751 20.2273 49.8147 20.2029 49.7541 20.146L49.0692 20.8746C49.3164 21.107 49.6222 21.2273 49.961 21.2273V20.2273ZM49.7578 20.1495C49.7021 20.0961 49.6855 20.0512 49.6855 19.9886H48.6855C48.6855 20.3323 48.8196 20.6352 49.0655 20.8711L49.7578 20.1495ZM49.6855 19.9886C49.6855 19.9261 49.7021 19.8812 49.7578 19.8278L49.0655 19.1061C48.8196 19.342 48.6855 19.6449 48.6855 19.9886H49.6855ZM49.7541 19.8313C49.8147 19.7743 49.8751 19.75 49.961 19.75V18.75C49.6222 18.75 49.3164 18.8703 49.0692 19.1027L49.7541 19.8313ZM49.961 19.75C50.0467 19.75 50.1036 19.7741 50.1597 19.8278L50.8519 19.1061C50.6063 18.8706 50.3 18.75 49.961 18.75V19.75ZM50.1633 19.8313C50.2212 19.8857 50.2366 19.9295 50.2366 19.9886H51.2366C51.2366 19.6415 51.0981 19.3376 50.8482 19.1027L50.1633 19.8313ZM50.2366 19.9886C50.2366 20.0477 50.2212 20.0916 50.1633 20.146L50.8482 20.8746C51.0981 20.6397 51.2366 20.3358 51.2366 19.9886H50.2366ZM50.1597 20.1495C50.1036 20.2032 50.0467 20.2273 49.961 20.2273V21.2273C50.3 21.2273 50.6063 21.1067 50.8519 20.8711L50.1597 20.1495ZM54.777 31.6037L54.9454 31.1329L54.942 31.1317L54.777 31.6037ZM53.8306 31.0774L54.1579 30.6994L54.1575 30.6991L53.8306 31.0774ZM53.2351 30.3849L52.9478 29.9757L52.5669 30.2431L52.8063 30.6422L53.2351 30.3849ZM54.103 29.7756L54.5007 29.4725L54.2092 29.09L53.8157 29.3664L54.103 29.7756ZM54.4769 30.2188L54.8502 29.8861L54.8472 29.8828L54.4769 30.2188ZM55.0955 30.6573L55.3107 30.206L55.3084 30.2049L55.0955 30.6573ZM57.5515 30.4311L57.8499 30.8323L57.8499 30.8323L57.5515 30.4311ZM58.1101 27.6889H58.6101V27.1889H58.1101V27.6889ZM58.0177 27.6889V27.1889H57.7392L57.5926 27.4257L58.0177 27.6889ZM57.6761 28.169L57.2808 27.8629L57.2801 27.8639L57.6761 28.169ZM57.0483 28.6722L57.2838 29.1133L57.2856 29.1123L57.0483 28.6722ZM54.4077 28.483L54.1508 28.912L54.1521 28.9127L54.4077 28.483ZM53.332 27.3011L52.8859 27.5269L52.8869 27.529L53.332 27.3011ZM53.3228 23.5202L53.7745 23.7345L53.775 23.7335L53.3228 23.5202ZM54.3892 22.2646L54.6613 22.684L54.6633 22.6827L54.3892 22.2646ZM57.0667 22.0476L56.8197 22.4824L56.8256 22.4856L57.0667 22.0476ZM57.6946 22.5646L57.2938 22.8637L57.2992 22.8707L57.6946 22.5646ZM58.0362 23.0355L57.617 23.308L57.7649 23.5355H58.0362V23.0355ZM58.147 23.0355V23.5355H58.647V23.0355H58.147ZM58.147 21.9091V21.4091H57.647V21.9091H58.147ZM59.1996 21.9091H59.6996V21.4091H59.1996V21.9091ZM58.7841 30.6896L58.3794 30.3959L58.3768 30.3996L58.7841 30.6896ZM57.6761 31.5344L57.4968 31.0677L57.4931 31.0691L57.6761 31.5344ZM57.2052 27.6104L56.9289 27.1938L56.9289 27.1938L57.2052 27.6104ZM57.8931 26.7472L58.3544 26.94L58.3544 26.94L57.8931 26.7472ZM57.8977 24.0465L58.363 23.8634L58.363 23.8634L57.8977 24.0465ZM57.2145 23.1278L56.9184 23.5308L56.9184 23.5308L57.2145 23.1278ZM54.9432 23.1463L54.6406 22.7482L54.6387 22.7497L54.9432 23.1463ZM54.2553 24.0881L53.7896 23.9061L53.7884 23.9093L54.2553 24.0881ZM54.2599 26.7056L53.7967 26.8939L53.7986 26.8985L54.2599 26.7056ZM54.9524 27.592L54.6637 28.0003L54.6684 28.0035L54.9524 27.592ZM56.1342 31.3068C55.6486 31.3068 55.2561 31.2441 54.9454 31.1329L54.6086 32.0745C55.055 32.2342 55.5673 32.3068 56.1342 32.3068V31.3068ZM54.942 31.1317C54.6113 31.0161 54.354 30.8692 54.1579 30.6994L53.5033 31.4554C53.8119 31.7226 54.1856 31.9266 54.612 32.0757L54.942 31.1317ZM54.1575 30.6991C53.9426 30.5133 53.7806 30.3223 53.6638 30.1277L52.8063 30.6422C52.985 30.9401 53.22 31.2106 53.5037 31.4557L54.1575 30.6991ZM53.5224 30.7941L54.3903 30.1848L53.8157 29.3664L52.9478 29.9757L53.5224 30.7941ZM53.7053 30.0786C53.815 30.2226 53.9495 30.3816 54.1066 30.5547L54.8472 29.8828C54.7027 29.7235 54.5879 29.5871 54.5007 29.4725L53.7053 30.0786ZM54.1036 30.5514C54.3097 30.7828 54.5761 30.9655 54.8826 31.1097L55.3084 30.2049C55.0917 30.1029 54.9457 29.9933 54.8502 29.8861L54.1036 30.5514ZM54.8803 31.1086C55.2358 31.2781 55.6635 31.3466 56.1342 31.3466V30.3466C55.7494 30.3466 55.4846 30.2889 55.3107 30.206L54.8803 31.1086ZM56.1342 31.3466C56.7886 31.3466 57.3728 31.1872 57.8499 30.8323L57.2531 30.0299C56.9854 30.229 56.6247 30.3466 56.1342 30.3466V31.3466ZM57.8499 30.8323C58.383 30.4357 58.6101 29.8306 58.6101 29.1293H57.6101C57.6101 29.6098 57.4647 29.8725 57.2531 30.0299L57.8499 30.8323ZM58.6101 29.1293V27.6889H57.6101V29.1293H58.6101ZM58.1101 27.1889H58.0177V28.1889H58.1101V27.1889ZM57.5926 27.4257C57.5255 27.5342 57.4232 27.6789 57.2808 27.8629L58.0715 28.4751C58.2245 28.2775 58.35 28.1021 58.4429 27.9521L57.5926 27.4257ZM57.2801 27.8639C57.1894 27.9815 57.0415 28.1078 56.8109 28.2322L57.2856 29.1123C57.6029 28.9412 57.8735 28.7321 58.0722 28.4742L57.2801 27.8639ZM56.8127 28.2312C56.6418 28.3225 56.3671 28.3892 55.9496 28.3892V29.3892C56.4553 29.3892 56.9131 29.3113 57.2838 29.1133L56.8127 28.2312ZM55.9496 28.3892C55.4596 28.3892 55.0352 28.2744 54.6632 28.0532L54.1521 28.9127C54.6911 29.2332 55.2946 29.3892 55.9496 29.3892V28.3892ZM54.6645 28.054C54.3005 27.836 54.0036 27.5157 53.7771 27.0733L52.8869 27.529C53.1898 28.1206 53.61 28.5882 54.1508 28.912L54.6645 28.054ZM53.7782 27.0754C53.5603 26.6449 53.4396 26.0988 53.4396 25.4176H52.4396C52.4396 26.2137 52.5805 26.9233 52.8859 27.5269L53.7782 27.0754ZM53.4396 25.4176C53.4396 24.7495 53.557 24.1931 53.7745 23.7345L52.871 23.306C52.5776 23.9245 52.4396 24.6331 52.4396 25.4176H53.4396ZM53.775 23.7335C53.995 23.267 54.2918 22.9237 54.6613 22.684L54.1171 21.8451C53.5756 22.1963 53.1615 22.6901 52.8705 23.307L53.775 23.7335ZM54.6633 22.6827C55.0295 22.4427 55.4586 22.3168 55.968 22.3168V21.3168C55.2833 21.3168 54.6598 21.4894 54.1151 21.8464L54.6633 22.6827ZM55.968 22.3168C56.3818 22.3168 56.6519 22.387 56.8197 22.4823L57.3138 21.6129C56.9399 21.4004 56.4775 21.3168 55.968 21.3168V22.3168ZM56.8256 22.4856C57.0546 22.6116 57.2024 22.7411 57.2938 22.8636L58.0953 22.2656C57.8975 22.0004 57.6268 21.7851 57.3079 21.6096L56.8256 22.4856ZM57.2992 22.8707C57.4431 23.0566 57.5477 23.2014 57.617 23.308L58.4554 22.763C58.3647 22.6235 58.2415 22.4543 58.0899 22.2585L57.2992 22.8707ZM58.0362 23.5355H58.147V22.5355H58.0362V23.5355ZM58.647 23.0355V21.9091H57.647V23.0355H58.647ZM58.147 22.4091H59.1996V21.4091H58.147V22.4091ZM58.6996 21.9091V29.2031H59.6996V21.9091H58.6996ZM58.6996 29.2031C58.6996 29.7378 58.5785 30.1217 58.3794 30.3959L59.1887 30.9833C59.5436 30.4943 59.6996 29.8872 59.6996 29.2031H58.6996ZM58.3768 30.3996C58.163 30.6998 57.8751 30.9224 57.4968 31.0677L57.8554 32.0012C58.4066 31.7895 58.8573 31.4488 59.1914 30.9796L58.3768 30.3996ZM57.4931 31.0691C57.0974 31.2248 56.6466 31.3068 56.1342 31.3068V32.3068C56.7544 32.3068 57.3315 32.2073 57.8591 31.9997L57.4931 31.0691ZM56.0973 28.4105C56.612 28.4105 57.0824 28.2919 57.4816 28.0271L56.9289 27.1938C56.7249 27.3291 56.4567 27.4105 56.0973 27.4105V28.4105ZM57.4816 28.0271C57.8757 27.7658 58.1642 27.395 58.3544 26.94L57.4318 26.5543C57.3081 26.8503 57.138 27.055 56.9289 27.1938L57.4816 28.0271ZM58.3544 26.94C58.5431 26.4887 58.6285 25.9705 58.6285 25.3991H57.6285C57.6285 25.8742 57.557 26.2547 57.4318 26.5543L58.3544 26.94ZM58.6285 25.3991C58.6285 24.8387 58.5442 24.3237 58.363 23.8634L57.4325 24.2297C57.559 24.5511 57.6285 24.9378 57.6285 25.3991H58.6285ZM58.363 23.8634C58.1789 23.3958 57.8972 23.009 57.5105 22.7249L56.9184 23.5308C57.135 23.6899 57.3088 23.9155 57.4325 24.2297L58.363 23.8634ZM57.5105 22.7249C57.1081 22.4293 56.6268 22.2955 56.0973 22.2955V23.2955C56.4542 23.2955 56.7176 23.3832 56.9184 23.5308L57.5105 22.7249ZM56.0973 22.2955C55.5483 22.2955 55.0513 22.4361 54.6406 22.7482L55.2457 23.5444C55.4505 23.3887 55.723 23.2955 56.0973 23.2955V22.2955ZM54.6387 22.7497C54.2545 23.0446 53.9732 23.4361 53.7896 23.9061L54.721 24.27C54.8452 23.9521 55.0225 23.7158 55.2476 23.5429L54.6387 22.7497ZM53.7884 23.9093C53.6129 24.3676 53.5291 24.8663 53.5291 25.3991H54.5291C54.5291 24.9718 54.5961 24.5964 54.7223 24.2668L53.7884 23.9093ZM53.5291 25.3991C53.5291 25.9432 53.6141 26.4446 53.7967 26.8939L54.7231 26.5173C54.598 26.2095 54.5291 25.8399 54.5291 25.3991H53.5291ZM53.7986 26.8985C53.9884 27.3524 54.2755 27.7257 54.6637 28.0002L55.2411 27.1837C55.0199 27.0273 54.8454 26.8098 54.7212 26.5128L53.7986 26.8985ZM54.6684 28.0035C55.0764 28.285 55.5628 28.4105 56.0973 28.4105V27.4105C55.7208 27.4105 55.4439 27.3236 55.2364 27.1804L54.6684 28.0035ZM61.9739 29H61.4739V29.5H61.9739V29ZM61.9739 21.9091V21.4091H61.4739V21.9091H61.9739ZM63.0264 21.9091H63.5264V21.4091H63.0264V21.9091ZM63.0264 23.017H62.5264V23.517H63.0264V23.017ZM63.1188 23.017V23.517H63.4604L63.5846 23.1988L63.1188 23.017ZM63.8343 22.1353L64.1025 22.5573L64.1053 22.5555L63.8343 22.1353ZM66.1887 22.1353L65.9067 22.5482L65.9114 22.5513L66.1887 22.1353ZM66.9227 23.017L66.4691 23.2273L66.6034 23.517H66.9227V23.017ZM66.9966 23.017V23.517H67.3068L67.4446 23.2391L66.9966 23.017ZM67.8137 22.1445L68.0688 22.5746L68.0715 22.573L67.8137 22.1445ZM70.6759 22.4123L70.3251 22.7686L70.3265 22.7699L70.6759 22.4123ZM71.2807 29V29.5H71.7807V29H71.2807ZM70.1912 29H69.6912V29.5H70.1912V29ZM69.7619 23.1325L69.4532 23.5258L69.4532 23.5258L69.7619 23.1325ZM67.5921 23.2479L67.9606 23.5859L67.9623 23.584L67.5921 23.2479ZM67.1813 29V29.5H67.6813V29H67.1813ZM66.0733 29H65.5733V29.5H66.0733V29ZM65.6809 23.1694L65.336 23.5314L65.3382 23.5335L65.6809 23.1694ZM63.8759 23.0217L63.6147 22.5953L63.6123 22.5968L63.8759 23.0217ZM63.285 23.6495L62.8493 23.4041L62.8484 23.4058L63.285 23.6495ZM63.0634 29V29.5H63.5634V29H63.0634ZM62.4739 29V21.9091H61.4739V29H62.4739ZM61.9739 22.4091H63.0264V21.4091H61.9739V22.4091ZM62.5264 21.9091V23.017H63.5264V21.9091H62.5264ZM63.0264 23.517H63.1188V22.517H63.0264V23.517ZM63.5846 23.1988C63.6953 22.9149 63.8668 22.7071 64.1025 22.5573L63.5661 21.7133C63.1432 21.9821 62.8376 22.3621 62.653 22.8353L63.5846 23.1988ZM64.1053 22.5555C64.3403 22.4039 64.6378 22.3168 65.0208 22.3168V21.3168C64.4804 21.3168 63.9869 21.4419 63.5633 21.7151L64.1053 22.5555ZM65.0208 22.3168C65.4125 22.3168 65.6971 22.405 65.9067 22.5482L66.4708 21.7224C66.0586 21.4409 65.5646 21.3168 65.0208 21.3168V22.3168ZM65.9114 22.5513C66.1408 22.7042 66.3281 22.9231 66.4691 23.2273L67.3764 22.8068C67.1665 22.3539 66.8645 21.9849 66.4661 21.7193L65.9114 22.5513ZM66.9227 23.517H66.9966V22.517H66.9227V23.517ZM67.4446 23.2391C67.5818 22.9623 67.7858 22.7425 68.0688 22.5746L67.5586 21.7145C67.1153 21.9775 66.7746 22.3393 66.5486 22.7949L67.4446 23.2391ZM68.0715 22.573C68.3427 22.4098 68.6851 22.3168 69.1202 22.3168V21.3168C68.5396 21.3168 68.0111 21.4422 67.5559 21.7161L68.0715 22.573ZM69.1202 22.3168C69.6401 22.3168 70.0271 22.4751 70.3251 22.7685L71.0268 22.056C70.5184 21.5555 69.8682 21.3168 69.1202 21.3168V22.3168ZM70.3265 22.7699C70.5955 23.0327 70.7807 23.4905 70.7807 24.2543H71.7807C71.7807 23.35 71.5628 22.5798 71.0254 22.0547L70.3265 22.7699ZM70.7807 24.2543V29H71.7807V24.2543H70.7807ZM71.2807 28.5H70.1912V29.5H71.2807V28.5ZM70.6912 29V24.2543H69.6912V29H70.6912ZM70.6912 24.2543C70.6912 23.6478 70.5238 23.0949 70.0706 22.7392L69.4532 23.5258C69.5724 23.6194 69.6912 23.8143 69.6912 24.2543H70.6912ZM70.0706 22.7392C69.6903 22.4406 69.2427 22.2955 68.7509 22.2955V23.2955C69.0346 23.2955 69.261 23.3749 69.4532 23.5258L70.0706 22.7392ZM68.7509 22.2955C68.1454 22.2955 67.6114 22.483 67.222 22.9117L67.9623 23.584C68.1207 23.4096 68.3592 23.2955 68.7509 23.2955V22.2955ZM67.2237 22.9098C66.8539 23.3129 66.6813 23.8175 66.6813 24.3835H67.6813C67.6813 24.0324 67.7825 23.7799 67.9606 23.5859L67.2237 22.9098ZM66.6813 24.3835V29H67.6813V24.3835H66.6813ZM67.1813 28.5H66.0733V29.5H67.1813V28.5ZM66.5733 29V24.1435H65.5733V29H66.5733ZM66.5733 24.1435C66.5733 23.621 66.3984 23.158 66.0236 22.8053L65.3382 23.5335C65.4867 23.6732 65.5733 23.8596 65.5733 24.1435H66.5733ZM66.0258 22.8074C65.658 22.4569 65.1912 22.2955 64.6699 22.2955V23.2955C64.9734 23.2955 65.1806 23.3833 65.336 23.5314L66.0258 22.8074ZM64.6699 22.2955C64.2927 22.2955 63.9379 22.3973 63.6147 22.5953L64.137 23.448C64.3063 23.3444 64.4808 23.2955 64.6699 23.2955V22.2955ZM63.6123 22.5968C63.2923 22.7952 63.0383 23.0686 62.8493 23.4041L63.7206 23.8949C63.8332 23.6949 63.9731 23.5497 64.1394 23.4466L63.6123 22.5968ZM62.8484 23.4058C62.6533 23.7554 62.5634 24.1478 62.5634 24.5682H63.5634C63.5634 24.293 63.6212 24.073 63.7216 23.8932L62.8484 23.4058ZM62.5634 24.5682V29H63.5634V24.5682H62.5634ZM63.0634 28.5H61.9739V29.5H63.0634V28.5ZM74.916 28.9123L74.7031 29.3647L74.7062 29.3662L74.916 28.9123ZM74.0435 28.169L73.6262 28.4446L73.6274 28.4464L74.0435 28.169ZM73.9604 25.9993L74.3826 26.2671L74.3841 26.2647L73.9604 25.9993ZM75.4884 25.076L75.5954 25.5644L75.5988 25.5637L75.4884 25.076ZM76.4717 24.9006L76.408 24.4046L76.4069 24.4048L76.4717 24.9006ZM77.5197 24.7759L77.5711 25.2733L77.5761 25.2727L77.5197 24.7759ZM78.1106 24.6236L77.8659 24.1875L77.8614 24.1901L78.1106 24.6236ZM77.9259 23.1555L77.568 23.5047L77.5702 23.5069L77.9259 23.1555ZM75.5808 23.1186L75.886 23.5146L75.886 23.5146L75.5808 23.1186ZM74.9575 23.848L74.7894 24.3189L75.2189 24.4723L75.411 24.0586L74.9575 23.848ZM73.9234 23.4787L73.4639 23.2817L73.2543 23.7707L73.7553 23.9496L73.9234 23.4787ZM74.6621 22.4723L74.9696 22.8666L74.9701 22.8661L74.6621 22.4723ZM75.6777 21.9645L75.8038 22.4483L75.8065 22.4476L75.6777 21.9645ZM77.552 21.8999L77.4598 22.3913L77.4657 22.3924L77.552 21.8999ZM78.4153 22.2276L78.158 22.6564L78.1601 22.6576L78.4153 22.2276ZM79.1124 22.9801L78.6743 23.2212L78.6743 23.2212L79.1124 22.9801ZM79.3894 29V29.5H79.8894V29H79.3894ZM78.2999 29H77.7999V29.5H78.2999V29ZM78.2999 28.0398H78.7999V27.5398H78.2999V28.0398ZM78.2445 28.0398V27.5398H77.9298L77.7937 27.8234L78.2445 28.0398ZM77.8751 28.5337L78.2318 28.8841L78.2318 28.8841L77.8751 28.5337ZM77.1873 28.9815L76.9897 28.5222L77.1873 28.9815ZM77.395 27.9336L77.1484 27.4986L77.1465 27.4998L77.395 27.9336ZM78.069 27.2781L77.6355 27.0289L77.6334 27.0327L78.069 27.2781ZM78.2999 25.4361H78.7999V24.055L77.9158 25.116L78.2999 25.4361ZM77.9952 25.5884L78.13 26.0699L78.1363 26.0681L77.9952 25.5884ZM77.4597 25.7038L77.5357 26.1981L77.5419 26.197L77.4597 25.7038ZM76.8734 25.7869L76.9304 26.2837L76.9374 26.2828L76.8734 25.7869ZM76.4163 25.8423L76.481 26.3381L76.4816 26.3381L76.4163 25.8423ZM75.6223 26.0224L75.7786 26.4973L75.7822 26.4961L75.6223 26.0224ZM75.0314 26.3871L74.6643 26.0476L74.664 26.0479L75.0314 26.3871ZM75.2299 27.9013L74.9453 28.3124L74.9505 28.3159L75.2299 27.9013ZM76.1394 28.6662C75.7542 28.6662 75.4191 28.594 75.1258 28.4584L74.7062 29.3662C75.1453 29.5691 75.6259 29.6662 76.1394 29.6662V28.6662ZM75.1289 28.4599C74.8414 28.3246 74.6222 28.1358 74.4595 27.8917L73.6274 28.4464C73.8956 28.8486 74.2581 29.1553 74.7031 29.3647L75.1289 28.4599ZM74.4607 27.8935C74.3084 27.6629 74.2203 27.3689 74.2203 26.9872H73.2203C73.2203 27.5288 73.3477 28.0227 73.6262 28.4446L74.4607 27.8935ZM74.2203 26.9872C74.2203 26.6428 74.2886 26.4154 74.3826 26.2671L73.5381 25.7315C73.3121 26.0879 73.2203 26.5192 73.2203 26.9872H74.2203ZM74.3841 26.2647C74.4978 26.0833 74.6473 25.943 74.8397 25.8391L74.3644 24.9592C74.0214 25.1446 73.7431 25.4044 73.5367 25.7338L74.3841 26.2647ZM74.8397 25.8391C75.063 25.7184 75.3139 25.6261 75.5954 25.5644L75.3814 24.5876C75.0166 24.6675 74.6766 24.7906 74.3644 24.9592L74.8397 25.8391ZM75.5988 25.5637C75.9101 25.4932 76.2227 25.4374 76.5366 25.3963L76.4069 24.4048C76.0622 24.4499 75.7192 24.5111 75.378 24.5883L75.5988 25.5637ZM76.5355 25.3965C76.9644 25.3413 77.3092 25.3004 77.5711 25.2733L77.4682 24.2786C77.1947 24.3069 76.8408 24.349 76.408 24.4047L76.5355 25.3965ZM77.5761 25.2727C77.8639 25.24 78.1451 25.1805 78.3598 25.057L77.8614 24.1901C77.8299 24.2082 77.7171 24.2503 77.4632 24.2791L77.5761 25.2727ZM78.3552 25.0597C78.6751 24.8802 78.7999 24.5651 78.7999 24.2543H77.7999C77.7999 24.2834 77.7946 24.2755 77.8076 24.2501C77.8141 24.2373 77.8236 24.2237 77.8356 24.2114C77.8475 24.1992 77.8587 24.1916 77.866 24.1875L78.3552 25.0597ZM78.7999 24.2543V24.2173H77.7999V24.2543H78.7999ZM78.7999 24.2173C78.7999 23.6693 78.6476 23.1746 78.2816 22.8042L77.5702 23.5069C77.7028 23.6412 77.7999 23.8543 77.7999 24.2173H78.7999ZM78.2838 22.8064C77.9097 22.4229 77.3828 22.277 76.8041 22.277V23.277C77.2287 23.277 77.4498 23.3835 77.568 23.5047L78.2838 22.8064ZM76.8041 22.277C76.2163 22.277 75.6871 22.4053 75.2755 22.7226L75.886 23.5146C76.0653 23.3764 76.3518 23.277 76.8041 23.277V22.277ZM75.2755 22.7226C74.9354 22.9848 74.6667 23.2871 74.504 23.6375L75.411 24.0586C75.4884 23.8918 75.6352 23.7079 75.886 23.5146L75.2755 22.7226ZM75.1257 23.3771L74.0916 23.0078L73.7553 23.9496L74.7894 24.3189L75.1257 23.3771ZM74.383 23.6757C74.5411 23.3068 74.7405 23.0452 74.9696 22.8666L74.3546 22.078C73.9681 22.3795 73.6751 22.7889 73.4639 23.2817L74.383 23.6757ZM74.9701 22.8661C75.2294 22.6633 75.5065 22.5258 75.8038 22.4483L75.5517 21.4806C75.1164 21.594 74.7164 21.795 74.354 22.0785L74.9701 22.8661ZM75.8065 22.4476C76.1368 22.3595 76.4566 22.3168 76.7672 22.3168V21.3168C76.3637 21.3168 75.9573 21.3725 75.5489 21.4814L75.8065 22.4476ZM76.7672 22.3168C76.956 22.3168 77.1858 22.3399 77.4599 22.3913L77.6441 21.4084C77.3273 21.349 77.0338 21.3168 76.7672 21.3168V22.3168ZM77.4657 22.3924C77.6999 22.4334 77.9301 22.5196 78.158 22.6564L78.6725 21.7989C78.3464 21.6032 78.0011 21.471 77.6383 21.4074L77.4657 22.3924ZM78.1601 22.6576C78.3509 22.7708 78.5251 22.95 78.6743 23.2212L79.5504 22.739C79.3303 22.3393 79.0398 22.0168 78.6704 21.7976L78.1601 22.6576ZM78.6743 23.2212C78.8037 23.4561 78.8894 23.8123 78.8894 24.3281H79.8894C79.8894 23.7175 79.7904 23.175 79.5504 22.739L78.6743 23.2212ZM78.8894 24.3281V29H79.8894V24.3281H78.8894ZM79.3894 28.5H78.2999V29.5H79.3894V28.5ZM78.7999 29V28.0398H77.7999V29H78.7999ZM78.2999 27.5398H78.2445V28.5398H78.2999V27.5398ZM77.7937 27.8234C77.7516 27.9111 77.6678 28.0314 77.5185 28.1833L78.2318 28.8841C78.4272 28.6853 78.5896 28.4762 78.6952 28.2561L77.7937 27.8234ZM77.5185 28.1833C77.402 28.3019 77.2316 28.4182 76.9897 28.5222L77.3848 29.4409C77.7154 29.2987 78.0036 29.1164 78.2318 28.8841L77.5185 28.1833ZM76.9897 28.5222C76.7826 28.6113 76.5047 28.6662 76.1394 28.6662V29.6662C76.5988 29.6662 77.0195 29.598 77.3848 29.4409L76.9897 28.5222ZM76.3055 28.6875C76.8009 28.6875 77.2549 28.5901 77.6436 28.3674L77.1465 27.4998C76.9443 27.6156 76.672 27.6875 76.3055 27.6875V28.6875ZM77.6417 28.3685C78.0098 28.1598 78.3042 27.8794 78.5047 27.5234L77.6334 27.0327C77.5322 27.2123 77.3774 27.3688 77.1484 27.4986L77.6417 28.3685ZM78.5025 27.5272C78.6979 27.1872 78.7999 26.8202 78.7999 26.4332H77.7999C77.7999 26.6372 77.7479 26.8334 77.6355 27.0289L78.5025 27.5272ZM78.7999 26.4332V25.4361H77.7999V26.4332H78.7999ZM77.9158 25.116C77.9372 25.0903 77.9557 25.076 77.963 25.0708C77.9707 25.0652 77.9726 25.0649 77.9655 25.0685C77.9586 25.0719 77.9462 25.0775 77.9269 25.0848C77.9078 25.0919 77.8838 25.1 77.8541 25.1087L78.1363 26.0681C78.2319 26.04 78.3266 26.0059 78.4127 25.9629C78.4936 25.9225 78.5987 25.8585 78.684 25.7562L77.9158 25.116ZM77.8604 25.1069C77.7279 25.144 77.5676 25.1789 77.3775 25.2106L77.5419 26.197C77.758 26.161 77.9547 26.119 78.13 26.0699L77.8604 25.1069ZM77.3836 25.2096C77.1874 25.2398 76.996 25.267 76.8094 25.291L76.9374 26.2828C77.1324 26.2577 77.3318 26.2294 77.5357 26.198L77.3836 25.2096ZM76.8164 25.2902C76.6273 25.3119 76.4719 25.3307 76.3511 25.3466L76.4816 26.3381C76.5947 26.3232 76.744 26.3051 76.9304 26.2837L76.8164 25.2902ZM76.3517 25.3465C76.0393 25.3873 75.7424 25.4541 75.4624 25.5486L75.7822 26.4961C75.9946 26.4244 76.2271 26.3712 76.481 26.3381L76.3517 25.3465ZM75.466 25.5474C75.1546 25.6499 74.881 25.8133 74.6643 26.0476L75.3985 26.7265C75.4835 26.6347 75.6037 26.5549 75.7786 26.4973L75.466 25.5474ZM74.664 26.0479C74.4097 26.3234 74.3098 26.6754 74.3098 27.0426H75.3098C75.3098 26.8559 75.3577 26.7708 75.3988 26.7262L74.664 26.0479ZM74.3098 27.0426C74.3098 27.5639 74.5137 28.0136 74.9453 28.3124L75.5145 27.4902C75.386 27.4012 75.3098 27.2784 75.3098 27.0426H74.3098ZM74.9505 28.3159C75.336 28.5757 75.7989 28.6875 76.3055 28.6875V27.6875C75.9443 27.6875 75.6901 27.6085 75.5093 27.4866L74.9505 28.3159Z" fill="white"/>
</g>
<defs>
<clipPath id="clip0_1_130">
<rect width="106" height="48" fill="white"/>
</clipPath>
<clipPath id="clip1_1_130">
<rect width="16" height="16" fill="white" transform="translate(12 16)"/>
</clipPath>
</defs>
</svg>
