<svg width="116" height="48" viewBox="0 0 116 48" fill="none" xmlns="http://www.w3.org/2000/svg">
<g clip-path="url(#clip0_5_13)">
<path d="M116 0H0V48H116V0Z" fill="black"/>
<path d="M47.608 22.5C47.5064 22.1892 47.3725 21.9106 47.2063 21.6644C47.0432 21.4151 46.8478 21.2028 46.62 21.0273C46.3954 20.8519 46.1399 20.718 45.8537 20.6257C45.5675 20.5334 45.2536 20.4872 44.9119 20.4872C44.3518 20.4872 43.8424 20.6319 43.3839 20.9212C42.9253 21.2105 42.5606 21.6367 42.2898 22.1999C42.0189 22.7631 41.8835 23.4541 41.8835 24.2727C41.8835 25.0914 42.0205 25.7823 42.2944 26.3455C42.5683 26.9087 42.9392 27.335 43.407 27.6243C43.8748 27.9136 44.401 28.0582 44.9858 28.0582C45.5275 28.0582 46.0045 27.9428 46.4169 27.712C46.8324 27.4781 47.1555 27.1488 47.3864 26.7241C47.6203 26.2963 47.7372 25.7931 47.7372 25.2145L48.0881 25.2884H45.2443V24.2727H48.8452V25.2884C48.8452 26.067 48.679 26.7441 48.3466 27.3196C48.0173 27.8951 47.5618 28.3414 46.9801 28.6584C46.4015 28.9723 45.7367 29.1293 44.9858 29.1293C44.1487 29.1293 43.4131 28.9323 42.7791 28.5384C42.1482 28.1444 41.6558 27.5843 41.3018 26.858C40.951 26.1316 40.7756 25.2699 40.7756 24.2727C40.7756 23.5249 40.8756 22.8524 41.0756 22.2553C41.2788 21.6552 41.565 21.1443 41.9343 20.7227C42.3036 20.301 42.7406 19.9779 43.2454 19.7532C43.7501 19.5285 44.3056 19.4162 44.9119 19.4162C45.4105 19.4162 45.8752 19.4916 46.3061 19.6424C46.7401 19.7901 47.1263 20.0009 47.4648 20.2749C47.8065 20.5457 48.0911 20.8704 48.3189 21.2489C48.5466 21.6244 48.7036 22.0414 48.7898 22.5H47.608ZM51.8826 29V21.9091H52.9721V29H51.8826ZM52.4366 20.7273C52.2242 20.7273 52.0411 20.6549 51.8872 20.5103C51.7364 20.3656 51.661 20.1918 51.661 19.9886C51.661 19.7855 51.7364 19.6116 51.8872 19.467C52.0411 19.3223 52.2242 19.25 52.4366 19.25C52.649 19.25 52.8305 19.3223 52.9813 19.467C53.1352 19.6116 53.2122 19.7855 53.2122 19.9886C53.2122 20.1918 53.1352 20.3656 52.9813 20.5103C52.8305 20.6549 52.649 20.7273 52.4366 20.7273ZM58.8314 21.9091V22.8324H55.1567V21.9091H58.8314ZM56.2277 20.2102H57.3172V26.9688C57.3172 27.2765 57.3618 27.5073 57.4511 27.6612C57.5434 27.812 57.6603 27.9136 57.8019 27.9659C57.9466 28.0152 58.0989 28.0398 58.259 28.0398C58.379 28.0398 58.4775 28.0336 58.5544 28.0213C58.6313 28.0059 58.6929 27.9936 58.7391 27.9844L58.9607 28.9631C58.8868 28.9908 58.7837 29.0185 58.6514 29.0462C58.519 29.0769 58.3513 29.0923 58.1482 29.0923C57.8404 29.0923 57.5388 29.0262 57.2433 28.8938C56.951 28.7615 56.7078 28.5599 56.5139 28.2891C56.3231 28.0182 56.2277 27.6766 56.2277 27.2642V20.2102ZM61.5503 29V19.5455H62.6952V23.7557H67.7364V19.5455H68.8813V29H67.7364V24.7713H62.6952V29H61.5503ZM76.2744 26.1009V21.9091H77.3639V29H76.2744V27.7997H76.2005C76.0343 28.1598 75.7758 28.466 75.425 28.7184C75.0741 28.9677 74.6309 29.0923 74.0954 29.0923C73.6522 29.0923 73.2583 28.9954 72.9136 28.8015C72.5689 28.6045 72.2981 28.3091 72.1011 27.9151C71.9041 27.5181 71.8056 27.018 71.8056 26.4148V21.9091H72.8951V26.3409C72.8951 26.858 73.0398 27.2704 73.3291 27.5781C73.6214 27.8859 73.9938 28.0398 74.4463 28.0398C74.7171 28.0398 74.9925 27.9705 75.2726 27.832C75.5558 27.6935 75.7927 27.4812 75.9835 27.195C76.1774 26.9087 76.2744 26.544 76.2744 26.1009ZM80.2871 29V19.5455H81.3766V23.0355H81.4689C81.5489 22.9124 81.6597 22.7554 81.8013 22.5646C81.9459 22.3707 82.1521 22.1984 82.4199 22.0476C82.6907 21.8937 83.057 21.8168 83.5186 21.8168C84.1157 21.8168 84.642 21.966 85.0974 22.2646C85.5529 22.5631 85.9084 22.9863 86.1639 23.5341C86.4193 24.0819 86.547 24.7282 86.547 25.473C86.547 26.224 86.4193 26.8749 86.1639 27.4258C85.9084 27.9736 85.5545 28.3983 85.1021 28.6999C84.6496 28.9985 84.128 29.1477 83.5371 29.1477C83.0816 29.1477 82.7169 29.0723 82.443 28.9215C82.1691 28.7676 81.9582 28.5937 81.8105 28.3999C81.6628 28.2029 81.5489 28.0398 81.4689 27.9105H81.3396V29H80.2871ZM81.3581 25.4545C81.3581 25.9901 81.4366 26.4625 81.5935 26.8718C81.7505 27.2781 81.9798 27.5966 82.2814 27.8274C82.583 28.0552 82.9523 28.169 83.3893 28.169C83.8448 28.169 84.2249 28.049 84.5296 27.8089C84.8374 27.5658 85.0682 27.2396 85.2221 26.8303C85.3791 26.4179 85.4575 25.9593 85.4575 25.4545C85.4575 24.956 85.3806 24.5066 85.2267 24.1065C85.0759 23.7034 84.8466 23.3848 84.5389 23.1509C84.2342 22.9139 83.851 22.7955 83.3893 22.7955C82.9462 22.7955 82.5738 22.9078 82.2722 23.1325C81.9706 23.354 81.7428 23.6649 81.5889 24.065C81.435 24.462 81.3581 24.9252 81.3581 25.4545Z" fill="white"/>
<path d="M47.608 22.5L47.1327 22.6553L47.2453 23H47.608V22.5ZM47.2063 21.6644L46.7879 21.9382L46.7919 21.9442L47.2063 21.6644ZM46.62 21.0273L46.3123 21.4214L46.3149 21.4235L46.62 21.0273ZM45.8537 20.6257L46.0072 20.1499L46.0072 20.1499L45.8537 20.6257ZM42.2898 22.1999L42.7404 22.4166L42.7404 22.4166L42.2898 22.1999ZM42.2944 26.3455L41.8447 26.5642L41.8447 26.5642L42.2944 26.3455ZM43.407 27.6243L43.144 28.0495L43.407 27.6243ZM46.4169 27.712L46.6611 28.1483L46.6622 28.1477L46.4169 27.712ZM47.3864 26.7241L46.9477 26.4842L46.9471 26.4853L47.3864 26.7241ZM47.7372 25.2145L47.8402 24.7252L47.2372 24.5983V25.2145H47.7372ZM48.0881 25.2884V25.7884L48.1911 24.7991L48.0881 25.2884ZM45.2443 25.2884H44.7443V25.7884H45.2443V25.2884ZM45.2443 24.2727V23.7727H44.7443V24.2727H45.2443ZM48.8452 24.2727H49.3452V23.7727H48.8452V24.2727ZM48.3466 27.3196L47.9136 27.0695L47.9126 27.0713L48.3466 27.3196ZM46.9801 28.6584L47.2186 29.0979L47.2194 29.0974L46.9801 28.6584ZM42.7791 28.5384L42.5143 28.9625L42.5152 28.963L42.7791 28.5384ZM41.3018 26.858L40.8516 27.0754L40.8524 27.077L41.3018 26.858ZM41.0756 22.2553L40.602 22.095L40.6015 22.0965L41.0756 22.2553ZM41.9343 20.7227L42.3104 21.0521L42.3104 21.0521L41.9343 20.7227ZM43.2454 19.7532L43.0421 19.2964L43.2454 19.7532ZM46.3061 19.6424L46.1409 20.1143L46.145 20.1157L46.3061 19.6424ZM47.4648 20.2749L47.1503 20.6636L47.1542 20.6667L47.4648 20.2749ZM48.3189 21.2489L47.8905 21.5067L47.8914 21.5082L48.3189 21.2489ZM48.7898 22.5V23H49.3925L49.2812 22.4077L48.7898 22.5ZM48.0832 22.3447C47.9687 21.9942 47.8154 21.673 47.6207 21.3847L46.7919 21.9442C46.9297 22.1483 47.0441 22.3842 47.1327 22.6553L48.0832 22.3447ZM47.6247 21.3907C47.4321 21.0962 47.1988 20.842 46.9251 20.6312L46.3149 21.4235C46.4967 21.5635 46.6543 21.734 46.7879 21.9382L47.6247 21.3907ZM46.9277 20.6332C46.6544 20.4198 46.3461 20.2592 46.0072 20.1499L45.7002 21.1016C45.9337 21.1769 46.1364 21.284 46.3123 21.4214L46.9277 20.6332ZM46.0072 20.1499C45.6652 20.0395 45.2987 19.9872 44.9119 19.9872V20.9872C45.2084 20.9872 45.4698 21.0272 45.7002 21.1016L46.0072 20.1499ZM44.9119 19.9872C44.2607 19.9872 43.6583 20.1569 43.1171 20.4983L43.6507 21.344C44.0266 21.1069 44.4429 20.9872 44.9119 20.9872V19.9872ZM43.1171 20.4983C42.5676 20.845 42.1444 21.3486 41.8392 21.9832L42.7404 22.4166C42.9769 21.9248 43.283 21.576 43.6507 21.344L43.1171 20.4983ZM41.8392 21.9832C41.5274 22.6316 41.3835 23.4014 41.3835 24.2727H42.3835C42.3835 23.5068 42.5105 22.8946 42.7404 22.4166L41.8392 21.9832ZM41.3835 24.2727C41.3835 25.1448 41.5291 25.9153 41.8447 26.5642L42.744 26.1268C42.5118 25.6494 42.3835 25.038 42.3835 24.2727H41.3835ZM41.8447 26.5642C42.1542 27.2004 42.5849 27.7038 43.144 28.0495L43.6699 27.199C43.2934 26.9662 42.9824 26.617 42.744 26.1268L41.8447 26.5642ZM43.144 28.0495C43.6958 28.3908 44.3143 28.5582 44.9858 28.5582V27.5582C44.4878 27.5582 44.0537 27.4364 43.6699 27.199L43.144 28.0495ZM44.9858 28.5582C45.6003 28.5582 46.1638 28.4267 46.6611 28.1483L46.1727 27.2757C45.8452 27.459 45.4546 27.5582 44.9858 27.5582V28.5582ZM46.6622 28.1477C47.1608 27.867 47.5506 27.4689 47.8257 26.9628L46.9471 26.4853C46.7605 26.8287 46.504 27.0892 46.1716 27.2763L46.6622 28.1477ZM47.8251 26.9639C48.1061 26.45 48.2372 25.8613 48.2372 25.2145H47.2372C47.2372 25.7249 47.1344 26.1426 46.9477 26.4842L47.8251 26.9639ZM47.6342 25.7038L47.9851 25.7776L48.1911 24.7991L47.8402 24.7252L47.6342 25.7038ZM48.0881 24.7884H45.2443V25.7884H48.0881V24.7884ZM45.7443 25.2884V24.2727H44.7443V25.2884H45.7443ZM45.2443 24.7727H48.8452V23.7727H45.2443V24.7727ZM48.3452 24.2727V25.2884H49.3452V24.2727H48.3452ZM48.3452 25.2884C48.3452 25.9944 48.1951 26.5822 47.9136 27.0695L48.7796 27.5697C49.1629 26.906 49.3452 26.1396 49.3452 25.2884H48.3452ZM47.9126 27.0713C47.6292 27.5665 47.2411 27.9467 46.7409 28.2193L47.2194 29.0974C47.8824 28.7361 48.4053 28.2237 48.7806 27.5679L47.9126 27.0713ZM46.7417 28.2189C46.246 28.4878 45.6653 28.6293 44.9858 28.6293V29.6293C45.8082 29.6293 46.557 29.4568 47.2186 29.0979L46.7417 28.2189ZM44.9858 28.6293C44.2303 28.6293 43.5884 28.4526 43.043 28.1137L42.5152 28.963C43.2378 29.412 44.0671 29.6293 44.9858 29.6293V28.6293ZM43.0439 28.1142C42.4994 27.7743 42.0678 27.2885 41.7513 26.6389L40.8524 27.077C41.2437 27.8801 41.797 28.5146 42.5143 28.9625L43.0439 28.1142ZM41.7521 26.6405C41.4408 25.9961 41.2756 25.212 41.2756 24.2727H40.2756C40.2756 25.3278 40.4612 26.2672 40.8516 27.0754L41.7521 26.6405ZM41.2756 24.2727C41.2756 23.569 41.3697 22.9515 41.5497 22.4142L40.6015 22.0965C40.3815 22.7533 40.2756 23.4807 40.2756 24.2727H41.2756ZM41.5492 22.4156C41.734 21.8696 41.9897 21.4183 42.3104 21.0521L41.5582 20.3932C41.1403 20.8703 40.8235 21.4407 40.602 22.095L41.5492 22.4156ZM42.3104 21.0521C42.6328 20.6841 43.0111 20.4048 43.4487 20.21L43.0421 19.2964C42.4702 19.551 41.9745 19.9179 41.5582 20.3932L42.3104 21.0521ZM43.4487 20.21C43.8834 20.0165 44.3688 19.9162 44.9119 19.9162V18.9162C44.2425 18.9162 43.6168 19.0406 43.0421 19.2964L43.4487 20.21ZM44.9119 19.9162C45.3594 19.9162 45.7678 19.9837 46.1409 20.1143L46.4713 19.1705C45.9827 18.9994 45.4616 18.9162 44.9119 18.9162V19.9162ZM46.145 20.1157C46.5262 20.2455 46.8599 20.4286 47.1503 20.6636L47.7793 19.8862C47.3927 19.5733 46.9539 19.3348 46.4672 19.1691L46.145 20.1157ZM47.1542 20.6667C47.4482 20.8997 47.6932 21.1788 47.8905 21.5067L48.7473 20.9912C48.4891 20.5619 48.1647 20.1916 47.7755 19.883L47.1542 20.6667ZM47.8914 21.5082C48.0861 21.8292 48.2226 22.1891 48.2984 22.5923L49.2812 22.4077C49.1846 21.8938 49.0072 21.4196 48.7464 20.9896L47.8914 21.5082ZM48.7898 22H47.608V23H48.7898V22ZM51.8826 29H51.3826V29.5H51.8826V29ZM51.8826 21.9091V21.4091H51.3826V21.9091H51.8826ZM52.9721 21.9091H53.4721V21.4091H52.9721V21.9091ZM52.9721 29V29.5H53.4721V29H52.9721ZM51.8872 20.5103L51.5411 20.8712L51.5448 20.8746L51.8872 20.5103ZM51.8872 19.467L51.5448 19.1026L51.5411 19.1061L51.8872 19.467ZM52.9813 19.467L52.6352 19.8278L52.6389 19.8313L52.9813 19.467ZM52.9813 20.5103L52.6389 20.146L52.6352 20.1495L52.9813 20.5103ZM52.3826 29V21.9091H51.3826V29H52.3826ZM51.8826 22.4091H52.9721V21.4091H51.8826V22.4091ZM52.4721 21.9091V29H53.4721V21.9091H52.4721ZM52.9721 28.5H51.8826V29.5H52.9721V28.5ZM52.4366 20.2273C52.3507 20.2273 52.2903 20.2029 52.2297 20.146L51.5448 20.8746C51.792 21.107 52.0978 21.2273 52.4366 21.2273V20.2273ZM52.2334 20.1495C52.1777 20.0961 52.161 20.0512 52.161 19.9886H51.161C51.161 20.3323 51.2952 20.6352 51.5411 20.8711L52.2334 20.1495ZM52.161 19.9886C52.161 19.9261 52.1777 19.8812 52.2334 19.8278L51.5411 19.1061C51.2952 19.342 51.161 19.6449 51.161 19.9886H52.161ZM52.2297 19.8313C52.2903 19.7743 52.3507 19.75 52.4366 19.75V18.75C52.0978 18.75 51.792 18.8703 51.5448 19.1027L52.2297 19.8313ZM52.4366 19.75C52.5223 19.75 52.5792 19.7741 52.6352 19.8278L53.3275 19.1061C53.0819 18.8706 52.7756 18.75 52.4366 18.75V19.75ZM52.6389 19.8313C52.6967 19.8857 52.7122 19.9295 52.7122 19.9886H53.7122C53.7122 19.6415 53.5737 19.3376 53.3238 19.1027L52.6389 19.8313ZM52.7122 19.9886C52.7122 20.0477 52.6967 20.0916 52.6389 20.146L53.3238 20.8746C53.5737 20.6397 53.7122 20.3358 53.7122 19.9886H52.7122ZM52.6352 20.1495C52.5792 20.2032 52.5223 20.2273 52.4366 20.2273V21.2273C52.7756 21.2273 53.0819 21.1067 53.3275 20.8711L52.6352 20.1495ZM58.8314 21.9091H59.3314V21.4091H58.8314V21.9091ZM58.8314 22.8324V23.3324H59.3314V22.8324H58.8314ZM55.1567 22.8324H54.6567V23.3324H55.1567V22.8324ZM55.1567 21.9091V21.4091H54.6567V21.9091H55.1567ZM56.2277 20.2102V19.7102H55.7277V20.2102H56.2277ZM57.3172 20.2102H57.8172V19.7102H57.3172V20.2102ZM57.4511 27.6612L57.0184 27.9122L57.0246 27.9223L57.4511 27.6612ZM57.8019 27.9659L57.6285 28.4351L57.6408 28.4392L57.8019 27.9659ZM58.5544 28.0213L58.6334 28.515L58.643 28.5135L58.6525 28.5116L58.5544 28.0213ZM58.7391 27.9844L59.2267 27.874L59.1191 27.3985L58.641 27.4941L58.7391 27.9844ZM58.9607 28.9631L59.1362 29.4312L59.5446 29.2781L59.4483 28.8527L58.9607 28.9631ZM58.6514 29.0462L58.5489 28.5566L58.5381 28.5592L58.6514 29.0462ZM57.2433 28.8938L57.0371 29.3493L57.0389 29.3501L57.2433 28.8938ZM56.5139 28.2891L56.1052 28.577L56.1074 28.5801L56.5139 28.2891ZM58.3314 21.9091V22.8324H59.3314V21.9091H58.3314ZM58.8314 22.3324H55.1567V23.3324H58.8314V22.3324ZM55.6567 22.8324V21.9091H54.6567V22.8324H55.6567ZM55.1567 22.4091H58.8314V21.4091H55.1567V22.4091ZM56.2277 20.7102H57.3172V19.7102H56.2277V20.7102ZM56.8172 20.2102V26.9688H57.8172V20.2102H56.8172ZM56.8172 26.9688C56.8172 27.3085 56.8636 27.6449 57.0186 27.9121L57.8836 27.4104C57.8601 27.3698 57.8172 27.2446 57.8172 26.9688H56.8172ZM57.0246 27.9223C57.1651 28.1517 57.3643 28.3372 57.6286 28.4349L57.9752 27.4969C57.9564 27.4899 57.9217 27.4723 57.8775 27.4001L57.0246 27.9223ZM57.6408 28.4392C57.8397 28.507 58.0467 28.5398 58.259 28.5398V27.5398C58.1511 27.5398 58.0534 27.5233 57.9631 27.4926L57.6408 28.4392ZM58.259 28.5398C58.3929 28.5398 58.5204 28.5331 58.6334 28.515L58.4754 27.5276C58.4346 27.5341 58.365 27.5398 58.259 27.5398V28.5398ZM58.6525 28.5116C58.7294 28.4962 58.791 28.4839 58.8371 28.4747L58.641 27.4941C58.5948 27.5033 58.5333 27.5156 58.4563 27.531L58.6525 28.5116ZM58.2514 28.0948L58.473 29.0735L59.4483 28.8527L59.2267 27.874L58.2514 28.0948ZM58.7851 28.4949C58.746 28.5096 58.6713 28.5312 58.5489 28.5568L58.7538 29.5356C58.8961 29.5058 59.0276 29.472 59.1362 29.4312L58.7851 28.4949ZM58.5381 28.5592C58.4563 28.5782 58.3299 28.5923 58.1482 28.5923V29.5923C58.3726 29.5923 58.5817 29.5757 58.7646 29.5332L58.5381 28.5592ZM58.1482 28.5923C57.9145 28.5923 57.6823 28.5426 57.4477 28.4375L57.0389 29.3501C57.3953 29.5097 57.7663 29.5923 58.1482 29.5923V28.5923ZM57.4495 28.4383C57.2403 28.3436 57.0652 28.2002 56.9205 27.998L56.1074 28.5801C56.3504 28.9196 56.6616 29.1793 57.0371 29.3493L57.4495 28.4383ZM56.9227 28.0011C56.8044 27.8332 56.7277 27.599 56.7277 27.2642H55.7277C55.7277 27.7542 55.8418 28.2032 56.1052 28.577L56.9227 28.0011ZM56.7277 27.2642V20.2102H55.7277V27.2642H56.7277ZM61.5503 29H61.0503V29.5H61.5503V29ZM61.5503 19.5455V19.0455H61.0503V19.5455H61.5503ZM62.6952 19.5455H63.1952V19.0455H62.6952V19.5455ZM62.6952 23.7557H62.1952V24.2557H62.6952V23.7557ZM67.7364 23.7557V24.2557H68.2364V23.7557H67.7364ZM67.7364 19.5455V19.0455H67.2364V19.5455H67.7364ZM68.8813 19.5455H69.3813V19.0455H68.8813V19.5455ZM68.8813 29V29.5H69.3813V29H68.8813ZM67.7364 29H67.2364V29.5H67.7364V29ZM67.7364 24.7713H68.2364V24.2713H67.7364V24.7713ZM62.6952 24.7713V24.2713H62.1952V24.7713H62.6952ZM62.6952 29V29.5H63.1952V29H62.6952ZM62.0503 29V19.5455H61.0503V29H62.0503ZM61.5503 20.0455H62.6952V19.0455H61.5503V20.0455ZM62.1952 19.5455V23.7557H63.1952V19.5455H62.1952ZM62.6952 24.2557H67.7364V23.2557H62.6952V24.2557ZM68.2364 23.7557V19.5455H67.2364V23.7557H68.2364ZM67.7364 20.0455H68.8813V19.0455H67.7364V20.0455ZM68.3813 19.5455V29H69.3813V19.5455H68.3813ZM68.8813 28.5H67.7364V29.5H68.8813V28.5ZM68.2364 29V24.7713H67.2364V29H68.2364ZM67.7364 24.2713H62.6952V25.2713H67.7364V24.2713ZM62.1952 24.7713V29H63.1952V24.7713H62.1952ZM62.6952 28.5H61.5503V29.5H62.6952V28.5ZM76.2744 21.9091V21.4091H75.7744V21.9091H76.2744ZM77.3639 21.9091H77.8639V21.4091H77.3639V21.9091ZM77.3639 29V29.5H77.8639V29H77.3639ZM76.2744 29H75.7744V29.5H76.2744V29ZM76.2744 27.7997H76.7744V27.2997H76.2744V27.7997ZM76.2005 27.7997V27.2997H75.8806L75.7465 27.5902L76.2005 27.7997ZM75.425 28.7184L75.7146 29.126L75.7169 29.1243L75.425 28.7184ZM72.9136 28.8015L72.6655 29.2356L72.6685 29.2373L72.9136 28.8015ZM72.1011 27.9151L71.6532 28.1373L71.6539 28.1387L72.1011 27.9151ZM71.8056 21.9091V21.4091H71.3056V21.9091H71.8056ZM72.8951 21.9091H73.3951V21.4091H72.8951V21.9091ZM73.3291 27.5781L72.9648 27.9206L72.9666 27.9225L73.3291 27.5781ZM75.2726 27.832L75.0529 27.3829L75.051 27.3838L75.2726 27.832ZM75.9835 27.195L75.5696 26.9145L75.5675 26.9176L75.9835 27.195ZM76.7744 26.1009V21.9091H75.7744V26.1009H76.7744ZM76.2744 22.4091H77.3639V21.4091H76.2744V22.4091ZM76.8639 21.9091V29H77.8639V21.9091H76.8639ZM77.3639 28.5H76.2744V29.5H77.3639V28.5ZM76.7744 29V27.7997H75.7744V29H76.7744ZM76.2744 27.2997H76.2005V28.2997H76.2744V27.2997ZM75.7465 27.5902C75.6197 27.865 75.4203 28.1059 75.133 28.3125L75.7169 29.1243C76.1313 28.8262 76.449 28.4546 76.6545 28.0092L75.7465 27.5902ZM75.1353 28.3108C74.8878 28.4867 74.5527 28.5923 74.0954 28.5923V29.5923C74.7091 29.5923 75.2604 29.4487 75.7146 29.126L75.1353 28.3108ZM74.0954 28.5923C73.7275 28.5923 73.4199 28.5126 73.1587 28.3657L72.6685 29.2373C73.0967 29.4782 73.5769 29.5923 74.0954 29.5923V28.5923ZM73.1617 28.3674C72.9119 28.2247 72.7061 28.0072 72.5483 27.6915L71.6539 28.1387C71.89 28.6109 72.2259 28.9844 72.6655 29.2356L73.1617 28.3674ZM72.549 27.6929C72.3964 27.3853 72.3056 26.9673 72.3056 26.4148H71.3056C71.3056 27.0687 71.4119 27.651 71.6532 28.1373L72.549 27.6929ZM72.3056 26.4148V21.9091H71.3056V26.4148H72.3056ZM71.8056 22.4091H72.8951V21.4091H71.8056V22.4091ZM72.3951 21.9091V26.3409H73.3951V21.9091H72.3951ZM72.3951 26.3409C72.3951 26.9552 72.5697 27.5003 72.9648 27.9206L73.6934 27.2357C73.5099 27.0404 73.3951 26.7607 73.3951 26.3409H72.3951ZM72.9666 27.9225C73.3601 28.3367 73.8669 28.5398 74.4463 28.5398V27.5398C74.1208 27.5398 73.8828 27.4351 73.6916 27.2338L72.9666 27.9225ZM74.4463 28.5398C74.805 28.5398 75.1559 28.4476 75.4942 28.2802L75.051 27.3838C74.8292 27.4935 74.6292 27.5398 74.4463 27.5398V28.5398ZM75.4923 28.2812C75.8621 28.1003 76.1643 27.8252 76.3996 27.4723L75.5675 26.9176C75.4212 27.1371 75.2494 27.2868 75.0529 27.3829L75.4923 28.2812ZM76.3975 27.4754C76.6614 27.0859 76.7744 26.616 76.7744 26.1009H75.7744C75.7744 26.4721 75.6935 26.7316 75.5696 26.9145L76.3975 27.4754ZM80.2871 29H79.7871V29.5H80.2871V29ZM80.2871 19.5455V19.0455H79.7871V19.5455H80.2871ZM81.3766 19.5455H81.8766V19.0455H81.3766V19.5455ZM81.3766 23.0355H80.8766V23.5355H81.3766V23.0355ZM81.4689 23.0355V23.5355H81.7402L81.8881 23.308L81.4689 23.0355ZM81.8013 22.5646L81.4005 22.2656L81.3997 22.2667L81.8013 22.5646ZM82.4199 22.0476L82.6653 22.4832L82.6669 22.4823L82.4199 22.0476ZM85.0974 22.2646L85.3715 21.8464L85.3715 21.8464L85.0974 22.2646ZM86.1639 27.4258L86.617 27.6371L86.6175 27.6361L86.1639 27.4258ZM85.1021 28.6999L85.3774 29.1173L85.3794 29.116L85.1021 28.6999ZM82.443 28.9215L82.1981 29.3575L82.2018 29.3595L82.443 28.9215ZM81.8105 28.3999L81.4105 28.6999L81.4128 28.7029L81.8105 28.3999ZM81.4689 27.9105L81.894 27.6473L81.7474 27.4105H81.4689V27.9105ZM81.3396 27.9105V27.4105H80.8396V27.9105H81.3396ZM81.3396 29V29.5H81.8396V29H81.3396ZM81.5935 26.8718L81.1267 27.0508L81.1271 27.052L81.5935 26.8718ZM82.2814 27.8274L81.9775 28.2245L81.9801 28.2264L82.2814 27.8274ZM84.5296 27.8089L84.8391 28.2017L84.8396 28.2013L84.5296 27.8089ZM85.2221 26.8303L84.7548 26.6524L84.7541 26.6543L85.2221 26.8303ZM85.2267 24.1065L84.7584 24.2817L84.76 24.286L85.2267 24.1065ZM84.5389 23.1509L84.2319 23.5456L84.2363 23.549L84.5389 23.1509ZM82.2722 23.1325L82.5682 23.5354L82.5708 23.5334L82.2722 23.1325ZM81.5889 24.065L82.0551 24.2457L82.0556 24.2445L81.5889 24.065ZM80.7871 29V19.5455H79.7871V29H80.7871ZM80.2871 20.0455H81.3766V19.0455H80.2871V20.0455ZM80.8766 19.5455V23.0355H81.8766V19.5455H80.8766ZM81.3766 23.5355H81.4689V22.5355H81.3766V23.5355ZM81.8881 23.308C81.9602 23.1972 82.0642 23.0495 82.2028 22.8626L81.3997 22.2667C81.2553 22.4614 81.1377 22.6276 81.0497 22.763L81.8881 23.308ZM82.202 22.8636C82.2953 22.7385 82.4424 22.6087 82.6653 22.4832L82.1745 21.6119C81.8618 21.788 81.5965 22.0029 81.4005 22.2656L82.202 22.8636ZM82.6669 22.4823C82.8347 22.387 83.1048 22.3168 83.5186 22.3168V21.3168C83.0091 21.3168 82.5468 21.4004 82.1729 21.6129L82.6669 22.4823ZM83.5186 22.3168C84.0281 22.3168 84.4571 22.4427 84.8234 22.6827L85.3715 21.8464C84.8268 21.4894 84.2033 21.3168 83.5186 21.3168V22.3168ZM84.8234 22.6827C85.1927 22.9248 85.4901 23.2723 85.7107 23.7454L86.617 23.3228C86.3267 22.7002 85.9131 22.2014 85.3715 21.8464L84.8234 22.6827ZM85.7107 23.7454C85.929 24.2135 86.047 24.7847 86.047 25.473H87.047C87.047 24.6718 86.9096 23.9503 86.617 23.3228L85.7107 23.7454ZM86.047 25.473C86.047 26.1681 85.9288 26.7441 85.7102 27.2154L86.6175 27.6361C86.9098 27.0056 87.047 26.2798 87.047 25.473H86.047ZM85.7107 27.2145C85.4895 27.6888 85.1926 28.0387 84.8247 28.2839L85.3794 29.116C85.9164 28.758 86.3273 28.2584 86.617 27.6371L85.7107 27.2145ZM84.8267 28.2826C84.4633 28.5223 84.0393 28.6477 83.5371 28.6477V29.6477C84.2167 29.6477 84.8359 29.4746 85.3774 29.1173L84.8267 28.2826ZM83.5371 28.6477C83.13 28.6477 82.858 28.5793 82.6841 28.4835L82.2018 29.3595C82.5757 29.5654 83.0332 29.6477 83.5371 29.6477V28.6477ZM82.6879 28.4856C82.457 28.3559 82.3045 28.2232 82.2082 28.0968L81.4128 28.7029C81.612 28.9643 81.8812 29.1794 82.1981 29.3574L82.6879 28.4856ZM82.2105 28.0999C82.067 27.9085 81.963 27.7587 81.894 27.6473L81.0438 28.1737C81.1349 28.3209 81.2586 28.4973 81.4105 28.6999L82.2105 28.0999ZM81.4689 27.4105H81.3396V28.4105H81.4689V27.4105ZM80.8396 27.9105V29H81.8396V27.9105H80.8396ZM81.3396 28.5H80.2871V29.5H81.3396V28.5ZM80.8581 25.4545C80.8581 26.0381 80.9436 26.5732 81.1267 27.0508L82.0604 26.6928C81.9296 26.3517 81.8581 25.942 81.8581 25.4545H80.8581ZM81.1271 27.052C81.3123 27.5313 81.5926 27.9299 81.9775 28.2245L82.5853 27.4304C82.367 27.2633 82.1887 27.0248 82.0599 26.6916L81.1271 27.052ZM81.9801 28.2264C82.3816 28.5296 82.8613 28.669 83.3893 28.669V27.669C83.0434 27.669 82.7844 27.5807 82.5827 27.4284L81.9801 28.2264ZM83.3893 28.669C83.9367 28.669 84.4314 28.5229 84.8391 28.2017L84.2202 27.4162C84.0184 27.5751 83.753 27.669 83.3893 27.669V28.669ZM84.8396 28.2013C85.2267 27.8954 85.508 27.4906 85.6901 27.0062L84.7541 26.6543C84.6284 26.9885 84.4481 27.2362 84.2197 27.4166L84.8396 28.2013ZM85.6894 27.0081C85.8708 26.5313 85.9575 26.0114 85.9575 25.4545H84.9575C84.9575 25.9071 84.8873 26.3044 84.7548 26.6524L85.6894 27.0081ZM85.9575 25.4545C85.9575 24.9044 85.8726 24.3929 85.6934 23.927L84.76 24.286C84.8886 24.6203 84.9575 25.0075 84.9575 25.4545H85.9575ZM85.695 23.9314C85.515 23.4501 85.2327 23.0502 84.8414 22.7528L84.2363 23.549C84.4605 23.7194 84.6368 23.9566 84.7584 24.2817L85.695 23.9314ZM84.8458 22.7562C84.4371 22.4384 83.9396 22.2955 83.3893 22.2955V23.2955C83.7623 23.2955 84.0312 23.3895 84.2319 23.5456L84.8458 22.7562ZM83.3893 22.2955C82.8584 22.2955 82.3761 22.4316 81.9735 22.7315L82.5708 23.5334C82.7715 23.384 83.034 23.2955 83.3893 23.2955V22.2955ZM81.9761 22.7295C81.5867 23.0156 81.3053 23.4094 81.1222 23.8855L82.0556 24.2445C82.1803 23.9203 82.3544 23.6925 82.5682 23.5354L81.9761 22.7295ZM81.1227 23.8843C80.9418 24.3511 80.8581 24.8779 80.8581 25.4545H81.8581C81.8581 24.9725 81.9283 24.573 82.0551 24.2457L81.1227 23.8843Z" fill="white"/>
<path d="M21.25 9.5H19C10.9919 9.5 4.5 15.9919 4.5 24C4.5 32.0081 10.9919 38.5 19 38.5H21.25C29.2581 38.5 35.75 32.0081 35.75 24C35.75 15.9919 29.2581 9.5 21.25 9.5Z" fill="white"/>
<path fill-rule="evenodd" clip-rule="evenodd" d="M19.9992 15.75C15.4436 15.75 11.75 19.4436 11.75 24.0003C11.75 27.6453 14.1137 30.7372 17.392 31.8286C17.8047 31.9041 17.9552 31.6493 17.9552 31.4305C17.9552 31.235 17.9481 30.7159 17.944 30.0276C15.6492 30.526 15.1651 28.9215 15.1651 28.9215C14.7898 27.9689 14.2489 27.7151 14.2489 27.7151C13.4998 27.2031 14.3056 27.2132 14.3056 27.2132C15.1337 27.272 15.5692 28.0636 15.5692 28.0636C16.3051 29.3242 17.5004 28.96 17.9704 28.7493C18.0453 28.216 18.258 27.8524 18.494 27.6463C16.6622 27.4381 14.7361 26.7301 14.7361 23.5687C14.7361 22.6683 15.0577 21.9319 15.5854 21.355C15.5003 21.1463 15.2172 20.3076 15.666 19.1717C15.666 19.1717 16.3588 18.9498 17.9349 20.0174C18.5928 19.8346 19.2988 19.7429 20.0003 19.7399C20.7007 19.7429 21.4067 19.8346 22.0656 20.0174C23.6407 18.9498 24.332 19.1717 24.332 19.1717C24.7823 20.3076 24.4991 21.1463 24.4141 21.355C24.9428 21.9319 25.2624 22.6683 25.2624 23.5687C25.2624 26.7382 23.3333 27.4356 21.4953 27.6397C21.7916 27.8944 22.0555 28.3979 22.0555 29.1677C22.0555 30.2702 22.0453 31.1601 22.0453 31.4305C22.0453 31.6514 22.1937 31.9081 22.6126 31.8276C25.8884 30.7342 28.25 27.6442 28.25 24.0003C28.25 19.4436 24.5559 15.75 19.9992 15.75Z" fill="black"/>
</g>
<defs>
<clipPath id="clip0_5_13">
<rect width="116" height="48" fill="white"/>
</clipPath>
</defs>
</svg>
