<svg width="135" height="48" viewBox="0 0 135 48" fill="none" xmlns="http://www.w3.org/2000/svg">
<g clip-path="url(#clip0_1_437)">
<path d="M135 0H0V48H135V0Z" fill="#00325B"/>
<path d="M41.1449 29V19.5455H42.2898V27.9844H46.6847V29H41.1449ZM49.0897 29V21.9091H50.1791V29H49.0897ZM49.6436 20.7273C49.4313 20.7273 49.2482 20.6549 49.0943 20.5103C48.9435 20.3656 48.8681 20.1918 48.8681 19.9886C48.8681 19.7855 48.9435 19.6116 49.0943 19.467C49.2482 19.3223 49.4313 19.25 49.6436 19.25C49.856 19.25 50.0376 19.3223 50.1884 19.467C50.3423 19.6116 50.4192 19.7855 50.4192 19.9886C50.4192 20.1918 50.3423 20.3656 50.1884 20.5103C50.0376 20.6549 49.856 20.7273 49.6436 20.7273ZM55.8168 31.8068C55.2906 31.8068 54.8381 31.7391 54.4596 31.6037C54.081 31.4714 53.7656 31.2959 53.5132 31.0774C53.2639 30.862 53.0654 30.6312 52.9177 30.3849L53.7856 29.7756C53.8841 29.9048 54.0087 30.0526 54.1595 30.2188C54.3103 30.388 54.5165 30.5342 54.7781 30.6573C55.0428 30.7835 55.389 30.8466 55.8168 30.8466C56.3893 30.8466 56.8617 30.7081 57.2341 30.4311C57.6065 30.1541 57.7927 29.7202 57.7927 29.1293V27.6889H57.7004C57.6203 27.8182 57.5065 27.9782 57.3587 28.169C57.2141 28.3568 57.0048 28.5245 56.7309 28.6722C56.4601 28.8169 56.0938 28.8892 55.6322 28.8892C55.0597 28.8892 54.5458 28.7538 54.0903 28.483C53.6379 28.2121 53.2793 27.8182 53.0146 27.3011C52.753 26.7841 52.6222 26.1562 52.6222 25.4176C52.6222 24.6913 52.75 24.0588 53.0054 23.5202C53.2608 22.9786 53.6163 22.56 54.0718 22.2646C54.5273 21.966 55.0536 21.8168 55.6506 21.8168C56.1123 21.8168 56.4785 21.8937 56.7494 22.0476C57.0233 22.1984 57.2326 22.3707 57.3772 22.5646C57.5249 22.7554 57.6388 22.9124 57.7188 23.0355H57.8296V21.9091H58.8822V29.2031C58.8822 29.8125 58.7437 30.308 58.4667 30.6896C58.1928 31.0743 57.8235 31.3559 57.3587 31.5344C56.8971 31.716 56.3831 31.8068 55.8168 31.8068ZM55.7799 27.9105C56.2169 27.9105 56.5862 27.8105 56.8879 27.6104C57.1895 27.4104 57.4188 27.1226 57.5757 26.7472C57.7327 26.3717 57.8112 25.9223 57.8112 25.3991C57.8112 24.8883 57.7342 24.4374 57.5803 24.0465C57.4264 23.6557 57.1987 23.3494 56.8971 23.1278C56.5955 22.9062 56.2231 22.7955 55.7799 22.7955C55.3183 22.7955 54.9335 22.9124 54.6258 23.1463C54.3211 23.3802 54.0918 23.6941 53.9379 24.0881C53.7871 24.482 53.7117 24.919 53.7117 25.3991C53.7117 25.8916 53.7887 26.3271 53.9425 26.7056C54.0995 27.0811 54.3303 27.3765 54.635 27.592C54.9428 27.8043 55.3244 27.9105 55.7799 27.9105ZM62.746 24.7344V29H61.6565V19.5455H62.746V23.017H62.8383C63.0045 22.6508 63.2538 22.36 63.5862 22.1445C63.9216 21.926 64.3679 21.8168 64.925 21.8168C65.4082 21.8168 65.8313 21.9137 66.1945 22.1076C66.5577 22.2984 66.8393 22.5923 67.0393 22.9893C67.2424 23.3833 67.344 23.8849 67.344 24.4943V29H66.2545V24.5682C66.2545 24.005 66.1083 23.5695 65.8159 23.2617C65.5266 22.9509 65.125 22.7955 64.611 22.7955C64.254 22.7955 63.934 22.8709 63.6508 23.0217C63.3707 23.1725 63.1492 23.3925 62.986 23.6818C62.826 23.9711 62.746 24.322 62.746 24.7344ZM73.201 21.9091V22.8324H69.5262V21.9091H73.201ZM70.5973 20.2102H71.6868V26.9688C71.6868 27.2765 71.7314 27.5073 71.8206 27.6612C71.913 27.812 72.0299 27.9136 72.1715 27.9659C72.3161 28.0152 72.4685 28.0398 72.6285 28.0398C72.7486 28.0398 72.847 28.0336 72.924 28.0213C73.0009 28.0059 73.0625 27.9936 73.1086 27.9844L73.3302 28.9631C73.2564 28.9908 73.1533 29.0185 73.0209 29.0462C72.8886 29.0769 72.7209 29.0923 72.5177 29.0923C72.21 29.0923 71.9084 29.0262 71.6129 28.8938C71.3205 28.7615 71.0774 28.5599 70.8835 28.2891C70.6927 28.0182 70.5973 27.6766 70.5973 27.2642V20.2102ZM75.6198 29V21.9091H76.6724V22.9801H76.7462C76.8755 22.6293 77.1094 22.3446 77.4479 22.1261C77.7865 21.9076 78.1681 21.7983 78.5928 21.7983C78.6728 21.7983 78.7729 21.7998 78.8929 21.8029C79.0129 21.806 79.1037 21.8106 79.1653 21.8168V22.9247C79.1283 22.9155 79.0437 22.9016 78.9114 22.8832C78.7821 22.8616 78.6451 22.8509 78.5005 22.8509C78.1558 22.8509 77.848 22.9232 77.5772 23.0678C77.3094 23.2094 77.0971 23.4064 76.9401 23.6587C76.7862 23.908 76.7093 24.1927 76.7093 24.5128V29H75.6198ZM83.9016 29.1477C83.2614 29.1477 82.6998 28.9954 82.2166 28.6907C81.7365 28.386 81.361 27.9598 81.0902 27.4119C80.8224 26.8641 80.6885 26.224 80.6885 25.4915C80.6885 24.7528 80.8224 24.1081 81.0902 23.5572C81.361 23.0063 81.7365 22.5785 82.2166 22.2738C82.6998 21.9691 83.2614 21.8168 83.9016 21.8168C84.5417 21.8168 85.1019 21.9691 85.582 22.2738C86.0652 22.5785 86.4407 23.0063 86.7084 23.5572C86.9792 24.1081 87.1147 24.7528 87.1147 25.4915C87.1147 26.224 86.9792 26.8641 86.7084 27.4119C86.4407 27.9598 86.0652 28.386 85.582 28.6907C85.1019 28.9954 84.5417 29.1477 83.9016 29.1477ZM83.9016 28.169C84.3879 28.169 84.788 28.0444 85.1019 27.7951C85.4158 27.5458 85.6482 27.218 85.799 26.8118C85.9498 26.4055 86.0252 25.9654 86.0252 25.4915C86.0252 25.0175 85.9498 24.5759 85.799 24.1665C85.6482 23.7572 85.4158 23.4264 85.1019 23.174C84.788 22.9216 84.3879 22.7955 83.9016 22.7955C83.4153 22.7955 83.0152 22.9216 82.7013 23.174C82.3874 23.4264 82.155 23.7572 82.0042 24.1665C81.8534 24.5759 81.778 25.0175 81.778 25.4915C81.778 25.9654 81.8534 26.4055 82.0042 26.8118C82.155 27.218 82.3874 27.5458 82.7013 27.7951C83.0152 28.0444 83.4153 28.169 83.9016 28.169ZM92.4384 29.1477C91.7983 29.1477 91.2366 28.9954 90.7534 28.6907C90.2733 28.386 89.8978 27.9598 89.627 27.4119C89.3592 26.8641 89.2254 26.224 89.2254 25.4915C89.2254 24.7528 89.3592 24.1081 89.627 23.5572C89.8978 23.0063 90.2733 22.5785 90.7534 22.2738C91.2366 21.9691 91.7983 21.8168 92.4384 21.8168C93.0786 21.8168 93.6387 21.9691 94.1188 22.2738C94.602 22.5785 94.9775 23.0063 95.2452 23.5572C95.5161 24.1081 95.6515 24.7528 95.6515 25.4915C95.6515 26.224 95.5161 26.8641 95.2452 27.4119C94.9775 27.9598 94.602 28.386 94.1188 28.6907C93.6387 28.9954 93.0786 29.1477 92.4384 29.1477ZM92.4384 28.169C92.9247 28.169 93.3248 28.0444 93.6387 27.7951C93.9526 27.5458 94.185 27.218 94.3358 26.8118C94.4866 26.4055 94.562 25.9654 94.562 25.4915C94.562 25.0175 94.4866 24.5759 94.3358 24.1665C94.185 23.7572 93.9526 23.4264 93.6387 23.174C93.3248 22.9216 92.9247 22.7955 92.4384 22.7955C91.9522 22.7955 91.5521 22.9216 91.2381 23.174C90.9242 23.4264 90.6919 23.7572 90.5411 24.1665C90.3902 24.5759 90.3148 25.0175 90.3148 25.4915C90.3148 25.9654 90.3902 26.4055 90.5411 26.8118C90.6919 27.218 90.9242 27.5458 91.2381 27.7951C91.5521 28.0444 91.9522 28.169 92.4384 28.169ZM98.0946 29V21.9091H99.1471V23.017H99.2395C99.3872 22.6385 99.6257 22.3446 99.955 22.1353C100.284 21.9229 100.68 21.8168 101.141 21.8168C101.609 21.8168 101.999 21.9229 102.309 22.1353C102.623 22.3446 102.868 22.6385 103.043 23.017H103.117C103.299 22.6508 103.571 22.36 103.934 22.1445C104.298 21.926 104.733 21.8168 105.241 21.8168C105.875 21.8168 106.393 22.0153 106.797 22.4123C107.2 22.8062 107.401 23.4202 107.401 24.2543V29H106.312V24.2543C106.312 23.7311 106.169 23.3571 105.883 23.1325C105.596 22.9078 105.259 22.7955 104.872 22.7955C104.373 22.7955 103.987 22.9463 103.713 23.2479C103.439 23.5464 103.302 23.925 103.302 24.3835V29H102.194V24.1435C102.194 23.7403 102.063 23.4156 101.802 23.1694C101.54 22.9201 101.203 22.7955 100.791 22.7955C100.507 22.7955 100.243 22.8709 99.9966 23.0217C99.7534 23.1725 99.5565 23.3817 99.4057 23.6495C99.2579 23.9142 99.1841 24.2204 99.1841 24.5682V29H98.0946Z" fill="white"/>
<path d="M41.1449 29H40.6449V29.5H41.1449V29ZM41.1449 19.5455V19.0455H40.6449V19.5455H41.1449ZM42.2898 19.5455H42.7898V19.0455H42.2898V19.5455ZM42.2898 27.9844H41.7898V28.4844H42.2898V27.9844ZM46.6847 27.9844H47.1847V27.4844H46.6847V27.9844ZM46.6847 29V29.5H47.1847V29H46.6847ZM41.6449 29V19.5455H40.6449V29H41.6449ZM41.1449 20.0455H42.2898V19.0455H41.1449V20.0455ZM41.7898 19.5455V27.9844H42.7898V19.5455H41.7898ZM42.2898 28.4844H46.6847V27.4844H42.2898V28.4844ZM46.1847 27.9844V29H47.1847V27.9844H46.1847ZM46.6847 28.5H41.1449V29.5H46.6847V28.5ZM49.0897 29H48.5897V29.5H49.0897V29ZM49.0897 21.9091V21.4091H48.5897V21.9091H49.0897ZM50.1791 21.9091H50.6791V21.4091H50.1791V21.9091ZM50.1791 29V29.5H50.6791V29H50.1791ZM49.0943 20.5103L48.7481 20.8712L48.7518 20.8746L49.0943 20.5103ZM49.0943 19.467L48.7518 19.1026L48.7482 19.1061L49.0943 19.467ZM50.1884 19.467L49.8423 19.8278L49.8459 19.8313L50.1884 19.467ZM50.1884 20.5103L49.8459 20.146L49.8423 20.1495L50.1884 20.5103ZM49.5897 29V21.9091H48.5897V29H49.5897ZM49.0897 22.4091H50.1791V21.4091H49.0897V22.4091ZM49.6791 21.9091V29H50.6791V21.9091H49.6791ZM50.1791 28.5H49.0897V29.5H50.1791V28.5ZM49.6436 20.2273C49.5578 20.2273 49.4973 20.2029 49.4367 20.146L48.7518 20.8746C48.999 21.107 49.3048 21.2273 49.6436 21.2273V20.2273ZM49.4404 20.1495C49.3847 20.0961 49.3681 20.0512 49.3681 19.9886H48.3681C48.3681 20.3323 48.5022 20.6352 48.7482 20.8711L49.4404 20.1495ZM49.3681 19.9886C49.3681 19.9261 49.3847 19.8812 49.4404 19.8278L48.7482 19.1061C48.5022 19.342 48.3681 19.6449 48.3681 19.9886H49.3681ZM49.4367 19.8313C49.4973 19.7743 49.5578 19.75 49.6436 19.75V18.75C49.3048 18.75 48.999 18.8703 48.7518 19.1027L49.4367 19.8313ZM49.6436 19.75C49.7293 19.75 49.7862 19.7741 49.8423 19.8278L50.5345 19.1061C50.2889 18.8706 49.9827 18.75 49.6436 18.75V19.75ZM49.8459 19.8313C49.9038 19.8857 49.9192 19.9295 49.9192 19.9886H50.9192C50.9192 19.6415 50.7807 19.3376 50.5308 19.1027L49.8459 19.8313ZM49.9192 19.9886C49.9192 20.0477 49.9038 20.0916 49.8459 20.146L50.5308 20.8746C50.7807 20.6397 50.9192 20.3358 50.9192 19.9886H49.9192ZM49.8423 20.1495C49.7862 20.2032 49.7293 20.2273 49.6436 20.2273V21.2273C49.9827 21.2273 50.2889 21.1067 50.5345 20.8711L49.8423 20.1495ZM54.4596 31.6037L54.628 31.1329L54.6246 31.1317L54.4596 31.6037ZM53.5132 31.0774L53.8405 30.6994L53.8401 30.6991L53.5132 31.0774ZM52.9177 30.3849L52.6304 29.9757L52.2495 30.2431L52.4889 30.6422L52.9177 30.3849ZM53.7856 29.7756L54.1833 29.4725L53.8919 29.09L53.4983 29.3664L53.7856 29.7756ZM54.1595 30.2188L54.5329 29.8861L54.5298 29.8828L54.1595 30.2188ZM54.7781 30.6573L54.9933 30.206L54.991 30.2049L54.7781 30.6573ZM57.2341 30.4311L57.5325 30.8323L57.5325 30.8323L57.2341 30.4311ZM57.7927 27.6889H58.2927V27.1889H57.7927V27.6889ZM57.7004 27.6889V27.1889H57.4218L57.2752 27.4257L57.7004 27.6889ZM57.3587 28.169L56.9634 27.8629L56.9627 27.8639L57.3587 28.169ZM56.7309 28.6722L56.9665 29.1133L56.9682 29.1123L56.7309 28.6722ZM54.0903 28.483L53.8335 28.912L53.8347 28.9127L54.0903 28.483ZM53.0146 27.3011L52.5685 27.5269L52.5696 27.529L53.0146 27.3011ZM53.0054 23.5202L53.4572 23.7345L53.4576 23.7335L53.0054 23.5202ZM54.0718 22.2646L54.3439 22.684L54.3459 22.6827L54.0718 22.2646ZM56.7494 22.0476L56.5023 22.4824L56.5082 22.4856L56.7494 22.0476ZM57.3772 22.5646L56.9764 22.8637L56.9818 22.8707L57.3772 22.5646ZM57.7188 23.0355L57.2996 23.308L57.4475 23.5355H57.7188V23.0355ZM57.8296 23.0355V23.5355H58.3296V23.0355H57.8296ZM57.8296 21.9091V21.4091H57.3296V21.9091H57.8296ZM58.8822 21.9091H59.3822V21.4091H58.8822V21.9091ZM58.4667 30.6896L58.062 30.3959L58.0594 30.3996L58.4667 30.6896ZM57.3587 31.5344L57.1795 31.0677L57.1757 31.0691L57.3587 31.5344ZM56.8879 27.6104L56.6115 27.1938L56.6115 27.1938L56.8879 27.6104ZM57.5757 26.7472L58.037 26.94L58.037 26.94L57.5757 26.7472ZM57.5803 24.0465L58.0456 23.8634L58.0456 23.8634L57.5803 24.0465ZM56.8971 23.1278L56.6011 23.5308L56.6011 23.5308L56.8971 23.1278ZM54.6258 23.1463L54.3232 22.7482L54.3213 22.7497L54.6258 23.1463ZM53.9379 24.0881L53.4722 23.9061L53.471 23.9093L53.9379 24.0881ZM53.9425 26.7056L53.4793 26.8939L53.4812 26.8985L53.9425 26.7056ZM54.635 27.592L54.3463 28.0003L54.3511 28.0035L54.635 27.592ZM55.8168 31.3068C55.3312 31.3068 54.9387 31.2441 54.628 31.1329L54.2912 32.0745C54.7376 32.2342 55.2499 32.3068 55.8168 32.3068V31.3068ZM54.6246 31.1317C54.2939 31.0161 54.0366 30.8692 53.8405 30.6994L53.1859 31.4554C53.4945 31.7226 53.8682 31.9266 54.2946 32.0757L54.6246 31.1317ZM53.8401 30.6991C53.6252 30.5133 53.4632 30.3223 53.3464 30.1277L52.4889 30.6422C52.6677 30.9401 52.9027 31.2106 53.1863 31.4557L53.8401 30.6991ZM53.205 30.7941L54.0729 30.1848L53.4983 29.3664L52.6304 29.9757L53.205 30.7941ZM53.3879 30.0786C53.4976 30.2226 53.6321 30.3816 53.7892 30.5547L54.5298 29.8828C54.3853 29.7235 54.2706 29.5871 54.1833 29.4725L53.3879 30.0786ZM53.7862 30.5514C53.9924 30.7828 54.2588 30.9655 54.5652 31.1097L54.991 30.2049C54.7743 30.1029 54.6283 29.9933 54.5328 29.8861L53.7862 30.5514ZM54.563 31.1086C54.9184 31.2781 55.3461 31.3466 55.8168 31.3466V30.3466C55.432 30.3466 55.1672 30.2889 54.9933 30.206L54.563 31.1086ZM55.8168 31.3466C56.4712 31.3466 57.0554 31.1872 57.5325 30.8323L56.9357 30.0299C56.668 30.229 56.3073 30.3466 55.8168 30.3466V31.3466ZM57.5325 30.8323C58.0657 30.4357 58.2927 29.8306 58.2927 29.1293H57.2927C57.2927 29.6098 57.1473 29.8725 56.9357 30.0299L57.5325 30.8323ZM58.2927 29.1293V27.6889H57.2927V29.1293H58.2927ZM57.7927 27.1889H57.7004V28.1889H57.7927V27.1889ZM57.2752 27.4257C57.2081 27.5342 57.1058 27.6789 56.9634 27.8629L57.7541 28.4751C57.9071 28.2775 58.0326 28.1021 58.1255 27.9521L57.2752 27.4257ZM56.9627 27.8639C56.872 27.9815 56.7241 28.1078 56.4936 28.2322L56.9682 29.1123C57.2855 28.9412 57.5561 28.7321 57.7548 28.4742L56.9627 27.8639ZM56.4953 28.2312C56.3244 28.3225 56.0497 28.3892 55.6322 28.3892V29.3892C56.138 29.3892 56.5957 29.3113 56.9665 29.1133L56.4953 28.2312ZM55.6322 28.3892C55.1422 28.3892 54.7178 28.2744 54.3458 28.0532L53.8347 28.9127C54.3737 29.2332 54.9773 29.3892 55.6322 29.3892V28.3892ZM54.3471 28.054C53.9831 27.836 53.6862 27.5157 53.4597 27.0733L52.5696 27.529C52.8724 28.1206 53.2926 28.5882 53.8335 28.912L54.3471 28.054ZM53.4608 27.0754C53.243 26.6449 53.1222 26.0988 53.1222 25.4176H52.1222C52.1222 26.2137 52.2631 26.9233 52.5685 27.5269L53.4608 27.0754ZM53.1222 25.4176C53.1222 24.7495 53.2397 24.1931 53.4572 23.7345L52.5536 23.306C52.2603 23.9245 52.1222 24.6331 52.1222 25.4176H53.1222ZM53.4576 23.7335C53.6776 23.267 53.9744 22.9237 54.3439 22.684L53.7997 21.8451C53.2582 22.1963 52.8441 22.6901 52.5532 23.307L53.4576 23.7335ZM54.3459 22.6827C54.7121 22.4427 55.1412 22.3168 55.6506 22.3168V21.3168C54.966 21.3168 54.3425 21.4894 53.7977 21.8464L54.3459 22.6827ZM55.6506 22.3168C56.0645 22.3168 56.3346 22.387 56.5024 22.4823L56.9964 21.6129C56.6225 21.4004 56.1601 21.3168 55.6506 21.3168V22.3168ZM56.5082 22.4856C56.7372 22.6116 56.885 22.7411 56.9764 22.8636L57.778 22.2656C57.5801 22.0004 57.3094 21.7851 56.9905 21.6096L56.5082 22.4856ZM56.9818 22.8707C57.1258 23.0566 57.2303 23.2014 57.2996 23.308L58.138 22.763C58.0473 22.6235 57.9241 22.4543 57.7726 22.2585L56.9818 22.8707ZM57.7188 23.5355H57.8296V22.5355H57.7188V23.5355ZM58.3296 23.0355V21.9091H57.3296V23.0355H58.3296ZM57.8296 22.4091H58.8822V21.4091H57.8296V22.4091ZM58.3822 21.9091V29.2031H59.3822V21.9091H58.3822ZM58.3822 29.2031C58.3822 29.7378 58.2611 30.1217 58.062 30.3959L58.8713 30.9833C59.2262 30.4943 59.3822 29.8872 59.3822 29.2031H58.3822ZM58.0594 30.3996C57.8456 30.6998 57.5577 30.9224 57.1795 31.0677L57.538 32.0012C58.0892 31.7895 58.5399 31.4488 58.874 30.9796L58.0594 30.3996ZM57.1757 31.0691C56.78 31.2248 56.3293 31.3068 55.8168 31.3068V32.3068C56.437 32.3068 57.0142 32.2073 57.5418 31.9997L57.1757 31.0691ZM55.7799 28.4105C56.2946 28.4105 56.765 28.2919 57.1642 28.0271L56.6115 27.1938C56.4075 27.3291 56.1393 27.4105 55.7799 27.4105V28.4105ZM57.1642 28.0271C57.5583 27.7658 57.8468 27.395 58.037 26.94L57.1144 26.5543C56.9907 26.8503 56.8207 27.055 56.6115 27.1938L57.1642 28.0271ZM58.037 26.94C58.2257 26.4887 58.3112 25.9705 58.3112 25.3991H57.3112C57.3112 25.8742 57.2397 26.2547 57.1144 26.5543L58.037 26.94ZM58.3112 25.3991C58.3112 24.8387 58.2268 24.3237 58.0456 23.8634L57.1151 24.2297C57.2416 24.5511 57.3112 24.9378 57.3112 25.3991H58.3112ZM58.0456 23.8634C57.8615 23.3958 57.5798 23.009 57.1931 22.7249L56.6011 23.5308C56.8176 23.6899 56.9914 23.9155 57.1151 24.2297L58.0456 23.8634ZM57.1931 22.7249C56.7907 22.4293 56.3094 22.2955 55.7799 22.2955V23.2955C56.1368 23.2955 56.4002 23.3832 56.6011 23.5308L57.1931 22.7249ZM55.7799 22.2955C55.2309 22.2955 54.734 22.4361 54.3232 22.7482L54.9283 23.5444C55.1331 23.3887 55.4056 23.2955 55.7799 23.2955V22.2955ZM54.3213 22.7497C53.9371 23.0446 53.6558 23.4361 53.4722 23.9061L54.4037 24.27C54.5278 23.9521 54.7051 23.7158 54.9303 23.5429L54.3213 22.7497ZM53.471 23.9093C53.2955 24.3676 53.2117 24.8663 53.2117 25.3991H54.2117C54.2117 24.9718 54.2787 24.5964 54.4049 24.2668L53.471 23.9093ZM53.2117 25.3991C53.2117 25.9432 53.2967 26.4446 53.4794 26.8939L54.4057 26.5173C54.2806 26.2095 54.2117 25.8399 54.2117 25.3991H53.2117ZM53.4812 26.8985C53.671 27.3524 53.9581 27.7257 54.3464 28.0002L54.9237 27.1837C54.7025 27.0273 54.528 26.8098 54.4039 26.5128L53.4812 26.8985ZM54.3511 28.0035C54.759 28.285 55.2454 28.4105 55.7799 28.4105V27.4105C55.4034 27.4105 55.1265 27.3236 54.919 27.1804L54.3511 28.0035ZM62.746 29V29.5H63.246V29H62.746ZM61.6565 29H61.1565V29.5H61.6565V29ZM61.6565 19.5455V19.0455H61.1565V19.5455H61.6565ZM62.746 19.5455H63.246V19.0455H62.746V19.5455ZM62.746 23.017H62.246V23.517H62.746V23.017ZM62.8383 23.017V23.517H63.1605L63.2936 23.2237L62.8383 23.017ZM63.5862 22.1445L63.8581 22.5641L63.8591 22.5635L63.5862 22.1445ZM66.1945 22.1076L65.959 22.5487L65.9619 22.5502L66.1945 22.1076ZM67.0393 22.9893L66.5928 23.2143L66.5949 23.2185L67.0393 22.9893ZM67.344 29V29.5H67.844V29H67.344ZM66.2545 29H65.7545V29.5H66.2545V29ZM65.8159 23.2617L65.4499 23.6024L65.4534 23.6061L65.8159 23.2617ZM63.6508 23.0217L63.4158 22.5803L63.4138 22.5814L63.6508 23.0217ZM62.986 23.6818L62.5505 23.4362L62.5485 23.4398L62.986 23.6818ZM62.246 24.7344V29H63.246V24.7344H62.246ZM62.746 28.5H61.6565V29.5H62.746V28.5ZM62.1565 29V19.5455H61.1565V29H62.1565ZM61.6565 20.0455H62.746V19.0455H61.6565V20.0455ZM62.246 19.5455V23.017H63.246V19.5455H62.246ZM62.746 23.517H62.8383V22.517H62.746V23.517ZM63.2936 23.2237C63.421 22.9431 63.6073 22.7267 63.8581 22.5641L63.3142 21.725C62.9003 21.9932 62.5881 22.3586 62.383 22.8104L63.2936 23.2237ZM63.8591 22.5635C64.0874 22.4148 64.4283 22.3168 64.925 22.3168V21.3168C64.3075 21.3168 63.7559 21.4373 63.3133 21.7256L63.8591 22.5635ZM64.925 22.3168C65.3403 22.3168 65.6799 22.3997 65.959 22.5487L66.43 21.6665C65.9827 21.4277 65.476 21.3168 64.925 21.3168V22.3168ZM65.9619 22.5502C66.225 22.6885 66.4355 22.9022 66.5928 23.2143L67.4858 22.7644C67.243 22.2825 66.8903 21.9084 66.4271 21.665L65.9619 22.5502ZM66.5949 23.2185C66.7504 23.5201 66.844 23.9363 66.844 24.4943H67.844C67.844 23.8335 67.7345 23.2465 67.4837 22.7602L66.5949 23.2185ZM66.844 24.4943V29H67.844V24.4943H66.844ZM67.344 28.5H66.2545V29.5H67.344V28.5ZM66.7545 29V24.5682H65.7545V29H66.7545ZM66.7545 24.5682C66.7545 23.9198 66.5848 23.3451 66.1784 22.9173L65.4534 23.6061C65.6318 23.7938 65.7545 24.0901 65.7545 24.5682H66.7545ZM66.182 22.9211C65.7785 22.4876 65.2323 22.2955 64.611 22.2955V23.2955C65.0177 23.2955 65.2748 23.4141 65.4499 23.6024L66.182 22.9211ZM64.611 22.2955C64.1815 22.2955 63.7791 22.3868 63.4158 22.5804L63.8859 23.463C64.0888 23.3549 64.3266 23.2955 64.611 23.2955V22.2955ZM63.4138 22.5814C63.0467 22.7791 62.7579 23.0684 62.5505 23.4362L63.4216 23.9274C63.5404 23.7166 63.6948 23.5659 63.8879 23.4619L63.4138 22.5814ZM62.5485 23.4398C62.3386 23.8193 62.246 24.2579 62.246 24.7344H63.246C63.246 24.386 63.3134 24.1229 63.4236 23.9238L62.5485 23.4398ZM73.201 21.9091H73.701V21.4091H73.201V21.9091ZM73.201 22.8324V23.3324H73.701V22.8324H73.201ZM69.5262 22.8324H69.0262V23.3324H69.5262V22.8324ZM69.5262 21.9091V21.4091H69.0262V21.9091H69.5262ZM70.5973 20.2102V19.7102H70.0973V20.2102H70.5973ZM71.6868 20.2102H72.1868V19.7102H71.6868V20.2102ZM71.8206 27.6612L71.388 27.9122L71.3942 27.9223L71.8206 27.6612ZM72.1715 27.9659L71.9981 28.4351L72.0104 28.4392L72.1715 27.9659ZM72.924 28.0213L73.003 28.515L73.0125 28.5135L73.022 28.5116L72.924 28.0213ZM73.1086 27.9844L73.5963 27.874L73.4886 27.3985L73.0106 27.4941L73.1086 27.9844ZM73.3302 28.9631L73.5058 29.4312L73.9142 29.2781L73.8179 28.8527L73.3302 28.9631ZM73.0209 29.0462L72.9185 28.5566L72.9077 28.5592L73.0209 29.0462ZM71.6129 28.8938L71.4067 29.3493L71.4085 29.3501L71.6129 28.8938ZM70.8835 28.2891L70.4747 28.577L70.4769 28.5801L70.8835 28.2891ZM72.701 21.9091V22.8324H73.701V21.9091H72.701ZM73.201 22.3324H69.5262V23.3324H73.201V22.3324ZM70.0262 22.8324V21.9091H69.0262V22.8324H70.0262ZM69.5262 22.4091H73.201V21.4091H69.5262V22.4091ZM70.5973 20.7102H71.6868V19.7102H70.5973V20.7102ZM71.1868 20.2102V26.9688H72.1868V20.2102H71.1868ZM71.1868 26.9688C71.1868 27.3085 71.2331 27.6449 71.3881 27.9121L72.2532 27.4104C72.2296 27.3698 72.1868 27.2446 72.1868 26.9688H71.1868ZM71.3942 27.9223C71.5347 28.1517 71.7339 28.3372 71.9982 28.4349L72.3448 27.4969C72.326 27.4899 72.2913 27.4723 72.2471 27.4001L71.3942 27.9223ZM72.0104 28.4392C72.2093 28.507 72.4163 28.5398 72.6285 28.5398V27.5398C72.5207 27.5398 72.423 27.5233 72.3326 27.4926L72.0104 28.4392ZM72.6285 28.5398C72.7625 28.5398 72.8899 28.5331 73.003 28.515L72.845 27.5276C72.8041 27.5341 72.7346 27.5398 72.6285 27.5398V28.5398ZM73.022 28.5116C73.099 28.4962 73.1605 28.4839 73.2067 28.4747L73.0106 27.4941C72.9644 27.5033 72.9029 27.5156 72.8259 27.531L73.022 28.5116ZM72.621 28.0948L72.8426 29.0735L73.8179 28.8527L73.5963 27.874L72.621 28.0948ZM73.1547 28.4949C73.1155 28.5096 73.0408 28.5312 72.9185 28.5568L73.1234 29.5356C73.2657 29.5058 73.3972 29.472 73.5058 29.4312L73.1547 28.4949ZM72.9077 28.5592C72.8259 28.5782 72.6995 28.5923 72.5177 28.5923V29.5923C72.7422 29.5923 72.9513 29.5757 73.1342 29.5332L72.9077 28.5592ZM72.5177 28.5923C72.284 28.5923 72.0519 28.5426 71.8173 28.4375L71.4085 29.3501C71.7648 29.5097 72.1359 29.5923 72.5177 29.5923V28.5923ZM71.8191 28.4383C71.6099 28.3436 71.4348 28.2002 71.29 27.998L70.4769 28.5801C70.72 28.9196 71.0311 29.1793 71.4067 29.3493L71.8191 28.4383ZM71.2922 28.0011C71.174 27.8332 71.0973 27.599 71.0973 27.2642H70.0973C70.0973 27.7542 70.2114 28.2032 70.4748 28.577L71.2922 28.0011ZM71.0973 27.2642V20.2102H70.0973V27.2642H71.0973ZM75.6198 29H75.1198V29.5H75.6198V29ZM75.6198 21.9091V21.4091H75.1198V21.9091H75.6198ZM76.6724 21.9091H77.1724V21.4091H76.6724V21.9091ZM76.6724 22.9801H76.1724V23.4801H76.6724V22.9801ZM76.7462 22.9801V23.4801H77.0949L77.2154 23.153L76.7462 22.9801ZM77.4479 22.1261L77.1768 21.706L77.1768 21.706L77.4479 22.1261ZM79.1653 21.8168H79.6653V21.3643L79.215 21.3192L79.1653 21.8168ZM79.1653 22.9247L79.044 23.4098L79.6653 23.5651V22.9247H79.1653ZM78.9114 22.8832L78.8291 23.3765L78.8423 23.3784L78.9114 22.8832ZM77.5772 23.0678L77.8109 23.5098L77.8128 23.5089L77.5772 23.0678ZM76.9401 23.6587L76.5155 23.3947L76.5147 23.3961L76.9401 23.6587ZM76.7093 29V29.5H77.2093V29H76.7093ZM76.1198 29V21.9091H75.1198V29H76.1198ZM75.6198 22.4091H76.6724V21.4091H75.6198V22.4091ZM76.1724 21.9091V22.9801H77.1724V21.9091H76.1724ZM76.6724 23.4801H76.7462V22.4801H76.6724V23.4801ZM77.2154 23.153C77.3042 22.9119 77.4641 22.7107 77.7191 22.5462L77.1768 21.706C76.7547 21.9784 76.4468 22.3466 76.2771 22.8073L77.2154 23.153ZM77.7191 22.5462C77.9723 22.3827 78.2588 22.2983 78.5928 22.2983V21.2983C78.0774 21.2983 77.6006 21.4324 77.1768 21.706L77.7191 22.5462ZM78.5928 22.2983C78.667 22.2983 78.7624 22.2997 78.8801 22.3027L78.9057 21.3031C78.7833 21.2999 78.6787 21.2983 78.5928 21.2983V22.2983ZM78.8801 22.3027C78.9969 22.3057 79.0729 22.31 79.1155 22.3143L79.215 21.3192C79.1346 21.3112 79.0289 21.3062 78.9057 21.3031L78.8801 22.3027ZM78.6653 21.8168V22.9247H79.6653V21.8168H78.6653ZM79.2865 22.4396C79.2186 22.4227 79.1053 22.4054 78.9805 22.388L78.8423 23.3784C78.9064 23.3873 78.9564 23.3948 78.9934 23.4008C79.0346 23.4076 79.0473 23.4106 79.044 23.4098L79.2865 22.4396ZM78.9936 22.39C78.8345 22.3635 78.6699 22.3509 78.5005 22.3509V23.3509C78.6204 23.3509 78.7297 23.3598 78.8292 23.3764L78.9936 22.39ZM78.5005 22.3509C78.0839 22.3509 77.6935 22.4389 77.3416 22.6268L77.8128 23.5089C78.0026 23.4075 78.2277 23.3509 78.5005 23.3509V22.3509ZM77.3435 22.6258C76.9991 22.8079 76.7202 23.0656 76.5155 23.3947L77.3647 23.9228C77.474 23.7471 77.6198 23.6109 77.8109 23.5098L77.3435 22.6258ZM76.5147 23.3961C76.3076 23.7316 76.2093 24.1088 76.2093 24.5128H77.2093C77.2093 24.2766 77.2649 24.0845 77.3656 23.9214L76.5147 23.3961ZM76.2093 24.5128V29H77.2093V24.5128H76.2093ZM76.7093 28.5H75.6198V29.5H76.7093V28.5ZM82.2166 28.6907L81.9487 29.1129L81.9499 29.1136L82.2166 28.6907ZM81.0902 27.4119L80.6409 27.6315L80.6419 27.6335L81.0902 27.4119ZM81.0902 23.5572L80.6414 23.3366L80.6405 23.3386L81.0902 23.5572ZM82.2166 22.2738L81.9499 21.8509L81.9487 21.8516L82.2166 22.2738ZM85.582 22.2738L85.3141 22.696L85.3153 22.6967L85.582 22.2738ZM86.7084 23.5572L86.2587 23.7757L86.2597 23.7778L86.7084 23.5572ZM86.7084 27.4119L86.2602 27.1903L86.2592 27.1924L86.7084 27.4119ZM85.582 28.6907L85.3153 28.2678L85.3141 28.2685L85.582 28.6907ZM85.1019 27.7951L84.7909 27.4035L84.7909 27.4035L85.1019 27.7951ZM85.799 26.8118L86.2677 26.9858L86.2677 26.9858L85.799 26.8118ZM85.799 24.1665L86.2681 23.9937L86.2681 23.9937L85.799 24.1665ZM85.1019 23.174L85.4152 22.7843L85.4152 22.7843L85.1019 23.174ZM82.7013 23.174L82.388 22.7843L82.388 22.7843L82.7013 23.174ZM82.0042 24.1665L81.535 23.9937L81.535 23.9937L82.0042 24.1665ZM82.0042 26.8118L81.5355 26.9858L81.5355 26.9858L82.0042 26.8118ZM82.7013 27.7951L83.0122 27.4035L83.0122 27.4035L82.7013 27.7951ZM83.9016 28.6477C83.3441 28.6477 82.8772 28.5162 82.4833 28.2678L81.9499 29.1136C82.5223 29.4746 83.1788 29.6477 83.9016 29.6477V28.6477ZM82.4845 28.2685C82.0875 28.0166 81.7718 27.6624 81.5384 27.1903L80.6419 27.6335C80.9502 28.2571 81.3854 28.7554 81.9487 29.1129L82.4845 28.2685ZM81.5394 27.1924C81.3111 26.7253 81.1885 26.163 81.1885 25.4915H80.1885C80.1885 26.2849 80.3337 27.0029 80.6409 27.6315L81.5394 27.1924ZM81.1885 25.4915C81.1885 24.8132 81.3113 24.2459 81.5399 23.7757L80.6405 23.3386C80.3335 23.9702 80.1885 24.6925 80.1885 25.4915H81.1885ZM81.5389 23.7778C81.7725 23.3026 82.0882 22.9474 82.4845 22.696L81.9487 21.8516C81.3847 22.2095 80.9495 22.71 80.6414 23.3366L81.5389 23.7778ZM82.4833 22.6967C82.8772 22.4483 83.3441 22.3168 83.9016 22.3168V21.3168C83.1788 21.3168 82.5223 21.4899 81.9499 21.8509L82.4833 22.6967ZM83.9016 22.3168C84.4591 22.3168 84.9238 22.4483 85.3141 22.696L85.8499 21.8516C85.2799 21.4899 84.6243 21.3168 83.9016 21.3168V22.3168ZM85.3153 22.6967C85.7139 22.9481 86.0286 23.3024 86.2587 23.7757L87.1581 23.3386C86.8527 22.7102 86.4165 22.2089 85.8487 21.8509L85.3153 22.6967ZM86.2597 23.7778C86.4906 24.2475 86.6147 24.814 86.6147 25.4915H87.6147C87.6147 24.6917 87.4679 23.9687 87.1571 23.3366L86.2597 23.7778ZM86.6147 25.4915C86.6147 26.1622 86.4908 26.7238 86.2602 27.1903L87.1566 27.6335C87.4676 27.0044 87.6147 26.2857 87.6147 25.4915H86.6147ZM86.2592 27.1924C86.0293 27.6626 85.7146 28.016 85.3153 28.2678L85.8487 29.1136C86.4158 28.756 86.852 28.2569 87.1576 27.6315L86.2592 27.1924ZM85.3141 28.2685C84.9238 28.5162 84.4591 28.6477 83.9016 28.6477V29.6477C84.6243 29.6477 85.2799 29.4746 85.8499 29.1129L85.3141 28.2685ZM83.9016 28.669C84.4759 28.669 84.9928 28.5202 85.4128 28.1867L84.7909 27.4035C84.5831 27.5686 84.2998 27.669 83.9016 27.669V28.669ZM85.4128 28.1867C85.804 27.876 86.0878 27.4704 86.2677 26.9858L85.3302 26.6378C85.2085 26.9657 85.0276 27.2156 84.7909 27.4035L85.4128 28.1867ZM86.2677 26.9858C86.441 26.5189 86.5252 26.0193 86.5252 25.4915H85.5252C85.5252 25.9116 85.4585 26.2922 85.3302 26.6378L86.2677 26.9858ZM86.5252 25.4915C86.5252 24.9636 86.441 24.463 86.2681 23.9937L85.3298 24.3394C85.4585 24.6888 85.5252 25.0714 85.5252 25.4915H86.5252ZM86.2681 23.9937C86.0887 23.5066 85.8056 23.0982 85.4152 22.7843L84.7886 23.5637C85.026 23.7546 85.2076 24.0078 85.3298 24.3394L86.2681 23.9937ZM85.4152 22.7843C84.9951 22.4466 84.4774 22.2955 83.9016 22.2955V23.2955C84.2984 23.2955 84.5808 23.3967 84.7886 23.5637L85.4152 22.7843ZM83.9016 22.2955C83.3258 22.2955 82.8081 22.4466 82.388 22.7843L83.0146 23.5637C83.2224 23.3967 83.5048 23.2955 83.9016 23.2955V22.2955ZM82.388 22.7843C81.9976 23.0982 81.7145 23.5066 81.535 23.9937L82.4734 24.3394C82.5955 24.0078 82.7772 23.7546 83.0146 23.5637L82.388 22.7843ZM81.535 23.9937C81.3622 24.463 81.278 24.9636 81.278 25.4915H82.278C82.278 25.0714 82.3447 24.6888 82.4734 24.3394L81.535 23.9937ZM81.278 25.4915C81.278 26.0193 81.3621 26.5189 81.5355 26.9858L82.473 26.6378C82.3447 26.2922 82.278 25.9116 82.278 25.4915H81.278ZM81.5355 26.9858C81.7154 27.4704 81.9992 27.876 82.3904 28.1867L83.0122 27.4035C82.7756 27.2156 82.5947 26.9657 82.473 26.6378L81.5355 26.9858ZM82.3904 28.1867C82.8104 28.5202 83.3272 28.669 83.9016 28.669V27.669C83.5034 27.669 83.2201 27.5686 83.0122 27.4035L82.3904 28.1867ZM90.7534 28.6907L90.4855 29.1129L90.4867 29.1136L90.7534 28.6907ZM89.627 27.4119L89.1778 27.6315L89.1788 27.6335L89.627 27.4119ZM89.627 23.5572L89.1783 23.3366L89.1773 23.3386L89.627 23.5572ZM90.7534 22.2738L90.4867 21.8509L90.4855 21.8516L90.7534 22.2738ZM94.1188 22.2738L93.8509 22.696L93.8521 22.6967L94.1188 22.2738ZM95.2452 23.5572L94.7955 23.7757L94.7965 23.7778L95.2452 23.5572ZM95.2452 27.4119L94.797 27.1903L94.796 27.1924L95.2452 27.4119ZM94.1188 28.6907L93.8521 28.2678L93.8509 28.2685L94.1188 28.6907ZM93.6387 27.7951L93.3278 27.4035L93.3278 27.4035L93.6387 27.7951ZM94.3358 26.8118L94.8045 26.9858L94.8045 26.9858L94.3358 26.8118ZM94.3358 24.1665L94.805 23.9937L94.805 23.9937L94.3358 24.1665ZM93.6387 23.174L93.952 22.7843L93.952 22.7843L93.6387 23.174ZM91.2381 23.174L90.9249 22.7843L90.9249 22.7843L91.2381 23.174ZM90.5411 24.1665L90.0719 23.9937L90.0719 23.9937L90.5411 24.1665ZM90.5411 26.8118L90.0723 26.9858L90.0723 26.9858L90.5411 26.8118ZM91.2381 27.7951L91.5491 27.4035L91.5491 27.4035L91.2381 27.7951ZM92.4384 28.6477C91.8809 28.6477 91.4141 28.5162 91.0201 28.2678L90.4867 29.1136C91.0591 29.4746 91.7156 29.6477 92.4384 29.6477V28.6477ZM91.0213 28.2685C90.6243 28.0166 90.3086 27.6624 90.0752 27.1903L89.1788 27.6335C89.4871 28.2571 89.9223 28.7554 90.4855 29.1129L91.0213 28.2685ZM90.0762 27.1924C89.8479 26.7253 89.7254 26.163 89.7254 25.4915H88.7254C88.7254 26.2849 88.8705 27.0029 89.1778 27.6315L90.0762 27.1924ZM89.7254 25.4915C89.7254 24.8132 89.8482 24.2459 90.0767 23.7757L89.1773 23.3386C88.8703 23.9702 88.7254 24.6925 88.7254 25.4915H89.7254ZM90.0757 23.7778C90.3093 23.3026 90.625 22.9474 91.0213 22.696L90.4855 21.8516C89.9216 22.2095 89.4863 22.71 89.1783 23.3366L90.0757 23.7778ZM91.0201 22.6967C91.4141 22.4483 91.8809 22.3168 92.4384 22.3168V21.3168C91.7156 21.3168 91.0591 21.4899 90.4867 21.8509L91.0201 22.6967ZM92.4384 22.3168C92.996 22.3168 93.4607 22.4483 93.8509 22.696L94.3867 21.8516C93.8167 21.4899 93.1612 21.3168 92.4384 21.3168V22.3168ZM93.8521 22.6967C94.2507 22.9481 94.5655 23.3024 94.7955 23.7757L95.6949 23.3386C95.3895 22.7102 94.9533 22.2089 94.3855 21.8509L93.8521 22.6967ZM94.7965 23.7778C95.0274 24.2475 95.1515 24.814 95.1515 25.4915H96.1515C96.1515 24.6917 96.0047 23.9687 95.694 23.3366L94.7965 23.7778ZM95.1515 25.4915C95.1515 26.1622 95.0277 26.7238 94.797 27.1903L95.6935 27.6335C96.0045 27.0044 96.1515 26.2857 96.1515 25.4915H95.1515ZM94.796 27.1924C94.5662 27.6626 94.2514 28.016 93.8521 28.2678L94.3855 29.1136C94.9526 28.756 95.3888 28.2569 95.6945 27.6315L94.796 27.1924ZM93.8509 28.2685C93.4607 28.5162 92.996 28.6477 92.4384 28.6477V29.6477C93.1612 29.6477 93.8167 29.4746 94.3867 29.1129L93.8509 28.2685ZM92.4384 28.669C93.0128 28.669 93.5296 28.5202 93.9497 28.1867L93.3278 27.4035C93.1199 27.5686 92.8366 27.669 92.4384 27.669V28.669ZM93.9497 28.1867C94.3408 27.876 94.6246 27.4704 94.8045 26.9858L93.8671 26.6378C93.7453 26.9657 93.5644 27.2156 93.3278 27.4035L93.9497 28.1867ZM94.8045 26.9858C94.9779 26.5189 95.062 26.0193 95.062 25.4915H94.062C94.062 25.9116 93.9953 26.2922 93.8671 26.6378L94.8045 26.9858ZM95.062 25.4915C95.062 24.9636 94.9779 24.463 94.805 23.9937L93.8666 24.3394C93.9953 24.6888 94.062 25.0714 94.062 25.4915H95.062ZM94.805 23.9937C94.6255 23.5066 94.3424 23.0982 93.952 22.7843L93.3254 23.5637C93.5629 23.7546 93.7445 24.0078 93.8666 24.3394L94.805 23.9937ZM93.952 22.7843C93.5319 22.4466 93.0142 22.2955 92.4384 22.2955V23.2955C92.8352 23.2955 93.1177 23.3967 93.3254 23.5637L93.952 22.7843ZM92.4384 22.2955C91.8627 22.2955 91.3449 22.4466 90.9249 22.7843L91.5514 23.5637C91.7592 23.3967 92.0416 23.2955 92.4384 23.2955V22.2955ZM90.9249 22.7843C90.5344 23.0982 90.2513 23.5066 90.0719 23.9937L91.0102 24.3394C91.1324 24.0078 91.314 23.7546 91.5514 23.5637L90.9249 22.7843ZM90.0719 23.9937C89.899 24.463 89.8148 24.9636 89.8148 25.4915H90.8148C90.8148 25.0714 90.8815 24.6888 91.0102 24.3394L90.0719 23.9937ZM89.8148 25.4915C89.8148 26.0193 89.899 26.5189 90.0723 26.9858L91.0098 26.6378C90.8815 26.2922 90.8148 25.9116 90.8148 25.4915H89.8148ZM90.0723 26.9858C90.2522 27.4704 90.536 27.876 90.9272 28.1867L91.5491 27.4035C91.3124 27.2156 91.1315 26.9657 91.0098 26.6378L90.0723 26.9858ZM90.9272 28.1867C91.3472 28.5202 91.8641 28.669 92.4384 28.669V27.669C92.0402 27.669 91.7569 27.5686 91.5491 27.4035L90.9272 28.1867ZM98.0946 29H97.5946V29.5H98.0946V29ZM98.0946 21.9091V21.4091H97.5946V21.9091H98.0946ZM99.1471 21.9091H99.6471V21.4091H99.1471V21.9091ZM99.1471 23.017H98.6471V23.517H99.1471V23.017ZM99.2395 23.017V23.517H99.5811L99.7053 23.1988L99.2395 23.017ZM99.955 22.1353L100.223 22.5573L100.226 22.5555L99.955 22.1353ZM102.309 22.1353L102.027 22.5482L102.032 22.5513L102.309 22.1353ZM103.043 23.017L102.59 23.2273L102.724 23.517H103.043V23.017ZM103.117 23.017V23.517H103.427L103.565 23.2391L103.117 23.017ZM103.934 22.1445L104.19 22.5746L104.192 22.573L103.934 22.1445ZM106.797 22.4123L106.446 22.7686L106.447 22.7699L106.797 22.4123ZM107.401 29V29.5H107.901V29H107.401ZM106.312 29H105.812V29.5H106.312V29ZM105.883 23.1325L105.574 23.5258L105.574 23.5258L105.883 23.1325ZM103.713 23.2479L104.081 23.5859L104.083 23.584L103.713 23.2479ZM103.302 29V29.5H103.802V29H103.302ZM102.194 29H101.694V29.5H102.194V29ZM101.802 23.1694L101.457 23.5314L101.459 23.5335L101.802 23.1694ZM99.9966 23.0217L99.7354 22.5953L99.733 22.5968L99.9966 23.0217ZM99.4057 23.6495L98.97 23.4041L98.9691 23.4058L99.4057 23.6495ZM99.1841 29V29.5H99.6841V29H99.1841ZM98.5946 29V21.9091H97.5946V29H98.5946ZM98.0946 22.4091H99.1471V21.4091H98.0946V22.4091ZM98.6471 21.9091V23.017H99.6471V21.9091H98.6471ZM99.1471 23.517H99.2395V22.517H99.1471V23.517ZM99.7053 23.1988C99.816 22.9149 99.9875 22.7071 100.223 22.5573L99.6868 21.7133C99.2639 21.9821 98.9583 22.3621 98.7737 22.8353L99.7053 23.1988ZM100.226 22.5555C100.461 22.4039 100.759 22.3168 101.141 22.3168V21.3168C100.601 21.3168 100.108 21.4419 99.684 21.7151L100.226 22.5555ZM101.141 22.3168C101.533 22.3168 101.818 22.405 102.027 22.5482L102.591 21.7224C102.179 21.4409 101.685 21.3168 101.141 21.3168V22.3168ZM102.032 22.5513C102.261 22.7042 102.449 22.9231 102.59 23.2273L103.497 22.8068C103.287 22.3539 102.985 21.9849 102.587 21.7193L102.032 22.5513ZM103.043 23.517H103.117V22.517H103.043V23.517ZM103.565 23.2391C103.703 22.9623 103.906 22.7425 104.19 22.5746L103.679 21.7145C103.236 21.9775 102.895 22.3393 102.669 22.7949L103.565 23.2391ZM104.192 22.573C104.463 22.4098 104.806 22.3168 105.241 22.3168V21.3168C104.66 21.3168 104.132 21.4422 103.677 21.7161L104.192 22.573ZM105.241 22.3168C105.761 22.3168 106.148 22.4751 106.446 22.7685L107.147 22.056C106.639 21.5555 105.989 21.3168 105.241 21.3168V22.3168ZM106.447 22.7699C106.716 23.0327 106.901 23.4905 106.901 24.2543H107.901C107.901 23.35 107.683 22.5798 107.146 22.0547L106.447 22.7699ZM106.901 24.2543V29H107.901V24.2543H106.901ZM107.401 28.5H106.312V29.5H107.401V28.5ZM106.812 29V24.2543H105.812V29H106.812ZM106.812 24.2543C106.812 23.6478 106.644 23.0949 106.191 22.7392L105.574 23.5258C105.693 23.6194 105.812 23.8143 105.812 24.2543H106.812ZM106.191 22.7392C105.811 22.4406 105.363 22.2955 104.872 22.2955V23.2955C105.155 23.2955 105.382 23.3749 105.574 23.5258L106.191 22.7392ZM104.872 22.2955C104.266 22.2955 103.732 22.483 103.343 22.9117L104.083 23.584C104.241 23.4096 104.48 23.2955 104.872 23.2955V22.2955ZM103.344 22.9098C102.975 23.3129 102.802 23.8175 102.802 24.3835H103.802C103.802 24.0324 103.903 23.7799 104.081 23.5859L103.344 22.9098ZM102.802 24.3835V29H103.802V24.3835H102.802ZM103.302 28.5H102.194V29.5H103.302V28.5ZM102.694 29V24.1435H101.694V29H102.694ZM102.694 24.1435C102.694 23.621 102.519 23.158 102.144 22.8053L101.459 23.5335C101.607 23.6732 101.694 23.8596 101.694 24.1435H102.694ZM102.147 22.8074C101.779 22.4569 101.312 22.2955 100.791 22.2955V23.2955C101.094 23.2955 101.301 23.3833 101.457 23.5314L102.147 22.8074ZM100.791 22.2955C100.413 22.2955 100.059 22.3973 99.7354 22.5953L100.258 23.448C100.427 23.3444 100.602 23.2955 100.791 23.2955V22.2955ZM99.733 22.5968C99.413 22.7952 99.159 23.0686 98.97 23.4041L99.8413 23.8949C99.9539 23.6949 100.094 23.5497 100.26 23.4466L99.733 22.5968ZM98.9691 23.4058C98.774 23.7554 98.6841 24.1478 98.6841 24.5682H99.6841C99.6841 24.293 99.7419 24.073 99.8423 23.8932L98.9691 23.4058ZM98.6841 24.5682V29H99.6841V24.5682H98.6841ZM99.1841 28.5H98.0946V29.5H99.1841V28.5Z" fill="white"/>
<path d="M21.25 9.5H19C10.9919 9.5 4.5 15.9919 4.5 24C4.5 32.0081 10.9919 38.5 19 38.5H21.25C29.2581 38.5 35.75 32.0081 35.75 24C35.75 15.9919 29.2581 9.5 21.25 9.5Z" fill="white"/>
<g clip-path="url(#clip1_1_437)">
<path d="M15.0104 16H25.9896C26.385 15.9996 26.7766 16.0746 27.142 16.2205C27.5074 16.3664 27.8395 16.5804 28.1191 16.8503C28.3987 17.1203 28.6204 17.4408 28.7716 17.7935C28.9227 18.1462 29.0003 18.5243 29 18.906V29.094C29.0003 29.4757 28.9227 29.8538 28.7716 30.2065C28.6204 30.5593 28.3987 30.8797 28.1191 31.1497C27.8395 31.4196 27.5074 31.6336 27.142 31.7795C26.7766 31.9254 26.385 32.0004 25.9896 32H15.0104C14.6149 32.0004 14.2233 31.9254 13.8579 31.7795C13.4925 31.6336 13.1605 31.4196 12.8809 31.1497C12.6013 30.8797 12.3795 30.5593 12.2284 30.2065C12.0772 29.8538 11.9996 29.4757 12 29.094V18.906C11.9996 18.5243 12.0772 18.1462 12.2284 17.7935C12.3795 17.4408 12.6013 17.1203 12.8809 16.8503C13.1605 16.5804 13.4925 16.3664 13.8579 16.2205C14.2233 16.0746 14.6149 15.9996 15.0104 16V16Z" fill="#001E36"/>
<path d="M20.925 27.3094H16.4342C16.3563 27.3094 16.3208 27.2684 16.3208 27.1863V20.1983C16.3193 20.187 16.32 20.1756 16.3231 20.1646C16.3262 20.1537 16.3315 20.1434 16.3388 20.1345C16.3461 20.1256 16.3551 20.1181 16.3654 20.1126C16.3757 20.1072 16.3871 20.1037 16.3988 20.1025H17.8154C17.8243 20.101 17.8334 20.1012 17.8422 20.1031C17.8509 20.105 17.8592 20.1087 17.8665 20.1138C17.8738 20.1189 17.8799 20.1254 17.8845 20.1329C17.8891 20.1403 17.8921 20.1486 17.8933 20.1572V25.9213H21.1658C21.2367 25.9213 21.2579 25.9555 21.2438 26.0171L21.0383 27.2068C21.0372 27.2225 21.0329 27.2379 21.0256 27.252C21.0183 27.266 21.0082 27.2786 20.9958 27.2889C20.9751 27.3027 20.9503 27.3099 20.925 27.3094V27.3094Z" fill="#31A8FF"/>
<path d="M22.0584 21.8393H23.2979C23.3315 21.8401 23.364 21.8511 23.3907 21.8707C23.4174 21.8904 23.437 21.9177 23.4467 21.9487C23.476 21.9971 23.4952 22.0505 23.5034 22.106C23.5175 22.1743 23.5317 22.2496 23.5388 22.3179C23.5459 22.3863 23.5529 22.4752 23.5529 22.5641C23.7656 22.3244 24.0226 22.125 24.3109 21.976C24.6345 21.8067 24.9983 21.7219 25.3663 21.7299C25.3779 21.7284 25.3898 21.7291 25.4011 21.7321C25.4125 21.7351 25.4231 21.7402 25.4323 21.7472C25.4416 21.7543 25.4493 21.763 25.455 21.7729C25.4607 21.7829 25.4642 21.7938 25.4654 21.8051V23.1658C25.4654 23.2205 25.43 23.241 25.3521 23.241C24.893 23.2145 24.4341 23.2942 24.0134 23.4735C23.8699 23.5327 23.7399 23.6187 23.6309 23.7265V27.2137C23.6309 27.282 23.6025 27.3094 23.5388 27.3094H22.1575C22.1445 27.3115 22.1311 27.3111 22.1182 27.308C22.1053 27.305 22.0932 27.2995 22.0826 27.2918C22.072 27.2842 22.0631 27.2745 22.0565 27.2634C22.0499 27.2523 22.0457 27.24 22.0442 27.2273V23.4119C22.0442 23.2478 22.0442 23.0769 22.0371 22.8991C22.03 22.7213 22.03 22.5436 22.0229 22.3658C22.0159 22.2154 22.0017 22.0649 21.9804 21.9145C21.9786 21.9064 21.9783 21.8981 21.9798 21.8899C21.9813 21.8817 21.9844 21.8739 21.989 21.867C21.9936 21.86 21.9996 21.8539 22.0067 21.8492C22.0137 21.8444 22.0216 21.8411 22.03 21.8393C22.0371 21.8325 22.0442 21.8325 22.0584 21.8393V21.8393Z" fill="#31A8FF"/>
</g>
</g>
<defs>
<clipPath id="clip0_1_437">
<rect width="135" height="48" fill="white"/>
</clipPath>
<clipPath id="clip1_1_437">
<rect width="17" height="16" fill="white" transform="translate(12 16)"/>
</clipPath>
</defs>
</svg>
