<svg width="195" height="48" viewBox="0 0 195 48" fill="none" xmlns="http://www.w3.org/2000/svg">
<g clip-path="url(#clip0_1_453)">
<path d="M195 0H0V48H195V0Z" fill="#00325B"/>
<path d="M41.1449 29V19.5455H42.2898V27.9844H46.6847V29H41.1449ZM49.0897 29V21.9091H50.1791V29H49.0897ZM49.6436 20.7273C49.4313 20.7273 49.2482 20.6549 49.0943 20.5103C48.9435 20.3656 48.8681 20.1918 48.8681 19.9886C48.8681 19.7855 48.9435 19.6116 49.0943 19.467C49.2482 19.3223 49.4313 19.25 49.6436 19.25C49.856 19.25 50.0376 19.3223 50.1884 19.467C50.3423 19.6116 50.4192 19.7855 50.4192 19.9886C50.4192 20.1918 50.3423 20.3656 50.1884 20.5103C50.0376 20.6549 49.856 20.7273 49.6436 20.7273ZM55.8168 31.8068C55.2906 31.8068 54.8381 31.7391 54.4596 31.6037C54.081 31.4714 53.7656 31.2959 53.5132 31.0774C53.2639 30.862 53.0654 30.6312 52.9177 30.3849L53.7856 29.7756C53.8841 29.9048 54.0087 30.0526 54.1595 30.2188C54.3103 30.388 54.5165 30.5342 54.7781 30.6573C55.0428 30.7835 55.389 30.8466 55.8168 30.8466C56.3893 30.8466 56.8617 30.7081 57.2341 30.4311C57.6065 30.1541 57.7927 29.7202 57.7927 29.1293V27.6889H57.7004C57.6203 27.8182 57.5065 27.9782 57.3587 28.169C57.2141 28.3568 57.0048 28.5245 56.7309 28.6722C56.4601 28.8169 56.0938 28.8892 55.6322 28.8892C55.0597 28.8892 54.5458 28.7538 54.0903 28.483C53.6379 28.2121 53.2793 27.8182 53.0146 27.3011C52.753 26.7841 52.6222 26.1562 52.6222 25.4176C52.6222 24.6913 52.75 24.0588 53.0054 23.5202C53.2608 22.9786 53.6163 22.56 54.0718 22.2646C54.5273 21.966 55.0536 21.8168 55.6506 21.8168C56.1123 21.8168 56.4785 21.8937 56.7494 22.0476C57.0233 22.1984 57.2326 22.3707 57.3772 22.5646C57.5249 22.7554 57.6388 22.9124 57.7188 23.0355H57.8296V21.9091H58.8822V29.2031C58.8822 29.8125 58.7437 30.308 58.4667 30.6896C58.1928 31.0743 57.8235 31.3559 57.3587 31.5344C56.8971 31.716 56.3831 31.8068 55.8168 31.8068ZM55.7799 27.9105C56.2169 27.9105 56.5862 27.8105 56.8879 27.6104C57.1895 27.4104 57.4188 27.1226 57.5757 26.7472C57.7327 26.3717 57.8112 25.9223 57.8112 25.3991C57.8112 24.8883 57.7342 24.4374 57.5803 24.0465C57.4264 23.6557 57.1987 23.3494 56.8971 23.1278C56.5955 22.9062 56.2231 22.7955 55.7799 22.7955C55.3183 22.7955 54.9335 22.9124 54.6258 23.1463C54.3211 23.3802 54.0918 23.6941 53.9379 24.0881C53.7871 24.482 53.7117 24.919 53.7117 25.3991C53.7117 25.8916 53.7887 26.3271 53.9425 26.7056C54.0995 27.0811 54.3303 27.3765 54.635 27.592C54.9428 27.8043 55.3244 27.9105 55.7799 27.9105ZM62.746 24.7344V29H61.6565V19.5455H62.746V23.017H62.8383C63.0045 22.6508 63.2538 22.36 63.5862 22.1445C63.9216 21.926 64.3679 21.8168 64.925 21.8168C65.4082 21.8168 65.8313 21.9137 66.1945 22.1076C66.5577 22.2984 66.8393 22.5923 67.0393 22.9893C67.2424 23.3833 67.344 23.8849 67.344 24.4943V29H66.2545V24.5682C66.2545 24.005 66.1083 23.5695 65.8159 23.2617C65.5266 22.9509 65.125 22.7955 64.611 22.7955C64.254 22.7955 63.934 22.8709 63.6508 23.0217C63.3707 23.1725 63.1492 23.3925 62.986 23.6818C62.826 23.9711 62.746 24.322 62.746 24.7344ZM73.201 21.9091V22.8324H69.5262V21.9091H73.201ZM70.5973 20.2102H71.6868V26.9688C71.6868 27.2765 71.7314 27.5073 71.8206 27.6612C71.913 27.812 72.0299 27.9136 72.1715 27.9659C72.3161 28.0152 72.4685 28.0398 72.6285 28.0398C72.7486 28.0398 72.847 28.0336 72.924 28.0213C73.0009 28.0059 73.0625 27.9936 73.1086 27.9844L73.3302 28.9631C73.2564 28.9908 73.1533 29.0185 73.0209 29.0462C72.8886 29.0769 72.7209 29.0923 72.5177 29.0923C72.21 29.0923 71.9084 29.0262 71.6129 28.8938C71.3205 28.7615 71.0774 28.5599 70.8835 28.2891C70.6927 28.0182 70.5973 27.6766 70.5973 27.2642V20.2102ZM75.6198 29V21.9091H76.6724V22.9801H76.7462C76.8755 22.6293 77.1094 22.3446 77.4479 22.1261C77.7865 21.9076 78.1681 21.7983 78.5928 21.7983C78.6728 21.7983 78.7729 21.7998 78.8929 21.8029C79.0129 21.806 79.1037 21.8106 79.1653 21.8168V22.9247C79.1283 22.9155 79.0437 22.9016 78.9114 22.8832C78.7821 22.8616 78.6451 22.8509 78.5005 22.8509C78.1558 22.8509 77.848 22.9232 77.5772 23.0678C77.3094 23.2094 77.0971 23.4064 76.9401 23.6587C76.7862 23.908 76.7093 24.1927 76.7093 24.5128V29H75.6198ZM83.9016 29.1477C83.2614 29.1477 82.6998 28.9954 82.2166 28.6907C81.7365 28.386 81.361 27.9598 81.0902 27.4119C80.8224 26.8641 80.6885 26.224 80.6885 25.4915C80.6885 24.7528 80.8224 24.1081 81.0902 23.5572C81.361 23.0063 81.7365 22.5785 82.2166 22.2738C82.6998 21.9691 83.2614 21.8168 83.9016 21.8168C84.5417 21.8168 85.1019 21.9691 85.582 22.2738C86.0652 22.5785 86.4407 23.0063 86.7084 23.5572C86.9792 24.1081 87.1147 24.7528 87.1147 25.4915C87.1147 26.224 86.9792 26.8641 86.7084 27.4119C86.4407 27.9598 86.0652 28.386 85.582 28.6907C85.1019 28.9954 84.5417 29.1477 83.9016 29.1477ZM83.9016 28.169C84.3879 28.169 84.788 28.0444 85.1019 27.7951C85.4158 27.5458 85.6482 27.218 85.799 26.8118C85.9498 26.4055 86.0252 25.9654 86.0252 25.4915C86.0252 25.0175 85.9498 24.5759 85.799 24.1665C85.6482 23.7572 85.4158 23.4264 85.1019 23.174C84.788 22.9216 84.3879 22.7955 83.9016 22.7955C83.4153 22.7955 83.0152 22.9216 82.7013 23.174C82.3874 23.4264 82.155 23.7572 82.0042 24.1665C81.8534 24.5759 81.778 25.0175 81.778 25.4915C81.778 25.9654 81.8534 26.4055 82.0042 26.8118C82.155 27.218 82.3874 27.5458 82.7013 27.7951C83.0152 28.0444 83.4153 28.169 83.9016 28.169ZM92.4384 29.1477C91.7983 29.1477 91.2366 28.9954 90.7534 28.6907C90.2733 28.386 89.8978 27.9598 89.627 27.4119C89.3592 26.8641 89.2254 26.224 89.2254 25.4915C89.2254 24.7528 89.3592 24.1081 89.627 23.5572C89.8978 23.0063 90.2733 22.5785 90.7534 22.2738C91.2366 21.9691 91.7983 21.8168 92.4384 21.8168C93.0786 21.8168 93.6387 21.9691 94.1188 22.2738C94.602 22.5785 94.9775 23.0063 95.2452 23.5572C95.5161 24.1081 95.6515 24.7528 95.6515 25.4915C95.6515 26.224 95.5161 26.8641 95.2452 27.4119C94.9775 27.9598 94.602 28.386 94.1188 28.6907C93.6387 28.9954 93.0786 29.1477 92.4384 29.1477ZM92.4384 28.169C92.9247 28.169 93.3248 28.0444 93.6387 27.7951C93.9526 27.5458 94.185 27.218 94.3358 26.8118C94.4866 26.4055 94.562 25.9654 94.562 25.4915C94.562 25.0175 94.4866 24.5759 94.3358 24.1665C94.185 23.7572 93.9526 23.4264 93.6387 23.174C93.3248 22.9216 92.9247 22.7955 92.4384 22.7955C91.9522 22.7955 91.5521 22.9216 91.2381 23.174C90.9242 23.4264 90.6919 23.7572 90.5411 24.1665C90.3902 24.5759 90.3148 25.0175 90.3148 25.4915C90.3148 25.9654 90.3902 26.4055 90.5411 26.8118C90.6919 27.218 90.9242 27.5458 91.2381 27.7951C91.5521 28.0444 91.9522 28.169 92.4384 28.169ZM98.0946 29V21.9091H99.1471V23.017H99.2395C99.3872 22.6385 99.6257 22.3446 99.955 22.1353C100.284 21.9229 100.68 21.8168 101.141 21.8168C101.609 21.8168 101.999 21.9229 102.309 22.1353C102.623 22.3446 102.868 22.6385 103.043 23.017H103.117C103.299 22.6508 103.571 22.36 103.934 22.1445C104.298 21.926 104.733 21.8168 105.241 21.8168C105.875 21.8168 106.393 22.0153 106.797 22.4123C107.2 22.8062 107.401 23.4202 107.401 24.2543V29H106.312V24.2543C106.312 23.7311 106.169 23.3571 105.883 23.1325C105.596 22.9078 105.259 22.7955 104.872 22.7955C104.373 22.7955 103.987 22.9463 103.713 23.2479C103.439 23.5464 103.302 23.925 103.302 24.3835V29H102.194V24.1435C102.194 23.7403 102.063 23.4156 101.802 23.1694C101.54 22.9201 101.203 22.7955 100.791 22.7955C100.507 22.7955 100.243 22.8709 99.9966 23.0217C99.7534 23.1725 99.5565 23.3817 99.4057 23.6495C99.2579 23.9142 99.1841 24.2204 99.1841 24.5682V29H98.0946ZM122.365 22.5H121.22C121.153 22.1707 121.034 21.8814 120.865 21.6321C120.699 21.3828 120.496 21.1735 120.256 21.0043C120.019 20.8319 119.755 20.7027 119.466 20.6165C119.177 20.5303 118.875 20.4872 118.561 20.4872C117.989 20.4872 117.47 20.6319 117.006 20.9212C116.544 21.2105 116.176 21.6367 115.902 22.1999C115.631 22.7631 115.496 23.4541 115.496 24.2727C115.496 25.0914 115.631 25.7823 115.902 26.3455C116.176 26.9087 116.544 27.335 117.006 27.6243C117.47 27.9136 117.989 28.0582 118.561 28.0582C118.875 28.0582 119.177 28.0152 119.466 27.929C119.755 27.8428 120.019 27.7151 120.256 27.5458C120.496 27.3735 120.699 27.1626 120.865 26.9134C121.034 26.661 121.153 26.3717 121.22 26.0455H122.365C122.279 26.5286 122.122 26.9611 121.894 27.3427C121.667 27.7243 121.384 28.049 121.045 28.3168C120.706 28.5814 120.326 28.783 119.905 28.9215C119.486 29.06 119.038 29.1293 118.561 29.1293C117.755 29.1293 117.038 28.9323 116.41 28.5384C115.782 28.1444 115.288 27.5843 114.928 26.858C114.568 26.1316 114.388 25.2699 114.388 24.2727C114.388 23.2756 114.568 22.4138 114.928 21.6875C115.288 20.9612 115.782 20.401 116.41 20.0071C117.038 19.6132 117.755 19.4162 118.561 19.4162C119.038 19.4162 119.486 19.4854 119.905 19.6239C120.326 19.7624 120.706 19.9656 121.045 20.2333C121.384 20.498 121.667 20.8211 121.894 21.2028C122.122 21.5813 122.279 22.0137 122.365 22.5ZM125.937 19.5455V29H124.848V19.5455H125.937ZM130.799 29.1662C130.35 29.1662 129.942 29.0816 129.576 28.9123C129.21 28.7399 128.919 28.4922 128.703 28.169C128.488 27.8428 128.38 27.4489 128.38 26.9872C128.38 26.581 128.46 26.2517 128.62 25.9993C128.78 25.7438 128.994 25.5438 129.262 25.3991C129.53 25.2545 129.825 25.1468 130.148 25.076C130.475 25.0021 130.802 24.9437 131.132 24.9006C131.563 24.8452 131.912 24.8036 132.18 24.7759C132.45 24.7451 132.647 24.6944 132.771 24.6236C132.897 24.5528 132.96 24.4297 132.96 24.2543V24.2173C132.96 23.7618 132.835 23.4079 132.586 23.1555C132.34 22.9032 131.966 22.777 131.464 22.777C130.944 22.777 130.536 22.8909 130.241 23.1186C129.945 23.3464 129.737 23.5895 129.617 23.848L128.583 23.4787C128.768 23.0478 129.014 22.7124 129.322 22.4723C129.633 22.2292 129.971 22.0599 130.338 21.9645C130.707 21.866 131.07 21.8168 131.427 21.8168C131.655 21.8168 131.916 21.8445 132.212 21.8999C132.51 21.9522 132.798 22.0614 133.075 22.2276C133.355 22.3938 133.588 22.6446 133.772 22.9801C133.957 23.3156 134.049 23.7649 134.049 24.3281V29H132.96V28.0398H132.904C132.831 28.1937 132.707 28.3583 132.535 28.5337C132.363 28.7092 132.133 28.8584 131.847 28.9815C131.561 29.1046 131.212 29.1662 130.799 29.1662ZM130.965 28.1875C131.396 28.1875 131.76 28.1029 132.055 27.9336C132.353 27.7643 132.578 27.5458 132.729 27.2781C132.883 27.0103 132.96 26.7287 132.96 26.4332V25.4361C132.914 25.4915 132.812 25.5423 132.655 25.5884C132.501 25.6315 132.323 25.67 132.12 25.7038C131.92 25.7346 131.724 25.7623 131.533 25.7869C131.346 25.8085 131.193 25.8269 131.076 25.8423C130.793 25.8793 130.528 25.9393 130.282 26.0224C130.039 26.1024 129.842 26.224 129.691 26.3871C129.544 26.5471 129.47 26.7656 129.47 27.0426C129.47 27.4212 129.61 27.7074 129.89 27.9013C130.173 28.0921 130.532 28.1875 130.965 28.1875ZM141.841 23.4972L140.862 23.7741C140.8 23.611 140.71 23.4525 140.589 23.2987C140.473 23.1417 140.312 23.0124 140.109 22.9109C139.906 22.8093 139.646 22.7585 139.329 22.7585C138.895 22.7585 138.534 22.8585 138.244 23.0586C137.958 23.2556 137.815 23.5064 137.815 23.8111C137.815 24.0819 137.913 24.2958 138.11 24.4528C138.307 24.6097 138.615 24.7405 139.034 24.8452L140.086 25.1037C140.72 25.2576 141.193 25.493 141.504 25.81C141.814 26.1239 141.97 26.5286 141.97 27.0241C141.97 27.4304 141.853 27.7936 141.619 28.1136C141.388 28.4337 141.065 28.6861 140.649 28.8707C140.234 29.0554 139.751 29.1477 139.2 29.1477C138.477 29.1477 137.878 28.9908 137.404 28.6768C136.93 28.3629 136.63 27.9044 136.504 27.3011L137.538 27.0426C137.636 27.4242 137.823 27.7105 138.097 27.9013C138.374 28.0921 138.735 28.1875 139.181 28.1875C139.689 28.1875 140.092 28.0798 140.391 27.8643C140.693 27.6458 140.843 27.3842 140.843 27.0795C140.843 26.8333 140.757 26.6271 140.585 26.4609C140.413 26.2917 140.148 26.1655 139.791 26.0824L138.609 25.8054C137.96 25.6515 137.483 25.413 137.178 25.0898C136.876 24.7636 136.725 24.3558 136.725 23.8665C136.725 23.4664 136.838 23.1125 137.062 22.8047C137.29 22.4969 137.6 22.2553 137.99 22.0799C138.384 21.9045 138.831 21.8168 139.329 21.8168C140.031 21.8168 140.582 21.9706 140.982 22.2784C141.385 22.5862 141.671 22.9924 141.841 23.4972ZM149.413 23.4972L148.434 23.7741C148.372 23.611 148.282 23.4525 148.161 23.2987C148.045 23.1417 147.884 23.0124 147.681 22.9109C147.478 22.8093 147.218 22.7585 146.901 22.7585C146.467 22.7585 146.106 22.8585 145.816 23.0586C145.53 23.2556 145.387 23.5064 145.387 23.8111C145.387 24.0819 145.485 24.2958 145.682 24.4528C145.879 24.6097 146.187 24.7405 146.606 24.8452L147.658 25.1037C148.292 25.2576 148.765 25.493 149.076 25.81C149.386 26.1239 149.542 26.5286 149.542 27.0241C149.542 27.4304 149.425 27.7936 149.191 28.1136C148.96 28.4337 148.637 28.6861 148.221 28.8707C147.806 29.0554 147.323 29.1477 146.772 29.1477C146.049 29.1477 145.45 28.9908 144.976 28.6768C144.502 28.3629 144.202 27.9044 144.076 27.3011L145.11 27.0426C145.208 27.4242 145.395 27.7105 145.669 27.9013C145.946 28.0921 146.307 28.1875 146.753 28.1875C147.261 28.1875 147.664 28.0798 147.963 27.8643C148.265 27.6458 148.415 27.3842 148.415 27.0795C148.415 26.8333 148.329 26.6271 148.157 26.4609C147.985 26.2917 147.72 26.1655 147.363 26.0824L146.181 25.8054C145.532 25.6515 145.055 25.413 144.75 25.0898C144.448 24.7636 144.297 24.3558 144.297 23.8665C144.297 23.4664 144.41 23.1125 144.634 22.8047C144.862 22.4969 145.172 22.2553 145.562 22.0799C145.956 21.9045 146.403 21.8168 146.901 21.8168C147.603 21.8168 148.154 21.9706 148.554 22.2784C148.957 22.5862 149.243 22.9924 149.413 23.4972ZM151.962 29V21.9091H153.051V29H151.962ZM152.516 20.7273C152.303 20.7273 152.12 20.6549 151.966 20.5103C151.816 20.3656 151.74 20.1918 151.74 19.9886C151.74 19.7855 151.816 19.6116 151.966 19.467C152.12 19.3223 152.303 19.25 152.516 19.25C152.728 19.25 152.91 19.3223 153.061 19.467C153.214 19.6116 153.291 19.7855 153.291 19.9886C153.291 20.1918 153.214 20.3656 153.061 20.5103C152.91 20.6549 152.728 20.7273 152.516 20.7273ZM158.707 29.1477C158.043 29.1477 157.47 28.9908 156.99 28.6768C156.51 28.3629 156.141 27.9305 155.882 27.3796C155.624 26.8287 155.494 26.1993 155.494 25.4915C155.494 24.7713 155.627 24.1358 155.891 23.5849C156.159 23.0309 156.532 22.5985 157.009 22.2876C157.489 21.9737 158.049 21.8168 158.689 21.8168C159.188 21.8168 159.637 21.9091 160.037 22.0938C160.437 22.2784 160.765 22.5369 161.02 22.8693C161.276 23.2017 161.434 23.5895 161.496 24.0327H160.406C160.323 23.7095 160.139 23.4233 159.852 23.174C159.569 22.9216 159.188 22.7955 158.707 22.7955C158.283 22.7955 157.91 22.9062 157.59 23.1278C157.273 23.3464 157.026 23.6557 156.847 24.0558C156.672 24.4528 156.584 24.919 156.584 25.4545C156.584 26.0024 156.67 26.4794 156.842 26.8857C157.018 27.2919 157.264 27.6074 157.581 27.832C157.901 28.0567 158.277 28.169 158.707 28.169C158.991 28.169 159.248 28.1198 159.478 28.0213C159.709 27.9228 159.905 27.7812 160.065 27.5966C160.225 27.4119 160.339 27.1903 160.406 26.9318H161.496C161.434 27.3504 161.282 27.7274 161.039 28.0629C160.799 28.3952 160.48 28.6599 160.083 28.8569C159.689 29.0508 159.231 29.1477 158.707 29.1477Z" fill="white"/>
<path d="M41.1449 29H40.6449V29.5H41.1449V29ZM41.1449 19.5455V19.0455H40.6449V19.5455H41.1449ZM42.2898 19.5455H42.7898V19.0455H42.2898V19.5455ZM42.2898 27.9844H41.7898V28.4844H42.2898V27.9844ZM46.6847 27.9844H47.1847V27.4844H46.6847V27.9844ZM46.6847 29V29.5H47.1847V29H46.6847ZM41.6449 29V19.5455H40.6449V29H41.6449ZM41.1449 20.0455H42.2898V19.0455H41.1449V20.0455ZM41.7898 19.5455V27.9844H42.7898V19.5455H41.7898ZM42.2898 28.4844H46.6847V27.4844H42.2898V28.4844ZM46.1847 27.9844V29H47.1847V27.9844H46.1847ZM46.6847 28.5H41.1449V29.5H46.6847V28.5ZM49.0897 29H48.5897V29.5H49.0897V29ZM49.0897 21.9091V21.4091H48.5897V21.9091H49.0897ZM50.1791 21.9091H50.6791V21.4091H50.1791V21.9091ZM50.1791 29V29.5H50.6791V29H50.1791ZM49.0943 20.5103L48.7481 20.8712L48.7518 20.8746L49.0943 20.5103ZM49.0943 19.467L48.7518 19.1026L48.7482 19.1061L49.0943 19.467ZM50.1884 19.467L49.8423 19.8278L49.8459 19.8313L50.1884 19.467ZM50.1884 20.5103L49.8459 20.146L49.8423 20.1495L50.1884 20.5103ZM49.5897 29V21.9091H48.5897V29H49.5897ZM49.0897 22.4091H50.1791V21.4091H49.0897V22.4091ZM49.6791 21.9091V29H50.6791V21.9091H49.6791ZM50.1791 28.5H49.0897V29.5H50.1791V28.5ZM49.6436 20.2273C49.5578 20.2273 49.4973 20.2029 49.4367 20.146L48.7518 20.8746C48.999 21.107 49.3048 21.2273 49.6436 21.2273V20.2273ZM49.4404 20.1495C49.3847 20.0961 49.3681 20.0512 49.3681 19.9886H48.3681C48.3681 20.3323 48.5022 20.6352 48.7482 20.8711L49.4404 20.1495ZM49.3681 19.9886C49.3681 19.9261 49.3847 19.8812 49.4404 19.8278L48.7482 19.1061C48.5022 19.342 48.3681 19.6449 48.3681 19.9886H49.3681ZM49.4367 19.8313C49.4973 19.7743 49.5578 19.75 49.6436 19.75V18.75C49.3048 18.75 48.999 18.8703 48.7518 19.1027L49.4367 19.8313ZM49.6436 19.75C49.7293 19.75 49.7862 19.7741 49.8423 19.8278L50.5345 19.1061C50.2889 18.8706 49.9827 18.75 49.6436 18.75V19.75ZM49.8459 19.8313C49.9038 19.8857 49.9192 19.9295 49.9192 19.9886H50.9192C50.9192 19.6415 50.7807 19.3376 50.5308 19.1027L49.8459 19.8313ZM49.9192 19.9886C49.9192 20.0477 49.9038 20.0916 49.8459 20.146L50.5308 20.8746C50.7807 20.6397 50.9192 20.3358 50.9192 19.9886H49.9192ZM49.8423 20.1495C49.7862 20.2032 49.7293 20.2273 49.6436 20.2273V21.2273C49.9827 21.2273 50.2889 21.1067 50.5345 20.8711L49.8423 20.1495ZM54.4596 31.6037L54.628 31.1329L54.6246 31.1317L54.4596 31.6037ZM53.5132 31.0774L53.8405 30.6994L53.8401 30.6991L53.5132 31.0774ZM52.9177 30.3849L52.6304 29.9757L52.2495 30.2431L52.4889 30.6422L52.9177 30.3849ZM53.7856 29.7756L54.1833 29.4725L53.8919 29.09L53.4983 29.3664L53.7856 29.7756ZM54.1595 30.2188L54.5329 29.8861L54.5298 29.8828L54.1595 30.2188ZM54.7781 30.6573L54.9933 30.206L54.991 30.2049L54.7781 30.6573ZM57.2341 30.4311L57.5325 30.8323L57.5325 30.8323L57.2341 30.4311ZM57.7927 27.6889H58.2927V27.1889H57.7927V27.6889ZM57.7004 27.6889V27.1889H57.4218L57.2752 27.4257L57.7004 27.6889ZM57.3587 28.169L56.9634 27.8629L56.9627 27.8639L57.3587 28.169ZM56.7309 28.6722L56.9665 29.1133L56.9682 29.1123L56.7309 28.6722ZM54.0903 28.483L53.8335 28.912L53.8347 28.9127L54.0903 28.483ZM53.0146 27.3011L52.5685 27.5269L52.5696 27.529L53.0146 27.3011ZM53.0054 23.5202L53.4572 23.7345L53.4576 23.7335L53.0054 23.5202ZM54.0718 22.2646L54.3439 22.684L54.3459 22.6827L54.0718 22.2646ZM56.7494 22.0476L56.5023 22.4824L56.5082 22.4856L56.7494 22.0476ZM57.3772 22.5646L56.9764 22.8637L56.9818 22.8707L57.3772 22.5646ZM57.7188 23.0355L57.2996 23.308L57.4475 23.5355H57.7188V23.0355ZM57.8296 23.0355V23.5355H58.3296V23.0355H57.8296ZM57.8296 21.9091V21.4091H57.3296V21.9091H57.8296ZM58.8822 21.9091H59.3822V21.4091H58.8822V21.9091ZM58.4667 30.6896L58.062 30.3959L58.0594 30.3996L58.4667 30.6896ZM57.3587 31.5344L57.1795 31.0677L57.1757 31.0691L57.3587 31.5344ZM56.8879 27.6104L56.6115 27.1938L56.6115 27.1938L56.8879 27.6104ZM57.5757 26.7472L58.037 26.94L58.037 26.94L57.5757 26.7472ZM57.5803 24.0465L58.0456 23.8634L58.0456 23.8634L57.5803 24.0465ZM56.8971 23.1278L56.6011 23.5308L56.6011 23.5308L56.8971 23.1278ZM54.6258 23.1463L54.3232 22.7482L54.3213 22.7497L54.6258 23.1463ZM53.9379 24.0881L53.4722 23.9061L53.471 23.9093L53.9379 24.0881ZM53.9425 26.7056L53.4793 26.8939L53.4812 26.8985L53.9425 26.7056ZM54.635 27.592L54.3463 28.0003L54.3511 28.0035L54.635 27.592ZM55.8168 31.3068C55.3312 31.3068 54.9387 31.2441 54.628 31.1329L54.2912 32.0745C54.7376 32.2342 55.2499 32.3068 55.8168 32.3068V31.3068ZM54.6246 31.1317C54.2939 31.0161 54.0366 30.8692 53.8405 30.6994L53.1859 31.4554C53.4945 31.7226 53.8682 31.9266 54.2946 32.0757L54.6246 31.1317ZM53.8401 30.6991C53.6252 30.5133 53.4632 30.3223 53.3464 30.1277L52.4889 30.6422C52.6677 30.9401 52.9027 31.2106 53.1863 31.4557L53.8401 30.6991ZM53.205 30.7941L54.0729 30.1848L53.4983 29.3664L52.6304 29.9757L53.205 30.7941ZM53.3879 30.0786C53.4976 30.2226 53.6321 30.3816 53.7892 30.5547L54.5298 29.8828C54.3853 29.7235 54.2706 29.5871 54.1833 29.4725L53.3879 30.0786ZM53.7862 30.5514C53.9924 30.7828 54.2588 30.9655 54.5652 31.1097L54.991 30.2049C54.7743 30.1029 54.6283 29.9933 54.5328 29.8861L53.7862 30.5514ZM54.563 31.1086C54.9184 31.2781 55.3461 31.3466 55.8168 31.3466V30.3466C55.432 30.3466 55.1672 30.2889 54.9933 30.206L54.563 31.1086ZM55.8168 31.3466C56.4712 31.3466 57.0554 31.1872 57.5325 30.8323L56.9357 30.0299C56.668 30.229 56.3073 30.3466 55.8168 30.3466V31.3466ZM57.5325 30.8323C58.0657 30.4357 58.2927 29.8306 58.2927 29.1293H57.2927C57.2927 29.6098 57.1473 29.8725 56.9357 30.0299L57.5325 30.8323ZM58.2927 29.1293V27.6889H57.2927V29.1293H58.2927ZM57.7927 27.1889H57.7004V28.1889H57.7927V27.1889ZM57.2752 27.4257C57.2081 27.5342 57.1058 27.6789 56.9634 27.8629L57.7541 28.4751C57.9071 28.2775 58.0326 28.1021 58.1255 27.9521L57.2752 27.4257ZM56.9627 27.8639C56.872 27.9815 56.7241 28.1078 56.4936 28.2322L56.9682 29.1123C57.2855 28.9412 57.5561 28.7321 57.7548 28.4742L56.9627 27.8639ZM56.4953 28.2312C56.3244 28.3225 56.0497 28.3892 55.6322 28.3892V29.3892C56.138 29.3892 56.5957 29.3113 56.9665 29.1133L56.4953 28.2312ZM55.6322 28.3892C55.1422 28.3892 54.7178 28.2744 54.3458 28.0532L53.8347 28.9127C54.3737 29.2332 54.9773 29.3892 55.6322 29.3892V28.3892ZM54.3471 28.054C53.9831 27.836 53.6862 27.5157 53.4597 27.0733L52.5696 27.529C52.8724 28.1206 53.2926 28.5882 53.8335 28.912L54.3471 28.054ZM53.4608 27.0754C53.243 26.6449 53.1222 26.0988 53.1222 25.4176H52.1222C52.1222 26.2137 52.2631 26.9233 52.5685 27.5269L53.4608 27.0754ZM53.1222 25.4176C53.1222 24.7495 53.2397 24.1931 53.4572 23.7345L52.5536 23.306C52.2603 23.9245 52.1222 24.6331 52.1222 25.4176H53.1222ZM53.4576 23.7335C53.6776 23.267 53.9744 22.9237 54.3439 22.684L53.7997 21.8451C53.2582 22.1963 52.8441 22.6901 52.5532 23.307L53.4576 23.7335ZM54.3459 22.6827C54.7121 22.4427 55.1412 22.3168 55.6506 22.3168V21.3168C54.966 21.3168 54.3425 21.4894 53.7977 21.8464L54.3459 22.6827ZM55.6506 22.3168C56.0645 22.3168 56.3346 22.387 56.5024 22.4823L56.9964 21.6129C56.6225 21.4004 56.1601 21.3168 55.6506 21.3168V22.3168ZM56.5082 22.4856C56.7372 22.6116 56.885 22.7411 56.9764 22.8636L57.778 22.2656C57.5801 22.0004 57.3094 21.7851 56.9905 21.6096L56.5082 22.4856ZM56.9818 22.8707C57.1258 23.0566 57.2303 23.2014 57.2996 23.308L58.138 22.763C58.0473 22.6235 57.9241 22.4543 57.7726 22.2585L56.9818 22.8707ZM57.7188 23.5355H57.8296V22.5355H57.7188V23.5355ZM58.3296 23.0355V21.9091H57.3296V23.0355H58.3296ZM57.8296 22.4091H58.8822V21.4091H57.8296V22.4091ZM58.3822 21.9091V29.2031H59.3822V21.9091H58.3822ZM58.3822 29.2031C58.3822 29.7378 58.2611 30.1217 58.062 30.3959L58.8713 30.9833C59.2262 30.4943 59.3822 29.8872 59.3822 29.2031H58.3822ZM58.0594 30.3996C57.8456 30.6998 57.5577 30.9224 57.1795 31.0677L57.538 32.0012C58.0892 31.7895 58.5399 31.4488 58.874 30.9796L58.0594 30.3996ZM57.1757 31.0691C56.78 31.2248 56.3293 31.3068 55.8168 31.3068V32.3068C56.437 32.3068 57.0142 32.2073 57.5418 31.9997L57.1757 31.0691ZM55.7799 28.4105C56.2946 28.4105 56.765 28.2919 57.1642 28.0271L56.6115 27.1938C56.4075 27.3291 56.1393 27.4105 55.7799 27.4105V28.4105ZM57.1642 28.0271C57.5583 27.7658 57.8468 27.395 58.037 26.94L57.1144 26.5543C56.9907 26.8503 56.8207 27.055 56.6115 27.1938L57.1642 28.0271ZM58.037 26.94C58.2257 26.4887 58.3112 25.9705 58.3112 25.3991H57.3112C57.3112 25.8742 57.2397 26.2547 57.1144 26.5543L58.037 26.94ZM58.3112 25.3991C58.3112 24.8387 58.2268 24.3237 58.0456 23.8634L57.1151 24.2297C57.2416 24.5511 57.3112 24.9378 57.3112 25.3991H58.3112ZM58.0456 23.8634C57.8615 23.3958 57.5798 23.009 57.1931 22.7249L56.6011 23.5308C56.8176 23.6899 56.9914 23.9155 57.1151 24.2297L58.0456 23.8634ZM57.1931 22.7249C56.7907 22.4293 56.3094 22.2955 55.7799 22.2955V23.2955C56.1368 23.2955 56.4002 23.3832 56.6011 23.5308L57.1931 22.7249ZM55.7799 22.2955C55.2309 22.2955 54.734 22.4361 54.3232 22.7482L54.9283 23.5444C55.1331 23.3887 55.4056 23.2955 55.7799 23.2955V22.2955ZM54.3213 22.7497C53.9371 23.0446 53.6558 23.4361 53.4722 23.9061L54.4037 24.27C54.5278 23.9521 54.7051 23.7158 54.9303 23.5429L54.3213 22.7497ZM53.471 23.9093C53.2955 24.3676 53.2117 24.8663 53.2117 25.3991H54.2117C54.2117 24.9718 54.2787 24.5964 54.4049 24.2668L53.471 23.9093ZM53.2117 25.3991C53.2117 25.9432 53.2967 26.4446 53.4794 26.8939L54.4057 26.5173C54.2806 26.2095 54.2117 25.8399 54.2117 25.3991H53.2117ZM53.4812 26.8985C53.671 27.3524 53.9581 27.7257 54.3464 28.0002L54.9237 27.1837C54.7025 27.0273 54.528 26.8098 54.4039 26.5128L53.4812 26.8985ZM54.3511 28.0035C54.759 28.285 55.2454 28.4105 55.7799 28.4105V27.4105C55.4034 27.4105 55.1265 27.3236 54.919 27.1804L54.3511 28.0035ZM62.746 29V29.5H63.246V29H62.746ZM61.6565 29H61.1565V29.5H61.6565V29ZM61.6565 19.5455V19.0455H61.1565V19.5455H61.6565ZM62.746 19.5455H63.246V19.0455H62.746V19.5455ZM62.746 23.017H62.246V23.517H62.746V23.017ZM62.8383 23.017V23.517H63.1605L63.2936 23.2237L62.8383 23.017ZM63.5862 22.1445L63.8581 22.5641L63.8591 22.5635L63.5862 22.1445ZM66.1945 22.1076L65.959 22.5487L65.9619 22.5502L66.1945 22.1076ZM67.0393 22.9893L66.5928 23.2143L66.5949 23.2185L67.0393 22.9893ZM67.344 29V29.5H67.844V29H67.344ZM66.2545 29H65.7545V29.5H66.2545V29ZM65.8159 23.2617L65.4499 23.6024L65.4534 23.6061L65.8159 23.2617ZM63.6508 23.0217L63.4158 22.5803L63.4138 22.5814L63.6508 23.0217ZM62.986 23.6818L62.5505 23.4362L62.5485 23.4398L62.986 23.6818ZM62.246 24.7344V29H63.246V24.7344H62.246ZM62.746 28.5H61.6565V29.5H62.746V28.5ZM62.1565 29V19.5455H61.1565V29H62.1565ZM61.6565 20.0455H62.746V19.0455H61.6565V20.0455ZM62.246 19.5455V23.017H63.246V19.5455H62.246ZM62.746 23.517H62.8383V22.517H62.746V23.517ZM63.2936 23.2237C63.421 22.9431 63.6073 22.7267 63.8581 22.5641L63.3142 21.725C62.9003 21.9932 62.5881 22.3586 62.383 22.8104L63.2936 23.2237ZM63.8591 22.5635C64.0874 22.4148 64.4283 22.3168 64.925 22.3168V21.3168C64.3075 21.3168 63.7559 21.4373 63.3133 21.7256L63.8591 22.5635ZM64.925 22.3168C65.3403 22.3168 65.6799 22.3997 65.959 22.5487L66.43 21.6665C65.9827 21.4277 65.476 21.3168 64.925 21.3168V22.3168ZM65.9619 22.5502C66.225 22.6885 66.4355 22.9022 66.5928 23.2143L67.4858 22.7644C67.243 22.2825 66.8903 21.9084 66.4271 21.665L65.9619 22.5502ZM66.5949 23.2185C66.7504 23.5201 66.844 23.9363 66.844 24.4943H67.844C67.844 23.8335 67.7345 23.2465 67.4837 22.7602L66.5949 23.2185ZM66.844 24.4943V29H67.844V24.4943H66.844ZM67.344 28.5H66.2545V29.5H67.344V28.5ZM66.7545 29V24.5682H65.7545V29H66.7545ZM66.7545 24.5682C66.7545 23.9198 66.5848 23.3451 66.1784 22.9173L65.4534 23.6061C65.6318 23.7938 65.7545 24.0901 65.7545 24.5682H66.7545ZM66.182 22.9211C65.7785 22.4876 65.2323 22.2955 64.611 22.2955V23.2955C65.0177 23.2955 65.2748 23.4141 65.4499 23.6024L66.182 22.9211ZM64.611 22.2955C64.1815 22.2955 63.7791 22.3868 63.4158 22.5804L63.8859 23.463C64.0888 23.3549 64.3266 23.2955 64.611 23.2955V22.2955ZM63.4138 22.5814C63.0467 22.7791 62.7579 23.0684 62.5505 23.4362L63.4216 23.9274C63.5404 23.7166 63.6948 23.5659 63.8879 23.4619L63.4138 22.5814ZM62.5485 23.4398C62.3386 23.8193 62.246 24.2579 62.246 24.7344H63.246C63.246 24.386 63.3134 24.1229 63.4236 23.9238L62.5485 23.4398ZM73.201 21.9091H73.701V21.4091H73.201V21.9091ZM73.201 22.8324V23.3324H73.701V22.8324H73.201ZM69.5262 22.8324H69.0262V23.3324H69.5262V22.8324ZM69.5262 21.9091V21.4091H69.0262V21.9091H69.5262ZM70.5973 20.2102V19.7102H70.0973V20.2102H70.5973ZM71.6868 20.2102H72.1868V19.7102H71.6868V20.2102ZM71.8206 27.6612L71.388 27.9122L71.3942 27.9223L71.8206 27.6612ZM72.1715 27.9659L71.9981 28.4351L72.0104 28.4392L72.1715 27.9659ZM72.924 28.0213L73.003 28.515L73.0125 28.5135L73.022 28.5116L72.924 28.0213ZM73.1086 27.9844L73.5963 27.874L73.4886 27.3985L73.0106 27.4941L73.1086 27.9844ZM73.3302 28.9631L73.5058 29.4312L73.9142 29.2781L73.8179 28.8527L73.3302 28.9631ZM73.0209 29.0462L72.9185 28.5566L72.9077 28.5592L73.0209 29.0462ZM71.6129 28.8938L71.4067 29.3493L71.4085 29.3501L71.6129 28.8938ZM70.8835 28.2891L70.4747 28.577L70.4769 28.5801L70.8835 28.2891ZM72.701 21.9091V22.8324H73.701V21.9091H72.701ZM73.201 22.3324H69.5262V23.3324H73.201V22.3324ZM70.0262 22.8324V21.9091H69.0262V22.8324H70.0262ZM69.5262 22.4091H73.201V21.4091H69.5262V22.4091ZM70.5973 20.7102H71.6868V19.7102H70.5973V20.7102ZM71.1868 20.2102V26.9688H72.1868V20.2102H71.1868ZM71.1868 26.9688C71.1868 27.3085 71.2331 27.6449 71.3881 27.9121L72.2532 27.4104C72.2296 27.3698 72.1868 27.2446 72.1868 26.9688H71.1868ZM71.3942 27.9223C71.5347 28.1517 71.7339 28.3372 71.9982 28.4349L72.3448 27.4969C72.326 27.4899 72.2913 27.4723 72.2471 27.4001L71.3942 27.9223ZM72.0104 28.4392C72.2093 28.507 72.4163 28.5398 72.6285 28.5398V27.5398C72.5207 27.5398 72.423 27.5233 72.3326 27.4926L72.0104 28.4392ZM72.6285 28.5398C72.7625 28.5398 72.8899 28.5331 73.003 28.515L72.845 27.5276C72.8041 27.5341 72.7346 27.5398 72.6285 27.5398V28.5398ZM73.022 28.5116C73.099 28.4962 73.1605 28.4839 73.2067 28.4747L73.0106 27.4941C72.9644 27.5033 72.9029 27.5156 72.8259 27.531L73.022 28.5116ZM72.621 28.0948L72.8426 29.0735L73.8179 28.8527L73.5963 27.874L72.621 28.0948ZM73.1547 28.4949C73.1155 28.5096 73.0408 28.5312 72.9185 28.5568L73.1234 29.5356C73.2657 29.5058 73.3972 29.472 73.5058 29.4312L73.1547 28.4949ZM72.9077 28.5592C72.8259 28.5782 72.6995 28.5923 72.5177 28.5923V29.5923C72.7422 29.5923 72.9513 29.5757 73.1342 29.5332L72.9077 28.5592ZM72.5177 28.5923C72.284 28.5923 72.0519 28.5426 71.8173 28.4375L71.4085 29.3501C71.7648 29.5097 72.1359 29.5923 72.5177 29.5923V28.5923ZM71.8191 28.4383C71.6099 28.3436 71.4348 28.2002 71.29 27.998L70.4769 28.5801C70.72 28.9196 71.0311 29.1793 71.4067 29.3493L71.8191 28.4383ZM71.2922 28.0011C71.174 27.8332 71.0973 27.599 71.0973 27.2642H70.0973C70.0973 27.7542 70.2114 28.2032 70.4748 28.577L71.2922 28.0011ZM71.0973 27.2642V20.2102H70.0973V27.2642H71.0973ZM75.6198 29H75.1198V29.5H75.6198V29ZM75.6198 21.9091V21.4091H75.1198V21.9091H75.6198ZM76.6724 21.9091H77.1724V21.4091H76.6724V21.9091ZM76.6724 22.9801H76.1724V23.4801H76.6724V22.9801ZM76.7462 22.9801V23.4801H77.0949L77.2154 23.153L76.7462 22.9801ZM77.4479 22.1261L77.1768 21.706L77.1768 21.706L77.4479 22.1261ZM79.1653 21.8168H79.6653V21.3643L79.215 21.3192L79.1653 21.8168ZM79.1653 22.9247L79.044 23.4098L79.6653 23.5651V22.9247H79.1653ZM78.9114 22.8832L78.8291 23.3765L78.8423 23.3784L78.9114 22.8832ZM77.5772 23.0678L77.8109 23.5098L77.8128 23.5089L77.5772 23.0678ZM76.9401 23.6587L76.5155 23.3947L76.5147 23.3961L76.9401 23.6587ZM76.7093 29V29.5H77.2093V29H76.7093ZM76.1198 29V21.9091H75.1198V29H76.1198ZM75.6198 22.4091H76.6724V21.4091H75.6198V22.4091ZM76.1724 21.9091V22.9801H77.1724V21.9091H76.1724ZM76.6724 23.4801H76.7462V22.4801H76.6724V23.4801ZM77.2154 23.153C77.3042 22.9119 77.4641 22.7107 77.7191 22.5462L77.1768 21.706C76.7547 21.9784 76.4468 22.3466 76.2771 22.8073L77.2154 23.153ZM77.7191 22.5462C77.9723 22.3827 78.2588 22.2983 78.5928 22.2983V21.2983C78.0774 21.2983 77.6006 21.4324 77.1768 21.706L77.7191 22.5462ZM78.5928 22.2983C78.667 22.2983 78.7624 22.2997 78.8801 22.3027L78.9057 21.3031C78.7833 21.2999 78.6787 21.2983 78.5928 21.2983V22.2983ZM78.8801 22.3027C78.9969 22.3057 79.0729 22.31 79.1155 22.3143L79.215 21.3192C79.1346 21.3112 79.0289 21.3062 78.9057 21.3031L78.8801 22.3027ZM78.6653 21.8168V22.9247H79.6653V21.8168H78.6653ZM79.2865 22.4396C79.2186 22.4227 79.1053 22.4054 78.9805 22.388L78.8423 23.3784C78.9064 23.3873 78.9564 23.3948 78.9934 23.4008C79.0346 23.4076 79.0473 23.4106 79.044 23.4098L79.2865 22.4396ZM78.9936 22.39C78.8345 22.3635 78.6699 22.3509 78.5005 22.3509V23.3509C78.6204 23.3509 78.7297 23.3598 78.8292 23.3764L78.9936 22.39ZM78.5005 22.3509C78.0839 22.3509 77.6935 22.4389 77.3416 22.6268L77.8128 23.5089C78.0026 23.4075 78.2277 23.3509 78.5005 23.3509V22.3509ZM77.3435 22.6258C76.9991 22.8079 76.7202 23.0656 76.5155 23.3947L77.3647 23.9228C77.474 23.7471 77.6198 23.6109 77.8109 23.5098L77.3435 22.6258ZM76.5147 23.3961C76.3076 23.7316 76.2093 24.1088 76.2093 24.5128H77.2093C77.2093 24.2766 77.2649 24.0845 77.3656 23.9214L76.5147 23.3961ZM76.2093 24.5128V29H77.2093V24.5128H76.2093ZM76.7093 28.5H75.6198V29.5H76.7093V28.5ZM82.2166 28.6907L81.9487 29.1129L81.9499 29.1136L82.2166 28.6907ZM81.0902 27.4119L80.6409 27.6315L80.6419 27.6335L81.0902 27.4119ZM81.0902 23.5572L80.6414 23.3366L80.6405 23.3386L81.0902 23.5572ZM82.2166 22.2738L81.9499 21.8509L81.9487 21.8516L82.2166 22.2738ZM85.582 22.2738L85.3141 22.696L85.3153 22.6967L85.582 22.2738ZM86.7084 23.5572L86.2587 23.7757L86.2597 23.7778L86.7084 23.5572ZM86.7084 27.4119L86.2602 27.1903L86.2592 27.1924L86.7084 27.4119ZM85.582 28.6907L85.3153 28.2678L85.3141 28.2685L85.582 28.6907ZM85.1019 27.7951L84.7909 27.4035L84.7909 27.4035L85.1019 27.7951ZM85.799 26.8118L86.2677 26.9858L86.2677 26.9858L85.799 26.8118ZM85.799 24.1665L86.2681 23.9937L86.2681 23.9937L85.799 24.1665ZM85.1019 23.174L85.4152 22.7843L85.4152 22.7843L85.1019 23.174ZM82.7013 23.174L82.388 22.7843L82.388 22.7843L82.7013 23.174ZM82.0042 24.1665L81.535 23.9937L81.535 23.9937L82.0042 24.1665ZM82.0042 26.8118L81.5355 26.9858L81.5355 26.9858L82.0042 26.8118ZM82.7013 27.7951L83.0122 27.4035L83.0122 27.4035L82.7013 27.7951ZM83.9016 28.6477C83.3441 28.6477 82.8772 28.5162 82.4833 28.2678L81.9499 29.1136C82.5223 29.4746 83.1788 29.6477 83.9016 29.6477V28.6477ZM82.4845 28.2685C82.0875 28.0166 81.7718 27.6624 81.5384 27.1903L80.6419 27.6335C80.9502 28.2571 81.3854 28.7554 81.9487 29.1129L82.4845 28.2685ZM81.5394 27.1924C81.3111 26.7253 81.1885 26.163 81.1885 25.4915H80.1885C80.1885 26.2849 80.3337 27.0029 80.6409 27.6315L81.5394 27.1924ZM81.1885 25.4915C81.1885 24.8132 81.3113 24.2459 81.5399 23.7757L80.6405 23.3386C80.3335 23.9702 80.1885 24.6925 80.1885 25.4915H81.1885ZM81.5389 23.7778C81.7725 23.3026 82.0882 22.9474 82.4845 22.696L81.9487 21.8516C81.3847 22.2095 80.9495 22.71 80.6414 23.3366L81.5389 23.7778ZM82.4833 22.6967C82.8772 22.4483 83.3441 22.3168 83.9016 22.3168V21.3168C83.1788 21.3168 82.5223 21.4899 81.9499 21.8509L82.4833 22.6967ZM83.9016 22.3168C84.4591 22.3168 84.9238 22.4483 85.3141 22.696L85.8499 21.8516C85.2799 21.4899 84.6243 21.3168 83.9016 21.3168V22.3168ZM85.3153 22.6967C85.7139 22.9481 86.0286 23.3024 86.2587 23.7757L87.1581 23.3386C86.8527 22.7102 86.4165 22.2089 85.8487 21.8509L85.3153 22.6967ZM86.2597 23.7778C86.4906 24.2475 86.6147 24.814 86.6147 25.4915H87.6147C87.6147 24.6917 87.4679 23.9687 87.1571 23.3366L86.2597 23.7778ZM86.6147 25.4915C86.6147 26.1622 86.4908 26.7238 86.2602 27.1903L87.1566 27.6335C87.4676 27.0044 87.6147 26.2857 87.6147 25.4915H86.6147ZM86.2592 27.1924C86.0293 27.6626 85.7146 28.016 85.3153 28.2678L85.8487 29.1136C86.4158 28.756 86.852 28.2569 87.1576 27.6315L86.2592 27.1924ZM85.3141 28.2685C84.9238 28.5162 84.4591 28.6477 83.9016 28.6477V29.6477C84.6243 29.6477 85.2799 29.4746 85.8499 29.1129L85.3141 28.2685ZM83.9016 28.669C84.4759 28.669 84.9928 28.5202 85.4128 28.1867L84.7909 27.4035C84.5831 27.5686 84.2998 27.669 83.9016 27.669V28.669ZM85.4128 28.1867C85.804 27.876 86.0878 27.4704 86.2677 26.9858L85.3302 26.6378C85.2085 26.9657 85.0276 27.2156 84.7909 27.4035L85.4128 28.1867ZM86.2677 26.9858C86.441 26.5189 86.5252 26.0193 86.5252 25.4915H85.5252C85.5252 25.9116 85.4585 26.2922 85.3302 26.6378L86.2677 26.9858ZM86.5252 25.4915C86.5252 24.9636 86.441 24.463 86.2681 23.9937L85.3298 24.3394C85.4585 24.6888 85.5252 25.0714 85.5252 25.4915H86.5252ZM86.2681 23.9937C86.0887 23.5066 85.8056 23.0982 85.4152 22.7843L84.7886 23.5637C85.026 23.7546 85.2076 24.0078 85.3298 24.3394L86.2681 23.9937ZM85.4152 22.7843C84.9951 22.4466 84.4774 22.2955 83.9016 22.2955V23.2955C84.2984 23.2955 84.5808 23.3967 84.7886 23.5637L85.4152 22.7843ZM83.9016 22.2955C83.3258 22.2955 82.8081 22.4466 82.388 22.7843L83.0146 23.5637C83.2224 23.3967 83.5048 23.2955 83.9016 23.2955V22.2955ZM82.388 22.7843C81.9976 23.0982 81.7145 23.5066 81.535 23.9937L82.4734 24.3394C82.5955 24.0078 82.7772 23.7546 83.0146 23.5637L82.388 22.7843ZM81.535 23.9937C81.3622 24.463 81.278 24.9636 81.278 25.4915H82.278C82.278 25.0714 82.3447 24.6888 82.4734 24.3394L81.535 23.9937ZM81.278 25.4915C81.278 26.0193 81.3621 26.5189 81.5355 26.9858L82.473 26.6378C82.3447 26.2922 82.278 25.9116 82.278 25.4915H81.278ZM81.5355 26.9858C81.7154 27.4704 81.9992 27.876 82.3904 28.1867L83.0122 27.4035C82.7756 27.2156 82.5947 26.9657 82.473 26.6378L81.5355 26.9858ZM82.3904 28.1867C82.8104 28.5202 83.3272 28.669 83.9016 28.669V27.669C83.5034 27.669 83.2201 27.5686 83.0122 27.4035L82.3904 28.1867ZM90.7534 28.6907L90.4855 29.1129L90.4867 29.1136L90.7534 28.6907ZM89.627 27.4119L89.1778 27.6315L89.1788 27.6335L89.627 27.4119ZM89.627 23.5572L89.1783 23.3366L89.1773 23.3386L89.627 23.5572ZM90.7534 22.2738L90.4867 21.8509L90.4855 21.8516L90.7534 22.2738ZM94.1188 22.2738L93.8509 22.696L93.8521 22.6967L94.1188 22.2738ZM95.2452 23.5572L94.7955 23.7757L94.7965 23.7778L95.2452 23.5572ZM95.2452 27.4119L94.797 27.1903L94.796 27.1924L95.2452 27.4119ZM94.1188 28.6907L93.8521 28.2678L93.8509 28.2685L94.1188 28.6907ZM93.6387 27.7951L93.3278 27.4035L93.3278 27.4035L93.6387 27.7951ZM94.3358 26.8118L94.8045 26.9858L94.8045 26.9858L94.3358 26.8118ZM94.3358 24.1665L94.805 23.9937L94.805 23.9937L94.3358 24.1665ZM93.6387 23.174L93.952 22.7843L93.952 22.7843L93.6387 23.174ZM91.2381 23.174L90.9249 22.7843L90.9249 22.7843L91.2381 23.174ZM90.5411 24.1665L90.0719 23.9937L90.0719 23.9937L90.5411 24.1665ZM90.5411 26.8118L90.0723 26.9858L90.0723 26.9858L90.5411 26.8118ZM91.2381 27.7951L91.5491 27.4035L91.5491 27.4035L91.2381 27.7951ZM92.4384 28.6477C91.8809 28.6477 91.4141 28.5162 91.0201 28.2678L90.4867 29.1136C91.0591 29.4746 91.7156 29.6477 92.4384 29.6477V28.6477ZM91.0213 28.2685C90.6243 28.0166 90.3086 27.6624 90.0752 27.1903L89.1788 27.6335C89.4871 28.2571 89.9223 28.7554 90.4855 29.1129L91.0213 28.2685ZM90.0762 27.1924C89.8479 26.7253 89.7254 26.163 89.7254 25.4915H88.7254C88.7254 26.2849 88.8705 27.0029 89.1778 27.6315L90.0762 27.1924ZM89.7254 25.4915C89.7254 24.8132 89.8482 24.2459 90.0767 23.7757L89.1773 23.3386C88.8703 23.9702 88.7254 24.6925 88.7254 25.4915H89.7254ZM90.0757 23.7778C90.3093 23.3026 90.625 22.9474 91.0213 22.696L90.4855 21.8516C89.9216 22.2095 89.4863 22.71 89.1783 23.3366L90.0757 23.7778ZM91.0201 22.6967C91.4141 22.4483 91.8809 22.3168 92.4384 22.3168V21.3168C91.7156 21.3168 91.0591 21.4899 90.4867 21.8509L91.0201 22.6967ZM92.4384 22.3168C92.996 22.3168 93.4607 22.4483 93.8509 22.696L94.3867 21.8516C93.8167 21.4899 93.1612 21.3168 92.4384 21.3168V22.3168ZM93.8521 22.6967C94.2507 22.9481 94.5655 23.3024 94.7955 23.7757L95.6949 23.3386C95.3895 22.7102 94.9533 22.2089 94.3855 21.8509L93.8521 22.6967ZM94.7965 23.7778C95.0274 24.2475 95.1515 24.814 95.1515 25.4915H96.1515C96.1515 24.6917 96.0047 23.9687 95.694 23.3366L94.7965 23.7778ZM95.1515 25.4915C95.1515 26.1622 95.0277 26.7238 94.797 27.1903L95.6935 27.6335C96.0045 27.0044 96.1515 26.2857 96.1515 25.4915H95.1515ZM94.796 27.1924C94.5662 27.6626 94.2514 28.016 93.8521 28.2678L94.3855 29.1136C94.9526 28.756 95.3888 28.2569 95.6945 27.6315L94.796 27.1924ZM93.8509 28.2685C93.4607 28.5162 92.996 28.6477 92.4384 28.6477V29.6477C93.1612 29.6477 93.8167 29.4746 94.3867 29.1129L93.8509 28.2685ZM92.4384 28.669C93.0128 28.669 93.5296 28.5202 93.9497 28.1867L93.3278 27.4035C93.1199 27.5686 92.8366 27.669 92.4384 27.669V28.669ZM93.9497 28.1867C94.3408 27.876 94.6246 27.4704 94.8045 26.9858L93.8671 26.6378C93.7453 26.9657 93.5644 27.2156 93.3278 27.4035L93.9497 28.1867ZM94.8045 26.9858C94.9779 26.5189 95.062 26.0193 95.062 25.4915H94.062C94.062 25.9116 93.9953 26.2922 93.8671 26.6378L94.8045 26.9858ZM95.062 25.4915C95.062 24.9636 94.9779 24.463 94.805 23.9937L93.8666 24.3394C93.9953 24.6888 94.062 25.0714 94.062 25.4915H95.062ZM94.805 23.9937C94.6255 23.5066 94.3424 23.0982 93.952 22.7843L93.3254 23.5637C93.5629 23.7546 93.7445 24.0078 93.8666 24.3394L94.805 23.9937ZM93.952 22.7843C93.5319 22.4466 93.0142 22.2955 92.4384 22.2955V23.2955C92.8352 23.2955 93.1177 23.3967 93.3254 23.5637L93.952 22.7843ZM92.4384 22.2955C91.8627 22.2955 91.3449 22.4466 90.9249 22.7843L91.5514 23.5637C91.7592 23.3967 92.0416 23.2955 92.4384 23.2955V22.2955ZM90.9249 22.7843C90.5344 23.0982 90.2513 23.5066 90.0719 23.9937L91.0102 24.3394C91.1324 24.0078 91.314 23.7546 91.5514 23.5637L90.9249 22.7843ZM90.0719 23.9937C89.899 24.463 89.8148 24.9636 89.8148 25.4915H90.8148C90.8148 25.0714 90.8815 24.6888 91.0102 24.3394L90.0719 23.9937ZM89.8148 25.4915C89.8148 26.0193 89.899 26.5189 90.0723 26.9858L91.0098 26.6378C90.8815 26.2922 90.8148 25.9116 90.8148 25.4915H89.8148ZM90.0723 26.9858C90.2522 27.4704 90.536 27.876 90.9272 28.1867L91.5491 27.4035C91.3124 27.2156 91.1315 26.9657 91.0098 26.6378L90.0723 26.9858ZM90.9272 28.1867C91.3472 28.5202 91.8641 28.669 92.4384 28.669V27.669C92.0402 27.669 91.7569 27.5686 91.5491 27.4035L90.9272 28.1867ZM98.0946 29H97.5946V29.5H98.0946V29ZM98.0946 21.9091V21.4091H97.5946V21.9091H98.0946ZM99.1471 21.9091H99.6471V21.4091H99.1471V21.9091ZM99.1471 23.017H98.6471V23.517H99.1471V23.017ZM99.2395 23.017V23.517H99.5811L99.7053 23.1988L99.2395 23.017ZM99.955 22.1353L100.223 22.5573L100.226 22.5555L99.955 22.1353ZM102.309 22.1353L102.027 22.5482L102.032 22.5513L102.309 22.1353ZM103.043 23.017L102.59 23.2273L102.724 23.517H103.043V23.017ZM103.117 23.017V23.517H103.427L103.565 23.2391L103.117 23.017ZM103.934 22.1445L104.19 22.5746L104.192 22.573L103.934 22.1445ZM106.797 22.4123L106.446 22.7686L106.447 22.7699L106.797 22.4123ZM107.401 29V29.5H107.901V29H107.401ZM106.312 29H105.812V29.5H106.312V29ZM105.883 23.1325L105.574 23.5258L105.574 23.5258L105.883 23.1325ZM103.713 23.2479L104.081 23.5859L104.083 23.584L103.713 23.2479ZM103.302 29V29.5H103.802V29H103.302ZM102.194 29H101.694V29.5H102.194V29ZM101.802 23.1694L101.457 23.5314L101.459 23.5335L101.802 23.1694ZM99.9966 23.0217L99.7354 22.5953L99.733 22.5968L99.9966 23.0217ZM99.4057 23.6495L98.97 23.4041L98.9691 23.4058L99.4057 23.6495ZM99.1841 29V29.5H99.6841V29H99.1841ZM98.5946 29V21.9091H97.5946V29H98.5946ZM98.0946 22.4091H99.1471V21.4091H98.0946V22.4091ZM98.6471 21.9091V23.017H99.6471V21.9091H98.6471ZM99.1471 23.517H99.2395V22.517H99.1471V23.517ZM99.7053 23.1988C99.816 22.9149 99.9875 22.7071 100.223 22.5573L99.6868 21.7133C99.2639 21.9821 98.9583 22.3621 98.7737 22.8353L99.7053 23.1988ZM100.226 22.5555C100.461 22.4039 100.759 22.3168 101.141 22.3168V21.3168C100.601 21.3168 100.108 21.4419 99.684 21.7151L100.226 22.5555ZM101.141 22.3168C101.533 22.3168 101.818 22.405 102.027 22.5482L102.591 21.7224C102.179 21.4409 101.685 21.3168 101.141 21.3168V22.3168ZM102.032 22.5513C102.261 22.7042 102.449 22.9231 102.59 23.2273L103.497 22.8068C103.287 22.3539 102.985 21.9849 102.587 21.7193L102.032 22.5513ZM103.043 23.517H103.117V22.517H103.043V23.517ZM103.565 23.2391C103.703 22.9623 103.906 22.7425 104.19 22.5746L103.679 21.7145C103.236 21.9775 102.895 22.3393 102.669 22.7949L103.565 23.2391ZM104.192 22.573C104.463 22.4098 104.806 22.3168 105.241 22.3168V21.3168C104.66 21.3168 104.132 21.4422 103.677 21.7161L104.192 22.573ZM105.241 22.3168C105.761 22.3168 106.148 22.4751 106.446 22.7685L107.147 22.056C106.639 21.5555 105.989 21.3168 105.241 21.3168V22.3168ZM106.447 22.7699C106.716 23.0327 106.901 23.4905 106.901 24.2543H107.901C107.901 23.35 107.683 22.5798 107.146 22.0547L106.447 22.7699ZM106.901 24.2543V29H107.901V24.2543H106.901ZM107.401 28.5H106.312V29.5H107.401V28.5ZM106.812 29V24.2543H105.812V29H106.812ZM106.812 24.2543C106.812 23.6478 106.644 23.0949 106.191 22.7392L105.574 23.5258C105.693 23.6194 105.812 23.8143 105.812 24.2543H106.812ZM106.191 22.7392C105.811 22.4406 105.363 22.2955 104.872 22.2955V23.2955C105.155 23.2955 105.382 23.3749 105.574 23.5258L106.191 22.7392ZM104.872 22.2955C104.266 22.2955 103.732 22.483 103.343 22.9117L104.083 23.584C104.241 23.4096 104.48 23.2955 104.872 23.2955V22.2955ZM103.344 22.9098C102.975 23.3129 102.802 23.8175 102.802 24.3835H103.802C103.802 24.0324 103.903 23.7799 104.081 23.5859L103.344 22.9098ZM102.802 24.3835V29H103.802V24.3835H102.802ZM103.302 28.5H102.194V29.5H103.302V28.5ZM102.694 29V24.1435H101.694V29H102.694ZM102.694 24.1435C102.694 23.621 102.519 23.158 102.144 22.8053L101.459 23.5335C101.607 23.6732 101.694 23.8596 101.694 24.1435H102.694ZM102.147 22.8074C101.779 22.4569 101.312 22.2955 100.791 22.2955V23.2955C101.094 23.2955 101.301 23.3833 101.457 23.5314L102.147 22.8074ZM100.791 22.2955C100.413 22.2955 100.059 22.3973 99.7354 22.5953L100.258 23.448C100.427 23.3444 100.602 23.2955 100.791 23.2955V22.2955ZM99.733 22.5968C99.413 22.7952 99.159 23.0686 98.97 23.4041L99.8413 23.8949C99.9539 23.6949 100.094 23.5497 100.26 23.4466L99.733 22.5968ZM98.9691 23.4058C98.774 23.7554 98.6841 24.1478 98.6841 24.5682H99.6841C99.6841 24.293 99.7419 24.073 99.8423 23.8932L98.9691 23.4058ZM98.6841 24.5682V29H99.6841V24.5682H98.6841ZM99.1841 28.5H98.0946V29.5H99.1841V28.5ZM122.365 22.5V23H122.962L122.858 22.4128L122.365 22.5ZM121.22 22.5L120.731 22.6007L120.813 23H121.22V22.5ZM120.865 21.6321L120.449 21.9095L120.451 21.913L120.865 21.6321ZM120.256 21.0043L119.961 21.4087L119.967 21.4129L120.256 21.0043ZM119.466 20.6165L119.323 21.0957L119.323 21.0957L119.466 20.6165ZM117.006 20.9212L116.741 20.4967L116.74 20.4975L117.006 20.9212ZM115.902 22.1999L115.453 21.9812L115.452 21.9832L115.902 22.1999ZM115.902 26.3455L115.452 26.5622L115.453 26.5642L115.902 26.3455ZM117.006 27.6243L116.74 28.048L116.741 28.0488L117.006 27.6243ZM119.466 27.929L119.323 27.4498L119.323 27.4498L119.466 27.929ZM120.256 27.5458L120.546 27.9527L120.547 27.952L120.256 27.5458ZM120.865 26.9134L120.45 26.6348L120.449 26.636L120.865 26.9134ZM121.22 26.0455V25.5455H120.814L120.731 25.9438L121.22 26.0455ZM122.365 26.0455L122.858 26.1332L122.962 25.5455H122.365V26.0455ZM121.894 27.3427L121.465 27.0865L121.465 27.0865L121.894 27.3427ZM121.045 28.3168L121.353 28.7107L121.355 28.7089L121.045 28.3168ZM119.905 28.9215L119.749 28.4465L119.748 28.4468L119.905 28.9215ZM116.41 28.5384L116.144 28.9619L116.144 28.9619L116.41 28.5384ZM114.928 26.858L115.376 26.6359L115.376 26.6359L114.928 26.858ZM114.928 21.6875L114.48 21.4654L114.928 21.6875ZM119.905 19.6239L119.748 20.0986L119.749 20.099L119.905 19.6239ZM121.045 20.2333L120.735 20.6255L120.737 20.6272L121.045 20.2333ZM121.894 21.2028L121.465 21.459L121.466 21.4605L121.894 21.2028ZM122.365 22H121.22V23H122.365V22ZM121.71 22.3993C121.631 22.013 121.489 21.6609 121.279 21.3512L120.451 21.913C120.58 22.1018 120.675 22.3284 120.731 22.6007L121.71 22.3993ZM121.281 21.3548C121.081 21.0552 120.835 20.8011 120.544 20.5956L119.967 21.4129C120.156 21.5459 120.316 21.7104 120.449 21.9095L121.281 21.3548ZM120.55 20.5999C120.265 20.3932 119.951 20.2391 119.609 20.1373L119.323 21.0957C119.56 21.1662 119.772 21.2706 119.962 21.4086L120.55 20.5999ZM119.609 20.1373C119.271 20.0368 118.922 19.9872 118.561 19.9872V20.9872C118.829 20.9872 119.082 21.0238 119.323 21.0957L119.609 20.1373ZM118.561 19.9872C117.9 19.9872 117.289 20.1557 116.741 20.4967L117.27 21.3456C117.652 21.108 118.078 20.9872 118.561 20.9872V19.9872ZM116.74 20.4975C116.188 20.8436 115.761 21.3467 115.453 21.9813L116.352 22.4186C116.591 21.9268 116.9 21.5773 117.271 21.3448L116.74 20.4975ZM115.452 21.9832C115.14 22.6316 114.996 23.4014 114.996 24.2727H115.996C115.996 23.5068 116.123 22.8946 116.353 22.4166L115.452 21.9832ZM114.996 24.2727C114.996 25.1441 115.14 25.9138 115.452 26.5622L116.353 26.1288C116.123 25.6508 115.996 25.0387 115.996 24.2727H114.996ZM115.453 26.5642C115.761 27.1988 116.188 27.7018 116.74 28.048L117.271 27.2006C116.9 26.9681 116.591 26.6187 116.352 26.1268L115.453 26.5642ZM116.741 28.0488C117.289 28.3897 117.9 28.5582 118.561 28.5582V27.5582C118.078 27.5582 117.652 27.4374 117.27 27.1998L116.741 28.0488ZM118.561 28.5582C118.922 28.5582 119.271 28.5087 119.609 28.4082L119.323 27.4498C119.082 27.5216 118.829 27.5582 118.561 27.5582V28.5582ZM119.609 28.4082C119.949 28.3068 120.263 28.1552 120.546 27.9527L119.965 27.1389C119.775 27.2749 119.562 27.3788 119.323 27.4498L119.609 28.4082ZM120.547 27.952C120.837 27.744 121.082 27.4894 121.281 27.1907L120.449 26.636C120.316 26.8359 120.154 27.0029 119.964 27.1396L120.547 27.952ZM121.28 27.1919C121.489 26.8809 121.63 26.5304 121.71 26.1471L120.731 25.9438C120.675 26.213 120.58 26.441 120.45 26.6348L121.28 27.1919ZM121.22 26.5455H122.365V25.5455H121.22V26.5455ZM121.873 25.9577C121.796 26.3876 121.659 26.7619 121.465 27.0865L122.324 27.5989C122.586 27.1603 122.762 26.6697 122.858 26.1332L121.873 25.9577ZM121.465 27.0865C121.268 27.4175 121.024 27.6957 120.735 27.9246L121.355 28.7089C121.743 28.4024 122.066 28.0311 122.324 27.5989L121.465 27.0865ZM120.737 27.9229C120.446 28.1507 120.117 28.3254 119.749 28.4465L120.061 29.3966C120.536 29.2406 120.967 29.0121 121.353 28.7107L120.737 27.9229ZM119.748 28.4468C119.384 28.5672 118.989 28.6293 118.561 28.6293V29.6293C119.087 29.6293 119.589 29.5528 120.062 29.3962L119.748 28.4468ZM118.561 28.6293C117.84 28.6293 117.217 28.4544 116.676 28.1148L116.144 28.9619C116.859 29.4102 117.67 29.6293 118.561 29.6293V28.6293ZM116.676 28.1148C116.133 27.7745 115.699 27.2875 115.376 26.6359L114.48 27.08C114.877 27.881 115.431 28.5144 116.144 28.9619L116.676 28.1148ZM115.376 26.6359C115.057 25.9926 114.888 25.2102 114.888 24.2727H113.888C113.888 25.3295 114.079 26.2706 114.48 27.08L115.376 26.6359ZM114.888 24.2727C114.888 23.3352 115.057 22.5528 115.376 21.9096L114.48 21.4654C114.079 22.2748 113.888 23.2159 113.888 24.2727H114.888ZM115.376 21.9096C115.699 21.2579 116.133 20.771 116.676 20.4306L116.144 19.5836C115.431 20.0311 114.877 20.6644 114.48 21.4654L115.376 21.9096ZM116.676 20.4306C117.217 20.091 117.84 19.9162 118.561 19.9162V18.9162C117.67 18.9162 116.859 19.1353 116.144 19.5836L116.676 20.4306ZM118.561 19.9162C118.989 19.9162 119.384 19.9782 119.748 20.0986L120.062 19.1492C119.589 18.9927 119.087 18.9162 118.561 18.9162V19.9162ZM119.749 20.099C120.116 20.2196 120.444 20.3952 120.735 20.6255L121.355 19.8411C120.969 19.5359 120.537 19.3052 120.061 19.1489L119.749 20.099ZM120.737 20.6272C121.025 20.8526 121.268 21.1285 121.465 21.459L122.324 20.9465C122.066 20.5138 121.742 20.1434 121.353 19.8394L120.737 20.6272ZM121.466 21.4605C121.659 21.7808 121.796 22.1542 121.873 22.5872L122.858 22.4128C122.762 21.8733 122.586 21.3818 122.323 20.945L121.466 21.4605ZM125.937 19.5455H126.437V19.0455H125.937V19.5455ZM125.937 29V29.5H126.437V29H125.937ZM124.848 29H124.348V29.5H124.848V29ZM124.848 19.5455V19.0455H124.348V19.5455H124.848ZM125.437 19.5455V29H126.437V19.5455H125.437ZM125.937 28.5H124.848V29.5H125.937V28.5ZM125.348 29V19.5455H124.348V29H125.348ZM124.848 20.0455H125.937V19.0455H124.848V20.0455ZM129.576 28.9123L129.363 29.3647L129.366 29.3662L129.576 28.9123ZM128.703 28.169L128.286 28.4446L128.287 28.4464L128.703 28.169ZM128.62 25.9993L129.043 26.2671L129.044 26.2647L128.62 25.9993ZM130.148 25.076L130.255 25.5644L130.259 25.5637L130.148 25.076ZM131.132 24.9006L131.068 24.4046L131.067 24.4048L131.132 24.9006ZM132.18 24.7759L132.231 25.2733L132.236 25.2727L132.18 24.7759ZM132.771 24.6236L132.526 24.1875L132.521 24.1901L132.771 24.6236ZM132.586 23.1555L132.228 23.5047L132.23 23.5069L132.586 23.1555ZM130.241 23.1186L130.546 23.5146L130.546 23.5146L130.241 23.1186ZM129.617 23.848L129.449 24.3189L129.879 24.4723L130.071 24.0586L129.617 23.848ZM128.583 23.4787L128.124 23.2817L127.914 23.7707L128.415 23.9496L128.583 23.4787ZM129.322 22.4723L129.63 22.8666L129.63 22.8661L129.322 22.4723ZM130.338 21.9645L130.464 22.4483L130.466 22.4476L130.338 21.9645ZM132.212 21.8999L132.12 22.3913L132.126 22.3924L132.212 21.8999ZM133.075 22.2276L132.818 22.6564L132.82 22.6576L133.075 22.2276ZM133.772 22.9801L133.334 23.2212L133.334 23.2212L133.772 22.9801ZM134.049 29V29.5H134.549V29H134.049ZM132.96 29H132.46V29.5H132.96V29ZM132.96 28.0398H133.46V27.5398H132.96V28.0398ZM132.904 28.0398V27.5398H132.59L132.454 27.8234L132.904 28.0398ZM132.535 28.5337L132.892 28.8841L132.892 28.8841L132.535 28.5337ZM131.847 28.9815L131.65 28.5222L131.847 28.9815ZM132.055 27.9336L131.808 27.4986L131.806 27.4998L132.055 27.9336ZM132.729 27.2781L132.295 27.0289L132.293 27.0327L132.729 27.2781ZM132.96 25.4361H133.46V24.055L132.576 25.116L132.96 25.4361ZM132.655 25.5884L132.79 26.0699L132.796 26.0681L132.655 25.5884ZM132.12 25.7038L132.196 26.1981L132.202 26.197L132.12 25.7038ZM131.533 25.7869L131.59 26.2837L131.597 26.2828L131.533 25.7869ZM131.076 25.8423L131.141 26.3381L131.141 26.3381L131.076 25.8423ZM130.282 26.0224L130.439 26.4973L130.442 26.4961L130.282 26.0224ZM129.691 26.3871L129.324 26.0476L129.324 26.0479L129.691 26.3871ZM129.89 27.9013L129.605 28.3124L129.61 28.3159L129.89 27.9013ZM130.799 28.6662C130.414 28.6662 130.079 28.594 129.786 28.4584L129.366 29.3662C129.805 29.5691 130.286 29.6662 130.799 29.6662V28.6662ZM129.789 28.4599C129.501 28.3246 129.282 28.1358 129.119 27.8917L128.287 28.4464C128.555 28.8486 128.918 29.1553 129.363 29.3647L129.789 28.4599ZM129.121 27.8935C128.968 27.6629 128.88 27.3689 128.88 26.9872H127.88C127.88 27.5288 128.008 28.0227 128.286 28.4446L129.121 27.8935ZM128.88 26.9872C128.88 26.6428 128.948 26.4154 129.043 26.2671L128.198 25.7315C127.972 26.0879 127.88 26.5192 127.88 26.9872H128.88ZM129.044 26.2647C129.158 26.0833 129.307 25.943 129.5 25.8391L129.024 24.9592C128.681 25.1446 128.403 25.4044 128.197 25.7338L129.044 26.2647ZM129.5 25.8391C129.723 25.7184 129.974 25.6261 130.255 25.5644L130.041 24.5876C129.677 24.6675 129.337 24.7906 129.024 24.9592L129.5 25.8391ZM130.259 25.5637C130.57 25.4932 130.883 25.4374 131.197 25.3963L131.067 24.4048C130.722 24.4499 130.379 24.5111 130.038 24.5883L130.259 25.5637ZM131.195 25.3965C131.624 25.3413 131.969 25.3004 132.231 25.2733L132.128 24.2786C131.855 24.3069 131.501 24.349 131.068 24.4047L131.195 25.3965ZM132.236 25.2727C132.524 25.24 132.805 25.1805 133.02 25.057L132.521 24.1901C132.49 24.2082 132.377 24.2503 132.123 24.2791L132.236 25.2727ZM133.015 25.0597C133.335 24.8802 133.46 24.5651 133.46 24.2543H132.46C132.46 24.2834 132.454 24.2755 132.468 24.2501C132.474 24.2373 132.483 24.2237 132.496 24.2114C132.507 24.1992 132.519 24.1916 132.526 24.1875L133.015 25.0597ZM133.46 24.2543V24.2173H132.46V24.2543H133.46ZM133.46 24.2173C133.46 23.6693 133.308 23.1746 132.942 22.8042L132.23 23.5069C132.363 23.6412 132.46 23.8543 132.46 24.2173H133.46ZM132.944 22.8064C132.57 22.4229 132.043 22.277 131.464 22.277V23.277C131.889 23.277 132.11 23.3835 132.228 23.5047L132.944 22.8064ZM131.464 22.277C130.876 22.277 130.347 22.4053 129.935 22.7226L130.546 23.5146C130.725 23.3764 131.012 23.277 131.464 23.277V22.277ZM129.935 22.7226C129.595 22.9848 129.327 23.2871 129.164 23.6375L130.071 24.0586C130.148 23.8918 130.295 23.7079 130.546 23.5146L129.935 22.7226ZM129.786 23.3771L128.752 23.0078L128.415 23.9496L129.449 24.3189L129.786 23.3771ZM129.043 23.6757C129.201 23.3068 129.4 23.0452 129.63 22.8666L129.014 22.078C128.628 22.3795 128.335 22.7889 128.124 23.2817L129.043 23.6757ZM129.63 22.8661C129.889 22.6633 130.166 22.5258 130.464 22.4483L130.212 21.4806C129.776 21.594 129.376 21.795 129.014 22.0785L129.63 22.8661ZM130.466 22.4476C130.797 22.3595 131.117 22.3168 131.427 22.3168V21.3168C131.024 21.3168 130.617 21.3725 130.209 21.4814L130.466 22.4476ZM131.427 22.3168C131.616 22.3168 131.846 22.3399 132.12 22.3913L132.304 21.4084C131.987 21.349 131.694 21.3168 131.427 21.3168V22.3168ZM132.126 22.3924C132.36 22.4334 132.59 22.5196 132.818 22.6564L133.332 21.7989C133.006 21.6032 132.661 21.471 132.298 21.4074L132.126 22.3924ZM132.82 22.6576C133.011 22.7708 133.185 22.95 133.334 23.2212L134.21 22.739C133.99 22.3393 133.7 22.0168 133.33 21.7976L132.82 22.6576ZM133.334 23.2212C133.464 23.4561 133.549 23.8123 133.549 24.3281H134.549C134.549 23.7175 134.45 23.175 134.21 22.739L133.334 23.2212ZM133.549 24.3281V29H134.549V24.3281H133.549ZM134.049 28.5H132.96V29.5H134.049V28.5ZM133.46 29V28.0398H132.46V29H133.46ZM132.96 27.5398H132.904V28.5398H132.96V27.5398ZM132.454 27.8234C132.412 27.9111 132.328 28.0314 132.178 28.1833L132.892 28.8841C133.087 28.6853 133.25 28.4762 133.355 28.2561L132.454 27.8234ZM132.178 28.1833C132.062 28.3019 131.892 28.4182 131.65 28.5222L132.045 29.4409C132.375 29.2987 132.664 29.1164 132.892 28.8841L132.178 28.1833ZM131.65 28.5222C131.443 28.6113 131.165 28.6662 130.799 28.6662V29.6662C131.259 29.6662 131.679 29.598 132.045 29.4409L131.65 28.5222ZM130.965 28.6875C131.461 28.6875 131.915 28.5901 132.304 28.3674L131.806 27.4998C131.604 27.6156 131.332 27.6875 130.965 27.6875V28.6875ZM132.302 28.3685C132.67 28.1598 132.964 27.8794 133.165 27.5234L132.293 27.0327C132.192 27.2123 132.037 27.3688 131.808 27.4986L132.302 28.3685ZM133.162 27.5272C133.358 27.1872 133.46 26.8202 133.46 26.4332H132.46C132.46 26.6372 132.408 26.8334 132.295 27.0289L133.162 27.5272ZM133.46 26.4332V25.4361H132.46V26.4332H133.46ZM132.576 25.116C132.597 25.0903 132.616 25.076 132.623 25.0708C132.631 25.0652 132.633 25.0649 132.625 25.0685C132.619 25.0719 132.606 25.0775 132.587 25.0848C132.568 25.0919 132.544 25.1 132.514 25.1087L132.796 26.0681C132.892 26.04 132.987 26.0059 133.073 25.9629C133.153 25.9225 133.259 25.8585 133.344 25.7562L132.576 25.116ZM132.52 25.1069C132.388 25.144 132.228 25.1789 132.037 25.2106L132.202 26.197C132.418 26.161 132.615 26.119 132.79 26.0699L132.52 25.1069ZM132.044 25.2096C131.847 25.2398 131.656 25.267 131.469 25.291L131.597 26.2828C131.792 26.2577 131.992 26.2294 132.196 26.198L132.044 25.2096ZM131.476 25.2902C131.287 25.3119 131.132 25.3307 131.011 25.3466L131.141 26.3381C131.255 26.3232 131.404 26.3051 131.59 26.2837L131.476 25.2902ZM131.012 25.3465C130.699 25.3873 130.402 25.4541 130.122 25.5486L130.442 26.4961C130.655 26.4244 130.887 26.3712 131.141 26.3381L131.012 25.3465ZM130.126 25.5474C129.815 25.6499 129.541 25.8133 129.324 26.0476L130.058 26.7265C130.143 26.6347 130.264 26.5549 130.439 26.4973L130.126 25.5474ZM129.324 26.0479C129.07 26.3234 128.97 26.6754 128.97 27.0426H129.97C129.97 26.8559 130.018 26.7708 130.059 26.7262L129.324 26.0479ZM128.97 27.0426C128.97 27.5639 129.174 28.0136 129.605 28.3124L130.174 27.4902C130.046 27.4012 129.97 27.2784 129.97 27.0426H128.97ZM129.61 28.3159C129.996 28.5757 130.459 28.6875 130.965 28.6875V27.6875C130.604 27.6875 130.35 27.6085 130.169 27.4866L129.61 28.3159ZM141.841 23.4972L141.977 23.9783L142.481 23.8354L142.315 23.3382L141.841 23.4972ZM140.862 23.7741L140.394 23.9507L140.556 24.3803L140.998 24.2553L140.862 23.7741ZM140.589 23.2987L140.188 23.5975L140.195 23.6062L140.589 23.2987ZM140.109 22.9109L140.333 22.4637L140.333 22.4637L140.109 22.9109ZM138.244 23.0586L138.528 23.4705L138.529 23.4698L138.244 23.0586ZM138.11 24.4528L137.799 24.8438L137.799 24.8438L138.11 24.4528ZM139.034 24.8452L138.912 25.3302L138.914 25.3307L139.034 24.8452ZM140.086 25.1037L139.967 25.5893L139.968 25.5896L140.086 25.1037ZM141.504 25.81L141.147 26.1601L141.148 26.1618L141.504 25.81ZM141.619 28.1136L141.215 27.8186L141.213 27.8212L141.619 28.1136ZM137.404 28.6768L137.68 28.26L137.68 28.26L137.404 28.6768ZM136.504 27.3011L136.383 26.8161L135.916 26.9327L136.014 27.4035L136.504 27.3011ZM137.538 27.0426L138.022 26.9177L137.898 26.4372L137.417 26.5575L137.538 27.0426ZM138.097 27.9013L137.811 28.3115L137.813 28.313L138.097 27.9013ZM140.391 27.8643L140.684 28.2698L140.684 28.2692L140.391 27.8643ZM140.585 26.4609L140.234 26.8177L140.238 26.8209L140.585 26.4609ZM139.791 26.0824L139.677 26.5692L139.677 26.5694L139.791 26.0824ZM138.609 25.8054L138.494 26.2919L138.495 26.2922L138.609 25.8054ZM137.178 25.0898L136.811 25.4293L136.814 25.4329L137.178 25.0898ZM137.062 22.8047L136.661 22.5073L136.659 22.5099L137.062 22.8047ZM137.99 22.0799L137.787 21.6231L137.786 21.6237L137.99 22.0799ZM140.982 22.2784L140.677 22.6747L140.678 22.6758L140.982 22.2784ZM141.704 23.0161L140.726 23.293L140.998 24.2553L141.977 23.9783L141.704 23.0161ZM141.33 23.5976C141.248 23.3821 141.131 23.18 140.984 22.9911L140.195 23.6062C140.288 23.725 140.352 23.8399 140.394 23.9507L141.33 23.5976ZM140.99 22.9999C140.82 22.771 140.595 22.5946 140.333 22.4637L139.886 23.3581C140.03 23.4303 140.125 23.5124 140.189 23.5974L140.99 22.9999ZM140.333 22.4637C140.039 22.3164 139.695 22.2585 139.329 22.2585V23.2585C139.597 23.2585 139.774 23.3022 139.886 23.3581L140.333 22.4637ZM139.329 22.2585C138.818 22.2585 138.351 22.3772 137.96 22.6473L138.529 23.4698C138.717 23.3399 138.973 23.2585 139.329 23.2585V22.2585ZM137.961 22.6467C137.561 22.9218 137.315 23.3167 137.315 23.8111H138.315C138.315 23.6961 138.355 23.5894 138.528 23.4705L137.961 22.6467ZM137.315 23.8111C137.315 24.221 137.473 24.5841 137.799 24.8438L138.422 24.0617C138.354 24.0076 138.315 23.9429 138.315 23.8111H137.315ZM137.799 24.8438C138.078 25.0664 138.467 25.2189 138.912 25.3302L139.155 24.3601C138.763 24.2621 138.537 24.153 138.422 24.0617L137.799 24.8438ZM138.914 25.3307L139.967 25.5893L140.206 24.6181L139.153 24.3596L138.914 25.3307ZM139.968 25.5896C140.552 25.7311 140.925 25.9341 141.147 26.1601L141.861 25.4599C141.46 25.0519 140.889 24.784 140.204 24.6178L139.968 25.5896ZM141.148 26.1618C141.355 26.3704 141.47 26.6429 141.47 27.0241H142.47C142.47 26.4144 142.274 25.8775 141.859 25.4582L141.148 26.1618ZM141.47 27.0241C141.47 27.3272 141.385 27.5864 141.215 27.8186L142.023 28.4086C142.321 28.0007 142.47 27.5336 142.47 27.0241H141.47ZM141.213 27.8212C141.042 28.0592 140.794 28.2596 140.446 28.4138L140.853 29.3276C141.336 29.1126 141.734 28.8083 142.025 28.4061L141.213 27.8212ZM140.446 28.4138C140.107 28.5647 139.695 28.6477 139.2 28.6477V29.6477C139.806 29.6477 140.361 29.5461 140.853 29.3276L140.446 28.4138ZM139.2 28.6477C138.548 28.6477 138.053 28.5067 137.68 28.26L137.128 29.0937C137.704 29.4749 138.405 29.6477 139.2 29.6477V28.6477ZM137.68 28.26C137.326 28.0252 137.095 27.6851 136.993 27.1988L136.014 27.4035C136.165 28.1236 136.535 28.7007 137.128 29.0937L137.68 28.26ZM136.625 27.7862L137.659 27.5277L137.417 26.5575L136.383 26.8161L136.625 27.7862ZM137.054 27.1676C137.177 27.6429 137.422 28.0404 137.811 28.3115L138.382 27.491C138.224 27.3805 138.096 27.2055 138.022 26.9177L137.054 27.1676ZM137.813 28.313C138.197 28.5774 138.667 28.6875 139.181 28.6875V27.6875C138.804 27.6875 138.55 27.6068 138.38 27.4895L137.813 28.313ZM139.181 28.6875C139.755 28.6875 140.273 28.5661 140.684 28.2698L140.098 27.4589C139.912 27.5934 139.623 27.6875 139.181 27.6875V28.6875ZM140.684 28.2692C141.083 27.9802 141.343 27.5808 141.343 27.0795H140.343C140.343 27.1877 140.302 27.3115 140.098 27.4594L140.684 28.2692ZM141.343 27.0795C141.343 26.7019 141.205 26.3644 140.932 26.101L140.238 26.8209C140.309 26.8899 140.343 26.9648 140.343 27.0795H141.343ZM140.935 26.1042C140.672 25.8455 140.308 25.6893 139.904 25.5954L139.677 26.5694C139.988 26.6416 140.153 26.7379 140.235 26.8177L140.935 26.1042ZM139.905 25.5956L138.723 25.3186L138.495 26.2922L139.677 26.5692L139.905 25.5956ZM138.724 25.3189C138.125 25.1769 137.754 24.9715 137.542 24.7468L136.814 25.4329C137.212 25.8545 137.794 26.1261 138.494 26.2919L138.724 25.3189ZM137.545 24.7504C137.338 24.5263 137.225 24.2438 137.225 23.8665H136.225C136.225 24.4678 136.415 25.001 136.811 25.4293L137.545 24.7504ZM137.225 23.8665C137.225 23.5667 137.307 23.3172 137.466 23.0995L136.659 22.5099C136.368 22.9077 136.225 23.3661 136.225 23.8665H137.225ZM137.464 23.1021C137.635 22.8712 137.873 22.6806 138.195 22.5361L137.786 21.6237C137.326 21.83 136.945 22.1226 136.661 22.5073L137.464 23.1021ZM138.194 22.5367C138.514 22.3939 138.89 22.3168 139.329 22.3168V21.3168C138.771 21.3168 138.254 21.4151 137.787 21.6231L138.194 22.5367ZM139.329 22.3168C139.963 22.3168 140.393 22.456 140.677 22.6747L141.287 21.8821C140.771 21.4852 140.099 21.3168 139.329 21.3168V22.3168ZM140.678 22.6758C140.998 22.9199 141.227 23.2412 141.366 23.6561L142.315 23.3382C142.115 22.7437 141.772 22.2525 141.285 21.881L140.678 22.6758ZM149.413 23.4972L149.549 23.9783L150.053 23.8354L149.887 23.3382L149.413 23.4972ZM148.434 23.7741L147.966 23.9507L148.128 24.3803L148.57 24.2553L148.434 23.7741ZM148.161 23.2987L147.76 23.5975L147.767 23.6062L148.161 23.2987ZM147.681 22.9109L147.905 22.4637L147.905 22.4637L147.681 22.9109ZM145.816 23.0586L146.1 23.4705L146.101 23.4698L145.816 23.0586ZM145.682 24.4528L145.371 24.8438L145.371 24.8438L145.682 24.4528ZM146.606 24.8452L146.484 25.3302L146.486 25.3307L146.606 24.8452ZM147.658 25.1037L147.539 25.5893L147.54 25.5896L147.658 25.1037ZM149.076 25.81L148.719 26.1601L148.72 26.1618L149.076 25.81ZM149.191 28.1136L148.787 27.8186L148.785 27.8212L149.191 28.1136ZM144.976 28.6768L145.252 28.26L145.252 28.26L144.976 28.6768ZM144.076 27.3011L143.955 26.8161L143.488 26.9327L143.586 27.4035L144.076 27.3011ZM145.11 27.0426L145.594 26.9177L145.47 26.4372L144.989 26.5575L145.11 27.0426ZM145.669 27.9013L145.383 28.3115L145.385 28.313L145.669 27.9013ZM147.963 27.8643L148.256 28.2698L148.256 28.2692L147.963 27.8643ZM148.157 26.4609L147.806 26.8177L147.81 26.8209L148.157 26.4609ZM147.363 26.0824L147.249 26.5692L147.249 26.5694L147.363 26.0824ZM146.181 25.8054L146.066 26.2919L146.067 26.2922L146.181 25.8054ZM144.75 25.0898L144.383 25.4293L144.386 25.4329L144.75 25.0898ZM144.634 22.8047L144.233 22.5073L144.231 22.5099L144.634 22.8047ZM145.562 22.0799L145.359 21.6231L145.358 21.6237L145.562 22.0799ZM148.554 22.2784L148.249 22.6747L148.25 22.6758L148.554 22.2784ZM149.276 23.0161L148.298 23.293L148.57 24.2553L149.549 23.9783L149.276 23.0161ZM148.902 23.5976C148.82 23.3821 148.703 23.18 148.556 22.9911L147.767 23.6062C147.86 23.725 147.924 23.8399 147.966 23.9507L148.902 23.5976ZM148.562 22.9999C148.392 22.771 148.167 22.5946 147.905 22.4637L147.458 23.3581C147.602 23.4303 147.697 23.5124 147.761 23.5974L148.562 22.9999ZM147.905 22.4637C147.611 22.3164 147.267 22.2585 146.901 22.2585V23.2585C147.169 23.2585 147.346 23.3022 147.458 23.3581L147.905 22.4637ZM146.901 22.2585C146.39 22.2585 145.923 22.3772 145.532 22.6473L146.101 23.4698C146.289 23.3399 146.545 23.2585 146.901 23.2585V22.2585ZM145.533 22.6467C145.133 22.9218 144.887 23.3167 144.887 23.8111H145.887C145.887 23.6961 145.927 23.5894 146.1 23.4705L145.533 22.6467ZM144.887 23.8111C144.887 24.221 145.045 24.5841 145.371 24.8438L145.994 24.0617C145.926 24.0076 145.887 23.9429 145.887 23.8111H144.887ZM145.371 24.8438C145.65 25.0664 146.039 25.2189 146.484 25.3302L146.727 24.3601C146.335 24.2621 146.109 24.153 145.994 24.0617L145.371 24.8438ZM146.486 25.3307L147.539 25.5893L147.778 24.6181L146.725 24.3596L146.486 25.3307ZM147.54 25.5896C148.124 25.7311 148.497 25.9341 148.719 26.1601L149.433 25.4599C149.032 25.0519 148.461 24.784 147.776 24.6178L147.54 25.5896ZM148.72 26.1618C148.927 26.3704 149.042 26.6429 149.042 27.0241H150.042C150.042 26.4144 149.846 25.8775 149.431 25.4582L148.72 26.1618ZM149.042 27.0241C149.042 27.3272 148.957 27.5864 148.787 27.8186L149.595 28.4086C149.893 28.0007 150.042 27.5336 150.042 27.0241H149.042ZM148.785 27.8212C148.614 28.0592 148.366 28.2596 148.018 28.4138L148.425 29.3276C148.908 29.1126 149.306 28.8083 149.596 28.4061L148.785 27.8212ZM148.018 28.4138C147.679 28.5647 147.267 28.6477 146.772 28.6477V29.6477C147.378 29.6477 147.933 29.5461 148.425 29.3276L148.018 28.4138ZM146.772 28.6477C146.12 28.6477 145.625 28.5067 145.252 28.26L144.7 29.0937C145.276 29.4749 145.977 29.6477 146.772 29.6477V28.6477ZM145.252 28.26C144.898 28.0252 144.667 27.6851 144.565 27.1988L143.586 27.4035C143.737 28.1236 144.107 28.7007 144.7 29.0937L145.252 28.26ZM144.197 27.7862L145.231 27.5277L144.989 26.5575L143.955 26.8161L144.197 27.7862ZM144.626 27.1676C144.749 27.6429 144.994 28.0404 145.383 28.3115L145.954 27.491C145.796 27.3805 145.668 27.2055 145.594 26.9177L144.626 27.1676ZM145.385 28.313C145.769 28.5774 146.238 28.6875 146.753 28.6875V27.6875C146.376 27.6875 146.122 27.6068 145.952 27.4895L145.385 28.313ZM146.753 28.6875C147.327 28.6875 147.845 28.5661 148.256 28.2698L147.67 27.4589C147.484 27.5934 147.195 27.6875 146.753 27.6875V28.6875ZM148.256 28.2692C148.655 27.9802 148.915 27.5808 148.915 27.0795H147.915C147.915 27.1877 147.874 27.3115 147.67 27.4594L148.256 28.2692ZM148.915 27.0795C148.915 26.7019 148.777 26.3644 148.504 26.101L147.81 26.8209C147.881 26.8899 147.915 26.9648 147.915 27.0795H148.915ZM148.507 26.1042C148.244 25.8455 147.88 25.6893 147.476 25.5954L147.249 26.5694C147.56 26.6416 147.725 26.7379 147.807 26.8177L148.507 26.1042ZM147.477 25.5956L146.295 25.3186L146.067 26.2922L147.249 26.5692L147.477 25.5956ZM146.296 25.3189C145.697 25.1769 145.326 24.9715 145.114 24.7468L144.386 25.4329C144.784 25.8545 145.366 26.1261 146.066 26.2919L146.296 25.3189ZM145.117 24.7504C144.91 24.5263 144.797 24.2438 144.797 23.8665H143.797C143.797 24.4678 143.987 25.001 144.383 25.4293L145.117 24.7504ZM144.797 23.8665C144.797 23.5667 144.879 23.3172 145.038 23.0995L144.231 22.5099C143.94 22.9077 143.797 23.3661 143.797 23.8665H144.797ZM145.036 23.1021C145.207 22.8712 145.445 22.6806 145.767 22.5361L145.358 21.6237C144.898 21.83 144.517 22.1226 144.233 22.5073L145.036 23.1021ZM145.766 22.5367C146.086 22.3939 146.462 22.3168 146.901 22.3168V21.3168C146.343 21.3168 145.826 21.4151 145.359 21.6231L145.766 22.5367ZM146.901 22.3168C147.535 22.3168 147.965 22.456 148.249 22.6747L148.859 21.8821C148.343 21.4852 147.671 21.3168 146.901 21.3168V22.3168ZM148.25 22.6758C148.57 22.9199 148.799 23.2412 148.938 23.6561L149.887 23.3382C149.687 22.7437 149.344 22.2525 148.857 21.881L148.25 22.6758ZM151.962 29H151.462V29.5H151.962V29ZM151.962 21.9091V21.4091H151.462V21.9091H151.962ZM153.051 21.9091H153.551V21.4091H153.051V21.9091ZM153.051 29V29.5H153.551V29H153.051ZM151.966 20.5103L151.62 20.8712L151.624 20.8746L151.966 20.5103ZM151.966 19.467L151.624 19.1026L151.62 19.1061L151.966 19.467ZM153.061 19.467L152.714 19.8278L152.718 19.8313L153.061 19.467ZM153.061 20.5103L152.718 20.146L152.714 20.1495L153.061 20.5103ZM152.462 29V21.9091H151.462V29H152.462ZM151.962 22.4091H153.051V21.4091H151.962V22.4091ZM152.551 21.9091V29H153.551V21.9091H152.551ZM153.051 28.5H151.962V29.5H153.051V28.5ZM152.516 20.2273C152.43 20.2273 152.369 20.2029 152.309 20.146L151.624 20.8746C151.871 21.107 152.177 21.2273 152.516 21.2273V20.2273ZM152.313 20.1495C152.257 20.0961 152.24 20.0512 152.24 19.9886H151.24C151.24 20.3323 151.374 20.6352 151.62 20.8711L152.313 20.1495ZM152.24 19.9886C152.24 19.9261 152.257 19.8812 152.313 19.8278L151.62 19.1061C151.374 19.342 151.24 19.6449 151.24 19.9886H152.24ZM152.309 19.8313C152.369 19.7743 152.43 19.75 152.516 19.75V18.75C152.177 18.75 151.871 18.8703 151.624 19.1027L152.309 19.8313ZM152.516 19.75C152.601 19.75 152.658 19.7741 152.714 19.8278L153.407 19.1061C153.161 18.8706 152.855 18.75 152.516 18.75V19.75ZM152.718 19.8313C152.776 19.8857 152.791 19.9295 152.791 19.9886H153.791C153.791 19.6415 153.653 19.3376 153.403 19.1027L152.718 19.8313ZM152.791 19.9886C152.791 20.0477 152.776 20.0916 152.718 20.146L153.403 20.8746C153.653 20.6397 153.791 20.3358 153.791 19.9886H152.791ZM152.714 20.1495C152.658 20.2032 152.601 20.2273 152.516 20.2273V21.2273C152.855 21.2273 153.161 21.1067 153.407 20.8711L152.714 20.1495ZM156.99 28.6768L156.716 29.0953L156.716 29.0953L156.99 28.6768ZM155.891 23.5849L155.441 23.3673L155.441 23.3683L155.891 23.5849ZM157.009 22.2876L157.282 22.7066L157.282 22.7061L157.009 22.2876ZM161.02 22.8693L161.417 22.5646L161.417 22.5646L161.02 22.8693ZM161.496 24.0327V24.5327H162.07L161.991 23.9639L161.496 24.0327ZM160.406 24.0327L159.922 24.1572L160.019 24.5327H160.406V24.0327ZM159.852 23.174L159.52 23.5473L159.524 23.551L159.852 23.174ZM157.59 23.1278L157.874 23.5395L157.875 23.5389L157.59 23.1278ZM156.847 24.0558L156.39 23.852L156.39 23.8537L156.847 24.0558ZM156.842 26.8857L156.382 27.0809L156.383 27.0839L156.842 26.8857ZM157.581 27.832L157.292 28.24L157.294 28.2413L157.581 27.832ZM159.478 28.0213L159.282 27.5614L159.282 27.5614L159.478 28.0213ZM160.065 27.5966L160.443 27.9241L160.443 27.9241L160.065 27.5966ZM160.406 26.9318V26.4318H160.02L159.923 26.8051L160.406 26.9318ZM161.496 26.9318L161.99 27.0046L162.075 26.4318H161.496V26.9318ZM161.039 28.0629L160.634 27.7694L160.633 27.7701L161.039 28.0629ZM160.083 28.8569L160.304 29.3055L160.305 29.3048L160.083 28.8569ZM158.707 28.6477C158.124 28.6477 157.65 28.5111 157.264 28.2584L156.716 29.0953C157.29 29.4705 157.961 29.6477 158.707 29.6477V28.6477ZM157.264 28.2584C156.866 27.9983 156.556 27.6395 156.335 27.1672L155.43 27.592C155.725 28.2216 156.154 28.7275 156.716 29.0953L157.264 28.2584ZM156.335 27.1672C156.112 26.6928 155.994 26.1378 155.994 25.4915H154.994C154.994 26.2608 155.135 26.9647 155.43 27.592L156.335 27.1672ZM155.994 25.4915C155.994 24.833 156.115 24.2737 156.342 23.8014L155.441 23.3683C155.138 23.9978 154.994 24.7096 154.994 25.4915H155.994ZM156.342 23.8025C156.573 23.3236 156.887 22.9637 157.282 22.7066L156.736 21.8687C156.176 22.2333 155.745 22.7382 155.441 23.3673L156.342 23.8025ZM157.282 22.7061C157.672 22.4514 158.134 22.3168 158.689 22.3168V21.3168C157.963 21.3168 157.306 21.496 156.735 21.8692L157.282 22.7061ZM158.689 22.3168C159.125 22.3168 159.501 22.3971 159.827 22.5477L160.247 21.6398C159.773 21.421 159.25 21.3168 158.689 21.3168V22.3168ZM159.827 22.5477C160.158 22.7003 160.42 22.9091 160.624 23.174L161.417 22.5646C161.109 22.1648 160.716 21.8565 160.247 21.6398L159.827 22.5477ZM160.624 23.174C160.823 23.433 160.95 23.7382 161.001 24.1015L161.991 23.9639C161.918 23.4408 161.729 22.9704 161.417 22.5646L160.624 23.174ZM161.496 23.5327H160.406V24.5327H161.496V23.5327ZM160.891 23.9081C160.779 23.4739 160.532 23.1033 160.181 22.797L159.524 23.551C159.745 23.7433 159.868 23.9451 159.922 24.1572L160.891 23.9081ZM160.185 22.8007C159.788 22.4468 159.277 22.2955 158.707 22.2955V23.2955C159.099 23.2955 159.35 23.3965 159.52 23.5473L160.185 22.8007ZM158.707 22.2955C158.191 22.2955 157.717 22.432 157.306 22.7167L157.875 23.5389C158.104 23.3805 158.375 23.2955 158.707 23.2955V22.2955ZM157.306 22.7162C156.904 22.9937 156.601 23.3799 156.39 23.852L157.304 24.2595C157.45 23.9314 157.643 23.699 157.874 23.5395L157.306 22.7162ZM156.39 23.8537C156.18 24.3274 156.084 24.8653 156.084 25.4545H157.084C157.084 24.9728 157.163 24.5781 157.304 24.2578L156.39 23.8537ZM156.084 25.4545C156.084 26.0538 156.178 26.5999 156.382 27.0809L157.303 26.6904C157.162 26.3589 157.084 25.951 157.084 25.4545H156.084ZM156.383 27.0839C156.59 27.5623 156.89 27.9552 157.292 28.24L157.87 27.4241C157.638 27.2595 157.446 27.0215 157.301 26.6874L156.383 27.0839ZM157.294 28.2413C157.707 28.531 158.185 28.669 158.707 28.669V27.669C158.368 27.669 158.096 27.5824 157.868 27.4228L157.294 28.2413ZM158.707 28.669C159.049 28.669 159.374 28.6093 159.675 28.4812L159.282 27.5614C159.121 27.6302 158.932 27.669 158.707 27.669V28.669ZM159.675 28.4812C159.973 28.3538 160.231 28.1676 160.443 27.9241L159.687 27.2691C159.578 27.3949 159.445 27.4919 159.282 27.5614L159.675 28.4812ZM160.443 27.9241C160.657 27.6762 160.805 27.3841 160.89 27.0585L159.923 26.8051C159.872 26.9966 159.792 27.1477 159.687 27.2691L160.443 27.9241ZM160.406 27.4318H161.496V26.4318H160.406V27.4318ZM161.001 26.8591C160.951 27.1997 160.829 27.5006 160.634 27.7694L161.444 28.3563C161.735 27.9542 161.917 27.5011 161.99 27.0046L161.001 26.8591ZM160.633 27.7701C160.445 28.0314 160.191 28.2451 159.861 28.409L160.305 29.3048C160.769 29.0747 161.153 28.7591 161.444 28.3556L160.633 27.7701ZM159.862 28.4083C159.549 28.5625 159.169 28.6477 158.707 28.6477V29.6477C159.293 29.6477 159.829 29.5391 160.304 29.3055L159.862 28.4083Z" fill="white"/>
<path d="M21.25 9.5H19C10.9919 9.5 4.5 15.9919 4.5 24C4.5 32.0081 10.9919 38.5 19 38.5H21.25C29.2581 38.5 35.75 32.0081 35.75 24C35.75 15.9919 29.2581 9.5 21.25 9.5Z" fill="white"/>
<g clip-path="url(#clip1_1_453)">
<path d="M15.0104 16H25.9896C26.385 15.9996 26.7766 16.0746 27.142 16.2205C27.5074 16.3664 27.8395 16.5804 28.1191 16.8503C28.3987 17.1203 28.6204 17.4408 28.7716 17.7935C28.9227 18.1462 29.0003 18.5243 29 18.906V29.094C29.0003 29.4757 28.9227 29.8538 28.7716 30.2065C28.6204 30.5593 28.3987 30.8797 28.1191 31.1497C27.8395 31.4196 27.5074 31.6336 27.142 31.7795C26.7766 31.9254 26.385 32.0004 25.9896 32H15.0104C14.6149 32.0004 14.2233 31.9254 13.8579 31.7795C13.4925 31.6336 13.1605 31.4196 12.8809 31.1497C12.6013 30.8797 12.3795 30.5593 12.2284 30.2065C12.0772 29.8538 11.9996 29.4757 12 29.094V18.906C11.9996 18.5243 12.0772 18.1462 12.2284 17.7935C12.3795 17.4408 12.6013 17.1203 12.8809 16.8503C13.1605 16.5804 13.4925 16.3664 13.8579 16.2205C14.2233 16.0746 14.6149 15.9996 15.0104 16V16Z" fill="#001E36"/>
<path d="M17.9642 27.3094H13.9196C13.8487 27.3094 13.8204 27.2684 13.8204 27.1863V20.1983C13.8204 20.1299 13.8487 20.1025 13.9125 20.1025H15.1662C15.2158 20.1025 15.2371 20.1299 15.2371 20.1778V25.9213H18.1837C18.2475 25.9213 18.2687 25.9555 18.2546 26.0171L18.0704 27.2068C18.0694 27.2225 18.0651 27.2379 18.0578 27.252C18.0505 27.2661 18.0404 27.2787 18.0279 27.2889C18.0093 27.3017 17.9871 27.3089 17.9642 27.3094Z" fill="#31A8FF"/>
<path d="M18.9771 21.8393H20.0962C20.16 21.8393 20.2025 21.8735 20.2308 21.9487C20.2547 21.9987 20.2714 22.0516 20.2804 22.106C20.2946 22.1743 20.3017 22.2496 20.3087 22.3179C20.3158 22.3863 20.3158 22.4752 20.3158 22.5641C20.502 22.3284 20.7327 22.1289 20.9958 21.9761C21.2821 21.8099 21.611 21.7246 21.945 21.7299C22.0087 21.7299 22.0371 21.7641 22.0371 21.8256V23.159C22.0371 23.2137 22.0017 23.2342 21.9379 23.2342C21.5221 23.2042 21.1056 23.2846 20.7337 23.4667C20.6036 23.5307 20.4861 23.6163 20.3867 23.7196V27.2068C20.3867 27.2752 20.3583 27.3026 20.3017 27.3026H19.0692C18.9983 27.3026 18.97 27.2684 18.97 27.1932V23.4051C18.97 23.241 18.97 23.0701 18.9629 22.8923C18.9558 22.7145 18.9558 22.5367 18.9487 22.359C18.9417 22.2085 18.9275 22.0581 18.9062 21.9077C18.9041 21.8862 18.9091 21.8647 18.9204 21.8461C18.9378 21.8372 18.958 21.8348 18.9771 21.8393V21.8393Z" fill="#31A8FF"/>
<path d="M27.0592 20.8273C26.9072 20.7678 26.7475 20.7287 26.5846 20.7111C26.3448 20.6838 26.1035 20.6701 25.8621 20.67C25.1679 20.67 24.5588 20.8136 24.0558 21.094C23.5538 21.3765 23.1458 21.7917 22.88 22.2906C22.6038 22.7965 22.4692 23.3983 22.4692 24.0683C22.4646 24.4744 22.5171 24.8792 22.625 25.2718C22.722 25.6059 22.8751 25.9223 23.0783 26.2085C23.267 26.4715 23.502 26.7006 23.7725 26.8854C24.0442 27.0736 24.349 27.2126 24.6721 27.2957C25.0089 27.3856 25.3568 27.4316 25.7063 27.4324C25.9503 27.4338 26.1942 27.4178 26.4358 27.3846C26.6325 27.3634 26.8253 27.3174 27.0096 27.2478C27.0448 27.2313 27.0739 27.2047 27.0929 27.1717C27.1119 27.1387 27.1199 27.1008 27.1158 27.0632V26.0444C27.1187 26.0258 27.1171 26.0068 27.1109 25.989C27.1047 25.9712 27.0943 25.955 27.0804 25.9418C27.064 25.9293 27.0433 25.9231 27.0224 25.9243C27.0015 25.9256 26.9818 25.9343 26.9671 25.9487C26.8068 26.005 26.6405 26.044 26.4713 26.0649C26.2665 26.0843 26.0608 26.0934 25.855 26.0923C25.6682 26.0913 25.4823 26.066 25.3025 26.0171C25.1135 25.9685 24.9323 25.8948 24.7642 25.7983C24.5898 25.6958 24.4381 25.561 24.3179 25.4017C24.1822 25.2229 24.077 25.0244 24.0063 24.8136C23.926 24.5542 23.8878 24.2843 23.8929 24.0136C23.8848 23.6367 23.9647 23.2627 24.1267 22.9196C24.2731 22.6239 24.5041 22.3747 24.7925 22.2017C25.1057 22.0244 25.4637 21.9345 25.8267 21.9418C26.0499 21.9397 26.2729 21.958 26.4925 21.9965C26.6706 22.0242 26.8428 22.0796 27.0025 22.1606C27.0168 22.1674 27.0326 22.1709 27.0485 22.1709C27.0645 22.1709 27.0803 22.1674 27.0946 22.1606C27.1098 22.1482 27.1217 22.1324 27.1291 22.1145C27.1365 22.0966 27.1392 22.0772 27.1371 22.0581V20.9914C27.1417 20.9597 27.1368 20.9274 27.123 20.8984C27.1092 20.8693 27.087 20.8446 27.0592 20.8273V20.8273Z" fill="#31A8FF"/>
</g>
</g>
<defs>
<clipPath id="clip0_1_453">
<rect width="195" height="48" fill="white"/>
</clipPath>
<clipPath id="clip1_1_453">
<rect width="17" height="16" fill="white" transform="translate(12 16)"/>
</clipPath>
</defs>
</svg>
