<svg width="155" height="48" viewBox="0 0 155 48" fill="none" xmlns="http://www.w3.org/2000/svg">
<g clip-path="url(#clip0_1_485)">
<path d="M155 0H0V48H155V0Z" fill="#3D006D"/>
<path d="M41.1449 29V19.5455H44.3395C45.0812 19.5455 45.6875 19.6793 46.1584 19.9471C46.6323 20.2118 46.9832 20.5703 47.2109 21.0227C47.4387 21.4751 47.5526 21.9799 47.5526 22.5369C47.5526 23.094 47.4387 23.6003 47.2109 24.0558C46.9863 24.5112 46.6385 24.8744 46.1676 25.1452C45.6967 25.413 45.0935 25.5469 44.358 25.5469H42.0682V24.5312H44.321C44.8288 24.5312 45.2366 24.4435 45.5444 24.2681C45.8522 24.0927 46.0753 23.8557 46.2138 23.5572C46.3554 23.2556 46.4261 22.9155 46.4261 22.5369C46.4261 22.1584 46.3554 21.8198 46.2138 21.5213C46.0753 21.2228 45.8506 20.9889 45.5398 20.8196C45.2289 20.6473 44.8165 20.5611 44.3026 20.5611H42.2898V29H41.1449ZM50.0291 29V21.9091H51.0817V22.9801H51.1555C51.2848 22.6293 51.5187 22.3446 51.8572 22.1261C52.1958 21.9076 52.5774 21.7983 53.0021 21.7983C53.0821 21.7983 53.1822 21.7998 53.3022 21.8029C53.4222 21.806 53.513 21.8106 53.5746 21.8168V22.9247C53.5376 22.9155 53.453 22.9016 53.3207 22.8832C53.1914 22.8616 53.0544 22.8509 52.9098 22.8509C52.5651 22.8509 52.2573 22.9232 51.9865 23.0678C51.7187 23.2094 51.5064 23.4064 51.3494 23.6587C51.1955 23.908 51.1186 24.1927 51.1186 24.5128V29H50.0291ZM58.4032 29.1477C57.72 29.1477 57.1306 28.9969 56.6351 28.6953C56.1427 28.3906 55.7626 27.9659 55.4948 27.4212C55.2302 26.8733 55.0978 26.2363 55.0978 25.5099C55.0978 24.7836 55.2302 24.1435 55.4948 23.5895C55.7626 23.0324 56.135 22.5985 56.612 22.2876C57.0921 21.9737 57.6523 21.8168 58.2924 21.8168C58.6617 21.8168 59.0264 21.8783 59.3865 22.0014C59.7466 22.1245 60.0744 22.3246 60.3698 22.6016C60.6653 22.8755 60.9007 23.2386 61.0762 23.6911C61.2516 24.1435 61.3393 24.7005 61.3393 25.3622V25.8239H55.8734V24.8821H60.2313C60.2313 24.482 60.1513 24.125 59.9913 23.8111C59.8343 23.4972 59.6097 23.2494 59.3173 23.0678C59.028 22.8862 58.6864 22.7955 58.2924 22.7955C57.8585 22.7955 57.483 22.9032 57.166 23.1186C56.8521 23.331 56.6105 23.608 56.4412 23.9496C56.2719 24.2912 56.1873 24.6574 56.1873 25.0483V25.6761C56.1873 26.2116 56.2796 26.6656 56.4643 27.038C56.652 27.4073 56.9121 27.6889 57.2445 27.8828C57.5769 28.0736 57.9631 28.169 58.4032 28.169C58.6894 28.169 58.948 28.129 59.1788 28.049C59.4127 27.9659 59.6143 27.8428 59.7835 27.6797C59.9528 27.5135 60.0836 27.3073 60.1759 27.0611L61.2285 27.3565C61.1177 27.7135 60.9315 28.0275 60.6699 28.2983C60.4083 28.5661 60.0852 28.7753 59.7004 28.9261C59.3157 29.0739 58.8833 29.1477 58.4032 29.1477ZM63.7766 29V21.9091H64.8292V23.017H64.9215C65.0692 22.6385 65.3077 22.3446 65.6371 22.1353C65.9664 21.9229 66.3618 21.8168 66.8235 21.8168C67.2913 21.8168 67.6806 21.9229 67.9915 22.1353C68.3054 22.3446 68.5501 22.6385 68.7255 23.017H68.7993C68.9809 22.6508 69.2533 22.36 69.6165 22.1445C69.9796 21.926 70.4151 21.8168 70.9229 21.8168C71.5569 21.8168 72.0755 22.0153 72.4787 22.4123C72.8818 22.8062 73.0834 23.4202 73.0834 24.2543V29H71.9939V24.2543C71.9939 23.7311 71.8508 23.3571 71.5646 23.1325C71.2784 22.9078 70.9414 22.7955 70.5536 22.7955C70.055 22.7955 69.6688 22.9463 69.3949 23.2479C69.121 23.5464 68.984 23.925 68.984 24.3835V29H67.876V24.1435C67.876 23.7403 67.7452 23.4156 67.4836 23.1694C67.222 22.9201 66.885 22.7955 66.4726 22.7955C66.1895 22.7955 65.9248 22.8709 65.6786 23.0217C65.4355 23.1725 65.2385 23.3817 65.0877 23.6495C64.94 23.9142 64.8661 24.2204 64.8661 24.5682V29H63.7766ZM75.8554 29V21.9091H76.9449V29H75.8554ZM76.4094 20.7273C76.1971 20.7273 76.0139 20.6549 75.8601 20.5103C75.7093 20.3656 75.6338 20.1918 75.6338 19.9886C75.6338 19.7855 75.7093 19.6116 75.8601 19.467C76.0139 19.3223 76.1971 19.25 76.4094 19.25C76.6218 19.25 76.8034 19.3223 76.9542 19.467C77.108 19.6116 77.185 19.7855 77.185 19.9886C77.185 20.1918 77.108 20.3656 76.9542 20.5103C76.8034 20.6549 76.6218 20.7273 76.4094 20.7273ZM82.6934 29.1477C82.0102 29.1477 81.4208 28.9969 80.9253 28.6953C80.4329 28.3906 80.0528 27.9659 79.785 27.4212C79.5204 26.8733 79.388 26.2363 79.388 25.5099C79.388 24.7836 79.5204 24.1435 79.785 23.5895C80.0528 23.0324 80.4252 22.5985 80.9022 22.2876C81.3823 21.9737 81.9425 21.8168 82.5826 21.8168C82.9519 21.8168 83.3166 21.8783 83.6767 22.0014C84.0368 22.1245 84.3646 22.3246 84.66 22.6016C84.9555 22.8755 85.1909 23.2386 85.3664 23.6911C85.5418 24.1435 85.6295 24.7005 85.6295 25.3622V25.8239H80.1636V24.8821H84.5215C84.5215 24.482 84.4415 24.125 84.2815 23.8111C84.1245 23.4972 83.8999 23.2494 83.6075 23.0678C83.3182 22.8862 82.9766 22.7955 82.5826 22.7955C82.1487 22.7955 81.7732 22.9032 81.4562 23.1186C81.1423 23.331 80.9007 23.608 80.7314 23.9496C80.5621 24.2912 80.4775 24.6574 80.4775 25.0483V25.6761C80.4775 26.2116 80.5698 26.6656 80.7545 27.038C80.9422 27.4073 81.2023 27.6889 81.5347 27.8828C81.8671 28.0736 82.2533 28.169 82.6934 28.169C82.9796 28.169 83.2382 28.129 83.469 28.049C83.7029 27.9659 83.9045 27.8428 84.0737 27.6797C84.243 27.5135 84.3738 27.3073 84.4661 27.0611L85.5187 27.3565C85.4079 27.7135 85.2217 28.0275 84.9601 28.2983C84.6985 28.5661 84.3754 28.7753 83.9906 28.9261C83.6059 29.0739 83.1735 29.1477 82.6934 29.1477ZM88.0668 29V21.9091H89.1194V22.9801H89.1932C89.3225 22.6293 89.5564 22.3446 89.8949 22.1261C90.2335 21.9076 90.6151 21.7983 91.0398 21.7983C91.1198 21.7983 91.2199 21.7998 91.3399 21.8029C91.4599 21.806 91.5507 21.8106 91.6123 21.8168V22.9247C91.5753 22.9155 91.4907 22.9016 91.3584 22.8832C91.2291 22.8616 91.0921 22.8509 90.9475 22.8509C90.6028 22.8509 90.295 22.9232 90.0242 23.0678C89.7564 23.2094 89.5441 23.4064 89.3871 23.6587C89.2332 23.908 89.1563 24.1927 89.1563 24.5128V29H88.0668ZM96.4409 29.1477C95.7577 29.1477 95.1683 28.9969 94.6728 28.6953C94.1804 28.3906 93.8003 27.9659 93.5325 27.4212C93.2679 26.8733 93.1355 26.2363 93.1355 25.5099C93.1355 24.7836 93.2679 24.1435 93.5325 23.5895C93.8003 23.0324 94.1727 22.5985 94.6497 22.2876C95.1298 21.9737 95.69 21.8168 96.3301 21.8168C96.6994 21.8168 97.0641 21.8783 97.4242 22.0014C97.7843 22.1245 98.1121 22.3246 98.4075 22.6016C98.703 22.8755 98.9384 23.2386 99.1139 23.6911C99.2893 24.1435 99.377 24.7005 99.377 25.3622V25.8239H93.9111V24.8821H98.269C98.269 24.482 98.189 24.125 98.029 23.8111C97.872 23.4972 97.6474 23.2494 97.355 23.0678C97.0657 22.8862 96.7241 22.7955 96.3301 22.7955C95.8962 22.7955 95.5207 22.9032 95.2037 23.1186C94.8898 23.331 94.6482 23.608 94.4789 23.9496C94.3096 24.2912 94.225 24.6574 94.225 25.0483V25.6761C94.225 26.2116 94.3173 26.6656 94.502 27.038C94.6897 27.4073 94.9498 27.6889 95.2822 27.8828C95.6146 28.0736 96.0008 28.169 96.4409 28.169C96.7271 28.169 96.9857 28.129 97.2165 28.049C97.4504 27.9659 97.652 27.8428 97.8212 27.6797C97.9905 27.5135 98.1213 27.3073 98.2136 27.0611L99.2662 27.3565C99.1554 27.7135 98.9692 28.0275 98.7076 28.2983C98.446 28.5661 98.1228 28.7753 97.7381 28.9261C97.3534 29.0739 96.921 29.1477 96.4409 29.1477ZM106.398 29V19.5455H109.593C110.335 19.5455 110.941 19.6793 111.412 19.9471C111.886 20.2118 112.237 20.5703 112.464 21.0227C112.692 21.4751 112.806 21.9799 112.806 22.5369C112.806 23.094 112.692 23.6003 112.464 24.0558C112.24 24.5112 111.892 24.8744 111.421 25.1452C110.95 25.413 110.347 25.5469 109.611 25.5469H107.322V24.5312H109.574C110.082 24.5312 110.49 24.4435 110.798 24.2681C111.106 24.0927 111.329 23.8557 111.467 23.5572C111.609 23.2556 111.68 22.9155 111.68 22.5369C111.68 22.1584 111.609 21.8198 111.467 21.5213C111.329 21.2228 111.104 20.9889 110.793 20.8196C110.482 20.6473 110.07 20.5611 109.556 20.5611H107.543V29H106.398ZM115.283 29V21.9091H116.335V22.9801H116.409C116.538 22.6293 116.772 22.3446 117.111 22.1261C117.449 21.9076 117.831 21.7983 118.256 21.7983C118.336 21.7983 118.436 21.7998 118.556 21.8029C118.676 21.806 118.766 21.8106 118.828 21.8168V22.9247C118.791 22.9155 118.706 22.9016 118.574 22.8832C118.445 22.8616 118.308 22.8509 118.163 22.8509C117.818 22.8509 117.511 22.9232 117.24 23.0678C116.972 23.2094 116.76 23.4064 116.603 23.6587C116.449 23.908 116.372 24.1927 116.372 24.5128V29H115.283ZM123.564 29.1477C122.924 29.1477 122.362 28.9954 121.879 28.6907C121.399 28.386 121.024 27.9598 120.753 27.4119C120.485 26.8641 120.351 26.224 120.351 25.4915C120.351 24.7528 120.485 24.1081 120.753 23.5572C121.024 23.0063 121.399 22.5785 121.879 22.2738C122.362 21.9691 122.924 21.8168 123.564 21.8168C124.204 21.8168 124.765 21.9691 125.245 22.2738C125.728 22.5785 126.103 23.0063 126.371 23.5572C126.642 24.1081 126.777 24.7528 126.777 25.4915C126.777 26.224 126.642 26.8641 126.371 27.4119C126.103 27.9598 125.728 28.386 125.245 28.6907C124.765 28.9954 124.204 29.1477 123.564 29.1477ZM123.564 28.169C124.051 28.169 124.451 28.0444 124.765 27.7951C125.078 27.5458 125.311 27.218 125.462 26.8118C125.612 26.4055 125.688 25.9654 125.688 25.4915C125.688 25.0175 125.612 24.5759 125.462 24.1665C125.311 23.7572 125.078 23.4264 124.765 23.174C124.451 22.9216 124.051 22.7955 123.564 22.7955C123.078 22.7955 122.678 22.9216 122.364 23.174C122.05 23.4264 121.818 23.7572 121.667 24.1665C121.516 24.5759 121.441 25.0175 121.441 25.4915C121.441 25.9654 121.516 26.4055 121.667 26.8118C121.818 27.218 122.05 27.5458 122.364 27.7951C122.678 28.0444 123.078 28.169 123.564 28.169Z" fill="white"/>
<path d="M41.1449 29H40.6449V29.5H41.1449V29ZM41.1449 19.5455V19.0455H40.6449V19.5455H41.1449ZM46.1584 19.9471L45.9112 20.3817L45.9146 20.3836L46.1584 19.9471ZM47.2109 21.0227L46.7643 21.2475L46.7643 21.2475L47.2109 21.0227ZM47.2109 24.0558L46.7637 23.8321L46.7625 23.8346L47.2109 24.0558ZM46.1676 25.1452L46.4148 25.5799L46.4169 25.5787L46.1676 25.1452ZM42.0682 25.5469H41.5682V26.0469H42.0682V25.5469ZM42.0682 24.5312V24.0312H41.5682V24.5312H42.0682ZM45.5444 24.2681L45.2968 23.8337L45.2968 23.8337L45.5444 24.2681ZM46.2138 23.5572L45.7612 23.3447L45.7602 23.3468L46.2138 23.5572ZM46.2138 21.5213L45.7602 21.7317L45.762 21.7355L46.2138 21.5213ZM45.5398 20.8196L45.2973 21.2569L45.3007 21.2587L45.5398 20.8196ZM42.2898 20.5611V20.0611H41.7898V20.5611H42.2898ZM42.2898 29V29.5H42.7898V29H42.2898ZM41.6449 29V19.5455H40.6449V29H41.6449ZM41.1449 20.0455H44.3395V19.0455H41.1449V20.0455ZM44.3395 20.0455C45.0252 20.0455 45.5384 20.1698 45.9112 20.3817L46.4055 19.5124C45.8366 19.1889 45.1372 19.0455 44.3395 19.0455V20.0455ZM45.9146 20.3836C46.3079 20.6033 46.5848 20.8909 46.7643 21.2475L47.6575 20.7979C47.3816 20.2497 46.9568 19.8203 46.4022 19.5105L45.9146 20.3836ZM46.7643 21.2475C46.9536 21.6235 47.0526 22.05 47.0526 22.5369H48.0526C48.0526 21.9097 47.9238 21.3268 47.6575 20.7979L46.7643 21.2475ZM47.0526 22.5369C47.0526 23.0238 46.9536 23.4524 46.7637 23.8321L47.6582 24.2794C47.9238 23.7481 48.0526 23.1642 48.0526 22.5369H47.0526ZM46.7625 23.8346C46.5848 24.1949 46.3095 24.4868 45.9183 24.7118L46.4169 25.5787C46.9675 25.262 47.3877 24.8276 47.6594 24.2769L46.7625 23.8346ZM45.9205 24.7106C45.5471 24.9229 45.0366 25.0469 44.358 25.0469V26.0469C45.1504 26.0469 45.8463 25.9031 46.4148 25.5799L45.9205 24.7106ZM44.358 25.0469H42.0682V26.0469H44.358V25.0469ZM42.5682 25.5469V24.5312H41.5682V25.5469H42.5682ZM42.0682 25.0312H44.321V24.0312H42.0682V25.0312ZM44.321 25.0312C44.8803 25.0312 45.3831 24.9356 45.792 24.7025L45.2968 23.8337C45.0902 23.9515 44.7774 24.0312 44.321 24.0312V25.0312ZM45.792 24.7025C46.1827 24.4798 46.4817 24.1677 46.6673 23.7676L45.7602 23.3468C45.6688 23.5437 45.5216 23.7056 45.2968 23.8337L45.792 24.7025ZM46.6664 23.7696C46.8432 23.393 46.9261 22.9789 46.9261 22.5369H45.9261C45.9261 22.8521 45.8675 23.1181 45.7612 23.3447L46.6664 23.7696ZM46.9261 22.5369C46.9261 22.0951 46.8432 21.6817 46.6656 21.3071L45.762 21.7355C45.8675 21.958 45.9261 22.2217 45.9261 22.5369H46.9261ZM46.6673 21.3109C46.4803 20.9076 46.1763 20.5969 45.7789 20.3805L45.3007 21.2587C45.5249 21.3808 45.6703 21.538 45.7602 21.7317L46.6673 21.3109ZM45.7822 20.3823C45.3714 20.1545 44.866 20.0611 44.3026 20.0611V21.0611C44.7671 21.0611 45.0865 21.14 45.2973 21.2569L45.7822 20.3823ZM44.3026 20.0611H42.2898V21.0611H44.3026V20.0611ZM41.7898 20.5611V29H42.7898V20.5611H41.7898ZM42.2898 28.5H41.1449V29.5H42.2898V28.5ZM50.0291 29H49.5291V29.5H50.0291V29ZM50.0291 21.9091V21.4091H49.5291V21.9091H50.0291ZM51.0817 21.9091H51.5817V21.4091H51.0817V21.9091ZM51.0817 22.9801H50.5817V23.4801H51.0817V22.9801ZM51.1555 22.9801V23.4801H51.5042L51.6247 23.153L51.1555 22.9801ZM51.8572 22.1261L51.5861 21.706L51.5861 21.706L51.8572 22.1261ZM53.5746 21.8168H54.0746V21.3643L53.6243 21.3192L53.5746 21.8168ZM53.5746 22.9247L53.4533 23.4098L54.0746 23.5651V22.9247H53.5746ZM53.3207 22.8832L53.2384 23.3765L53.2516 23.3784L53.3207 22.8832ZM51.9865 23.0678L52.2202 23.5098L52.2221 23.5089L51.9865 23.0678ZM51.3494 23.6587L50.9248 23.3947L50.924 23.3961L51.3494 23.6587ZM51.1186 29V29.5H51.6186V29H51.1186ZM50.5291 29V21.9091H49.5291V29H50.5291ZM50.0291 22.4091H51.0817V21.4091H50.0291V22.4091ZM50.5817 21.9091V22.9801H51.5817V21.9091H50.5817ZM51.0817 23.4801H51.1555V22.4801H51.0817V23.4801ZM51.6247 23.153C51.7135 22.9119 51.8734 22.7107 52.1284 22.5462L51.5861 21.706C51.164 21.9784 50.8561 22.3466 50.6864 22.8073L51.6247 23.153ZM52.1284 22.5462C52.3816 22.3827 52.6681 22.2983 53.0021 22.2983V21.2983C52.4867 21.2983 52.0099 21.4324 51.5861 21.706L52.1284 22.5462ZM53.0021 22.2983C53.0763 22.2983 53.1717 22.2997 53.2894 22.3027L53.315 21.3031C53.1926 21.2999 53.088 21.2983 53.0021 21.2983V22.2983ZM53.2894 22.3027C53.4062 22.3057 53.4821 22.31 53.5248 22.3143L53.6243 21.3192C53.5439 21.3112 53.4382 21.3062 53.315 21.3031L53.2894 22.3027ZM53.0746 21.8168V22.9247H54.0746V21.8168H53.0746ZM53.6958 22.4396C53.6279 22.4227 53.5146 22.4054 53.3898 22.388L53.2516 23.3784C53.3157 23.3873 53.3657 23.3948 53.4026 23.4008C53.4439 23.4076 53.4566 23.4106 53.4533 23.4098L53.6958 22.4396ZM53.4029 22.39C53.2438 22.3635 53.0792 22.3509 52.9098 22.3509V23.3509C53.0297 23.3509 53.139 23.3598 53.2385 23.3764L53.4029 22.39ZM52.9098 22.3509C52.4932 22.3509 52.1028 22.4389 51.7509 22.6268L52.2221 23.5089C52.4119 23.4075 52.637 23.3509 52.9098 23.3509V22.3509ZM51.7528 22.6258C51.4083 22.8079 51.1295 23.0656 50.9248 23.3947L51.774 23.9228C51.8833 23.7471 52.0291 23.6109 52.2202 23.5098L51.7528 22.6258ZM50.924 23.3961C50.7169 23.7316 50.6186 24.1088 50.6186 24.5128H51.6186C51.6186 24.2766 51.6742 24.0845 51.7749 23.9214L50.924 23.3961ZM50.6186 24.5128V29H51.6186V24.5128H50.6186ZM51.1186 28.5H50.0291V29.5H51.1186V28.5ZM56.6351 28.6953L56.372 29.1205L56.3751 29.1224L56.6351 28.6953ZM55.4948 27.4212L55.0446 27.6387L55.0461 27.6417L55.4948 27.4212ZM55.4948 23.5895L55.0442 23.3729L55.0437 23.3739L55.4948 23.5895ZM56.612 22.2876L56.885 22.7066L56.8856 22.7061L56.612 22.2876ZM59.3865 22.0014L59.5483 21.5283L59.5483 21.5283L59.3865 22.0014ZM60.3698 22.6016L60.0279 22.9663L60.0299 22.9682L60.3698 22.6016ZM61.0762 23.6911L61.5423 23.5103L61.5423 23.5103L61.0762 23.6911ZM61.3393 25.8239V26.3239H61.8393V25.8239H61.3393ZM55.8734 25.8239H55.3734V26.3239H55.8734V25.8239ZM55.8734 24.8821V24.3821H55.3734V24.8821H55.8734ZM60.2313 24.8821V25.3821H60.7313V24.8821H60.2313ZM59.9913 23.8111L59.5441 24.0347L59.5458 24.0382L59.9913 23.8111ZM59.3173 23.0678L59.0515 23.4913L59.0535 23.4926L59.3173 23.0678ZM57.166 23.1186L57.4462 23.5328L57.447 23.5321L57.166 23.1186ZM56.4412 23.9496L55.9932 23.7276L55.9932 23.7276L56.4412 23.9496ZM56.4643 27.038L56.0163 27.2601L56.0186 27.2646L56.4643 27.038ZM57.2445 27.8828L56.9925 28.3147L56.9955 28.3164L57.2445 27.8828ZM59.1788 28.049L59.3426 28.5214L59.3462 28.5202L59.1788 28.049ZM59.7835 27.6797L60.1305 28.0397L60.1338 28.0365L59.7835 27.6797ZM60.1759 27.0611L60.3111 26.5797L59.869 26.4556L59.7078 26.8855L60.1759 27.0611ZM61.2285 27.3565L61.706 27.5047L61.8583 27.014L61.3636 26.8751L61.2285 27.3565ZM60.6699 28.2983L61.0276 28.6477L61.0295 28.6457L60.6699 28.2983ZM59.7004 28.9261L59.8797 29.3929L59.8829 29.3916L59.7004 28.9261ZM58.4032 28.6477C57.7952 28.6477 57.2993 28.5142 56.8951 28.2682L56.3751 29.1224C56.962 29.4796 57.6448 29.6477 58.4032 29.6477V28.6477ZM56.8982 28.2701C56.4896 28.0173 56.172 27.6653 55.9436 27.2006L55.0461 27.6417C55.3532 28.2665 55.7958 28.764 56.372 29.1205L56.8982 28.2701ZM55.945 27.2036C55.7189 26.7356 55.5978 26.1754 55.5978 25.5099H54.5978C54.5978 26.2972 54.7414 27.0111 55.0446 27.6387L55.945 27.2036ZM55.5978 25.5099C55.5978 24.8447 55.7188 24.2805 55.946 23.805L55.0437 23.3739C54.7415 24.0064 54.5978 24.7226 54.5978 25.5099H55.5978ZM55.9455 23.8061C56.1771 23.3242 56.4911 22.9632 56.885 22.7066L56.3391 21.8687C55.7789 22.2337 55.3481 22.7407 55.0442 23.3729L55.9455 23.8061ZM56.8856 22.7061C57.2752 22.4514 57.7378 22.3168 58.2924 22.3168V21.3168C57.5667 21.3168 56.9091 21.496 56.3384 21.8692L56.8856 22.7061ZM58.2924 22.3168C58.605 22.3168 58.9152 22.3687 59.2248 22.4745L59.5483 21.5283C59.1377 21.3879 58.7184 21.3168 58.2924 21.3168V22.3168ZM59.2248 22.4745C59.5135 22.5733 59.7807 22.7347 60.0279 22.9663L60.7118 22.2368C60.368 21.9145 59.9797 21.6758 59.5483 21.5283L59.2248 22.4745ZM60.0299 22.9682C60.2595 23.1811 60.4564 23.4759 60.61 23.8718L61.5423 23.5103C61.345 23.0014 61.0711 22.5699 60.7098 22.2349L60.0299 22.9682ZM60.61 23.8718C60.7565 24.2498 60.8393 24.7413 60.8393 25.3622H61.8393C61.8393 24.6597 61.7466 24.0371 61.5423 23.5103L60.61 23.8718ZM60.8393 25.3622V25.8239H61.8393V25.3622H60.8393ZM61.3393 25.3239H55.8734V26.3239H61.3393V25.3239ZM56.3734 25.8239V24.8821H55.3734V25.8239H56.3734ZM55.8734 25.3821H60.2313V24.3821H55.8734V25.3821ZM60.7313 24.8821C60.7313 24.4138 60.6372 23.9772 60.4367 23.584L59.5458 24.0382C59.6654 24.2728 59.7313 24.5502 59.7313 24.8821H60.7313ZM60.4385 23.5875C60.241 23.1926 59.9536 22.8745 59.5811 22.6431L59.0535 23.4926C59.2657 23.6244 59.4276 23.8018 59.5441 24.0347L60.4385 23.5875ZM59.5831 22.6443C59.2025 22.4055 58.7657 22.2955 58.2924 22.2955V23.2955C58.607 23.2955 58.8534 23.367 59.0515 23.4913L59.5831 22.6443ZM58.2924 22.2955C57.772 22.2955 57.2955 22.4261 56.885 22.7051L57.447 23.5321C57.6705 23.3803 57.945 23.2955 58.2924 23.2955V22.2955ZM56.8858 22.7045C56.4998 22.9656 56.2006 23.309 55.9932 23.7276L56.8892 24.1716C57.0203 23.907 57.2043 23.6963 57.4462 23.5327L56.8858 22.7045ZM55.9932 23.7276C55.7889 24.14 55.6873 24.5824 55.6873 25.0483H56.6873C56.6873 24.7324 56.755 24.4424 56.8892 24.1716L55.9932 23.7276ZM55.6873 25.0483V25.6761H56.6873V25.0483H55.6873ZM55.6873 25.6761C55.6873 26.2672 55.789 26.8017 56.0163 27.2601L56.9122 26.8159C56.7702 26.5295 56.6873 26.1561 56.6873 25.6761H55.6873ZM56.0186 27.2646C56.2464 27.7127 56.5708 28.0687 56.9925 28.3147L57.4964 27.4509C57.2534 27.3092 57.0577 27.102 56.91 26.8114L56.0186 27.2646ZM56.9955 28.3164C57.4143 28.5568 57.8889 28.669 58.4032 28.669V27.669C58.0373 27.669 57.7394 27.5904 57.4934 27.4492L56.9955 28.3164ZM58.4032 28.669C58.7358 28.669 59.0509 28.6225 59.3426 28.5214L59.015 27.5766C58.845 27.6355 58.643 27.669 58.4032 27.669V28.669ZM59.3462 28.5202C59.6433 28.4146 59.9071 28.255 60.1305 28.0397L59.4366 27.3196C59.3214 27.4306 59.1821 27.5172 59.0114 27.5779L59.3462 28.5202ZM60.1338 28.0365C60.3606 27.8139 60.529 27.5437 60.6441 27.2366L59.7078 26.8855C59.6383 27.0709 59.5451 27.2131 59.4332 27.3229L60.1338 28.0365ZM60.0408 27.5425L61.0934 27.8379L61.3636 26.8751L60.3111 26.5797L60.0408 27.5425ZM60.751 27.2083C60.6635 27.4901 60.518 27.7359 60.3103 27.9509L61.0295 28.6457C61.3451 28.319 61.5719 27.937 61.706 27.5047L60.751 27.2083ZM60.3123 27.9489C60.1051 28.1609 59.8436 28.333 59.518 28.4606L59.8829 29.3916C60.3267 29.2177 60.7115 28.9712 61.0275 28.6477L60.3123 27.9489ZM59.5212 28.4594C59.2023 28.5818 58.832 28.6477 58.4032 28.6477V29.6477C58.9347 29.6477 59.4292 29.5659 59.8797 29.3929L59.5212 28.4594ZM63.7766 29H63.2766V29.5H63.7766V29ZM63.7766 21.9091V21.4091H63.2766V21.9091H63.7766ZM64.8292 21.9091H65.3292V21.4091H64.8292V21.9091ZM64.8292 23.017H64.3292V23.517H64.8292V23.017ZM64.9215 23.017V23.517H65.2631L65.3873 23.1988L64.9215 23.017ZM65.6371 22.1353L65.9052 22.5573L65.908 22.5555L65.6371 22.1353ZM67.9915 22.1353L67.7094 22.5482L67.7141 22.5513L67.9915 22.1353ZM68.7255 23.017L68.2718 23.2273L68.4061 23.517H68.7255V23.017ZM68.7993 23.017V23.517H69.1095L69.2473 23.2391L68.7993 23.017ZM69.6165 22.1445L69.8716 22.5746L69.8742 22.573L69.6165 22.1445ZM72.4787 22.4123L72.1278 22.7686L72.1292 22.7699L72.4787 22.4123ZM73.0834 29V29.5H73.5834V29H73.0834ZM71.9939 29H71.4939V29.5H71.9939V29ZM71.5646 23.1325L71.2559 23.5258L71.2559 23.5258L71.5646 23.1325ZM69.3949 23.2479L69.7633 23.5859L69.765 23.584L69.3949 23.2479ZM68.984 29V29.5H69.484V29H68.984ZM67.876 29H67.376V29.5H67.876V29ZM67.4836 23.1694L67.1387 23.5314L67.141 23.5335L67.4836 23.1694ZM65.6786 23.0217L65.4174 22.5953L65.4151 22.5968L65.6786 23.0217ZM65.0877 23.6495L64.652 23.4041L64.6511 23.4058L65.0877 23.6495ZM64.8661 29V29.5H65.3661V29H64.8661ZM64.2766 29V21.9091H63.2766V29H64.2766ZM63.7766 22.4091H64.8292V21.4091H63.7766V22.4091ZM64.3292 21.9091V23.017H65.3292V21.9091H64.3292ZM64.8292 23.517H64.9215V22.517H64.8292V23.517ZM65.3873 23.1988C65.4981 22.9149 65.6696 22.7071 65.9052 22.5573L65.3689 21.7133C64.9459 21.9821 64.6404 22.3621 64.4557 22.8353L65.3873 23.1988ZM65.908 22.5555C66.1431 22.4039 66.4405 22.3168 66.8235 22.3168V21.3168C66.2831 21.3168 65.7897 21.4419 65.3661 21.7151L65.908 22.5555ZM66.8235 22.3168C67.2152 22.3168 67.4999 22.405 67.7094 22.5482L68.2735 21.7224C67.8614 21.4409 67.3674 21.3168 66.8235 21.3168V22.3168ZM67.7141 22.5513C67.9435 22.7042 68.1309 22.9231 68.2718 23.2273L69.1791 22.8068C68.9692 22.3539 68.6673 21.9849 68.2688 21.7193L67.7141 22.5513ZM68.7255 23.517H68.7993V22.517H68.7255V23.517ZM69.2473 23.2391C69.3845 22.9623 69.5885 22.7425 69.8716 22.5746L69.3614 21.7145C68.9181 21.9775 68.5773 22.3393 68.3514 22.7949L69.2473 23.2391ZM69.8742 22.573C70.1454 22.4098 70.4878 22.3168 70.9229 22.3168V21.3168C70.3424 21.3168 69.8138 21.4422 69.3587 21.7161L69.8742 22.573ZM70.9229 22.3168C71.4429 22.3168 71.8298 22.4751 72.1278 22.7685L72.8295 22.056C72.3212 21.5555 71.671 21.3168 70.9229 21.3168V22.3168ZM72.1292 22.7699C72.3982 23.0327 72.5834 23.4905 72.5834 24.2543H73.5834C73.5834 23.35 73.3655 22.5798 72.8281 22.0547L72.1292 22.7699ZM72.5834 24.2543V29H73.5834V24.2543H72.5834ZM73.0834 28.5H71.9939V29.5H73.0834V28.5ZM72.4939 29V24.2543H71.4939V29H72.4939ZM72.4939 24.2543C72.4939 23.6478 72.3265 23.0949 71.8733 22.7392L71.2559 23.5258C71.3752 23.6194 71.4939 23.8143 71.4939 24.2543H72.4939ZM71.8733 22.7392C71.493 22.4406 71.0455 22.2955 70.5536 22.2955V23.2955C70.8373 23.2955 71.0637 23.3749 71.2559 23.5258L71.8733 22.7392ZM70.5536 22.2955C69.9481 22.2955 69.4141 22.483 69.0247 22.9117L69.765 23.584C69.9234 23.4096 70.1619 23.2955 70.5536 23.2955V22.2955ZM69.0264 22.9098C68.6566 23.3129 68.484 23.8175 68.484 24.3835H69.484C69.484 24.0324 69.5853 23.7799 69.7633 23.5859L69.0264 22.9098ZM68.484 24.3835V29H69.484V24.3835H68.484ZM68.984 28.5H67.876V29.5H68.984V28.5ZM68.376 29V24.1435H67.376V29H68.376ZM68.376 24.1435C68.376 23.621 68.2011 23.158 67.8263 22.8053L67.141 23.5335C67.2894 23.6732 67.376 23.8596 67.376 24.1435H68.376ZM67.8286 22.8074C67.4607 22.4569 66.9939 22.2955 66.4726 22.2955V23.2955C66.7762 23.2955 66.9834 23.3833 67.1387 23.5314L67.8286 22.8074ZM66.4726 22.2955C66.0954 22.2955 65.7406 22.3973 65.4174 22.5953L65.9398 23.448C66.109 23.3444 66.2836 23.2955 66.4726 23.2955V22.2955ZM65.4151 22.5968C65.0951 22.7952 64.841 23.0686 64.652 23.4041L65.5233 23.8949C65.636 23.6949 65.7759 23.5497 65.9421 23.4466L65.4151 22.5968ZM64.6511 23.4058C64.456 23.7554 64.3661 24.1478 64.3661 24.5682H65.3661C65.3661 24.293 65.4239 24.073 65.5243 23.8932L64.6511 23.4058ZM64.3661 24.5682V29H65.3661V24.5682H64.3661ZM64.8661 28.5H63.7766V29.5H64.8661V28.5ZM75.8554 29H75.3554V29.5H75.8554V29ZM75.8554 21.9091V21.4091H75.3554V21.9091H75.8554ZM76.9449 21.9091H77.4449V21.4091H76.9449V21.9091ZM76.9449 29V29.5H77.4449V29H76.9449ZM75.8601 20.5103L75.5139 20.8712L75.5176 20.8746L75.8601 20.5103ZM75.8601 19.467L75.5176 19.1026L75.5139 19.1061L75.8601 19.467ZM76.9542 19.467L76.608 19.8278L76.6117 19.8313L76.9542 19.467ZM76.9542 20.5103L76.6117 20.146L76.608 20.1495L76.9542 20.5103ZM76.3554 29V21.9091H75.3554V29H76.3554ZM75.8554 22.4091H76.9449V21.4091H75.8554V22.4091ZM76.4449 21.9091V29H77.4449V21.9091H76.4449ZM76.9449 28.5H75.8554V29.5H76.9449V28.5ZM76.4094 20.2273C76.3235 20.2273 76.2631 20.2029 76.2025 20.146L75.5176 20.8746C75.7648 21.107 76.0706 21.2273 76.4094 21.2273V20.2273ZM76.2062 20.1495C76.1505 20.0961 76.1338 20.0512 76.1338 19.9886H75.1338C75.1338 20.3323 75.268 20.6352 75.5139 20.8711L76.2062 20.1495ZM76.1338 19.9886C76.1338 19.9261 76.1505 19.8812 76.2062 19.8278L75.5139 19.1061C75.268 19.342 75.1338 19.6449 75.1338 19.9886H76.1338ZM76.2025 19.8313C76.2631 19.7743 76.3235 19.75 76.4094 19.75V18.75C76.0706 18.75 75.7648 18.8703 75.5176 19.1027L76.2025 19.8313ZM76.4094 19.75C76.4951 19.75 76.552 19.7741 76.608 19.8278L77.3003 19.1061C77.0547 18.8706 76.7484 18.75 76.4094 18.75V19.75ZM76.6117 19.8313C76.6696 19.8857 76.685 19.9295 76.685 19.9886H77.685C77.685 19.6415 77.5465 19.3376 77.2966 19.1027L76.6117 19.8313ZM76.685 19.9886C76.685 20.0477 76.6696 20.0916 76.6117 20.146L77.2966 20.8746C77.5465 20.6397 77.685 20.3358 77.685 19.9886H76.685ZM76.608 20.1495C76.552 20.2032 76.4951 20.2273 76.4094 20.2273V21.2273C76.7484 21.2273 77.0547 21.1067 77.3003 20.8711L76.608 20.1495ZM80.9253 28.6953L80.6622 29.1205L80.6653 29.1224L80.9253 28.6953ZM79.785 27.4212L79.3348 27.6387L79.3363 27.6417L79.785 27.4212ZM79.785 23.5895L79.3344 23.3729L79.3339 23.3739L79.785 23.5895ZM80.9022 22.2876L81.1752 22.7066L81.1758 22.7061L80.9022 22.2876ZM83.6767 22.0014L83.8385 21.5283L83.8385 21.5283L83.6767 22.0014ZM84.66 22.6016L84.3181 22.9663L84.3201 22.9682L84.66 22.6016ZM85.3664 23.6911L85.8325 23.5103L85.8325 23.5103L85.3664 23.6911ZM85.6295 25.8239V26.3239H86.1295V25.8239H85.6295ZM80.1636 25.8239H79.6636V26.3239H80.1636V25.8239ZM80.1636 24.8821V24.3821H79.6636V24.8821H80.1636ZM84.5215 24.8821V25.3821H85.0215V24.8821H84.5215ZM84.2815 23.8111L83.8343 24.0347L83.836 24.0382L84.2815 23.8111ZM83.6075 23.0678L83.3417 23.4913L83.3437 23.4926L83.6075 23.0678ZM81.4562 23.1186L81.7364 23.5328L81.7372 23.5321L81.4562 23.1186ZM80.7314 23.9496L80.2834 23.7276L80.2834 23.7276L80.7314 23.9496ZM80.7545 27.038L80.3065 27.2601L80.3088 27.2646L80.7545 27.038ZM81.5347 27.8828L81.2827 28.3147L81.2857 28.3164L81.5347 27.8828ZM83.469 28.049L83.6328 28.5214L83.6364 28.5202L83.469 28.049ZM84.0737 27.6797L84.4207 28.0397L84.424 28.0365L84.0737 27.6797ZM84.4661 27.0611L84.6013 26.5797L84.1592 26.4556L83.998 26.8855L84.4661 27.0611ZM85.5187 27.3565L85.9962 27.5047L86.1485 27.014L85.6538 26.8751L85.5187 27.3565ZM84.9601 28.2983L85.3178 28.6477L85.3197 28.6457L84.9601 28.2983ZM83.9906 28.9261L84.1699 29.3929L84.1731 29.3916L83.9906 28.9261ZM82.6934 28.6477C82.0854 28.6477 81.5895 28.5142 81.1853 28.2682L80.6653 29.1224C81.2522 29.4796 81.935 29.6477 82.6934 29.6477V28.6477ZM81.1884 28.2701C80.7798 28.0173 80.4622 27.6653 80.2338 27.2006L79.3363 27.6417C79.6434 28.2665 80.086 28.764 80.6622 29.1205L81.1884 28.2701ZM80.2352 27.2036C80.0091 26.7356 79.888 26.1754 79.888 25.5099H78.888C78.888 26.2972 79.0316 27.0111 79.3348 27.6387L80.2352 27.2036ZM79.888 25.5099C79.888 24.8447 80.009 24.2805 80.2362 23.805L79.3339 23.3739C79.0317 24.0064 78.888 24.7226 78.888 25.5099H79.888ZM80.2357 23.8061C80.4673 23.3242 80.7813 22.9632 81.1752 22.7066L80.6293 21.8687C80.0691 22.2337 79.6382 22.7407 79.3344 23.3729L80.2357 23.8061ZM81.1758 22.7061C81.5654 22.4514 82.028 22.3168 82.5826 22.3168V21.3168C81.8569 21.3168 81.1993 21.496 80.6286 21.8692L81.1758 22.7061ZM82.5826 22.3168C82.8952 22.3168 83.2054 22.3687 83.515 22.4745L83.8385 21.5283C83.4279 21.3879 83.0086 21.3168 82.5826 21.3168V22.3168ZM83.515 22.4745C83.8037 22.5733 84.0709 22.7347 84.3181 22.9663L85.002 22.2368C84.6582 21.9145 84.2699 21.6758 83.8385 21.5283L83.515 22.4745ZM84.3201 22.9682C84.5497 23.1811 84.7466 23.4759 84.9002 23.8718L85.8325 23.5103C85.6352 23.0014 85.3613 22.5699 85 22.2349L84.3201 22.9682ZM84.9002 23.8718C85.0467 24.2498 85.1295 24.7413 85.1295 25.3622H86.1295C86.1295 24.6597 86.0368 24.0371 85.8325 23.5103L84.9002 23.8718ZM85.1295 25.3622V25.8239H86.1295V25.3622H85.1295ZM85.6295 25.3239H80.1636V26.3239H85.6295V25.3239ZM80.6636 25.8239V24.8821H79.6636V25.8239H80.6636ZM80.1636 25.3821H84.5215V24.3821H80.1636V25.3821ZM85.0215 24.8821C85.0215 24.4138 84.9274 23.9772 84.7269 23.584L83.836 24.0382C83.9556 24.2728 84.0215 24.5502 84.0215 24.8821H85.0215ZM84.7287 23.5875C84.5312 23.1926 84.2438 22.8745 83.8713 22.6431L83.3437 23.4926C83.5559 23.6244 83.7178 23.8018 83.8343 24.0347L84.7287 23.5875ZM83.8733 22.6443C83.4927 22.4055 83.0559 22.2955 82.5826 22.2955V23.2955C82.8972 23.2955 83.1436 23.367 83.3417 23.4913L83.8733 22.6443ZM82.5826 22.2955C82.0622 22.2955 81.5857 22.4261 81.1752 22.7051L81.7372 23.5321C81.9607 23.3803 82.2352 23.2955 82.5826 23.2955V22.2955ZM81.176 22.7045C80.79 22.9656 80.4908 23.309 80.2834 23.7276L81.1794 24.1716C81.3105 23.907 81.4945 23.6963 81.7364 23.5327L81.176 22.7045ZM80.2834 23.7276C80.0791 24.14 79.9775 24.5824 79.9775 25.0483H80.9775C80.9775 24.7324 81.0452 24.4424 81.1794 24.1716L80.2834 23.7276ZM79.9775 25.0483V25.6761H80.9775V25.0483H79.9775ZM79.9775 25.6761C79.9775 26.2672 80.0792 26.8017 80.3065 27.2601L81.2024 26.8159C81.0604 26.5295 80.9775 26.1561 80.9775 25.6761H79.9775ZM80.3088 27.2646C80.5366 27.7127 80.861 28.0687 81.2827 28.3147L81.7866 27.4509C81.5436 27.3092 81.3479 27.102 81.2002 26.8114L80.3088 27.2646ZM81.2857 28.3164C81.7045 28.5568 82.1791 28.669 82.6934 28.669V27.669C82.3275 27.669 82.0296 27.5904 81.7836 27.4492L81.2857 28.3164ZM82.6934 28.669C83.026 28.669 83.3411 28.6225 83.6328 28.5214L83.3052 27.5766C83.1352 27.6355 82.9332 27.669 82.6934 27.669V28.669ZM83.6364 28.5202C83.9335 28.4146 84.1973 28.255 84.4207 28.0397L83.7268 27.3196C83.6116 27.4306 83.4722 27.5172 83.3016 27.5779L83.6364 28.5202ZM84.424 28.0365C84.6507 27.8139 84.8192 27.5437 84.9343 27.2366L83.998 26.8855C83.9285 27.0709 83.8353 27.2131 83.7234 27.3229L84.424 28.0365ZM84.331 27.5425L85.3836 27.8379L85.6538 26.8751L84.6013 26.5797L84.331 27.5425ZM85.0412 27.2083C84.9537 27.4901 84.8082 27.7359 84.6005 27.9509L85.3197 28.6457C85.6353 28.319 85.8621 27.937 85.9962 27.5047L85.0412 27.2083ZM84.6025 27.9489C84.3953 28.1609 84.1338 28.333 83.8082 28.4606L84.1731 29.3916C84.6169 29.2177 85.0017 28.9712 85.3177 28.6477L84.6025 27.9489ZM83.8114 28.4594C83.4925 28.5818 83.1222 28.6477 82.6934 28.6477V29.6477C83.2249 29.6477 83.7194 29.5659 84.1699 29.3929L83.8114 28.4594ZM88.0668 29H87.5668V29.5H88.0668V29ZM88.0668 21.9091V21.4091H87.5668V21.9091H88.0668ZM89.1194 21.9091H89.6194V21.4091H89.1194V21.9091ZM89.1194 22.9801H88.6194V23.4801H89.1194V22.9801ZM89.1932 22.9801V23.4801H89.5419L89.6624 23.153L89.1932 22.9801ZM89.8949 22.1261L89.6238 21.706L89.6238 21.706L89.8949 22.1261ZM91.6123 21.8168H92.1123V21.3643L91.662 21.3192L91.6123 21.8168ZM91.6123 22.9247L91.491 23.4098L92.1123 23.5651V22.9247H91.6123ZM91.3584 22.8832L91.2761 23.3765L91.2893 23.3784L91.3584 22.8832ZM90.0242 23.0678L90.2579 23.5098L90.2597 23.5089L90.0242 23.0678ZM89.3871 23.6587L88.9625 23.3947L88.9617 23.3961L89.3871 23.6587ZM89.1563 29V29.5H89.6563V29H89.1563ZM88.5668 29V21.9091H87.5668V29H88.5668ZM88.0668 22.4091H89.1194V21.4091H88.0668V22.4091ZM88.6194 21.9091V22.9801H89.6194V21.9091H88.6194ZM89.1194 23.4801H89.1932V22.4801H89.1194V23.4801ZM89.6624 23.153C89.7512 22.9119 89.9111 22.7107 90.1661 22.5462L89.6238 21.706C89.2017 21.9784 88.8938 22.3466 88.7241 22.8073L89.6624 23.153ZM90.1661 22.5462C90.4193 22.3827 90.7058 22.2983 91.0398 22.2983V21.2983C90.5244 21.2983 90.0476 21.4324 89.6238 21.706L90.1661 22.5462ZM91.0398 22.2983C91.114 22.2983 91.2094 22.2997 91.3271 22.3027L91.3527 21.3031C91.2303 21.2999 91.1257 21.2983 91.0398 21.2983V22.2983ZM91.3271 22.3027C91.4439 22.3057 91.5198 22.31 91.5625 22.3143L91.662 21.3192C91.5816 21.3112 91.4759 21.3062 91.3527 21.3031L91.3271 22.3027ZM91.1123 21.8168V22.9247H92.1123V21.8168H91.1123ZM91.7335 22.4396C91.6656 22.4227 91.5523 22.4054 91.4275 22.388L91.2893 23.3784C91.3534 23.3873 91.4034 23.3948 91.4403 23.4008C91.4816 23.4076 91.4943 23.4106 91.491 23.4098L91.7335 22.4396ZM91.4406 22.39C91.2815 22.3635 91.1169 22.3509 90.9475 22.3509V23.3509C91.0674 23.3509 91.1767 23.3598 91.2762 23.3764L91.4406 22.39ZM90.9475 22.3509C90.5308 22.3509 90.1405 22.4389 89.7886 22.6268L90.2597 23.5089C90.4496 23.4075 90.6747 23.3509 90.9475 23.3509V22.3509ZM89.7905 22.6258C89.446 22.8079 89.1672 23.0656 88.9625 23.3947L89.8117 23.9228C89.921 23.7471 90.0668 23.6109 90.2579 23.5098L89.7905 22.6258ZM88.9617 23.3961C88.7546 23.7316 88.6563 24.1088 88.6563 24.5128H89.6563C89.6563 24.2766 89.7119 24.0845 89.8126 23.9214L88.9617 23.3961ZM88.6563 24.5128V29H89.6563V24.5128H88.6563ZM89.1563 28.5H88.0668V29.5H89.1563V28.5ZM94.6728 28.6953L94.4097 29.1205L94.4128 29.1224L94.6728 28.6953ZM93.5325 27.4212L93.0823 27.6387L93.0838 27.6417L93.5325 27.4212ZM93.5325 23.5895L93.0819 23.3729L93.0814 23.3739L93.5325 23.5895ZM94.6497 22.2876L94.9227 22.7066L94.9233 22.7061L94.6497 22.2876ZM97.4242 22.0014L97.586 21.5283L97.586 21.5283L97.4242 22.0014ZM98.4075 22.6016L98.0656 22.9663L98.0676 22.9682L98.4075 22.6016ZM99.1139 23.6911L99.58 23.5103L99.58 23.5103L99.1139 23.6911ZM99.377 25.8239V26.3239H99.877V25.8239H99.377ZM93.9111 25.8239H93.4111V26.3239H93.9111V25.8239ZM93.9111 24.8821V24.3821H93.4111V24.8821H93.9111ZM98.269 24.8821V25.3821H98.769V24.8821H98.269ZM98.029 23.8111L97.5818 24.0347L97.5835 24.0382L98.029 23.8111ZM97.355 23.0678L97.0892 23.4913L97.0912 23.4926L97.355 23.0678ZM95.2037 23.1186L95.4839 23.5328L95.4847 23.5321L95.2037 23.1186ZM94.4789 23.9496L94.0309 23.7276L94.0309 23.7276L94.4789 23.9496ZM94.502 27.038L94.054 27.2601L94.0563 27.2646L94.502 27.038ZM95.2822 27.8828L95.0302 28.3147L95.0332 28.3164L95.2822 27.8828ZM97.2165 28.049L97.3803 28.5214L97.3839 28.5202L97.2165 28.049ZM97.8212 27.6797L98.1682 28.0397L98.1715 28.0365L97.8212 27.6797ZM98.2136 27.0611L98.3488 26.5797L97.9067 26.4556L97.7455 26.8855L98.2136 27.0611ZM99.2662 27.3565L99.7437 27.5047L99.896 27.014L99.4013 26.8751L99.2662 27.3565ZM98.7076 28.2983L99.0652 28.6477L99.0672 28.6457L98.7076 28.2983ZM97.7381 28.9261L97.9174 29.3929L97.9206 29.3916L97.7381 28.9261ZM96.4409 28.6477C95.8329 28.6477 95.337 28.5142 94.9328 28.2682L94.4128 29.1224C94.9996 29.4796 95.6825 29.6477 96.4409 29.6477V28.6477ZM94.9359 28.2701C94.5273 28.0173 94.2097 27.6653 93.9813 27.2006L93.0838 27.6417C93.3909 28.2665 93.8335 28.764 94.4097 29.1205L94.9359 28.2701ZM93.9827 27.2036C93.7566 26.7356 93.6355 26.1754 93.6355 25.5099H92.6355C92.6355 26.2972 92.7791 27.0111 93.0823 27.6387L93.9827 27.2036ZM93.6355 25.5099C93.6355 24.8447 93.7565 24.2805 93.9837 23.805L93.0814 23.3739C92.7792 24.0064 92.6355 24.7226 92.6355 25.5099H93.6355ZM93.9832 23.8061C94.2148 23.3242 94.5288 22.9632 94.9227 22.7066L94.3767 21.8687C93.8166 22.2337 93.3857 22.7407 93.0819 23.3729L93.9832 23.8061ZM94.9233 22.7061C95.3129 22.4514 95.7755 22.3168 96.3301 22.3168V21.3168C95.6044 21.3168 94.9468 21.496 94.3761 21.8692L94.9233 22.7061ZM96.3301 22.3168C96.6427 22.3168 96.9529 22.3687 97.2625 22.4745L97.586 21.5283C97.1754 21.3879 96.7561 21.3168 96.3301 21.3168V22.3168ZM97.2625 22.4745C97.5512 22.5733 97.8184 22.7347 98.0656 22.9663L98.7495 22.2368C98.4057 21.9145 98.0174 21.6758 97.586 21.5283L97.2625 22.4745ZM98.0676 22.9682C98.2972 23.1811 98.4941 23.4759 98.6477 23.8718L99.58 23.5103C99.3827 23.0014 99.1088 22.5699 98.7475 22.2349L98.0676 22.9682ZM98.6477 23.8718C98.7942 24.2498 98.877 24.7413 98.877 25.3622H99.877C99.877 24.6597 99.7843 24.0371 99.58 23.5103L98.6477 23.8718ZM98.877 25.3622V25.8239H99.877V25.3622H98.877ZM99.377 25.3239H93.9111V26.3239H99.377V25.3239ZM94.4111 25.8239V24.8821H93.4111V25.8239H94.4111ZM93.9111 25.3821H98.269V24.3821H93.9111V25.3821ZM98.769 24.8821C98.769 24.4138 98.6749 23.9772 98.4744 23.584L97.5835 24.0382C97.7031 24.2728 97.769 24.5502 97.769 24.8821H98.769ZM98.4762 23.5875C98.2787 23.1926 97.9913 22.8745 97.6188 22.6431L97.0912 23.4926C97.3034 23.6244 97.4653 23.8018 97.5818 24.0347L98.4762 23.5875ZM97.6208 22.6443C97.2402 22.4055 96.8034 22.2955 96.3301 22.2955V23.2955C96.6447 23.2955 96.8911 23.367 97.0892 23.4913L97.6208 22.6443ZM96.3301 22.2955C95.8097 22.2955 95.3332 22.4261 94.9227 22.7051L95.4847 23.5321C95.7082 23.3803 95.9827 23.2955 96.3301 23.2955V22.2955ZM94.9235 22.7045C94.5375 22.9656 94.2383 23.309 94.0309 23.7276L94.9269 24.1716C95.058 23.907 95.242 23.6963 95.4839 23.5327L94.9235 22.7045ZM94.0309 23.7276C93.8265 24.14 93.725 24.5824 93.725 25.0483H94.725C94.725 24.7324 94.7927 24.4424 94.9269 24.1716L94.0309 23.7276ZM93.725 25.0483V25.6761H94.725V25.0483H93.725ZM93.725 25.6761C93.725 26.2672 93.8267 26.8017 94.054 27.2601L94.9499 26.8159C94.8079 26.5295 94.725 26.1561 94.725 25.6761H93.725ZM94.0563 27.2646C94.2841 27.7127 94.6085 28.0687 95.0302 28.3147L95.5341 27.4509C95.2911 27.3092 95.0954 27.102 94.9477 26.8114L94.0563 27.2646ZM95.0332 28.3164C95.452 28.5568 95.9266 28.669 96.4409 28.669V27.669C96.075 27.669 95.7771 27.5904 95.5311 27.4492L95.0332 28.3164ZM96.4409 28.669C96.7735 28.669 97.0886 28.6225 97.3803 28.5214L97.0527 27.5766C96.8827 27.6355 96.6807 27.669 96.4409 27.669V28.669ZM97.3839 28.5202C97.681 28.4146 97.9448 28.255 98.1682 28.0397L97.4743 27.3196C97.3591 27.4306 97.2197 27.5172 97.0491 27.5779L97.3839 28.5202ZM98.1715 28.0365C98.3982 27.8139 98.5667 27.5437 98.6818 27.2366L97.7455 26.8855C97.6759 27.0709 97.5828 27.2131 97.4709 27.3229L98.1715 28.0365ZM98.0785 27.5425L99.1311 27.8379L99.4013 26.8751L98.3488 26.5797L98.0785 27.5425ZM98.7887 27.2083C98.7012 27.4901 98.5556 27.7359 98.348 27.9509L99.0672 28.6457C99.3828 28.319 99.6096 27.937 99.7437 27.5047L98.7887 27.2083ZM98.35 27.9489C98.1428 28.1609 97.8813 28.333 97.5557 28.4606L97.9206 29.3916C98.3644 29.2177 98.7492 28.9712 99.0652 28.6477L98.35 27.9489ZM97.5589 28.4594C97.24 28.5818 96.8697 28.6477 96.4409 28.6477V29.6477C96.9724 29.6477 97.4669 29.5659 97.9174 29.3929L97.5589 28.4594ZM106.398 29H105.898V29.5H106.398V29ZM106.398 19.5455V19.0455H105.898V19.5455H106.398ZM111.412 19.9471L111.165 20.3817L111.168 20.3836L111.412 19.9471ZM112.464 21.0227L112.018 21.2475L112.018 21.2475L112.464 21.0227ZM112.464 24.0558L112.017 23.8321L112.016 23.8346L112.464 24.0558ZM111.421 25.1452L111.668 25.5799L111.67 25.5787L111.421 25.1452ZM107.322 25.5469H106.822V26.0469H107.322V25.5469ZM107.322 24.5312V24.0312H106.822V24.5312H107.322ZM110.798 24.2681L110.55 23.8337L110.55 23.8337L110.798 24.2681ZM111.467 23.5572L111.015 23.3447L111.014 23.3468L111.467 23.5572ZM111.467 21.5213L111.014 21.7317L111.015 21.7355L111.467 21.5213ZM110.793 20.8196L110.551 21.2569L110.554 21.2587L110.793 20.8196ZM107.543 20.5611V20.0611H107.043V20.5611H107.543ZM107.543 29V29.5H108.043V29H107.543ZM106.898 29V19.5455H105.898V29H106.898ZM106.398 20.0455H109.593V19.0455H106.398V20.0455ZM109.593 20.0455C110.279 20.0455 110.792 20.1698 111.165 20.3817L111.659 19.5124C111.09 19.1889 110.391 19.0455 109.593 19.0455V20.0455ZM111.168 20.3836C111.561 20.6033 111.838 20.8909 112.018 21.2475L112.911 20.7979C112.635 20.2497 112.21 19.8203 111.656 19.5105L111.168 20.3836ZM112.018 21.2475C112.207 21.6235 112.306 22.05 112.306 22.5369H113.306C113.306 21.9097 113.177 21.3268 112.911 20.7979L112.018 21.2475ZM112.306 22.5369C112.306 23.0238 112.207 23.4524 112.017 23.8321L112.912 24.2794C113.177 23.7481 113.306 23.1642 113.306 22.5369H112.306ZM112.016 23.8346C111.838 24.1949 111.563 24.4868 111.172 24.7118L111.67 25.5787C112.221 25.262 112.641 24.8276 112.913 24.2769L112.016 23.8346ZM111.174 24.7106C110.801 24.9229 110.29 25.0469 109.611 25.0469V26.0469C110.404 26.0469 111.1 25.9031 111.668 25.5799L111.174 24.7106ZM109.611 25.0469H107.322V26.0469H109.611V25.0469ZM107.822 25.5469V24.5312H106.822V25.5469H107.822ZM107.322 25.0312H109.574V24.0312H107.322V25.0312ZM109.574 25.0312C110.134 25.0312 110.636 24.9356 111.045 24.7025L110.55 23.8337C110.344 23.9515 110.031 24.0312 109.574 24.0312V25.0312ZM111.045 24.7025C111.436 24.4798 111.735 24.1677 111.921 23.7676L111.014 23.3468C110.922 23.5437 110.775 23.7056 110.55 23.8337L111.045 24.7025ZM111.92 23.7696C112.097 23.393 112.18 22.9789 112.18 22.5369H111.18C111.18 22.8521 111.121 23.1181 111.015 23.3447L111.92 23.7696ZM112.18 22.5369C112.18 22.0951 112.097 21.6817 111.919 21.3071L111.015 21.7355C111.121 21.958 111.18 22.2217 111.18 22.5369H112.18ZM111.921 21.3109C111.734 20.9076 111.43 20.5969 111.032 20.3805L110.554 21.2587C110.778 21.3808 110.924 21.538 111.014 21.7317L111.921 21.3109ZM111.036 20.3823C110.625 20.1545 110.119 20.0611 109.556 20.0611V21.0611C110.02 21.0611 110.34 21.14 110.551 21.2569L111.036 20.3823ZM109.556 20.0611H107.543V21.0611H109.556V20.0611ZM107.043 20.5611V29H108.043V20.5611H107.043ZM107.543 28.5H106.398V29.5H107.543V28.5ZM115.283 29H114.783V29.5H115.283V29ZM115.283 21.9091V21.4091H114.783V21.9091H115.283ZM116.335 21.9091H116.835V21.4091H116.335V21.9091ZM116.335 22.9801H115.835V23.4801H116.335V22.9801ZM116.409 22.9801V23.4801H116.758L116.878 23.153L116.409 22.9801ZM117.111 22.1261L116.839 21.706L116.839 21.706L117.111 22.1261ZM118.828 21.8168H119.328V21.3643L118.878 21.3192L118.828 21.8168ZM118.828 22.9247L118.707 23.4098L119.328 23.5651V22.9247H118.828ZM118.574 22.8832L118.492 23.3765L118.505 23.3784L118.574 22.8832ZM117.24 23.0678L117.474 23.5098L117.475 23.5089L117.24 23.0678ZM116.603 23.6587L116.178 23.3947L116.177 23.3961L116.603 23.6587ZM116.372 29V29.5H116.872V29H116.372ZM115.783 29V21.9091H114.783V29H115.783ZM115.283 22.4091H116.335V21.4091H115.283V22.4091ZM115.835 21.9091V22.9801H116.835V21.9091H115.835ZM116.335 23.4801H116.409V22.4801H116.335V23.4801ZM116.878 23.153C116.967 22.9119 117.127 22.7107 117.382 22.5462L116.839 21.706C116.417 21.9784 116.109 22.3466 115.94 22.8073L116.878 23.153ZM117.382 22.5462C117.635 22.3827 117.922 22.2983 118.256 22.2983V21.2983C117.74 21.2983 117.263 21.4324 116.839 21.706L117.382 22.5462ZM118.256 22.2983C118.33 22.2983 118.425 22.2997 118.543 22.3027L118.568 21.3031C118.446 21.2999 118.341 21.2983 118.256 21.2983V22.2983ZM118.543 22.3027C118.66 22.3057 118.736 22.31 118.778 22.3143L118.878 21.3192C118.797 21.3112 118.692 21.3062 118.568 21.3031L118.543 22.3027ZM118.328 21.8168V22.9247H119.328V21.8168H118.328ZM118.949 22.4396C118.881 22.4227 118.768 22.4054 118.643 22.388L118.505 23.3784C118.569 23.3873 118.619 23.3948 118.656 23.4008C118.697 23.4076 118.71 23.4106 118.707 23.4098L118.949 22.4396ZM118.656 22.39C118.497 22.3635 118.333 22.3509 118.163 22.3509V23.3509C118.283 23.3509 118.392 23.3598 118.492 23.3764L118.656 22.39ZM118.163 22.3509C117.747 22.3509 117.356 22.4389 117.004 22.6268L117.475 23.5089C117.665 23.4075 117.89 23.3509 118.163 23.3509V22.3509ZM117.006 22.6258C116.662 22.8079 116.383 23.0656 116.178 23.3947L117.027 23.9228C117.137 23.7471 117.283 23.6109 117.474 23.5098L117.006 22.6258ZM116.177 23.3961C115.97 23.7316 115.872 24.1088 115.872 24.5128H116.872C116.872 24.2766 116.928 24.0845 117.028 23.9214L116.177 23.3961ZM115.872 24.5128V29H116.872V24.5128H115.872ZM116.372 28.5H115.283V29.5H116.372V28.5ZM121.879 28.6907L121.611 29.1129L121.613 29.1136L121.879 28.6907ZM120.753 27.4119L120.304 27.6315L120.305 27.6335L120.753 27.4119ZM120.753 23.5572L120.304 23.3366L120.303 23.3386L120.753 23.5572ZM121.879 22.2738L121.613 21.8509L121.611 21.8516L121.879 22.2738ZM125.245 22.2738L124.977 22.696L124.978 22.6967L125.245 22.2738ZM126.371 23.5572L125.921 23.7757L125.922 23.7778L126.371 23.5572ZM126.371 27.4119L125.923 27.1903L125.922 27.1924L126.371 27.4119ZM125.245 28.6907L124.978 28.2678L124.977 28.2685L125.245 28.6907ZM124.765 27.7951L124.454 27.4035L124.454 27.4035L124.765 27.7951ZM125.462 26.8118L125.93 26.9858L125.93 26.9858L125.462 26.8118ZM125.462 24.1665L125.931 23.9937L125.931 23.9937L125.462 24.1665ZM124.765 23.174L125.078 22.7843L125.078 22.7843L124.765 23.174ZM122.364 23.174L122.051 22.7843L122.051 22.7843L122.364 23.174ZM121.667 24.1665L121.198 23.9937L121.198 23.9937L121.667 24.1665ZM121.667 26.8118L121.198 26.9858L121.198 26.9858L121.667 26.8118ZM122.364 27.7951L122.675 27.4035L122.675 27.4035L122.364 27.7951ZM123.564 28.6477C123.007 28.6477 122.54 28.5162 122.146 28.2678L121.613 29.1136C122.185 29.4746 122.841 29.6477 123.564 29.6477V28.6477ZM122.147 28.2685C121.75 28.0166 121.434 27.6624 121.201 27.1903L120.305 27.6335C120.613 28.2571 121.048 28.7554 121.611 29.1129L122.147 28.2685ZM121.202 27.1924C120.974 26.7253 120.851 26.163 120.851 25.4915H119.851C119.851 26.2849 119.996 27.0029 120.304 27.6315L121.202 27.1924ZM120.851 25.4915C120.851 24.8132 120.974 24.2459 121.203 23.7757L120.303 23.3386C119.996 23.9702 119.851 24.6925 119.851 25.4915H120.851ZM121.202 23.7778C121.435 23.3026 121.751 22.9474 122.147 22.696L121.611 21.8516C121.047 22.2095 120.612 22.71 120.304 23.3366L121.202 23.7778ZM122.146 22.6967C122.54 22.4483 123.007 22.3168 123.564 22.3168V21.3168C122.841 21.3168 122.185 21.4899 121.613 21.8509L122.146 22.6967ZM123.564 22.3168C124.122 22.3168 124.587 22.4483 124.977 22.696L125.513 21.8516C124.943 21.4899 124.287 21.3168 123.564 21.3168V22.3168ZM124.978 22.6967C125.377 22.9481 125.691 23.3024 125.921 23.7757L126.821 23.3386C126.515 22.7102 126.079 22.2089 125.511 21.8509L124.978 22.6967ZM125.922 23.7778C126.153 24.2475 126.277 24.814 126.277 25.4915H127.277C127.277 24.6917 127.131 23.9687 126.82 23.3366L125.922 23.7778ZM126.277 25.4915C126.277 26.1622 126.154 26.7238 125.923 27.1903L126.819 27.6335C127.13 27.0044 127.277 26.2857 127.277 25.4915H126.277ZM125.922 27.1924C125.692 27.6626 125.377 28.016 124.978 28.2678L125.511 29.1136C126.078 28.756 126.515 28.2569 126.82 27.6315L125.922 27.1924ZM124.977 28.2685C124.587 28.5162 124.122 28.6477 123.564 28.6477V29.6477C124.287 29.6477 124.943 29.4746 125.513 29.1129L124.977 28.2685ZM123.564 28.669C124.139 28.669 124.656 28.5202 125.076 28.1867L124.454 27.4035C124.246 27.5686 123.962 27.669 123.564 27.669V28.669ZM125.076 28.1867C125.467 27.876 125.751 27.4704 125.93 26.9858L124.993 26.6378C124.871 26.9657 124.69 27.2156 124.454 27.4035L125.076 28.1867ZM125.93 26.9858C126.104 26.5189 126.188 26.0193 126.188 25.4915H125.188C125.188 25.9116 125.121 26.2922 124.993 26.6378L125.93 26.9858ZM126.188 25.4915C126.188 24.9636 126.104 24.463 125.931 23.9937L124.992 24.3394C125.121 24.6888 125.188 25.0714 125.188 25.4915H126.188ZM125.931 23.9937C125.751 23.5066 125.468 23.0982 125.078 22.7843L124.451 23.5637C124.689 23.7546 124.87 24.0078 124.992 24.3394L125.931 23.9937ZM125.078 22.7843C124.658 22.4466 124.14 22.2955 123.564 22.2955V23.2955C123.961 23.2955 124.244 23.3967 124.451 23.5637L125.078 22.7843ZM123.564 22.2955C122.989 22.2955 122.471 22.4466 122.051 22.7843L122.677 23.5637C122.885 23.3967 123.168 23.2955 123.564 23.2955V22.2955ZM122.051 22.7843C121.66 23.0982 121.377 23.5066 121.198 23.9937L122.136 24.3394C122.258 24.0078 122.44 23.7546 122.677 23.5637L122.051 22.7843ZM121.198 23.9937C121.025 24.463 120.941 24.9636 120.941 25.4915H121.941C121.941 25.0714 122.007 24.6888 122.136 24.3394L121.198 23.9937ZM120.941 25.4915C120.941 26.0193 121.025 26.5189 121.198 26.9858L122.136 26.6378C122.007 26.2922 121.941 25.9116 121.941 25.4915H120.941ZM121.198 26.9858C121.378 27.4704 121.662 27.876 122.053 28.1867L122.675 27.4035C122.438 27.2156 122.257 26.9657 122.136 26.6378L121.198 26.9858ZM122.053 28.1867C122.473 28.5202 122.99 28.669 123.564 28.669V27.669C123.166 27.669 122.883 27.5686 122.675 27.4035L122.053 28.1867Z" fill="white"/>
<path d="M21.25 9.5H19C10.9919 9.5 4.5 15.9919 4.5 24C4.5 32.0081 10.9919 38.5 19 38.5H21.25C29.2581 38.5 35.75 32.0081 35.75 24C35.75 15.9919 29.2581 9.5 21.25 9.5Z" fill="white"/>
<g clip-path="url(#clip1_1_485)">
<path d="M15.0104 16H25.9896C26.385 15.9996 26.7766 16.0746 27.142 16.2205C27.5074 16.3664 27.8395 16.5804 28.1191 16.8503C28.3987 17.1203 28.6204 17.4408 28.7716 17.7935C28.9227 18.1462 29.0003 18.5243 29 18.906V29.094C29.0003 29.4757 28.9227 29.8538 28.7716 30.2065C28.6204 30.5593 28.3987 30.8797 28.1191 31.1497C27.8395 31.4196 27.5074 31.6336 27.142 31.7795C26.7766 31.9254 26.385 32.0004 25.9896 32H15.0104C14.6149 32.0004 14.2233 31.9254 13.8579 31.7795C13.4925 31.6336 13.1605 31.4196 12.8809 31.1497C12.6013 30.8797 12.3795 30.5593 12.2284 30.2065C12.0772 29.8538 11.9996 29.4757 12 29.094V18.906C11.9996 18.5243 12.0772 18.1462 12.2284 17.7935C12.3795 17.4408 12.6013 17.1203 12.8809 16.8503C13.1605 16.5804 13.4925 16.3664 13.8579 16.2205C14.2233 16.0746 14.6149 15.9996 15.0104 16V16Z" fill="#330000"/>
<path d="M20.2379 25.6H17.6029L17.0646 27.2069C17.0586 27.2362 17.0414 27.2622 17.0165 27.2799C16.9916 27.2976 16.9608 27.3057 16.93 27.3026H15.5983C15.5204 27.3026 15.4992 27.2616 15.5204 27.1795L17.8013 20.8411C17.8225 20.7727 17.8438 20.6975 17.8721 20.6154C17.9006 20.4689 17.9148 20.3201 17.9146 20.171C17.9125 20.1539 17.9171 20.1366 17.9276 20.1226C17.9381 20.1087 17.9537 20.0991 17.9713 20.0958H19.8058C19.8625 20.0958 19.8908 20.1163 19.8979 20.1505L22.4833 27.1932C22.5046 27.2684 22.4833 27.3026 22.4125 27.3026H20.9321C20.9071 27.3049 20.882 27.2987 20.8612 27.2849C20.8405 27.2712 20.8255 27.2508 20.8188 27.2274L20.2379 25.6ZM18.0138 24.212H19.8129C19.7704 24.0684 19.7138 23.8975 19.65 23.7197C19.5863 23.5419 19.5225 23.3368 19.4588 23.1317C19.395 22.9265 19.3242 22.7146 19.2533 22.5026C19.1825 22.2906 19.1188 22.0923 19.0621 21.8941C19.0054 21.6958 18.9558 21.5248 18.9063 21.3607H18.8921C18.8284 21.6587 18.748 21.9532 18.6513 22.2428C18.545 22.571 18.4388 22.9129 18.3254 23.2547C18.2263 23.6035 18.12 23.9248 18.0138 24.212V24.212Z" fill="#FF9A00"/>
<path d="M24.0275 21.265C23.9112 21.2674 23.7956 21.2475 23.6874 21.2064C23.5792 21.1654 23.4805 21.1039 23.3971 21.0257C23.2348 20.8544 23.1484 20.6286 23.1563 20.3966C23.1521 20.2836 23.1726 20.1709 23.2166 20.0661C23.2605 19.9612 23.3268 19.8665 23.4113 19.788C23.5815 19.6327 23.8074 19.547 24.0417 19.5487C24.3179 19.5487 24.5304 19.6308 24.6863 19.788C24.8432 19.9538 24.927 20.1721 24.92 20.3966C24.9243 20.5121 24.9046 20.6273 24.862 20.7354C24.8195 20.8434 24.7549 20.9421 24.6721 21.0257C24.5886 21.1077 24.4879 21.1716 24.3767 21.2128C24.2655 21.2541 24.1464 21.2719 24.0275 21.265V21.265ZM23.2342 27.2V21.9351C23.2342 21.8667 23.2625 21.8393 23.3263 21.8393H24.7288C24.7925 21.8393 24.8208 21.8735 24.8208 21.9351V27.2C24.8208 27.2752 24.7925 27.3094 24.7288 27.3094H23.3404C23.3255 27.3106 23.3106 27.3085 23.2966 27.3033C23.2827 27.2982 23.2701 27.29 23.2599 27.2795C23.2497 27.269 23.2421 27.2564 23.2376 27.2426C23.2332 27.2288 23.232 27.2143 23.2342 27.2V27.2Z" fill="#FF9A00"/>
</g>
<g clip-path="url(#clip2_1_485)">
<path d="M15.0104 16H25.9896C26.385 15.9996 26.7766 16.0746 27.142 16.2205C27.5074 16.3664 27.8395 16.5804 28.1191 16.8503C28.3987 17.1203 28.6204 17.4408 28.7716 17.7935C28.9227 18.1462 29.0003 18.5243 29 18.906V29.094C29.0003 29.4757 28.9227 29.8538 28.7716 30.2065C28.6204 30.5593 28.3987 30.8797 28.1191 31.1497C27.8395 31.4196 27.5074 31.6336 27.142 31.7795C26.7766 31.9254 26.385 32.0004 25.9896 32H15.0104C14.6149 32.0004 14.2233 31.9254 13.8579 31.7795C13.4925 31.6336 13.1605 31.4196 12.8809 31.1497C12.6013 30.8797 12.3795 30.5593 12.2284 30.2065C12.0772 29.8538 11.9996 29.4757 12 29.094V18.906C11.9996 18.5243 12.0772 18.1462 12.2284 17.7935C12.3795 17.4408 12.6013 17.1203 12.8809 16.8503C13.1605 16.5804 13.4925 16.3664 13.8579 16.2205C14.2233 16.0746 14.6149 15.9996 15.0104 16V16Z" fill="#00005B"/>
<path d="M16.0375 27.2205V20.1846C16.0375 20.1367 16.0588 20.1094 16.1083 20.1094C16.2288 20.1094 16.3421 20.1094 16.505 20.1025C16.6679 20.0957 16.8521 20.0957 17.0433 20.0889C17.2346 20.082 17.44 20.082 17.6596 20.0752C17.8792 20.0684 18.0917 20.0684 18.3042 20.0684C18.885 20.0684 19.3667 20.1367 19.7633 20.2803C20.1189 20.3969 20.4432 20.5884 20.7125 20.841C20.9408 21.0621 21.1171 21.3279 21.2296 21.6205C21.3368 21.9054 21.3919 22.2062 21.3925 22.5094C21.3925 23.0974 21.2508 23.5829 20.9675 23.9658C20.6829 24.3482 20.2854 24.6389 19.8271 24.8C19.3454 24.9709 18.8142 25.0325 18.2333 25.0325C18.0633 25.0325 17.95 25.0325 17.8792 25.0256C17.8083 25.0188 17.7092 25.0188 17.5746 25.0188V27.2137C17.5762 27.2249 17.5754 27.2364 17.5723 27.2473C17.5692 27.2583 17.5639 27.2685 17.5566 27.2774C17.5494 27.2864 17.5403 27.2938 17.53 27.2993C17.5197 27.3048 17.5084 27.3082 17.4967 27.3094H16.1225C16.0658 27.3094 16.0375 27.282 16.0375 27.2205ZM17.5817 21.429V23.7265C17.6808 23.7333 17.7729 23.7402 17.8579 23.7402H18.2333C18.5099 23.7405 18.7847 23.6989 19.0479 23.6171C19.2737 23.553 19.4755 23.4271 19.6288 23.2547C19.7775 23.0837 19.8483 22.8513 19.8483 22.5504C19.855 22.3367 19.7985 22.1257 19.6854 21.9419C19.5673 21.7643 19.3936 21.6278 19.1896 21.5521C18.9237 21.4516 18.6391 21.405 18.3538 21.4154C18.1696 21.4154 18.0067 21.4154 17.8721 21.4222C17.7753 21.4161 17.6781 21.4184 17.5817 21.429V21.429Z" fill="#9999FF"/>
<path d="M22.3842 21.8256H23.6237C23.6573 21.8264 23.6898 21.8374 23.7165 21.8571C23.7432 21.8767 23.7628 21.904 23.7725 21.935C23.7941 21.99 23.8084 22.0475 23.815 22.106C23.8292 22.1743 23.8433 22.2496 23.8504 22.3179C23.8575 22.3863 23.8646 22.4752 23.8646 22.5641C24.0773 22.3244 24.3343 22.125 24.6225 21.9761C24.9517 21.7995 25.3225 21.7077 25.6992 21.7094C25.7108 21.7079 25.7227 21.7086 25.734 21.7116C25.7454 21.7146 25.756 21.7197 25.7652 21.7267C25.7745 21.7338 25.7822 21.7425 25.7879 21.7524C25.7935 21.7624 25.7971 21.7733 25.7983 21.7846V23.1453C25.7983 23.2 25.7629 23.2205 25.685 23.2205C25.428 23.2124 25.171 23.2353 24.92 23.2889C24.7154 23.3297 24.5159 23.3915 24.325 23.4735C24.1879 23.5331 24.065 23.6192 23.9637 23.7265V27.2137C23.9637 27.282 23.9354 27.3094 23.8717 27.3094H22.4762C22.4632 27.3115 22.4498 27.3111 22.4369 27.308C22.424 27.305 22.4119 27.2995 22.4013 27.2918C22.3907 27.2842 22.3819 27.2745 22.3753 27.2634C22.3686 27.2523 22.3644 27.24 22.3629 27.2273V23.412C22.3629 23.2478 22.3629 23.0769 22.3558 22.8991C22.3487 22.7214 22.3487 22.5436 22.3417 22.3658C22.3417 22.2085 22.3275 22.0581 22.3133 21.9008C22.3114 21.8928 22.3112 21.8844 22.3127 21.8762C22.3142 21.8681 22.3173 21.8603 22.3219 21.8533C22.3265 21.8463 22.3325 21.8403 22.3396 21.8355C22.3466 21.8308 22.3545 21.8274 22.3629 21.8256C22.3629 21.8188 22.3771 21.8188 22.3842 21.8256V21.8256Z" fill="#9999FF"/>
</g>
</g>
<defs>
<clipPath id="clip0_1_485">
<rect width="155" height="48" fill="white"/>
</clipPath>
<clipPath id="clip1_1_485">
<rect width="17" height="16" fill="white" transform="translate(12 16)"/>
</clipPath>
<clipPath id="clip2_1_485">
<rect width="17" height="16" fill="white" transform="translate(12 16)"/>
</clipPath>
</defs>
</svg>
