<svg width="135" height="48" viewBox="0 0 135 48" fill="none" xmlns="http://www.w3.org/2000/svg">
<g clip-path="url(#clip0_1_421)">
<path d="M135 0H0V48H135V0Z" fill="#00325B"/>
<path d="M41.1449 29V19.5455H44.3395C45.0812 19.5455 45.6875 19.6793 46.1584 19.9471C46.6323 20.2118 46.9832 20.5703 47.2109 21.0227C47.4387 21.4751 47.5526 21.9799 47.5526 22.5369C47.5526 23.094 47.4387 23.6003 47.2109 24.0558C46.9863 24.5112 46.6385 24.8744 46.1676 25.1452C45.6967 25.413 45.0935 25.5469 44.358 25.5469H42.0682V24.5312H44.321C44.8288 24.5312 45.2366 24.4435 45.5444 24.2681C45.8522 24.0927 46.0753 23.8557 46.2138 23.5572C46.3554 23.2556 46.4261 22.9155 46.4261 22.5369C46.4261 22.1584 46.3554 21.8198 46.2138 21.5213C46.0753 21.2228 45.8506 20.9889 45.5398 20.8196C45.2289 20.6473 44.8165 20.5611 44.3026 20.5611H42.2898V29H41.1449ZM51.1186 24.7344V29H50.0291V19.5455H51.1186V23.017H51.2109C51.3771 22.6508 51.6264 22.36 51.9588 22.1445C52.2943 21.926 52.7405 21.8168 53.2976 21.8168C53.7808 21.8168 54.2039 21.9137 54.5671 22.1076C54.9303 22.2984 55.2119 22.5923 55.4119 22.9893C55.615 23.3833 55.7166 23.8849 55.7166 24.4943V29H54.6271V24.5682C54.6271 24.005 54.4809 23.5695 54.1886 23.2617C53.8993 22.9509 53.4976 22.7955 52.9837 22.7955C52.6266 22.7955 52.3066 22.8709 52.0234 23.0217C51.7434 23.1725 51.5218 23.3925 51.3587 23.6818C51.1986 23.9711 51.1186 24.322 51.1186 24.7344ZM61.3705 29.1477C60.7303 29.1477 60.1686 28.9954 59.6854 28.6907C59.2053 28.386 58.8299 27.9598 58.559 27.4119C58.2913 26.8641 58.1574 26.224 58.1574 25.4915C58.1574 24.7528 58.2913 24.1081 58.559 23.5572C58.8299 23.0063 59.2053 22.5785 59.6854 22.2738C60.1686 21.9691 60.7303 21.8168 61.3705 21.8168C62.0106 21.8168 62.5707 21.9691 63.0509 22.2738C63.534 22.5785 63.9095 23.0063 64.1773 23.5572C64.4481 24.1081 64.5835 24.7528 64.5835 25.4915C64.5835 26.224 64.4481 26.8641 64.1773 27.4119C63.9095 27.9598 63.534 28.386 63.0509 28.6907C62.5707 28.9954 62.0106 29.1477 61.3705 29.1477ZM61.3705 28.169C61.8567 28.169 62.2568 28.0444 62.5707 27.7951C62.8847 27.5458 63.117 27.218 63.2678 26.8118C63.4186 26.4055 63.494 25.9654 63.494 25.4915C63.494 25.0175 63.4186 24.5759 63.2678 24.1665C63.117 23.7572 62.8847 23.4264 62.5707 23.174C62.2568 22.9216 61.8567 22.7955 61.3705 22.7955C60.8842 22.7955 60.4841 22.9216 60.1702 23.174C59.8563 23.4264 59.6239 23.7572 59.4731 24.1665C59.3223 24.5759 59.2469 25.0175 59.2469 25.4915C59.2469 25.9654 59.3223 26.4055 59.4731 26.8118C59.6239 27.218 59.8563 27.5458 60.1702 27.7951C60.4841 28.0444 60.8842 28.169 61.3705 28.169ZM70.1104 21.9091V22.8324H66.4357V21.9091H70.1104ZM67.5067 20.2102H68.5962V26.9688C68.5962 27.2765 68.6408 27.5073 68.7301 27.6612C68.8224 27.812 68.9394 27.9136 69.0809 27.9659C69.2256 28.0152 69.3779 28.0398 69.538 28.0398C69.658 28.0398 69.7565 28.0336 69.8334 28.0213C69.9104 28.0059 69.9719 27.9936 70.0181 27.9844L70.2397 28.9631C70.1658 28.9908 70.0627 29.0185 69.9304 29.0462C69.798 29.0769 69.6303 29.0923 69.4272 29.0923C69.1194 29.0923 68.8178 29.0262 68.5224 28.8938C68.23 28.7615 67.9868 28.5599 67.7929 28.2891C67.6021 28.0182 67.5067 27.6766 67.5067 27.2642V20.2102ZM75.3338 29.1477C74.6936 29.1477 74.132 28.9954 73.6488 28.6907C73.1686 28.386 72.7932 27.9598 72.5223 27.4119C72.2546 26.8641 72.1207 26.224 72.1207 25.4915C72.1207 24.7528 72.2546 24.1081 72.5223 23.5572C72.7932 23.0063 73.1686 22.5785 73.6488 22.2738C74.132 21.9691 74.6936 21.8168 75.3338 21.8168C75.9739 21.8168 76.5341 21.9691 77.0142 22.2738C77.4974 22.5785 77.8728 23.0063 78.1406 23.5572C78.4114 24.1081 78.5468 24.7528 78.5468 25.4915C78.5468 26.224 78.4114 26.8641 78.1406 27.4119C77.8728 27.9598 77.4974 28.386 77.0142 28.6907C76.5341 28.9954 75.9739 29.1477 75.3338 29.1477ZM75.3338 28.169C75.82 28.169 76.2201 28.0444 76.5341 27.7951C76.848 27.5458 77.0803 27.218 77.2311 26.8118C77.382 26.4055 77.4574 25.9654 77.4574 25.4915C77.4574 25.0175 77.382 24.5759 77.2311 24.1665C77.0803 23.7572 76.848 23.4264 76.5341 23.174C76.2201 22.9216 75.82 22.7955 75.3338 22.7955C74.8475 22.7955 74.4474 22.9216 74.1335 23.174C73.8196 23.4264 73.5872 23.7572 73.4364 24.1665C73.2856 24.5759 73.2102 25.0175 73.2102 25.4915C73.2102 25.9654 73.2856 26.4055 73.4364 26.8118C73.5872 27.218 73.8196 27.5458 74.1335 27.7951C74.4474 28.0444 74.8475 28.169 75.3338 28.169ZM86.0127 23.4972L85.034 23.7741C84.9724 23.611 84.8816 23.4525 84.7616 23.2987C84.6446 23.1417 84.4846 23.0124 84.2815 22.9109C84.0784 22.8093 83.8183 22.7585 83.5013 22.7585C83.0673 22.7585 82.7057 22.8585 82.4164 23.0586C82.1302 23.2556 81.9871 23.5064 81.9871 23.8111C81.9871 24.0819 82.0856 24.2958 82.2825 24.4528C82.4795 24.6097 82.7873 24.7405 83.2058 24.8452L84.2584 25.1037C84.8924 25.2576 85.3648 25.493 85.6757 25.81C85.9865 26.1239 86.1419 26.5286 86.1419 27.0241C86.1419 27.4304 86.025 27.7936 85.7911 28.1136C85.5602 28.4337 85.2371 28.6861 84.8216 28.8707C84.4061 29.0554 83.9229 29.1477 83.372 29.1477C82.6488 29.1477 82.0502 28.9908 81.5762 28.6768C81.1023 28.3629 80.8022 27.9044 80.676 27.3011L81.7101 27.0426C81.8086 27.4242 81.9948 27.7105 82.2687 27.9013C82.5457 28.0921 82.9073 28.1875 83.3536 28.1875C83.8614 28.1875 84.2646 28.0798 84.5631 27.8643C84.8647 27.6458 85.0155 27.3842 85.0155 27.0795C85.0155 26.8333 84.9293 26.6271 84.757 26.4609C84.5846 26.2917 84.32 26.1655 83.9629 26.0824L82.7811 25.8054C82.1317 25.6515 81.6547 25.413 81.35 25.0898C81.0484 24.7636 80.8976 24.3558 80.8976 23.8665C80.8976 23.4664 81.0099 23.1125 81.2346 22.8047C81.4624 22.4969 81.7717 22.2553 82.1625 22.0799C82.5565 21.9045 83.0027 21.8168 83.5013 21.8168C84.203 21.8168 84.7539 21.9706 85.154 22.2784C85.5572 22.5862 85.8434 22.9924 86.0127 23.4972ZM89.6514 24.7344V29H88.5619V19.5455H89.6514V23.017H89.7437C89.9099 22.6508 90.1592 22.36 90.4916 22.1445C90.8271 21.926 91.2733 21.8168 91.8304 21.8168C92.3136 21.8168 92.7368 21.9137 93.0999 22.1076C93.4631 22.2984 93.7447 22.5923 93.9447 22.9893C94.1479 23.3833 94.2494 23.8849 94.2494 24.4943V29H93.1599V24.5682C93.1599 24.005 93.0137 23.5695 92.7214 23.2617C92.4321 22.9509 92.0304 22.7955 91.5165 22.7955C91.1595 22.7955 90.8394 22.8709 90.5562 23.0217C90.2762 23.1725 90.0546 23.3925 89.8915 23.6818C89.7314 23.9711 89.6514 24.322 89.6514 24.7344ZM99.9033 29.1477C99.2631 29.1477 98.7014 28.9954 98.2183 28.6907C97.7381 28.386 97.3627 27.9598 97.0918 27.4119C96.8241 26.8641 96.6902 26.224 96.6902 25.4915C96.6902 24.7528 96.8241 24.1081 97.0918 23.5572C97.3627 23.0063 97.7381 22.5785 98.2183 22.2738C98.7014 21.9691 99.2631 21.8168 99.9033 21.8168C100.543 21.8168 101.104 21.9691 101.584 22.2738C102.067 22.5785 102.442 23.0063 102.71 23.5572C102.981 24.1081 103.116 24.7528 103.116 25.4915C103.116 26.224 102.981 26.8641 102.71 27.4119C102.442 27.9598 102.067 28.386 101.584 28.6907C101.104 28.9954 100.543 29.1477 99.9033 29.1477ZM99.9033 28.169C100.39 28.169 100.79 28.0444 101.104 27.7951C101.417 27.5458 101.65 27.218 101.801 26.8118C101.951 26.4055 102.027 25.9654 102.027 25.4915C102.027 25.0175 101.951 24.5759 101.801 24.1665C101.65 23.7572 101.417 23.4264 101.104 23.174C100.79 22.9216 100.39 22.7955 99.9033 22.7955C99.417 22.7955 99.0169 22.9216 98.703 23.174C98.3891 23.4264 98.1567 23.7572 98.0059 24.1665C97.8551 24.5759 97.7797 25.0175 97.7797 25.4915C97.7797 25.9654 97.8551 26.4055 98.0059 26.8118C98.1567 27.218 98.3891 27.5458 98.703 27.7951C99.0169 28.0444 99.417 28.169 99.9033 28.169ZM105.559 31.6591V21.9091H106.612V23.0355H106.741C106.821 22.9124 106.932 22.7554 107.074 22.5646C107.218 22.3707 107.424 22.1984 107.692 22.0476C107.963 21.8937 108.329 21.8168 108.791 21.8168C109.388 21.8168 109.914 21.966 110.37 22.2646C110.825 22.5631 111.181 22.9863 111.436 23.5341C111.692 24.0819 111.819 24.7282 111.819 25.473C111.819 26.224 111.692 26.8749 111.436 27.4258C111.181 27.9736 110.827 28.3983 110.374 28.6999C109.922 28.9985 109.4 29.1477 108.809 29.1477C108.354 29.1477 107.989 29.0723 107.715 28.9215C107.441 28.7676 107.231 28.5937 107.083 28.3999C106.935 28.2029 106.821 28.0398 106.741 27.9105H106.649V31.6591H105.559ZM106.63 25.4545C106.63 25.9901 106.709 26.4625 106.866 26.8718C107.023 27.2781 107.252 27.5966 107.554 27.8274C107.855 28.0552 108.225 28.169 108.662 28.169C109.117 28.169 109.497 28.049 109.802 27.8089C110.11 27.5658 110.341 27.2396 110.494 26.8303C110.651 26.4179 110.73 25.9593 110.73 25.4545C110.73 24.956 110.653 24.5066 110.499 24.1065C110.348 23.7034 110.119 23.3848 109.811 23.1509C109.507 22.9139 109.123 22.7955 108.662 22.7955C108.219 22.7955 107.846 22.9078 107.545 23.1325C107.243 23.354 107.015 23.6649 106.861 24.065C106.707 24.462 106.63 24.9252 106.63 25.4545Z" fill="white"/>
<path d="M41.1449 29H40.6449V29.5H41.1449V29ZM41.1449 19.5455V19.0455H40.6449V19.5455H41.1449ZM46.1584 19.9471L45.9112 20.3817L45.9146 20.3836L46.1584 19.9471ZM47.2109 21.0227L46.7643 21.2475L46.7643 21.2475L47.2109 21.0227ZM47.2109 24.0558L46.7637 23.8321L46.7625 23.8346L47.2109 24.0558ZM46.1676 25.1452L46.4148 25.5799L46.4169 25.5787L46.1676 25.1452ZM42.0682 25.5469H41.5682V26.0469H42.0682V25.5469ZM42.0682 24.5312V24.0312H41.5682V24.5312H42.0682ZM45.5444 24.2681L45.2968 23.8337L45.2968 23.8337L45.5444 24.2681ZM46.2138 23.5572L45.7612 23.3447L45.7602 23.3468L46.2138 23.5572ZM46.2138 21.5213L45.7602 21.7317L45.762 21.7355L46.2138 21.5213ZM45.5398 20.8196L45.2973 21.2569L45.3007 21.2587L45.5398 20.8196ZM42.2898 20.5611V20.0611H41.7898V20.5611H42.2898ZM42.2898 29V29.5H42.7898V29H42.2898ZM41.6449 29V19.5455H40.6449V29H41.6449ZM41.1449 20.0455H44.3395V19.0455H41.1449V20.0455ZM44.3395 20.0455C45.0252 20.0455 45.5384 20.1698 45.9112 20.3817L46.4055 19.5124C45.8366 19.1889 45.1372 19.0455 44.3395 19.0455V20.0455ZM45.9146 20.3836C46.3079 20.6033 46.5848 20.8909 46.7643 21.2475L47.6575 20.7979C47.3816 20.2497 46.9568 19.8203 46.4022 19.5105L45.9146 20.3836ZM46.7643 21.2475C46.9536 21.6235 47.0526 22.05 47.0526 22.5369H48.0526C48.0526 21.9097 47.9238 21.3268 47.6575 20.7979L46.7643 21.2475ZM47.0526 22.5369C47.0526 23.0238 46.9536 23.4524 46.7637 23.8321L47.6582 24.2794C47.9238 23.7481 48.0526 23.1642 48.0526 22.5369H47.0526ZM46.7625 23.8346C46.5848 24.1949 46.3095 24.4868 45.9183 24.7118L46.4169 25.5787C46.9675 25.262 47.3877 24.8276 47.6594 24.2769L46.7625 23.8346ZM45.9205 24.7106C45.5471 24.9229 45.0366 25.0469 44.358 25.0469V26.0469C45.1504 26.0469 45.8463 25.9031 46.4148 25.5799L45.9205 24.7106ZM44.358 25.0469H42.0682V26.0469H44.358V25.0469ZM42.5682 25.5469V24.5312H41.5682V25.5469H42.5682ZM42.0682 25.0312H44.321V24.0312H42.0682V25.0312ZM44.321 25.0312C44.8803 25.0312 45.3831 24.9356 45.792 24.7025L45.2968 23.8337C45.0902 23.9515 44.7774 24.0312 44.321 24.0312V25.0312ZM45.792 24.7025C46.1827 24.4798 46.4817 24.1677 46.6673 23.7676L45.7602 23.3468C45.6688 23.5437 45.5216 23.7056 45.2968 23.8337L45.792 24.7025ZM46.6664 23.7696C46.8432 23.393 46.9261 22.9789 46.9261 22.5369H45.9261C45.9261 22.8521 45.8675 23.1181 45.7612 23.3447L46.6664 23.7696ZM46.9261 22.5369C46.9261 22.0951 46.8432 21.6817 46.6656 21.3071L45.762 21.7355C45.8675 21.958 45.9261 22.2217 45.9261 22.5369H46.9261ZM46.6673 21.3109C46.4803 20.9076 46.1763 20.5969 45.7789 20.3805L45.3007 21.2587C45.5249 21.3808 45.6703 21.538 45.7602 21.7317L46.6673 21.3109ZM45.7822 20.3823C45.3714 20.1545 44.866 20.0611 44.3026 20.0611V21.0611C44.7671 21.0611 45.0865 21.14 45.2973 21.2569L45.7822 20.3823ZM44.3026 20.0611H42.2898V21.0611H44.3026V20.0611ZM41.7898 20.5611V29H42.7898V20.5611H41.7898ZM42.2898 28.5H41.1449V29.5H42.2898V28.5ZM51.1186 29V29.5H51.6186V29H51.1186ZM50.0291 29H49.5291V29.5H50.0291V29ZM50.0291 19.5455V19.0455H49.5291V19.5455H50.0291ZM51.1186 19.5455H51.6186V19.0455H51.1186V19.5455ZM51.1186 23.017H50.6186V23.517H51.1186V23.017ZM51.2109 23.017V23.517H51.5331L51.6662 23.2237L51.2109 23.017ZM51.9588 22.1445L52.2307 22.5641L52.2317 22.5635L51.9588 22.1445ZM54.5671 22.1076L54.3316 22.5487L54.3345 22.5502L54.5671 22.1076ZM55.4119 22.9893L54.9654 23.2143L54.9675 23.2185L55.4119 22.9893ZM55.7166 29V29.5H56.2166V29H55.7166ZM54.6271 29H54.1271V29.5H54.6271V29ZM54.1886 23.2617L53.8225 23.6024L53.8261 23.6061L54.1886 23.2617ZM52.0234 23.0217L51.7884 22.5803L51.7864 22.5814L52.0234 23.0217ZM51.3587 23.6818L50.9231 23.4362L50.9211 23.4398L51.3587 23.6818ZM50.6186 24.7344V29H51.6186V24.7344H50.6186ZM51.1186 28.5H50.0291V29.5H51.1186V28.5ZM50.5291 29V19.5455H49.5291V29H50.5291ZM50.0291 20.0455H51.1186V19.0455H50.0291V20.0455ZM50.6186 19.5455V23.017H51.6186V19.5455H50.6186ZM51.1186 23.517H51.2109V22.517H51.1186V23.517ZM51.6662 23.2237C51.7936 22.9431 51.9799 22.7267 52.2307 22.5641L51.6869 21.725C51.2729 21.9932 50.9607 22.3586 50.7556 22.8104L51.6662 23.2237ZM52.2317 22.5635C52.46 22.4148 52.8009 22.3168 53.2976 22.3168V21.3168C52.6801 21.3168 52.1285 21.4373 51.6859 21.7256L52.2317 22.5635ZM53.2976 22.3168C53.7129 22.3168 54.0526 22.3997 54.3316 22.5487L54.8026 21.6665C54.3553 21.4277 53.8486 21.3168 53.2976 21.3168V22.3168ZM54.3345 22.5502C54.5976 22.6885 54.8081 22.9022 54.9654 23.2143L55.8584 22.7644C55.6156 22.2825 55.2629 21.9084 54.7997 21.665L54.3345 22.5502ZM54.9675 23.2185C55.123 23.5201 55.2166 23.9363 55.2166 24.4943H56.2166C56.2166 23.8335 56.1071 23.2465 55.8563 22.7602L54.9675 23.2185ZM55.2166 24.4943V29H56.2166V24.4943H55.2166ZM55.7166 28.5H54.6271V29.5H55.7166V28.5ZM55.1271 29V24.5682H54.1271V29H55.1271ZM55.1271 24.5682C55.1271 23.9198 54.9575 23.3451 54.5511 22.9173L53.8261 23.6061C54.0044 23.7938 54.1271 24.0901 54.1271 24.5682H55.1271ZM54.5546 22.9211C54.1511 22.4876 53.6049 22.2955 52.9837 22.2955V23.2955C53.3903 23.2955 53.6474 23.4141 53.8225 23.6024L54.5546 22.9211ZM52.9837 22.2955C52.5541 22.2955 52.1518 22.3868 51.7884 22.5804L52.2585 23.463C52.4614 23.3549 52.6992 23.2955 52.9837 23.2955V22.2955ZM51.7864 22.5814C51.4193 22.7791 51.1305 23.0684 50.9231 23.4362L51.7942 23.9274C51.913 23.7166 52.0674 23.5659 52.2605 23.4619L51.7864 22.5814ZM50.9211 23.4398C50.7112 23.8193 50.6186 24.2579 50.6186 24.7344H51.6186C51.6186 24.386 51.6861 24.1229 51.7962 23.9238L50.9211 23.4398ZM59.6854 28.6907L59.4175 29.1129L59.4188 29.1136L59.6854 28.6907ZM58.559 27.4119L58.1098 27.6315L58.1108 27.6335L58.559 27.4119ZM58.559 23.5572L58.1103 23.3366L58.1093 23.3386L58.559 23.5572ZM59.6854 22.2738L59.4187 21.8509L59.4175 21.8516L59.6854 22.2738ZM63.0509 22.2738L62.7829 22.696L62.7842 22.6967L63.0509 22.2738ZM64.1773 23.5572L63.7276 23.7757L63.7286 23.7778L64.1773 23.5572ZM64.1773 27.4119L63.7291 27.1903L63.7281 27.1924L64.1773 27.4119ZM63.0509 28.6907L62.7842 28.2678L62.7829 28.2685L63.0509 28.6907ZM62.5707 27.7951L62.2598 27.4035L62.2598 27.4035L62.5707 27.7951ZM63.2678 26.8118L63.7366 26.9858L63.7366 26.9858L63.2678 26.8118ZM63.2678 24.1665L63.737 23.9937L63.737 23.9937L63.2678 24.1665ZM62.5707 23.174L62.884 22.7843L62.884 22.7843L62.5707 23.174ZM60.1702 23.174L59.8569 22.7843L59.8569 22.7843L60.1702 23.174ZM59.4731 24.1665L59.0039 23.9937L59.0039 23.9937L59.4731 24.1665ZM59.4731 26.8118L59.0043 26.9858L59.0043 26.9858L59.4731 26.8118ZM60.1702 27.7951L60.4811 27.4035L60.4811 27.4035L60.1702 27.7951ZM61.3705 28.6477C60.813 28.6477 60.3461 28.5162 59.9521 28.2678L59.4188 29.1136C59.9912 29.4746 60.6476 29.6477 61.3705 29.6477V28.6477ZM59.9534 28.2685C59.5564 28.0166 59.2406 27.6624 59.0072 27.1903L58.1108 27.6335C58.4191 28.2571 58.8543 28.7554 59.4175 29.1129L59.9534 28.2685ZM59.0082 27.1924C58.78 26.7253 58.6574 26.163 58.6574 25.4915H57.6574C57.6574 26.2849 57.8026 27.0029 58.1098 27.6315L59.0082 27.1924ZM58.6574 25.4915C58.6574 24.8132 58.7802 24.2459 59.0087 23.7757L58.1093 23.3386C57.8023 23.9702 57.6574 24.6925 57.6574 25.4915H58.6574ZM59.0077 23.7778C59.2413 23.3026 59.5571 22.9474 59.9534 22.696L59.4175 21.8516C58.8536 22.2095 58.4184 22.71 58.1103 23.3366L59.0077 23.7778ZM59.9521 22.6967C60.3461 22.4483 60.813 22.3168 61.3705 22.3168V21.3168C60.6476 21.3168 59.9912 21.4899 59.4188 21.8509L59.9521 22.6967ZM61.3705 22.3168C61.928 22.3168 62.3927 22.4483 62.7829 22.696L63.3188 21.8516C62.7488 21.4899 62.0932 21.3168 61.3705 21.3168V22.3168ZM62.7842 22.6967C63.1828 22.9481 63.4975 23.3024 63.7276 23.7757L64.627 23.3386C64.3215 22.7102 63.8853 22.2089 63.3175 21.8509L62.7842 22.6967ZM63.7286 23.7778C63.9595 24.2475 64.0835 24.814 64.0835 25.4915H65.0835C65.0835 24.6917 64.9367 23.9687 64.626 23.3366L63.7286 23.7778ZM64.0835 25.4915C64.0835 26.1622 63.9597 26.7238 63.7291 27.1903L64.6255 27.6335C64.9365 27.0044 65.0835 26.2857 65.0835 25.4915H64.0835ZM63.7281 27.1924C63.4982 27.6626 63.1835 28.016 62.7842 28.2678L63.3175 29.1136C63.8846 28.756 64.3208 28.2569 64.6265 27.6315L63.7281 27.1924ZM62.7829 28.2685C62.3927 28.5162 61.928 28.6477 61.3705 28.6477V29.6477C62.0932 29.6477 62.7488 29.4746 63.3188 29.1129L62.7829 28.2685ZM61.3705 28.669C61.9448 28.669 62.4617 28.5202 62.8817 28.1867L62.2598 27.4035C62.052 27.5686 61.7686 27.669 61.3705 27.669V28.669ZM62.8817 28.1867C63.2728 27.876 63.5567 27.4704 63.7366 26.9858L62.7991 26.6378C62.6774 26.9657 62.4965 27.2156 62.2598 27.4035L62.8817 28.1867ZM63.7366 26.9858C63.9099 26.5189 63.994 26.0193 63.994 25.4915H62.994C62.994 25.9116 62.9274 26.2922 62.7991 26.6378L63.7366 26.9858ZM63.994 25.4915C63.994 24.9636 63.9099 24.463 63.737 23.9937L62.7987 24.3394C62.9274 24.6888 62.994 25.0714 62.994 25.4915H63.994ZM63.737 23.9937C63.5575 23.5066 63.2744 23.0982 62.884 22.7843L62.2575 23.5637C62.4949 23.7546 62.6765 24.0078 62.7987 24.3394L63.737 23.9937ZM62.884 22.7843C62.4639 22.4466 61.9462 22.2955 61.3705 22.2955V23.2955C61.7672 23.2955 62.0497 23.3967 62.2575 23.5637L62.884 22.7843ZM61.3705 22.2955C60.7947 22.2955 60.277 22.4466 59.8569 22.7843L60.4835 23.5637C60.6912 23.3967 60.9737 23.2955 61.3705 23.2955V22.2955ZM59.8569 22.7843C59.4665 23.0982 59.1834 23.5066 59.0039 23.9937L59.9423 24.3394C60.0644 24.0078 60.246 23.7546 60.4835 23.5637L59.8569 22.7843ZM59.0039 23.9937C58.831 24.463 58.7469 24.9636 58.7469 25.4915H59.7469C59.7469 25.0714 59.8135 24.6888 59.9423 24.3394L59.0039 23.9937ZM58.7469 25.4915C58.7469 26.0193 58.831 26.5189 59.0043 26.9858L59.9418 26.6378C59.8136 26.2922 59.7469 25.9116 59.7469 25.4915H58.7469ZM59.0043 26.9858C59.1842 27.4704 59.4681 27.876 59.8592 28.1867L60.4811 27.4035C60.2444 27.2156 60.0635 26.9657 59.9418 26.6378L59.0043 26.9858ZM59.8592 28.1867C60.2792 28.5202 60.7961 28.669 61.3705 28.669V27.669C60.9723 27.669 60.6889 27.5686 60.4811 27.4035L59.8592 28.1867ZM70.1104 21.9091H70.6104V21.4091H70.1104V21.9091ZM70.1104 22.8324V23.3324H70.6104V22.8324H70.1104ZM66.4357 22.8324H65.9357V23.3324H66.4357V22.8324ZM66.4357 21.9091V21.4091H65.9357V21.9091H66.4357ZM67.5067 20.2102V19.7102H67.0067V20.2102H67.5067ZM68.5962 20.2102H69.0962V19.7102H68.5962V20.2102ZM68.7301 27.6612L68.2975 27.9122L68.3037 27.9223L68.7301 27.6612ZM69.0809 27.9659L68.9076 28.4351L68.9198 28.4392L69.0809 27.9659ZM69.8334 28.0213L69.9124 28.515L69.922 28.5135L69.9315 28.5116L69.8334 28.0213ZM70.0181 27.9844L70.5057 27.874L70.3981 27.3985L69.92 27.4941L70.0181 27.9844ZM70.2397 28.9631L70.4152 29.4312L70.8237 29.2781L70.7273 28.8527L70.2397 28.9631ZM69.9304 29.0462L69.8279 28.5566L69.8171 28.5592L69.9304 29.0462ZM68.5224 28.8938L68.3162 29.3493L68.318 29.3501L68.5224 28.8938ZM67.7929 28.2891L67.3842 28.577L67.3864 28.5801L67.7929 28.2891ZM69.6104 21.9091V22.8324H70.6104V21.9091H69.6104ZM70.1104 22.3324H66.4357V23.3324H70.1104V22.3324ZM66.9357 22.8324V21.9091H65.9357V22.8324H66.9357ZM66.4357 22.4091H70.1104V21.4091H66.4357V22.4091ZM67.5067 20.7102H68.5962V19.7102H67.5067V20.7102ZM68.0962 20.2102V26.9688H69.0962V20.2102H68.0962ZM68.0962 26.9688C68.0962 27.3085 68.1426 27.6449 68.2976 27.9121L69.1626 27.4104C69.1391 27.3698 69.0962 27.2446 69.0962 26.9688H68.0962ZM68.3037 27.9223C68.4441 28.1517 68.6433 28.3372 68.9076 28.4349L69.2543 27.4969C69.2354 27.4899 69.2007 27.4723 69.1565 27.4001L68.3037 27.9223ZM68.9198 28.4392C69.1188 28.507 69.3257 28.5398 69.538 28.5398V27.5398C69.4301 27.5398 69.3324 27.5233 69.2421 27.4926L68.9198 28.4392ZM69.538 28.5398C69.672 28.5398 69.7994 28.5331 69.9124 28.515L69.7544 27.5276C69.7136 27.5341 69.6441 27.5398 69.538 27.5398V28.5398ZM69.9315 28.5116C70.0084 28.4962 70.07 28.4839 70.1161 28.4747L69.92 27.4941C69.8739 27.5033 69.8123 27.5156 69.7354 27.531L69.9315 28.5116ZM69.5304 28.0948L69.752 29.0735L70.7273 28.8527L70.5057 27.874L69.5304 28.0948ZM70.0641 28.4949C70.025 28.5096 69.9503 28.5312 69.8279 28.5568L70.0328 29.5356C70.1752 29.5058 70.3067 29.472 70.4152 29.4312L70.0641 28.4949ZM69.8171 28.5592C69.7353 28.5782 69.609 28.5923 69.4272 28.5923V29.5923C69.6516 29.5923 69.8608 29.5757 70.0436 29.5332L69.8171 28.5592ZM69.4272 28.5923C69.1935 28.5923 68.9613 28.5426 68.7267 28.4375L68.318 29.3501C68.6743 29.5097 69.0453 29.5923 69.4272 29.5923V28.5923ZM68.7285 28.4383C68.5193 28.3436 68.3442 28.2002 68.1995 27.998L67.3864 28.5801C67.6294 28.9196 67.9406 29.1793 68.3162 29.3493L68.7285 28.4383ZM68.2017 28.0011C68.0834 27.8332 68.0067 27.599 68.0067 27.2642H67.0067C67.0067 27.7542 67.1209 28.2032 67.3842 28.577L68.2017 28.0011ZM68.0067 27.2642V20.2102H67.0067V27.2642H68.0067ZM73.6488 28.6907L73.3808 29.1129L73.3821 29.1136L73.6488 28.6907ZM72.5223 27.4119L72.0731 27.6315L72.0741 27.6335L72.5223 27.4119ZM72.5223 23.5572L72.0736 23.3366L72.0726 23.3386L72.5223 23.5572ZM73.6488 22.2738L73.3821 21.8509L73.3809 21.8516L73.6488 22.2738ZM77.0142 22.2738L76.7463 22.696L76.7475 22.6967L77.0142 22.2738ZM78.1406 23.5572L77.6909 23.7757L77.6919 23.7778L78.1406 23.5572ZM78.1406 27.4119L77.6924 27.1903L77.6914 27.1924L78.1406 27.4119ZM77.0142 28.6907L76.7475 28.2678L76.7463 28.2685L77.0142 28.6907ZM76.5341 27.7951L76.2231 27.4035L76.2231 27.4035L76.5341 27.7951ZM77.2311 26.8118L77.6999 26.9858L77.6999 26.9858L77.2311 26.8118ZM77.2311 24.1665L77.7003 23.9937L77.7003 23.9937L77.2311 24.1665ZM76.5341 23.174L76.8473 22.7843L76.8473 22.7843L76.5341 23.174ZM74.1335 23.174L73.8202 22.7843L73.8202 22.7843L74.1335 23.174ZM73.4364 24.1665L72.9672 23.9937L72.9672 23.9937L73.4364 24.1665ZM73.4364 26.8118L72.9677 26.9858L72.9677 26.9858L73.4364 26.8118ZM74.1335 27.7951L74.4444 27.4035L74.4444 27.4035L74.1335 27.7951ZM75.3338 28.6477C74.7763 28.6477 74.3094 28.5162 73.9155 28.2678L73.3821 29.1136C73.9545 29.4746 74.611 29.6477 75.3338 29.6477V28.6477ZM73.9167 28.2685C73.5197 28.0166 73.2039 27.6624 72.9706 27.1903L72.0741 27.6335C72.3824 28.2571 72.8176 28.7554 73.3809 29.1129L73.9167 28.2685ZM72.9716 27.1924C72.7433 26.7253 72.6207 26.163 72.6207 25.4915H71.6207C71.6207 26.2849 71.7659 27.0029 72.0731 27.6315L72.9716 27.1924ZM72.6207 25.4915C72.6207 24.8132 72.7435 24.2459 72.972 23.7757L72.0726 23.3386C71.7657 23.9702 71.6207 24.6925 71.6207 25.4915H72.6207ZM72.9711 23.7778C73.2047 23.3026 73.5204 22.9474 73.9167 22.696L73.3809 21.8516C72.8169 22.2095 72.3817 22.71 72.0736 23.3366L72.9711 23.7778ZM73.9155 22.6967C74.3094 22.4483 74.7763 22.3168 75.3338 22.3168V21.3168C74.611 21.3168 73.9545 21.4899 73.3821 21.8509L73.9155 22.6967ZM75.3338 22.3168C75.8913 22.3168 76.356 22.4483 76.7463 22.696L77.2821 21.8516C76.7121 21.4899 76.0565 21.3168 75.3338 21.3168V22.3168ZM76.7475 22.6967C77.1461 22.9481 77.4608 23.3024 77.6909 23.7757L78.5903 23.3386C78.2849 22.7102 77.8487 22.2089 77.2809 21.8509L76.7475 22.6967ZM77.6919 23.7778C77.9228 24.2475 78.0468 24.814 78.0468 25.4915H79.0468C79.0468 24.6917 78.9001 23.9687 78.5893 23.3366L77.6919 23.7778ZM78.0468 25.4915C78.0468 26.1622 77.923 26.7238 77.6924 27.1903L78.5888 27.6335C78.8998 27.0044 79.0468 26.2857 79.0468 25.4915H78.0468ZM77.6914 27.1924C77.4615 27.6626 77.1468 28.016 76.7475 28.2678L77.2809 29.1136C77.8479 28.756 78.2841 28.2569 78.5898 27.6315L77.6914 27.1924ZM76.7463 28.2685C76.356 28.5162 75.8913 28.6477 75.3338 28.6477V29.6477C76.0565 29.6477 76.7121 29.4746 77.2821 29.1129L76.7463 28.2685ZM75.3338 28.669C75.9081 28.669 76.425 28.5202 76.845 28.1867L76.2231 27.4035C76.0153 27.5686 75.732 27.669 75.3338 27.669V28.669ZM76.845 28.1867C77.2362 27.876 77.52 27.4704 77.6999 26.9858L76.7624 26.6378C76.6407 26.9657 76.4598 27.2156 76.2231 27.4035L76.845 28.1867ZM77.6999 26.9858C77.8732 26.5189 77.9574 26.0193 77.9574 25.4915H76.9574C76.9574 25.9116 76.8907 26.2922 76.7624 26.6378L77.6999 26.9858ZM77.9574 25.4915C77.9574 24.9636 77.8732 24.463 77.7003 23.9937L76.762 24.3394C76.8907 24.6888 76.9574 25.0714 76.9574 25.4915H77.9574ZM77.7003 23.9937C77.5209 23.5066 77.2378 23.0982 76.8473 22.7843L76.2208 23.5637C76.4582 23.7546 76.6398 24.0078 76.762 24.3394L77.7003 23.9937ZM76.8473 22.7843C76.4273 22.4466 75.9095 22.2955 75.3338 22.2955V23.2955C75.7306 23.2955 76.013 23.3967 76.2208 23.5637L76.8473 22.7843ZM75.3338 22.2955C74.758 22.2955 74.2403 22.4466 73.8202 22.7843L74.4468 23.5637C74.6545 23.3967 74.937 23.2955 75.3338 23.2955V22.2955ZM73.8202 22.7843C73.4298 23.0982 73.1467 23.5066 72.9672 23.9937L73.9056 24.3394C74.0277 24.0078 74.2094 23.7546 74.4468 23.5637L73.8202 22.7843ZM72.9672 23.9937C72.7943 24.463 72.7102 24.9636 72.7102 25.4915H73.7102C73.7102 25.0714 73.7769 24.6888 73.9056 24.3394L72.9672 23.9937ZM72.7102 25.4915C72.7102 26.0193 72.7943 26.5189 72.9677 26.9858L73.9052 26.6378C73.7769 26.2922 73.7102 25.9116 73.7102 25.4915H72.7102ZM72.9677 26.9858C73.1476 27.4704 73.4314 27.876 73.8226 28.1867L74.4444 27.4035C74.2078 27.2156 74.0269 26.9657 73.9052 26.6378L72.9677 26.9858ZM73.8226 28.1867C74.2426 28.5202 74.7594 28.669 75.3338 28.669V27.669C74.9356 27.669 74.6523 27.5686 74.4444 27.4035L73.8226 28.1867ZM86.0127 23.4972L86.1488 23.9783L86.6535 23.8354L86.4867 23.3382L86.0127 23.4972ZM85.034 23.7741L84.5662 23.9507L84.7283 24.3803L85.1701 24.2553L85.034 23.7741ZM84.7616 23.2987L84.3606 23.5975L84.3673 23.6062L84.7616 23.2987ZM84.2815 22.9109L84.5051 22.4637L84.5051 22.4637L84.2815 22.9109ZM82.4164 23.0586L82.6999 23.4705L82.7008 23.4698L82.4164 23.0586ZM82.2825 24.4528L81.9709 24.8438L81.9709 24.8438L82.2825 24.4528ZM83.2058 24.8452L83.0846 25.3302L83.0866 25.3307L83.2058 24.8452ZM84.2584 25.1037L84.1391 25.5893L84.1405 25.5896L84.2584 25.1037ZM85.6757 25.81L85.3187 26.1601L85.3204 26.1618L85.6757 25.81ZM85.7911 28.1136L85.3874 27.8186L85.3855 27.8212L85.7911 28.1136ZM81.5762 28.6768L81.8523 28.26L81.8523 28.26L81.5762 28.6768ZM80.676 27.3011L80.5547 26.8161L80.0881 26.9327L80.1866 27.4035L80.676 27.3011ZM81.7101 27.0426L82.1942 26.9177L82.0702 26.4372L81.5888 26.5575L81.7101 27.0426ZM82.2687 27.9013L81.9829 28.3115L81.985 28.313L82.2687 27.9013ZM84.5631 27.8643L84.8557 28.2698L84.8564 28.2692L84.5631 27.8643ZM84.757 26.4609L84.4066 26.8177L84.4099 26.8209L84.757 26.4609ZM83.9629 26.0824L83.8488 26.5692L83.8496 26.5694L83.9629 26.0824ZM82.7811 25.8054L82.6658 26.2919L82.667 26.2922L82.7811 25.8054ZM81.35 25.0898L80.9829 25.4293L80.9862 25.4329L81.35 25.0898ZM81.2346 22.8047L80.8327 22.5073L80.8308 22.5099L81.2346 22.8047ZM82.1625 22.0799L81.9591 21.6231L81.9578 21.6237L82.1625 22.0799ZM85.154 22.2784L84.8491 22.6747L84.8506 22.6758L85.154 22.2784ZM85.8765 23.0161L84.8978 23.293L85.1701 24.2553L86.1488 23.9783L85.8765 23.0161ZM85.5018 23.5976C85.4205 23.3821 85.3032 23.18 85.1558 22.9911L84.3673 23.6062C84.4601 23.725 84.5244 23.8399 84.5662 23.9507L85.5018 23.5976ZM85.1625 22.9999C84.9919 22.771 84.7669 22.5946 84.5051 22.4637L84.0579 23.3581C84.2023 23.4303 84.2973 23.5124 84.3607 23.5974L85.1625 22.9999ZM84.5051 22.4637C84.2106 22.3164 83.867 22.2585 83.5013 22.2585V23.2585C83.7696 23.2585 83.9461 23.3022 84.0579 23.3581L84.5051 22.4637ZM83.5013 22.2585C82.9897 22.2585 82.5227 22.3772 82.132 22.6473L82.7008 23.4698C82.8888 23.3399 83.145 23.2585 83.5013 23.2585V22.2585ZM82.133 22.6467C81.7333 22.9218 81.4871 23.3167 81.4871 23.8111H82.4871C82.4871 23.6961 82.5271 23.5894 82.6999 23.4705L82.133 22.6467ZM81.4871 23.8111C81.4871 24.221 81.645 24.5841 81.9709 24.8438L82.5941 24.0617C82.5262 24.0076 82.4871 23.9429 82.4871 23.8111H81.4871ZM81.9709 24.8438C82.2503 25.0664 82.6393 25.2189 83.0846 25.3302L83.3271 24.3601C82.9353 24.2621 82.7087 24.153 82.5941 24.0617L81.9709 24.8438ZM83.0866 25.3307L84.1391 25.5893L84.3777 24.6181L83.3251 24.3596L83.0866 25.3307ZM84.1405 25.5896C84.7237 25.7311 85.0971 25.9341 85.3187 26.1601L86.0327 25.4599C85.6325 25.0519 85.0611 24.784 84.3763 24.6178L84.1405 25.5896ZM85.3204 26.1618C85.5269 26.3704 85.6419 26.6429 85.6419 27.0241H86.6419C86.6419 26.4144 86.4461 25.8775 86.0309 25.4582L85.3204 26.1618ZM85.6419 27.0241C85.6419 27.3272 85.5571 27.5864 85.3874 27.8186L86.1948 28.4086C86.4929 28.0007 86.6419 27.5336 86.6419 27.0241H85.6419ZM85.3855 27.8212C85.2139 28.0592 84.9656 28.2596 84.6185 28.4138L85.0247 29.3276C85.5085 29.1126 85.9066 28.8083 86.1966 28.4061L85.3855 27.8212ZM84.6185 28.4138C84.279 28.5647 83.8675 28.6477 83.372 28.6477V29.6477C83.9784 29.6477 84.5332 29.5461 85.0247 29.3276L84.6185 28.4138ZM83.372 28.6477C82.7204 28.6477 82.2247 28.5067 81.8523 28.26L81.3001 29.0937C81.8756 29.4749 82.5772 29.6477 83.372 29.6477V28.6477ZM81.8523 28.26C81.4978 28.0252 81.2672 27.6851 81.1654 27.1988L80.1866 27.4035C80.3372 28.1236 80.7067 28.7007 81.3001 29.0937L81.8523 28.26ZM80.7973 27.7862L81.8314 27.5277L81.5888 26.5575L80.5547 26.8161L80.7973 27.7862ZM81.226 27.1676C81.3486 27.6429 81.5937 28.0404 81.9829 28.3115L82.5545 27.491C82.3958 27.3805 82.2685 27.2055 82.1942 26.9177L81.226 27.1676ZM81.985 28.313C82.3688 28.5774 82.8386 28.6875 83.3536 28.6875V27.6875C82.976 27.6875 82.7226 27.6068 82.5524 27.4895L81.985 28.313ZM83.3536 28.6875C83.9275 28.6875 84.4451 28.5661 84.8557 28.2698L84.2705 27.4589C84.084 27.5934 83.7953 27.6875 83.3536 27.6875V28.6875ZM84.8564 28.2692C85.2554 27.9802 85.5155 27.5808 85.5155 27.0795H84.5155C84.5155 27.1877 84.474 27.3115 84.2697 27.4594L84.8564 28.2692ZM85.5155 27.0795C85.5155 26.7019 85.3772 26.3644 85.104 26.101L84.4099 26.8209C84.4815 26.8899 84.5155 26.9648 84.5155 27.0795H85.5155ZM85.1073 26.1042C84.8439 25.8455 84.4799 25.6893 84.0763 25.5954L83.8496 26.5694C84.16 26.6416 84.3254 26.7379 84.4066 26.8177L85.1073 26.1042ZM84.077 25.5956L82.8952 25.3186L82.667 26.2922L83.8489 26.5692L84.077 25.5956ZM82.8964 25.3189C82.2974 25.1769 81.9257 24.9715 81.7138 24.7468L80.9862 25.4329C81.3837 25.8545 81.9661 26.1261 82.6658 26.2919L82.8964 25.3189ZM81.7172 24.7504C81.5099 24.5263 81.3976 24.2438 81.3976 23.8665H80.3976C80.3976 24.4678 80.5869 25.001 80.9829 25.4293L81.7172 24.7504ZM81.3976 23.8665C81.3976 23.5667 81.4795 23.3172 81.6385 23.0995L80.8308 22.5099C80.5404 22.9077 80.3976 23.3661 80.3976 23.8665H81.3976ZM81.6365 23.1021C81.8074 22.8712 82.0452 22.6806 82.3673 22.5361L81.9578 21.6237C81.4982 21.83 81.1173 22.1226 80.8327 22.5073L81.6365 23.1021ZM82.3659 22.5367C82.6866 22.3939 83.0619 22.3168 83.5013 22.3168V21.3168C82.9435 21.3168 82.4263 21.4151 81.9591 21.6231L82.3659 22.5367ZM83.5013 22.3168C84.1349 22.3168 84.5649 22.456 84.8491 22.6747L85.4589 21.8821C84.9429 21.4852 84.2711 21.3168 83.5013 21.3168V22.3168ZM84.8506 22.6758C85.1703 22.9199 85.3995 23.2412 85.5386 23.6561L86.4867 23.3382C86.2873 22.7437 85.9441 22.2525 85.4574 21.881L84.8506 22.6758ZM89.6514 29V29.5H90.1514V29H89.6514ZM88.5619 29H88.0619V29.5H88.5619V29ZM88.5619 19.5455V19.0455H88.0619V19.5455H88.5619ZM89.6514 19.5455H90.1514V19.0455H89.6514V19.5455ZM89.6514 23.017H89.1514V23.517H89.6514V23.017ZM89.7437 23.017V23.517H90.0659L90.1991 23.2237L89.7437 23.017ZM90.4916 22.1445L90.7636 22.5641L90.7645 22.5635L90.4916 22.1445ZM93.0999 22.1076L92.8644 22.5487L92.8674 22.5502L93.0999 22.1076ZM93.9447 22.9893L93.4982 23.2143L93.5003 23.2185L93.9447 22.9893ZM94.2494 29V29.5H94.7494V29H94.2494ZM93.1599 29H92.6599V29.5H93.1599V29ZM92.7214 23.2617L92.3553 23.6024L92.3589 23.6061L92.7214 23.2617ZM90.5562 23.0217L90.3212 22.5803L90.3192 22.5814L90.5562 23.0217ZM89.8915 23.6818L89.4559 23.4362L89.454 23.4398L89.8915 23.6818ZM89.1514 24.7344V29H90.1514V24.7344H89.1514ZM89.6514 28.5H88.5619V29.5H89.6514V28.5ZM89.0619 29V19.5455H88.0619V29H89.0619ZM88.5619 20.0455H89.6514V19.0455H88.5619V20.0455ZM89.1514 19.5455V23.017H90.1514V19.5455H89.1514ZM89.6514 23.517H89.7437V22.517H89.6514V23.517ZM90.1991 23.2237C90.3264 22.9431 90.5127 22.7267 90.7636 22.5641L90.2197 21.725C89.8058 21.9932 89.4935 22.3586 89.2884 22.8104L90.1991 23.2237ZM90.7645 22.5635C90.9928 22.4148 91.3337 22.3168 91.8304 22.3168V21.3168C91.213 21.3168 90.6613 21.4373 90.2187 21.7256L90.7645 22.5635ZM91.8304 22.3168C92.2457 22.3168 92.5854 22.3997 92.8644 22.5487L93.3354 21.6665C92.8881 21.4277 92.3814 21.3168 91.8304 21.3168V22.3168ZM92.8674 22.5502C93.1305 22.6885 93.3409 22.9022 93.4982 23.2143L94.3913 22.7644C94.1484 22.2825 93.7957 21.9084 93.3325 21.665L92.8674 22.5502ZM93.5003 23.2185C93.6558 23.5201 93.7494 23.9363 93.7494 24.4943H94.7494C94.7494 23.8335 94.6399 23.2465 94.3891 22.7602L93.5003 23.2185ZM93.7494 24.4943V29H94.7494V24.4943H93.7494ZM94.2494 28.5H93.1599V29.5H94.2494V28.5ZM93.6599 29V24.5682H92.6599V29H93.6599ZM93.6599 24.5682C93.6599 23.9198 93.4903 23.3451 93.0839 22.9173L92.3589 23.6061C92.5372 23.7938 92.6599 24.0901 92.6599 24.5682H93.6599ZM93.0874 22.9211C92.684 22.4876 92.1377 22.2955 91.5165 22.2955V23.2955C91.9231 23.2955 92.1802 23.4141 92.3554 23.6024L93.0874 22.9211ZM91.5165 22.2955C91.0869 22.2955 90.6846 22.3868 90.3212 22.5804L90.7913 23.463C90.9942 23.3549 91.232 23.2955 91.5165 23.2955V22.2955ZM90.3192 22.5814C89.9521 22.7791 89.6633 23.0684 89.4559 23.4362L90.327 23.9274C90.4458 23.7166 90.6002 23.5659 90.7933 23.4619L90.3192 22.5814ZM89.454 23.4398C89.244 23.8193 89.1514 24.2579 89.1514 24.7344H90.1514C90.1514 24.386 90.2189 24.1229 90.329 23.9238L89.454 23.4398ZM98.2183 28.6907L97.9503 29.1129L97.9516 29.1136L98.2183 28.6907ZM97.0918 27.4119L96.6426 27.6315L96.6436 27.6335L97.0918 27.4119ZM97.0918 23.5572L96.6431 23.3366L96.6421 23.3386L97.0918 23.5572ZM98.2183 22.2738L97.9516 21.8509L97.9503 21.8516L98.2183 22.2738ZM101.584 22.2738L101.316 22.696L101.317 22.6967L101.584 22.2738ZM102.71 23.5572L102.26 23.7757L102.261 23.7778L102.71 23.5572ZM102.71 27.4119L102.262 27.1903L102.261 27.1924L102.71 27.4119ZM101.584 28.6907L101.317 28.2678L101.316 28.2685L101.584 28.6907ZM101.104 27.7951L100.793 27.4035L100.793 27.4035L101.104 27.7951ZM101.801 26.8118L102.269 26.9858L102.269 26.9858L101.801 26.8118ZM101.801 24.1665L102.27 23.9937L102.27 23.9937L101.801 24.1665ZM101.104 23.174L101.417 22.7843L101.417 22.7843L101.104 23.174ZM98.703 23.174L98.3897 22.7843L98.3897 22.7843L98.703 23.174ZM98.0059 24.1665L97.5367 23.9937L97.5367 23.9937L98.0059 24.1665ZM98.0059 26.8118L97.5372 26.9858L97.5372 26.9858L98.0059 26.8118ZM98.703 27.7951L99.0139 27.4035L99.0139 27.4035L98.703 27.7951ZM99.9033 28.6477C99.3458 28.6477 98.8789 28.5162 98.4849 28.2678L97.9516 29.1136C98.524 29.4746 99.1805 29.6477 99.9033 29.6477V28.6477ZM98.4862 28.2685C98.0892 28.0166 97.7734 27.6624 97.5401 27.1903L96.6436 27.6335C96.9519 28.2571 97.3871 28.7554 97.9503 29.1129L98.4862 28.2685ZM97.541 27.1924C97.3128 26.7253 97.1902 26.163 97.1902 25.4915H96.1902C96.1902 26.2849 96.3354 27.0029 96.6426 27.6315L97.541 27.1924ZM97.1902 25.4915C97.1902 24.8132 97.313 24.2459 97.5415 23.7757L96.6421 23.3386C96.3352 23.9702 96.1902 24.6925 96.1902 25.4915H97.1902ZM97.5405 23.7778C97.7741 23.3026 98.0899 22.9474 98.4862 22.696L97.9503 21.8516C97.3864 22.2095 96.9512 22.71 96.6431 23.3366L97.5405 23.7778ZM98.4849 22.6967C98.8789 22.4483 99.3458 22.3168 99.9033 22.3168V21.3168C99.1805 21.3168 98.524 21.4899 97.9516 21.8509L98.4849 22.6967ZM99.9033 22.3168C100.461 22.3168 100.926 22.4483 101.316 22.696L101.852 21.8516C101.282 21.4899 100.626 21.3168 99.9033 21.3168V22.3168ZM101.317 22.6967C101.716 22.9481 102.03 23.3024 102.26 23.7757L103.16 23.3386C102.854 22.7102 102.418 22.2089 101.85 21.8509L101.317 22.6967ZM102.261 23.7778C102.492 24.2475 102.616 24.814 102.616 25.4915H103.616C103.616 24.6917 103.47 23.9687 103.159 23.3366L102.261 23.7778ZM102.616 25.4915C102.616 26.1622 102.493 26.7238 102.262 27.1903L103.158 27.6335C103.469 27.0044 103.616 26.2857 103.616 25.4915H102.616ZM102.261 27.1924C102.031 27.6626 101.716 28.016 101.317 28.2678L101.85 29.1136C102.417 28.756 102.854 28.2569 103.159 27.6315L102.261 27.1924ZM101.316 28.2685C100.926 28.5162 100.461 28.6477 99.9033 28.6477V29.6477C100.626 29.6477 101.282 29.4746 101.852 29.1129L101.316 28.2685ZM99.9033 28.669C100.478 28.669 100.994 28.5202 101.414 28.1867L100.793 27.4035C100.585 27.5686 100.301 27.669 99.9033 27.669V28.669ZM101.414 28.1867C101.806 27.876 102.089 27.4704 102.269 26.9858L101.332 26.6378C101.21 26.9657 101.029 27.2156 100.793 27.4035L101.414 28.1867ZM102.269 26.9858C102.443 26.5189 102.527 26.0193 102.527 25.4915H101.527C101.527 25.9116 101.46 26.2922 101.332 26.6378L102.269 26.9858ZM102.527 25.4915C102.527 24.9636 102.443 24.463 102.27 23.9937L101.331 24.3394C101.46 24.6888 101.527 25.0714 101.527 25.4915H102.527ZM102.27 23.9937C102.09 23.5066 101.807 23.0982 101.417 22.7843L100.79 23.5637C101.028 23.7546 101.209 24.0078 101.331 24.3394L102.27 23.9937ZM101.417 22.7843C100.997 22.4466 100.479 22.2955 99.9033 22.2955V23.2955C100.3 23.2955 100.583 23.3967 100.79 23.5637L101.417 22.7843ZM99.9033 22.2955C99.3275 22.2955 98.8098 22.4466 98.3897 22.7843L99.0163 23.5637C99.224 23.3967 99.5065 23.2955 99.9033 23.2955V22.2955ZM98.3897 22.7843C97.9993 23.0982 97.7162 23.5066 97.5367 23.9937L98.4751 24.3394C98.5972 24.0078 98.7788 23.7546 99.0163 23.5637L98.3897 22.7843ZM97.5367 23.9937C97.3638 24.463 97.2797 24.9636 97.2797 25.4915H98.2797C98.2797 25.0714 98.3464 24.6888 98.4751 24.3394L97.5367 23.9937ZM97.2797 25.4915C97.2797 26.0193 97.3638 26.5189 97.5372 26.9858L98.4746 26.6378C98.3464 26.2922 98.2797 25.9116 98.2797 25.4915H97.2797ZM97.5372 26.9858C97.7171 27.4704 98.0009 27.876 98.392 28.1867L99.0139 27.4035C98.7772 27.2156 98.5964 26.9657 98.4746 26.6378L97.5372 26.9858ZM98.392 28.1867C98.8121 28.5202 99.3289 28.669 99.9033 28.669V27.669C99.5051 27.669 99.2218 27.5686 99.0139 27.4035L98.392 28.1867ZM105.559 31.6591H105.059V32.1591H105.559V31.6591ZM105.559 21.9091V21.4091H105.059V21.9091H105.559ZM106.612 21.9091H107.112V21.4091H106.612V21.9091ZM106.612 23.0355H106.112V23.5355H106.612V23.0355ZM106.741 23.0355V23.5355H107.013L107.16 23.308L106.741 23.0355ZM107.074 22.5646L106.673 22.2656L106.672 22.2667L107.074 22.5646ZM107.692 22.0476L107.938 22.4832L107.939 22.4823L107.692 22.0476ZM110.37 22.2646L110.644 21.8464L110.644 21.8464L110.37 22.2646ZM111.436 23.5341L111.889 23.3228L111.889 23.3228L111.436 23.5341ZM111.436 27.4258L111.889 27.6371L111.89 27.6361L111.436 27.4258ZM110.374 28.6999L110.65 29.1173L110.652 29.116L110.374 28.6999ZM107.715 28.9215L107.47 29.3575L107.474 29.3595L107.715 28.9215ZM107.083 28.3999L106.683 28.6999L106.685 28.7029L107.083 28.3999ZM106.741 27.9105L107.166 27.6473L107.02 27.4105H106.741V27.9105ZM106.649 27.9105V27.4105H106.149V27.9105H106.649ZM106.649 31.6591V32.1591H107.149V31.6591H106.649ZM106.866 26.8718L106.399 27.0508L106.399 27.052L106.866 26.8718ZM107.554 27.8274L107.25 28.2245L107.252 28.2264L107.554 27.8274ZM109.802 27.8089L110.111 28.2017L110.112 28.2013L109.802 27.8089ZM110.494 26.8303L110.027 26.6524L110.026 26.6543L110.494 26.8303ZM110.499 24.1065L110.031 24.2817L110.032 24.286L110.499 24.1065ZM109.811 23.1509L109.504 23.5456L109.509 23.549L109.811 23.1509ZM107.545 23.1325L107.841 23.5354L107.843 23.5334L107.545 23.1325ZM106.861 24.065L107.327 24.2457L107.328 24.2445L106.861 24.065ZM106.059 31.6591V21.9091H105.059V31.6591H106.059ZM105.559 22.4091H106.612V21.4091H105.559V22.4091ZM106.112 21.9091V23.0355H107.112V21.9091H106.112ZM106.612 23.5355H106.741V22.5355H106.612V23.5355ZM107.16 23.308C107.233 23.1972 107.337 23.0495 107.475 22.8626L106.672 22.2667C106.528 22.4614 106.41 22.6276 106.322 22.763L107.16 23.308ZM107.474 22.8636C107.568 22.7385 107.715 22.6087 107.938 22.4832L107.447 21.6119C107.134 21.788 106.869 22.0029 106.673 22.2656L107.474 22.8636ZM107.939 22.4823C108.107 22.387 108.377 22.3168 108.791 22.3168V21.3168C108.281 21.3168 107.819 21.4004 107.445 21.6129L107.939 22.4823ZM108.791 22.3168C109.3 22.3168 109.729 22.4427 110.096 22.6827L110.644 21.8464C110.099 21.4894 109.476 21.3168 108.791 21.3168V22.3168ZM110.096 22.6827C110.465 22.9248 110.762 23.2723 110.983 23.7454L111.889 23.3228C111.599 22.7002 111.185 22.2014 110.644 21.8464L110.096 22.6827ZM110.983 23.7454C111.201 24.2135 111.319 24.7847 111.319 25.473H112.319C112.319 24.6718 112.182 23.9503 111.889 23.3228L110.983 23.7454ZM111.319 25.473C111.319 26.1681 111.201 26.7441 110.983 27.2154L111.89 27.6361C112.182 27.0056 112.319 26.2798 112.319 25.473H111.319ZM110.983 27.2145C110.762 27.6888 110.465 28.0387 110.097 28.2839L110.652 29.116C111.189 28.758 111.6 28.2584 111.889 27.6371L110.983 27.2145ZM110.099 28.2826C109.736 28.5223 109.312 28.6477 108.809 28.6477V29.6477C109.489 29.6477 110.108 29.4746 110.65 29.1173L110.099 28.2826ZM108.809 28.6477C108.402 28.6477 108.13 28.5793 107.956 28.4835L107.474 29.3595C107.848 29.5654 108.306 29.6477 108.809 29.6477V28.6477ZM107.96 28.4856C107.729 28.3559 107.577 28.2232 107.481 28.0968L106.685 28.7029C106.884 28.9643 107.154 29.1794 107.47 29.3574L107.96 28.4856ZM107.483 28.0999C107.339 27.9085 107.235 27.7587 107.166 27.6473L106.316 28.1737C106.407 28.3209 106.531 28.4973 106.683 28.6999L107.483 28.0999ZM106.741 27.4105H106.649V28.4105H106.741V27.4105ZM106.149 27.9105V31.6591H107.149V27.9105H106.149ZM106.649 31.1591H105.559V32.1591H106.649V31.1591ZM106.13 25.4545C106.13 26.0381 106.216 26.5732 106.399 27.0508L107.333 26.6928C107.202 26.3517 107.13 25.942 107.13 25.4545H106.13ZM106.399 27.052C106.585 27.5313 106.865 27.9299 107.25 28.2245L107.858 27.4304C107.639 27.2633 107.461 27.0248 107.332 26.6916L106.399 27.052ZM107.252 28.2264C107.654 28.5296 108.134 28.669 108.662 28.669V27.669C108.316 27.669 108.057 27.5807 107.855 27.4284L107.252 28.2264ZM108.662 28.669C109.209 28.669 109.704 28.5229 110.111 28.2017L109.493 27.4162C109.291 27.5751 109.025 27.669 108.662 27.669V28.669ZM110.112 28.2013C110.499 27.8954 110.78 27.4906 110.962 27.0062L110.026 26.6543C109.901 26.9885 109.72 27.2362 109.492 27.4166L110.112 28.2013ZM110.962 27.0081C111.143 26.5313 111.23 26.0114 111.23 25.4545H110.23C110.23 25.9071 110.16 26.3044 110.027 26.6524L110.962 27.0081ZM111.23 25.4545C111.23 24.9044 111.145 24.3929 110.966 23.927L110.032 24.286C110.161 24.6203 110.23 25.0075 110.23 25.4545H111.23ZM110.967 23.9314C110.787 23.4501 110.505 23.0502 110.114 22.7528L109.509 23.549C109.733 23.7194 109.909 23.9566 110.031 24.2817L110.967 23.9314ZM110.118 22.7562C109.709 22.4384 109.212 22.2955 108.662 22.2955V23.2955C109.035 23.2955 109.304 23.3895 109.504 23.5456L110.118 22.7562ZM108.662 22.2955C108.131 22.2955 107.648 22.4316 107.246 22.7315L107.843 23.5334C108.044 23.384 108.306 23.2955 108.662 23.2955V22.2955ZM107.248 22.7295C106.859 23.0156 106.578 23.4094 106.395 23.8855L107.328 24.2445C107.453 23.9203 107.627 23.6925 107.841 23.5354L107.248 22.7295ZM106.395 23.8843C106.214 24.3511 106.13 24.8779 106.13 25.4545H107.13C107.13 24.9725 107.201 24.573 107.327 24.2457L106.395 23.8843Z" fill="white"/>
<path d="M21.25 9.5H19C10.9919 9.5 4.5 15.9919 4.5 24C4.5 32.0081 10.9919 38.5 19 38.5H21.25C29.2581 38.5 35.75 32.0081 35.75 24C35.75 15.9919 29.2581 9.5 21.25 9.5Z" fill="white"/>
<g clip-path="url(#clip1_1_421)">
<path d="M15.0104 16H25.9896C26.385 15.9996 26.7766 16.0746 27.142 16.2205C27.5074 16.3664 27.8395 16.5804 28.1191 16.8503C28.3987 17.1203 28.6204 17.4408 28.7716 17.7935C28.9227 18.1462 29.0003 18.5243 29 18.906V29.094C29.0003 29.4757 28.9227 29.8538 28.7716 30.2065C28.6204 30.5593 28.3987 30.8797 28.1191 31.1497C27.8395 31.4196 27.5074 31.6336 27.142 31.7795C26.7766 31.9254 26.385 32.0004 25.9896 32H15.0104C14.6149 32.0004 14.2233 31.9254 13.8579 31.7795C13.4925 31.6336 13.1605 31.4196 12.8809 31.1497C12.6013 30.8797 12.3795 30.5593 12.2284 30.2065C12.0772 29.8538 11.9996 29.4757 12 29.094V18.906C11.9996 18.5243 12.0772 18.1462 12.2284 17.7935C12.3795 17.4408 12.6013 17.1203 12.8809 16.8503C13.1605 16.5804 13.4925 16.3664 13.8579 16.2205C14.2233 16.0746 14.6149 15.9996 15.0104 16V16Z" fill="#001E36"/>
<path d="M15.825 27.2205V20.1846C15.825 20.1367 15.8463 20.1094 15.8958 20.1094C16.0163 20.1094 16.1296 20.1094 16.2925 20.1025C16.4554 20.0957 16.6396 20.0957 16.8308 20.0889C17.0221 20.082 17.2275 20.082 17.4471 20.0752C17.6667 20.0684 17.8792 20.0684 18.0917 20.0684C18.6725 20.0684 19.1542 20.1367 19.5508 20.2803C19.9064 20.3969 20.2307 20.5884 20.5 20.841C20.7283 21.0621 20.9046 21.3279 21.0171 21.6205C21.1243 21.9054 21.1794 22.2062 21.18 22.5094C21.18 23.0974 21.0383 23.5829 20.755 23.9658C20.4704 24.3482 20.0729 24.6389 19.6146 24.8C19.1329 24.9709 18.6017 25.0325 18.0208 25.0325C17.8508 25.0325 17.7375 25.0325 17.6667 25.0256C17.5958 25.0188 17.4967 25.0188 17.3621 25.0188V27.2137C17.3637 27.2249 17.3629 27.2364 17.3598 27.2473C17.3567 27.2583 17.3514 27.2685 17.3441 27.2774C17.3369 27.2864 17.3278 27.2938 17.3175 27.2993C17.3072 27.3048 17.2959 27.3082 17.2842 27.3094H15.91C15.8533 27.3094 15.825 27.282 15.825 27.2205ZM17.3692 21.429V23.7265C17.4683 23.7333 17.5604 23.7402 17.6454 23.7402H18.0208C18.2974 23.7405 18.5722 23.6989 18.8354 23.6171C19.0612 23.553 19.263 23.4271 19.4163 23.2547C19.565 23.0837 19.6358 22.8513 19.6358 22.5504C19.6425 22.3367 19.586 22.1257 19.4729 21.9419C19.3548 21.7643 19.1811 21.6278 18.9771 21.5521C18.7112 21.4516 18.4266 21.405 18.1413 21.4154C17.9571 21.4154 17.7942 21.4154 17.6596 21.4222C17.5628 21.4161 17.4656 21.4184 17.3692 21.429V21.429Z" fill="#31A8FF"/>
<path d="M25.6 23.3094C25.3861 23.2007 25.1571 23.1224 24.92 23.0769C24.6596 23.02 24.3937 22.9902 24.1267 22.988C23.9833 22.9833 23.8401 22.9994 23.7017 23.0359C23.6135 23.0536 23.5352 23.1024 23.4821 23.1726C23.4463 23.2281 23.4267 23.2919 23.4254 23.3573C23.4287 23.4223 23.4536 23.4846 23.4963 23.535C23.5634 23.6111 23.6452 23.6738 23.7371 23.7197C23.9 23.8017 24.07 23.8769 24.24 23.9453C24.6227 24.0697 24.9889 24.2372 25.3309 24.4444C25.5635 24.5856 25.7558 24.7807 25.8904 25.012C26.0043 25.2301 26.0602 25.4721 26.0534 25.7162C26.0591 26.0394 25.9627 26.3566 25.7771 26.6256C25.5795 26.8986 25.3038 27.1101 24.9838 27.2342C24.6367 27.3778 24.2117 27.453 23.7017 27.453C23.3783 27.4542 23.0556 27.4245 22.7384 27.3641C22.4885 27.3224 22.2456 27.2488 22.0159 27.1453C21.9912 27.1333 21.9706 27.1147 21.9568 27.0916C21.9429 27.0685 21.9364 27.042 21.9379 27.0154V25.8256C21.9373 25.814 21.9396 25.8023 21.9445 25.7916C21.9494 25.7809 21.9569 25.7715 21.9663 25.7641C21.9763 25.7585 21.9878 25.7561 21.9993 25.7574C22.0108 25.7586 22.0216 25.7633 22.03 25.7709C22.3029 25.9262 22.5992 26.0393 22.9084 26.106C23.1813 26.1745 23.4622 26.209 23.7442 26.2085C24.0134 26.2085 24.2046 26.1744 24.3321 26.1128C24.389 26.0875 24.4372 26.047 24.471 25.9961C24.5049 25.9452 24.5231 25.8861 24.5234 25.8256C24.5234 25.7299 24.4667 25.641 24.3534 25.5521C24.24 25.4632 24.0063 25.3607 23.6592 25.2308C23.3031 25.1097 22.965 24.9442 22.6534 24.7385C22.4314 24.5858 22.2475 24.3872 22.115 24.1573C22.002 23.9413 21.946 23.7017 21.9521 23.4598C21.9531 23.1681 22.0364 22.8821 22.1929 22.6325C22.3729 22.358 22.6312 22.1395 22.9367 22.0034C23.2696 21.8393 23.6875 21.7641 24.1904 21.7641C24.4844 21.7642 24.7779 21.7847 25.0688 21.8256C25.2779 21.853 25.4826 21.9058 25.6779 21.9829C25.7091 21.9936 25.7345 22.0157 25.7488 22.0444C25.7569 22.0711 25.7617 22.0987 25.7629 22.1265V23.241C25.763 23.2543 25.7599 23.2674 25.7537 23.2793C25.7476 23.2912 25.7386 23.3015 25.7275 23.3094C25.6863 23.3237 25.6412 23.3237 25.6 23.3094Z" fill="#31A8FF"/>
</g>
</g>
<defs>
<clipPath id="clip0_1_421">
<rect width="135" height="48" fill="white"/>
</clipPath>
<clipPath id="clip1_1_421">
<rect width="17" height="16" fill="white" transform="translate(12 16)"/>
</clipPath>
</defs>
</svg>
