<svg width="135" height="48" viewBox="0 0 135 48" fill="none" xmlns="http://www.w3.org/2000/svg">
<g clip-path="url(#clip0_1_469)">
<path d="M135 0H0V48H135V0Z" fill="#720058"/>
<path d="M41.5327 29H40.3324L43.804 19.5455H44.9858L48.4574 29H47.2571L44.4318 21.0412H44.358L41.5327 29ZM41.9759 25.3068H46.8139V26.3224H41.9759V25.3068ZM53.2399 29.1477C52.649 29.1477 52.1273 28.9985 51.6749 28.6999C51.2225 28.3983 50.8685 27.9736 50.6131 27.4258C50.3577 26.8749 50.2299 26.224 50.2299 25.473C50.2299 24.7282 50.3577 24.0819 50.6131 23.5341C50.8685 22.9863 51.224 22.5631 51.6795 22.2646C52.135 21.966 52.6613 21.8168 53.2583 21.8168C53.72 21.8168 54.0847 21.8937 54.3524 22.0476C54.6233 22.1984 54.8295 22.3707 54.9711 22.5646C55.1157 22.7554 55.228 22.9124 55.3081 23.0355H55.4004V19.5455H56.4899V29H55.4373V27.9105H55.3081C55.228 28.0398 55.1142 28.2029 54.9664 28.3999C54.8187 28.5937 54.6079 28.7676 54.334 28.9215C54.0601 29.0723 53.6954 29.1477 53.2399 29.1477ZM53.3876 28.169C53.8246 28.169 54.1939 28.0552 54.4956 27.8274C54.7972 27.5966 55.0264 27.2781 55.1834 26.8718C55.3404 26.4625 55.4188 25.9901 55.4188 25.4545C55.4188 24.9252 55.3419 24.462 55.188 24.065C55.0341 23.6649 54.8064 23.354 54.5048 23.1325C54.2032 22.9078 53.8308 22.7955 53.3876 22.7955C52.926 22.7955 52.5412 22.9139 52.2335 23.1509C51.9288 23.3848 51.6995 23.7034 51.5456 24.1065C51.3948 24.5066 51.3194 24.956 51.3194 25.4545C51.3194 25.9593 51.3964 26.4179 51.5502 26.8303C51.7072 27.2396 51.938 27.5658 52.2427 27.8089C52.5505 28.049 52.9321 28.169 53.3876 28.169ZM62.2972 29.1477C61.6571 29.1477 61.0954 28.9954 60.6122 28.6907C60.1321 28.386 59.7566 27.9598 59.4858 27.4119C59.218 26.8641 59.0841 26.224 59.0841 25.4915C59.0841 24.7528 59.218 24.1081 59.4858 23.5572C59.7566 23.0063 60.1321 22.5785 60.6122 22.2738C61.0954 21.9691 61.6571 21.8168 62.2972 21.8168C62.9374 21.8168 63.4975 21.9691 63.9776 22.2738C64.4608 22.5785 64.8363 23.0063 65.104 23.5572C65.3749 24.1081 65.5103 24.7528 65.5103 25.4915C65.5103 26.224 65.3749 26.8641 65.104 27.4119C64.8363 27.9598 64.4608 28.386 63.9776 28.6907C63.4975 28.9954 62.9374 29.1477 62.2972 29.1477ZM62.2972 28.169C62.7835 28.169 63.1836 28.0444 63.4975 27.7951C63.8114 27.5458 64.0438 27.218 64.1946 26.8118C64.3454 26.4055 64.4208 25.9654 64.4208 25.4915C64.4208 25.0175 64.3454 24.5759 64.1946 24.1665C64.0438 23.7572 63.8114 23.4264 63.4975 23.174C63.1836 22.9216 62.7835 22.7955 62.2972 22.7955C61.8109 22.7955 61.4109 22.9216 61.0969 23.174C60.783 23.4264 60.5506 23.7572 60.3998 24.1665C60.249 24.5759 60.1736 25.0175 60.1736 25.4915C60.1736 25.9654 60.249 26.4055 60.3998 26.8118C60.5506 27.218 60.783 27.5458 61.0969 27.7951C61.4109 28.0444 61.8109 28.169 62.2972 28.169ZM68.1011 29V19.5455H69.1906V23.0355H69.2829C69.3629 22.9124 69.4737 22.7554 69.6153 22.5646C69.76 22.3707 69.9662 22.1984 70.2339 22.0476C70.5047 21.8937 70.871 21.8168 71.3326 21.8168C71.9297 21.8168 72.456 21.966 72.9115 22.2646C73.367 22.5631 73.7224 22.9863 73.9779 23.5341C74.2333 24.0819 74.361 24.7282 74.361 25.473C74.361 26.224 74.2333 26.8749 73.9779 27.4258C73.7224 27.9736 73.3685 28.3983 72.9161 28.6999C72.4637 28.9985 71.942 29.1477 71.3511 29.1477C70.8956 29.1477 70.5309 29.0723 70.257 28.9215C69.9831 28.7676 69.7723 28.5937 69.6245 28.3999C69.4768 28.2029 69.3629 28.0398 69.2829 27.9105H69.1537V29H68.1011ZM69.1721 25.4545C69.1721 25.9901 69.2506 26.4625 69.4076 26.8718C69.5645 27.2781 69.7938 27.5966 70.0954 27.8274C70.397 28.0552 70.7663 28.169 71.2034 28.169C71.6589 28.169 72.039 28.049 72.3436 27.8089C72.6514 27.5658 72.8822 27.2396 73.0361 26.8303C73.1931 26.4179 73.2716 25.9593 73.2716 25.4545C73.2716 24.956 73.1946 24.5066 73.0407 24.1065C72.8899 23.7034 72.6606 23.3848 72.3529 23.1509C72.0482 22.9139 71.665 22.7955 71.2034 22.7955C70.7602 22.7955 70.3878 22.9078 70.0862 23.1325C69.7846 23.354 69.5568 23.6649 69.4029 24.065C69.2491 24.462 69.1721 24.9252 69.1721 25.4545ZM79.7806 29.1477C79.0974 29.1477 78.508 28.9969 78.0125 28.6953C77.5201 28.3906 77.14 27.9659 76.8722 27.4212C76.6075 26.8733 76.4752 26.2363 76.4752 25.5099C76.4752 24.7836 76.6075 24.1435 76.8722 23.5895C77.14 23.0324 77.5124 22.5985 77.9894 22.2876C78.4695 21.9737 79.0297 21.8168 79.6698 21.8168C80.0391 21.8168 80.4038 21.8783 80.7639 22.0014C81.124 22.1245 81.4518 22.3246 81.7472 22.6016C82.0427 22.8755 82.2781 23.2386 82.4535 23.6911C82.629 24.1435 82.7167 24.7005 82.7167 25.3622V25.8239H77.2508V24.8821H81.6087C81.6087 24.482 81.5287 24.125 81.3687 23.8111C81.2117 23.4972 80.987 23.2494 80.6947 23.0678C80.4054 22.8862 80.0637 22.7955 79.6698 22.7955C79.2359 22.7955 78.8604 22.9032 78.5434 23.1186C78.2295 23.331 77.9879 23.608 77.8186 23.9496C77.6493 24.2912 77.5647 24.6574 77.5647 25.0483V25.6761C77.5647 26.2116 77.657 26.6656 77.8417 27.038C78.0294 27.4073 78.2895 27.6889 78.6219 27.8828C78.9542 28.0736 79.3405 28.169 79.7806 28.169C80.0668 28.169 80.3253 28.129 80.5562 28.049C80.7901 27.9659 80.9917 27.8428 81.1609 27.6797C81.3302 27.5135 81.461 27.3073 81.5533 27.0611L82.6059 27.3565C82.4951 27.7135 82.3089 28.0275 82.0473 28.2983C81.7857 28.5661 81.4625 28.7753 81.0778 28.9261C80.6931 29.0739 80.2607 29.1477 79.7806 29.1477ZM90.292 19.5455L92.7294 23.4787H92.8033L95.2408 19.5455H96.5888L93.6158 24.2727L96.5888 29H95.2408L92.8033 25.1406H92.7294L90.292 29H88.9439L91.9908 24.2727L88.9439 19.5455H90.292ZM101.776 29H98.8588V19.5455H101.906C102.823 19.5455 103.608 19.7347 104.26 20.1133C104.913 20.4888 105.413 21.0289 105.76 21.7337C106.108 22.4354 106.282 23.2756 106.282 24.2543C106.282 25.2391 106.107 26.087 105.756 26.7979C105.405 27.5058 104.894 28.0505 104.223 28.4322C103.552 28.8107 102.737 29 101.776 29ZM100.004 27.9844H101.703C102.484 27.9844 103.132 27.8336 103.646 27.532C104.16 27.2304 104.543 26.801 104.796 26.244C105.048 25.6869 105.174 25.0237 105.174 24.2543C105.174 23.491 105.049 22.8339 104.8 22.283C104.551 21.729 104.179 21.3043 103.683 21.0089C103.188 20.7103 102.57 20.5611 101.832 20.5611H100.004V27.9844Z" fill="white"/>
<path d="M41.5327 29V29.5H41.8857L42.0039 29.1673L41.5327 29ZM40.3324 29L39.863 28.8277L39.6162 29.5H40.3324V29ZM43.804 19.5455V19.0455H43.4549L43.3346 19.3731L43.804 19.5455ZM44.9858 19.5455L45.4552 19.3731L45.3348 19.0455H44.9858V19.5455ZM48.4574 29V29.5H49.1736L48.9267 28.8277L48.4574 29ZM47.2571 29L46.7859 29.1673L46.904 29.5H47.2571V29ZM44.4318 21.0412L44.903 20.8739L44.7849 20.5412H44.4318V21.0412ZM44.358 21.0412V20.5412H44.0049L43.8868 20.8739L44.358 21.0412ZM41.9759 25.3068V24.8068H41.4759V25.3068H41.9759ZM46.8139 25.3068H47.3139V24.8068H46.8139V25.3068ZM46.8139 26.3224V26.8224H47.3139V26.3224H46.8139ZM41.9759 26.3224H41.4759V26.8224H41.9759V26.3224ZM41.5327 28.5H40.3324V29.5H41.5327V28.5ZM40.8017 29.1723L44.2733 19.7178L43.3346 19.3731L39.863 28.8277L40.8017 29.1723ZM43.804 20.0455H44.9858V19.0455H43.804V20.0455ZM44.5164 19.7178L47.988 29.1723L48.9267 28.8277L45.4552 19.3731L44.5164 19.7178ZM48.4574 28.5H47.2571V29.5H48.4574V28.5ZM47.7283 28.8327L44.903 20.8739L43.9606 21.2085L46.7859 29.1673L47.7283 28.8327ZM44.4318 20.5412H44.358V21.5412H44.4318V20.5412ZM43.8868 20.8739L41.0615 28.8327L42.0039 29.1673L44.8291 21.2085L43.8868 20.8739ZM41.9759 25.8068H46.8139V24.8068H41.9759V25.8068ZM46.3139 25.3068V26.3224H47.3139V25.3068H46.3139ZM46.8139 25.8224H41.9759V26.8224H46.8139V25.8224ZM42.4759 26.3224V25.3068H41.4759V26.3224H42.4759ZM51.6749 28.6999L51.3975 29.116L51.3995 29.1173L51.6749 28.6999ZM50.6131 27.4258L50.1595 27.6361L50.1599 27.6371L50.6131 27.4258ZM50.6131 23.5341L50.1599 23.3228L50.1599 23.3228L50.6131 23.5341ZM51.6795 22.2646L51.4054 21.8464L51.4054 21.8464L51.6795 22.2646ZM54.3524 22.0476L54.1033 22.4811L54.1092 22.4844L54.3524 22.0476ZM54.9711 22.5646L54.5672 22.8595L54.5726 22.8667L54.9711 22.5646ZM55.3081 23.0355L54.8888 23.308L55.0367 23.5355H55.3081V23.0355ZM55.4004 23.0355V23.5355H55.9004V23.0355H55.4004ZM55.4004 19.5455V19.0455H54.9004V19.5455H55.4004ZM56.4899 19.5455H56.9899V19.0455H56.4899V19.5455ZM56.4899 29V29.5H56.9899V29H56.4899ZM55.4373 29H54.9373V29.5H55.4373V29ZM55.4373 27.9105H55.9373V27.4105H55.4373V27.9105ZM55.3081 27.9105V27.4105H55.0295L54.8829 27.6473L55.3081 27.9105ZM54.9664 28.3999L55.3642 28.7029L55.3664 28.6999L54.9664 28.3999ZM54.334 28.9215L54.5751 29.3595L54.5789 29.3574L54.334 28.9215ZM54.4956 27.8274L54.7969 28.2264L54.7994 28.2245L54.4956 27.8274ZM55.1834 26.8718L55.6498 27.052L55.6503 27.0508L55.1834 26.8718ZM55.188 24.065L54.7214 24.2445L54.7218 24.2457L55.188 24.065ZM54.5048 23.1325L54.2061 23.5334L54.2087 23.5354L54.5048 23.1325ZM52.2335 23.1509L52.5379 23.5475L52.5385 23.5471L52.2335 23.1509ZM51.5456 24.1065L51.0785 23.9282L51.0778 23.9302L51.5456 24.1065ZM51.5502 26.8303L51.0818 27.0051L51.0834 27.0093L51.5502 26.8303ZM52.2427 27.8089L51.9308 28.1998L51.9352 28.2032L52.2427 27.8089ZM53.2399 28.6477C52.7377 28.6477 52.3136 28.5223 51.9503 28.2826L51.3995 29.1173C51.941 29.4746 52.5603 29.6477 53.2399 29.6477V28.6477ZM51.9522 28.2839C51.5844 28.0387 51.2874 27.6888 51.0663 27.2145L50.1599 27.6371C50.4497 28.2584 50.8606 28.758 51.3975 29.116L51.9522 28.2839ZM51.0667 27.2154C50.8482 26.7441 50.7299 26.1681 50.7299 25.473H49.7299C49.7299 26.2798 49.8671 27.0056 50.1595 27.6361L51.0667 27.2154ZM50.7299 25.473C50.7299 24.7847 50.848 24.2135 51.0663 23.7454L50.1599 23.3228C49.8673 23.9503 49.7299 24.6718 49.7299 25.473H50.7299ZM51.0663 23.7454C51.2869 23.2723 51.5842 22.9248 51.9536 22.6827L51.4054 21.8464C50.8638 22.2014 50.4502 22.7002 50.1599 23.3228L51.0663 23.7454ZM51.9536 22.6827C52.3198 22.4427 52.7489 22.3168 53.2583 22.3168V21.3168C52.5737 21.3168 51.9502 21.4894 51.4054 21.8464L51.9536 22.6827ZM53.2583 22.3168C53.6726 22.3168 53.9398 22.3871 54.1033 22.4811L54.6016 21.6141C54.2295 21.4003 53.7673 21.3168 53.2583 21.3168V22.3168ZM54.1092 22.4844C54.3346 22.6099 54.4788 22.7384 54.5672 22.8595L55.3749 22.2698C55.1802 22.0031 54.912 21.7869 54.5957 21.6107L54.1092 22.4844ZM54.5726 22.8667C54.7139 23.0531 54.8182 23.1993 54.8888 23.308L55.7273 22.763C55.6379 22.6255 55.5175 22.4578 55.3695 22.2626L54.5726 22.8667ZM55.3081 23.5355H55.4004V22.5355H55.3081V23.5355ZM55.9004 23.0355V19.5455H54.9004V23.0355H55.9004ZM55.4004 20.0455H56.4899V19.0455H55.4004V20.0455ZM55.9899 19.5455V29H56.9899V19.5455H55.9899ZM56.4899 28.5H55.4373V29.5H56.4899V28.5ZM55.9373 29V27.9105H54.9373V29H55.9373ZM55.4373 27.4105H55.3081V28.4105H55.4373V27.4105ZM54.8829 27.6473C54.814 27.7587 54.71 27.9085 54.5664 28.0999L55.3664 28.6999C55.5184 28.4973 55.6421 28.3209 55.7332 28.1737L54.8829 27.6473ZM54.5687 28.0968C54.4724 28.2232 54.32 28.3559 54.0891 28.4856L54.5789 29.3574C54.8958 29.1794 55.165 28.9643 55.3642 28.7029L54.5687 28.0968ZM54.0928 28.4835C53.9189 28.5793 53.647 28.6477 53.2399 28.6477V29.6477C53.7438 29.6477 54.2012 29.5654 54.5751 29.3595L54.0928 28.4835ZM53.3876 28.669C53.9157 28.669 54.3953 28.5296 54.7969 28.2264L54.1943 27.4284C53.9926 27.5807 53.7336 27.669 53.3876 27.669V28.669ZM54.7994 28.2245C55.1844 27.9299 55.4646 27.5313 55.6498 27.052L54.717 26.6916C54.5883 27.0248 54.41 27.2633 54.1917 27.4304L54.7994 28.2245ZM55.6503 27.0508C55.8334 26.5732 55.9188 26.0381 55.9188 25.4545H54.9188C54.9188 25.942 54.8473 26.3517 54.7166 26.6928L55.6503 27.0508ZM55.9188 25.4545C55.9188 24.8779 55.8351 24.3511 55.6542 23.8843L54.7218 24.2457C54.8487 24.5729 54.9188 24.9725 54.9188 25.4545H55.9188ZM55.6547 23.8855C55.4716 23.4094 55.1902 23.0156 54.8008 22.7295L54.2087 23.5354C54.4225 23.6925 54.5967 23.9203 54.7214 24.2445L55.6547 23.8855ZM54.8035 22.7315C54.4009 22.4316 53.9186 22.2955 53.3876 22.2955V23.2955C53.743 23.2955 54.0055 23.384 54.2061 23.5334L54.8035 22.7315ZM53.3876 22.2955C52.8371 22.2955 52.3393 22.4384 51.9284 22.7548L52.5385 23.5471C52.7432 23.3895 53.0148 23.2955 53.3876 23.2955V22.2955ZM51.929 22.7543C51.5422 23.0513 51.2612 23.4496 51.0785 23.9282L52.0128 24.2848C52.1378 23.9571 52.3154 23.7184 52.5379 23.5475L51.929 22.7543ZM51.0778 23.9302C50.9025 24.3952 50.8194 24.9056 50.8194 25.4545H51.8194C51.8194 25.0064 51.8871 24.6181 52.0135 24.2829L51.0778 23.9302ZM50.8194 25.4545C50.8194 26.0103 50.9042 26.5292 51.0818 27.0051L52.0187 26.6555C51.8885 26.3065 51.8194 25.9082 51.8194 25.4545H50.8194ZM51.0834 27.0093C51.2682 27.4912 51.5482 27.8944 51.9308 28.1998L52.5546 27.4181C52.3279 27.2372 52.1462 26.988 52.0171 26.6512L51.0834 27.0093ZM51.9352 28.2032C52.345 28.5228 52.8401 28.669 53.3876 28.669V27.669C53.0241 27.669 52.756 27.5752 52.5502 27.4147L51.9352 28.2032ZM60.6122 28.6907L60.3443 29.1129L60.3455 29.1136L60.6122 28.6907ZM59.4858 27.4119L59.0366 27.6315L59.0376 27.6335L59.4858 27.4119ZM59.4858 23.5572L59.0371 23.3366L59.0361 23.3386L59.4858 23.5572ZM60.6122 22.2738L60.3455 21.8509L60.3443 21.8516L60.6122 22.2738ZM63.9776 22.2738L63.7097 22.696L63.7109 22.6967L63.9776 22.2738ZM65.104 23.5572L64.6543 23.7757L64.6553 23.7778L65.104 23.5572ZM65.104 27.4119L64.6558 27.1903L64.6548 27.1924L65.104 27.4119ZM63.9776 28.6907L63.7109 28.2678L63.7097 28.2685L63.9776 28.6907ZM63.4975 27.7951L63.1866 27.4035L63.1866 27.4035L63.4975 27.7951ZM64.1946 26.8118L64.6633 26.9858L64.6633 26.9858L64.1946 26.8118ZM64.1946 24.1665L64.6638 23.9937L64.6638 23.9937L64.1946 24.1665ZM63.4975 23.174L63.8108 22.7843L63.8108 22.7843L63.4975 23.174ZM61.0969 23.174L60.7837 22.7843L60.7837 22.7843L61.0969 23.174ZM60.3998 24.1665L59.9307 23.9937L59.9307 23.9937L60.3998 24.1665ZM60.3998 26.8118L59.9311 26.9858L59.9311 26.9858L60.3998 26.8118ZM61.0969 27.7951L61.4079 27.4035L61.4079 27.4035L61.0969 27.7951ZM62.2972 28.6477C61.7397 28.6477 61.2729 28.5162 60.8789 28.2678L60.3455 29.1136C60.9179 29.4746 61.5744 29.6477 62.2972 29.6477V28.6477ZM60.8801 28.2685C60.4831 28.0166 60.1674 27.6624 59.934 27.1903L59.0376 27.6335C59.3458 28.2571 59.781 28.7554 60.3443 29.1129L60.8801 28.2685ZM59.935 27.1924C59.7067 26.7253 59.5841 26.163 59.5841 25.4915H58.5841C58.5841 26.2849 58.7293 27.0029 59.0366 27.6315L59.935 27.1924ZM59.5841 25.4915C59.5841 24.8132 59.7069 24.2459 59.9355 23.7757L59.0361 23.3386C58.7291 23.9702 58.5841 24.6925 58.5841 25.4915H59.5841ZM59.9345 23.7778C60.1681 23.3026 60.4838 22.9474 60.8801 22.696L60.3443 21.8516C59.7803 22.2095 59.3451 22.71 59.0371 23.3366L59.9345 23.7778ZM60.8789 22.6967C61.2729 22.4483 61.7397 22.3168 62.2972 22.3168V21.3168C61.5744 21.3168 60.9179 21.4899 60.3455 21.8509L60.8789 22.6967ZM62.2972 22.3168C62.8548 22.3168 63.3195 22.4483 63.7097 22.696L64.2455 21.8516C63.6755 21.4899 63.02 21.3168 62.2972 21.3168V22.3168ZM63.7109 22.6967C64.1095 22.9481 64.4243 23.3024 64.6543 23.7757L65.5537 23.3386C65.2483 22.7102 64.8121 22.2089 64.2443 21.8509L63.7109 22.6967ZM64.6553 23.7778C64.8862 24.2475 65.0103 24.814 65.0103 25.4915H66.0103C66.0103 24.6917 65.8635 23.9687 65.5527 23.3366L64.6553 23.7778ZM65.0103 25.4915C65.0103 26.1622 64.8865 26.7238 64.6558 27.1903L65.5523 27.6335C65.8633 27.0044 66.0103 26.2857 66.0103 25.4915H65.0103ZM64.6548 27.1924C64.425 27.6626 64.1102 28.016 63.7109 28.2678L64.2443 29.1136C64.8114 28.756 65.2476 28.2569 65.5532 27.6315L64.6548 27.1924ZM63.7097 28.2685C63.3195 28.5162 62.8548 28.6477 62.2972 28.6477V29.6477C63.02 29.6477 63.6755 29.4746 64.2455 29.1129L63.7097 28.2685ZM62.2972 28.669C62.8716 28.669 63.3884 28.5202 63.8084 28.1867L63.1866 27.4035C62.9787 27.5686 62.6954 27.669 62.2972 27.669V28.669ZM63.8084 28.1867C64.1996 27.876 64.4834 27.4704 64.6633 26.9858L63.7258 26.6378C63.6041 26.9657 63.4232 27.2156 63.1866 27.4035L63.8084 28.1867ZM64.6633 26.9858C64.8367 26.5189 64.9208 26.0193 64.9208 25.4915H63.9208C63.9208 25.9116 63.8541 26.2922 63.7258 26.6378L64.6633 26.9858ZM64.9208 25.4915C64.9208 24.9636 64.8367 24.463 64.6638 23.9937L63.7254 24.3394C63.8541 24.6888 63.9208 25.0714 63.9208 25.4915H64.9208ZM64.6638 23.9937C64.4843 23.5066 64.2012 23.0982 63.8108 22.7843L63.1842 23.5637C63.4216 23.7546 63.6033 24.0078 63.7254 24.3394L64.6638 23.9937ZM63.8108 22.7843C63.3907 22.4466 62.873 22.2955 62.2972 22.2955V23.2955C62.694 23.2955 62.9765 23.3967 63.1842 23.5637L63.8108 22.7843ZM62.2972 22.2955C61.7215 22.2955 61.2037 22.4466 60.7837 22.7843L61.4102 23.5637C61.618 23.3967 61.9004 23.2955 62.2972 23.2955V22.2955ZM60.7837 22.7843C60.3932 23.0982 60.1101 23.5066 59.9307 23.9937L60.869 24.3394C60.9912 24.0078 61.1728 23.7546 61.4102 23.5637L60.7837 22.7843ZM59.9307 23.9937C59.7578 24.463 59.6736 24.9636 59.6736 25.4915H60.6736C60.6736 25.0714 60.7403 24.6888 60.869 24.3394L59.9307 23.9937ZM59.6736 25.4915C59.6736 26.0193 59.7578 26.5189 59.9311 26.9858L60.8686 26.6378C60.7403 26.2922 60.6736 25.9116 60.6736 25.4915H59.6736ZM59.9311 26.9858C60.111 27.4704 60.3948 27.876 60.786 28.1867L61.4079 27.4035C61.1712 27.2156 60.9903 26.9657 60.8686 26.6378L59.9311 26.9858ZM60.786 28.1867C61.206 28.5202 61.7229 28.669 62.2972 28.669V27.669C61.899 27.669 61.6157 27.5686 61.4079 27.4035L60.786 28.1867ZM68.1011 29H67.6011V29.5H68.1011V29ZM68.1011 19.5455V19.0455H67.6011V19.5455H68.1011ZM69.1906 19.5455H69.6906V19.0455H69.1906V19.5455ZM69.1906 23.0355H68.6906V23.5355H69.1906V23.0355ZM69.2829 23.0355V23.5355H69.5543L69.7021 23.308L69.2829 23.0355ZM69.6153 22.5646L69.2145 22.2656L69.2138 22.2667L69.6153 22.5646ZM70.2339 22.0476L70.4793 22.4832L70.4809 22.4823L70.2339 22.0476ZM72.9115 22.2646L73.1855 21.8464L73.1855 21.8464L72.9115 22.2646ZM73.9779 27.4258L74.431 27.6371L74.4315 27.6361L73.9779 27.4258ZM72.9161 28.6999L73.1915 29.1173L73.1934 29.116L72.9161 28.6999ZM70.257 28.9215L70.0121 29.3575L70.0158 29.3595L70.257 28.9215ZM69.6245 28.3999L69.2245 28.6999L69.2268 28.7029L69.6245 28.3999ZM69.2829 27.9105L69.708 27.6473L69.5614 27.4105H69.2829V27.9105ZM69.1537 27.9105V27.4105H68.6537V27.9105H69.1537ZM69.1537 29V29.5H69.6537V29H69.1537ZM69.4076 26.8718L68.9407 27.0508L68.9412 27.052L69.4076 26.8718ZM70.0954 27.8274L69.7915 28.2245L69.7941 28.2264L70.0954 27.8274ZM72.3436 27.8089L72.6531 28.2017L72.6536 28.2013L72.3436 27.8089ZM73.0361 26.8303L72.5688 26.6524L72.5681 26.6543L73.0361 26.8303ZM73.0407 24.1065L72.5724 24.2817L72.5741 24.286L73.0407 24.1065ZM72.3529 23.1509L72.0459 23.5456L72.0503 23.549L72.3529 23.1509ZM70.0862 23.1325L70.3822 23.5354L70.3849 23.5334L70.0862 23.1325ZM69.4029 24.065L69.8692 24.2457L69.8696 24.2445L69.4029 24.065ZM68.6011 29V19.5455H67.6011V29H68.6011ZM68.1011 20.0455H69.1906V19.0455H68.1011V20.0455ZM68.6906 19.5455V23.0355H69.6906V19.5455H68.6906ZM69.1906 23.5355H69.2829V22.5355H69.1906V23.5355ZM69.7021 23.308C69.7742 23.1972 69.8782 23.0495 70.0169 22.8626L69.2138 22.2667C69.0693 22.4614 68.9517 22.6276 68.8637 22.763L69.7021 23.308ZM70.0161 22.8636C70.1094 22.7385 70.2564 22.6087 70.4793 22.4832L69.9885 21.6119C69.6759 21.788 69.4105 22.0029 69.2145 22.2656L70.0161 22.8636ZM70.4809 22.4823C70.6487 22.387 70.9188 22.3168 71.3326 22.3168V21.3168C70.8232 21.3168 70.3608 21.4004 69.9869 21.6129L70.4809 22.4823ZM71.3326 22.3168C71.8421 22.3168 72.2711 22.4427 72.6374 22.6827L73.1855 21.8464C72.6408 21.4894 72.0173 21.3168 71.3326 21.3168V22.3168ZM72.6374 22.6827C73.0067 22.9248 73.3041 23.2723 73.5247 23.7454L74.431 23.3228C74.1407 22.7002 73.7272 22.2014 73.1855 21.8464L72.6374 22.6827ZM73.5247 23.7454C73.743 24.2135 73.861 24.7847 73.861 25.473H74.861C74.861 24.6718 74.7236 23.9503 74.431 23.3228L73.5247 23.7454ZM73.861 25.473C73.861 26.1681 73.7428 26.7441 73.5243 27.2154L74.4315 27.6361C74.7238 27.0056 74.861 26.2798 74.861 25.473H73.861ZM73.5247 27.2145C73.3036 27.6888 73.0066 28.0387 72.6387 28.2839L73.1934 29.116C73.7304 28.758 74.1413 28.2584 74.431 27.6371L73.5247 27.2145ZM72.6407 28.2826C72.2774 28.5223 71.8533 28.6477 71.3511 28.6477V29.6477C72.0307 29.6477 72.65 29.4746 73.1915 29.1173L72.6407 28.2826ZM71.3511 28.6477C70.944 28.6477 70.6721 28.5793 70.4981 28.4835L70.0158 29.3595C70.3897 29.5654 70.8472 29.6477 71.3511 29.6477V28.6477ZM70.5019 28.4856C70.271 28.3559 70.1186 28.2232 70.0223 28.0968L69.2268 28.7029C69.426 28.9643 69.6952 29.1794 70.0121 29.3574L70.5019 28.4856ZM70.0245 28.0999C69.881 27.9085 69.777 27.7587 69.708 27.6473L68.8578 28.1737C68.9489 28.3209 69.0726 28.4973 69.2245 28.6999L70.0245 28.0999ZM69.2829 27.4105H69.1537V28.4105H69.2829V27.4105ZM68.6537 27.9105V29H69.6537V27.9105H68.6537ZM69.1537 28.5H68.1011V29.5H69.1537V28.5ZM68.6721 25.4545C68.6721 26.0381 68.7576 26.5732 68.9407 27.0508L69.8744 26.6928C69.7436 26.3517 69.6721 25.942 69.6721 25.4545H68.6721ZM68.9412 27.052C69.1263 27.5313 69.4066 27.9299 69.7915 28.2245L70.3993 27.4304C70.181 27.2633 70.0027 27.0248 69.874 26.6916L68.9412 27.052ZM69.7941 28.2264C70.1956 28.5296 70.6753 28.669 71.2034 28.669V27.669C70.8574 27.669 70.5984 27.5807 70.3967 27.4284L69.7941 28.2264ZM71.2034 28.669C71.7507 28.669 72.2454 28.5229 72.6531 28.2017L72.0342 27.4162C71.8325 27.5751 71.567 27.669 71.2034 27.669V28.669ZM72.6536 28.2013C73.0407 27.8954 73.322 27.4906 73.5041 27.0062L72.5681 26.6543C72.4424 26.9885 72.2621 27.2362 72.0337 27.4166L72.6536 28.2013ZM73.5034 27.0081C73.6849 26.5313 73.7716 26.0114 73.7716 25.4545H72.7716C72.7716 25.9071 72.7013 26.3044 72.5688 26.6524L73.5034 27.0081ZM73.7716 25.4545C73.7716 24.9044 73.6866 24.3929 73.5074 23.927L72.5741 24.286C72.7026 24.6203 72.7716 25.0075 72.7716 25.4545H73.7716ZM73.509 23.9314C73.329 23.4501 73.0467 23.0502 72.6554 22.7528L72.0503 23.549C72.2745 23.7194 72.4508 23.9566 72.5724 24.2817L73.509 23.9314ZM72.6598 22.7562C72.2511 22.4384 71.7537 22.2955 71.2034 22.2955V23.2955C71.5764 23.2955 71.8453 23.3895 72.0459 23.5456L72.6598 22.7562ZM71.2034 22.2955C70.6724 22.2955 70.1901 22.4316 69.7875 22.7315L70.3849 23.5334C70.5855 23.384 70.848 23.2955 71.2034 23.2955V22.2955ZM69.7901 22.7295C69.4007 23.0156 69.1194 23.4094 68.9363 23.8855L69.8696 24.2445C69.9943 23.9203 70.1684 23.6925 70.3822 23.5354L69.7901 22.7295ZM68.9367 23.8843C68.7558 24.3511 68.6721 24.8779 68.6721 25.4545H69.6721C69.6721 24.9725 69.7423 24.573 69.8691 24.2457L68.9367 23.8843ZM78.0125 28.6953L77.7494 29.1205L77.7525 29.1224L78.0125 28.6953ZM76.8722 27.4212L76.422 27.6387L76.4235 27.6417L76.8722 27.4212ZM76.8722 23.5895L76.4216 23.3729L76.4211 23.3739L76.8722 23.5895ZM77.9894 22.2876L78.2624 22.7066L78.263 22.7061L77.9894 22.2876ZM80.7639 22.0014L80.9257 21.5283L80.9257 21.5283L80.7639 22.0014ZM81.7472 22.6016L81.4052 22.9663L81.4073 22.9682L81.7472 22.6016ZM82.4535 23.6911L82.9197 23.5103L82.9197 23.5103L82.4535 23.6911ZM82.7167 25.8239V26.3239H83.2167V25.8239H82.7167ZM77.2508 25.8239H76.7508V26.3239H77.2508V25.8239ZM77.2508 24.8821V24.3821H76.7508V24.8821H77.2508ZM81.6087 24.8821V25.3821H82.1087V24.8821H81.6087ZM81.3687 23.8111L80.9214 24.0347L80.9232 24.0382L81.3687 23.8111ZM80.6947 23.0678L80.4288 23.4913L80.4309 23.4926L80.6947 23.0678ZM78.5434 23.1186L78.8235 23.5328L78.8244 23.5321L78.5434 23.1186ZM77.8186 23.9496L77.3706 23.7276L77.3706 23.7276L77.8186 23.9496ZM77.8417 27.038L77.3937 27.2601L77.396 27.2646L77.8417 27.038ZM78.6219 27.8828L78.3699 28.3147L78.3729 28.3164L78.6219 27.8828ZM80.5562 28.049L80.7199 28.5214L80.7236 28.5202L80.5562 28.049ZM81.1609 27.6797L81.5079 28.0397L81.5112 28.0365L81.1609 27.6797ZM81.5533 27.0611L81.6885 26.5797L81.2464 26.4556L81.0852 26.8855L81.5533 27.0611ZM82.6059 27.3565L83.0834 27.5047L83.2357 27.014L82.741 26.8751L82.6059 27.3565ZM82.0473 28.2983L82.4049 28.6477L82.4069 28.6457L82.0473 28.2983ZM81.0778 28.9261L81.2571 29.3929L81.2603 29.3916L81.0778 28.9261ZM79.7806 28.6477C79.1726 28.6477 78.6766 28.5142 78.2725 28.2682L77.7525 29.1224C78.3393 29.4796 79.0222 29.6477 79.7806 29.6477V28.6477ZM78.2756 28.2701C77.867 28.0173 77.5494 27.6653 77.3209 27.2006L76.4235 27.6417C76.7306 28.2665 77.1732 28.764 77.7494 29.1205L78.2756 28.2701ZM77.3224 27.2036C77.0963 26.7356 76.9752 26.1754 76.9752 25.5099H75.9752C75.9752 26.2972 76.1188 27.0111 76.422 27.6387L77.3224 27.2036ZM76.9752 25.5099C76.9752 24.8447 77.0962 24.2805 77.3234 23.805L76.4211 23.3739C76.1189 24.0064 75.9752 24.7226 75.9752 25.5099H76.9752ZM77.3229 23.8061C77.5545 23.3242 77.8685 22.9632 78.2624 22.7066L77.7164 21.8687C77.1563 22.2337 76.7254 22.7407 76.4216 23.3729L77.3229 23.8061ZM78.263 22.7061C78.6526 22.4514 79.1152 22.3168 79.6698 22.3168V21.3168C78.9441 21.3168 78.2865 21.496 77.7158 21.8692L78.263 22.7061ZM79.6698 22.3168C79.9824 22.3168 80.2925 22.3687 80.6022 22.4745L80.9257 21.5283C80.5151 21.3879 80.0958 21.3168 79.6698 21.3168V22.3168ZM80.6022 22.4745C80.8909 22.5733 81.1581 22.7347 81.4052 22.9663L82.0892 22.2368C81.7454 21.9145 81.3571 21.6758 80.9257 21.5283L80.6022 22.4745ZM81.4073 22.9682C81.6369 23.1811 81.8338 23.4759 81.9874 23.8718L82.9197 23.5103C82.7224 23.0014 82.4485 22.5699 82.0872 22.2349L81.4073 22.9682ZM81.9874 23.8718C82.1339 24.2498 82.2167 24.7413 82.2167 25.3622H83.2167C83.2167 24.6597 83.124 24.0371 82.9197 23.5103L81.9874 23.8718ZM82.2167 25.3622V25.8239H83.2167V25.3622H82.2167ZM82.7167 25.3239H77.2508V26.3239H82.7167V25.3239ZM77.7508 25.8239V24.8821H76.7508V25.8239H77.7508ZM77.2508 25.3821H81.6087V24.3821H77.2508V25.3821ZM82.1087 24.8821C82.1087 24.4138 82.0146 23.9772 81.8141 23.584L80.9232 24.0382C81.0428 24.2728 81.1087 24.5502 81.1087 24.8821H82.1087ZM81.8159 23.5875C81.6184 23.1926 81.331 22.8745 80.9585 22.6431L80.4309 23.4926C80.6431 23.6244 80.805 23.8018 80.9215 24.0347L81.8159 23.5875ZM80.9605 22.6443C80.5799 22.4055 80.1431 22.2955 79.6698 22.2955V23.2955C79.9844 23.2955 80.2308 23.367 80.4289 23.4913L80.9605 22.6443ZM79.6698 22.2955C79.1493 22.2955 78.6729 22.4261 78.2623 22.7051L78.8244 23.5321C79.0479 23.3803 79.3224 23.2955 79.6698 23.2955V22.2955ZM78.2632 22.7045C77.8772 22.9656 77.578 23.309 77.3706 23.7276L78.2666 24.1716C78.3977 23.907 78.5817 23.6963 78.8235 23.5327L78.2632 22.7045ZM77.3706 23.7276C77.1662 24.14 77.0647 24.5824 77.0647 25.0483H78.0647C78.0647 24.7324 78.1324 24.4424 78.2666 24.1716L77.3706 23.7276ZM77.0647 25.0483V25.6761H78.0647V25.0483H77.0647ZM77.0647 25.6761C77.0647 26.2672 77.1664 26.8017 77.3937 27.2601L78.2896 26.8159C78.1476 26.5295 78.0647 26.1561 78.0647 25.6761H77.0647ZM77.396 27.2646C77.6237 27.7127 77.9482 28.0687 78.3699 28.3147L78.8738 27.4509C78.6308 27.3092 78.4351 27.102 78.2874 26.8114L77.396 27.2646ZM78.3729 28.3164C78.7917 28.5568 79.2663 28.669 79.7806 28.669V27.669C79.4147 27.669 79.1168 27.5904 78.8708 27.4492L78.3729 28.3164ZM79.7806 28.669C80.1132 28.669 80.4283 28.6225 80.7199 28.5214L80.3924 27.5766C80.2224 27.6355 80.0204 27.669 79.7806 27.669V28.669ZM80.7236 28.5202C81.0207 28.4146 81.2845 28.255 81.5079 28.0397L80.814 27.3196C80.6988 27.4306 80.5594 27.5172 80.3888 27.5779L80.7236 28.5202ZM81.5112 28.0365C81.7379 27.8139 81.9064 27.5437 82.0215 27.2366L81.0852 26.8855C81.0156 27.0709 80.9225 27.2131 80.8106 27.3229L81.5112 28.0365ZM81.4182 27.5425L82.4708 27.8379L82.741 26.8751L81.6885 26.5797L81.4182 27.5425ZM82.1284 27.2083C82.0409 27.4901 81.8953 27.7359 81.6877 27.9509L82.4069 28.6457C82.7224 28.319 82.9493 27.937 83.0834 27.5047L82.1284 27.2083ZM81.6896 27.9489C81.4825 28.1609 81.221 28.333 80.8953 28.4606L81.2603 29.3916C81.7041 29.2177 82.0889 28.9712 82.4049 28.6477L81.6896 27.9489ZM80.8986 28.4594C80.5797 28.5818 80.2094 28.6477 79.7806 28.6477V29.6477C80.312 29.6477 80.8066 29.5659 81.2571 29.3929L80.8986 28.4594ZM90.292 19.5455L90.717 19.2821L90.5703 19.0455H90.292V19.5455ZM92.7294 23.4787L92.3044 23.7421L92.4511 23.9787H92.7294V23.4787ZM92.8033 23.4787V23.9787H93.0817L93.2283 23.7421L92.8033 23.4787ZM95.2408 19.5455V19.0455H94.9624L94.8158 19.2821L95.2408 19.5455ZM96.5888 19.5455L97.0121 19.8116L97.4939 19.0455H96.5888V19.5455ZM93.6158 24.2727L93.1926 24.0065L93.0252 24.2727L93.1926 24.5389L93.6158 24.2727ZM96.5888 29V29.5H97.4939L97.0121 28.7338L96.5888 29ZM95.2408 29L94.8181 29.267L94.9652 29.5H95.2408V29ZM92.8033 25.1406L93.2261 24.8736L93.0789 24.6406H92.8033V25.1406ZM92.7294 25.1406V24.6406H92.4539L92.3067 24.8736L92.7294 25.1406ZM90.292 29V29.5H90.5675L90.7147 29.267L90.292 29ZM88.9439 29L88.5237 28.7291L88.0268 29.5H88.9439V29ZM91.9908 24.2727L92.4111 24.5436L92.5857 24.2727L92.4111 24.0019L91.9908 24.2727ZM88.9439 19.5455V19.0455H88.0268L88.5237 19.8163L88.9439 19.5455ZM89.8669 19.8088L92.3044 23.7421L93.1545 23.2153L90.717 19.2821L89.8669 19.8088ZM92.7294 23.9787H92.8033V22.9787H92.7294V23.9787ZM93.2283 23.7421L95.6658 19.8088L94.8158 19.2821L92.3783 23.2153L93.2283 23.7421ZM95.2408 20.0455H96.5888V19.0455H95.2408V20.0455ZM96.1656 19.2793L93.1926 24.0065L94.0391 24.5389L97.0121 19.8116L96.1656 19.2793ZM93.1926 24.5389L96.1656 29.2662L97.0121 28.7338L94.0391 24.0065L93.1926 24.5389ZM96.5888 28.5H95.2408V29.5H96.5888V28.5ZM95.6636 28.733L93.2261 24.8736L92.3806 25.4076L94.8181 29.267L95.6636 28.733ZM92.8033 24.6406H92.7294V25.6406H92.8033V24.6406ZM92.3067 24.8736L89.8692 28.733L90.7147 29.267L93.1522 25.4076L92.3067 24.8736ZM90.292 28.5H88.9439V29.5H90.292V28.5ZM89.3642 29.2709L92.4111 24.5436L91.5705 24.0019L88.5237 28.7291L89.3642 29.2709ZM92.4111 24.0019L89.3642 19.2746L88.5237 19.8163L91.5705 24.5436L92.4111 24.0019ZM88.9439 20.0455H90.292V19.0455H88.9439V20.0455ZM98.8588 29H98.3588V29.5H98.8588V29ZM98.8588 19.5455V19.0455H98.3588V19.5455H98.8588ZM104.26 20.1133L104.009 20.5458L104.011 20.5466L104.26 20.1133ZM105.76 21.7337L105.312 21.9549L105.312 21.9557L105.76 21.7337ZM105.756 26.7979L106.204 27.02L106.204 27.0192L105.756 26.7979ZM104.223 28.4322L104.469 28.8676L104.47 28.8668L104.223 28.4322ZM100.004 27.9844H99.5037V28.4844H100.004V27.9844ZM103.646 27.532L103.393 27.1007L103.646 27.532ZM104.8 22.283L104.344 22.4882L104.345 22.4892L104.8 22.283ZM103.683 21.0089L103.425 21.4372L103.427 21.4383L103.683 21.0089ZM100.004 20.5611V20.0611H99.5037V20.5611H100.004ZM101.776 28.5H98.8588V29.5H101.776V28.5ZM99.3588 29V19.5455H98.3588V29H99.3588ZM98.8588 20.0455H101.906V19.0455H98.8588V20.0455ZM101.906 20.0455C102.754 20.0455 103.448 20.2201 104.009 20.5458L104.511 19.6808C103.767 19.2494 102.892 19.0455 101.906 19.0455V20.0455ZM104.011 20.5466C104.573 20.8704 105.006 21.3349 105.312 21.9549L106.209 21.5124C105.819 20.7229 105.252 20.1071 104.509 19.6799L104.011 20.5466ZM105.312 21.9557C105.619 22.5733 105.782 23.3338 105.782 24.2543H106.782C106.782 23.2173 106.598 22.2974 106.208 21.5116L105.312 21.9557ZM105.782 24.2543C105.782 25.1805 105.617 25.9492 105.307 26.5767L106.204 27.0192C106.596 26.2248 106.782 25.2977 106.782 24.2543H105.782ZM105.308 26.5759C105 27.1967 104.558 27.6664 103.976 27.9976L104.47 28.8668C105.23 28.4347 105.81 27.8149 106.204 27.02L105.308 26.5759ZM103.977 27.9967C103.398 28.3237 102.671 28.5 101.776 28.5V29.5C102.802 29.5 103.707 29.2977 104.469 28.8676L103.977 27.9967ZM100.004 28.4844H101.703V27.4844H100.004V28.4844ZM101.703 28.4844C102.546 28.4844 103.288 28.3218 103.899 27.9632L103.393 27.1007C102.976 27.3454 102.422 27.4844 101.703 27.4844V28.4844ZM103.899 27.9632C104.505 27.6079 104.957 27.0988 105.251 26.4503L104.34 26.0376C104.129 26.5033 103.815 26.8528 103.393 27.1007L103.899 27.9632ZM105.251 26.4503C105.539 25.814 105.674 25.077 105.674 24.2543H104.674C104.674 24.9703 104.557 25.5599 104.34 26.0376L105.251 26.4503ZM105.674 24.2543C105.674 23.438 105.541 22.7072 105.256 22.0769L104.345 22.4892C104.558 22.9607 104.674 23.5441 104.674 24.2543H105.674ZM105.256 22.0778C104.967 21.4356 104.527 20.9303 103.939 20.5794L103.427 21.4383C103.83 21.6784 104.135 22.0225 104.344 22.4882L105.256 22.0778ZM103.941 20.5806C103.349 20.2238 102.637 20.0611 101.832 20.0611V21.0611C102.504 21.0611 103.026 21.1969 103.425 21.4372L103.941 20.5806ZM101.832 20.0611H100.004V21.0611H101.832V20.0611ZM99.5037 20.5611V27.9844H100.504V20.5611H99.5037Z" fill="white"/>
<path d="M21.25 9.5H19C10.9919 9.5 4.5 15.9919 4.5 24C4.5 32.0081 10.9919 38.5 19 38.5H21.25C29.2581 38.5 35.75 32.0081 35.75 24C35.75 15.9919 29.2581 9.5 21.25 9.5Z" fill="white"/>
<g clip-path="url(#clip1_1_469)">
<path d="M15.0104 16H25.9896C26.385 15.9996 26.7766 16.0746 27.142 16.2205C27.5074 16.3664 27.8395 16.5804 28.1191 16.8503C28.3987 17.1203 28.6204 17.4408 28.7716 17.7935C28.9227 18.1462 29.0003 18.5243 29 18.906V29.094C29.0003 29.4757 28.9227 29.8538 28.7716 30.2065C28.6204 30.5593 28.3987 30.8797 28.1191 31.1497C27.8395 31.4196 27.5074 31.6336 27.142 31.7795C26.7766 31.9254 26.385 32.0004 25.9896 32H15.0104C14.6149 32.0004 14.2233 31.9254 13.8579 31.7795C13.4925 31.6336 13.1605 31.4196 12.8809 31.1497C12.6013 30.8797 12.3795 30.5593 12.2284 30.2065C12.0772 29.8538 11.9996 29.4757 12 29.094V18.906C11.9996 18.5243 12.0772 18.1462 12.2284 17.7935C12.3795 17.4408 12.6013 17.1203 12.8809 16.8503C13.1605 16.5804 13.4925 16.3664 13.8579 16.2205C14.2233 16.0746 14.6149 15.9996 15.0104 16V16Z" fill="#470137"/>
<path d="M20.9392 20.2052L18.8142 23.5898L21.0808 27.1795C21.0957 27.2043 21.1008 27.2335 21.095 27.2616C21.0879 27.2889 21.0596 27.2684 21.0171 27.2752H19.395C19.2817 27.2752 19.2037 27.2684 19.1542 27.2C19.0054 26.9128 18.8496 26.6325 18.7008 26.3453C18.5521 26.0581 18.3892 25.7778 18.2192 25.4838C18.0492 25.1898 17.8792 24.8957 17.7092 24.5949H17.695C17.5462 24.8889 17.3833 25.1829 17.2204 25.4769C17.0575 25.771 16.8946 26.065 16.7387 26.3522C16.5829 26.6393 16.4129 26.9334 16.25 27.2137C16.2217 27.2821 16.165 27.2889 16.0871 27.2889H14.5287C14.5004 27.2889 14.4792 27.3026 14.4792 27.2684C14.476 27.2556 14.4756 27.2423 14.4781 27.2294C14.4805 27.2164 14.4857 27.2041 14.4933 27.1932L16.6962 23.706L14.55 20.1983C14.5287 20.171 14.5217 20.1436 14.5358 20.1299C14.5445 20.1202 14.5554 20.1126 14.5678 20.1078C14.5801 20.1031 14.5934 20.1013 14.6067 20.1026H16.2146C16.2481 20.1033 16.2814 20.1079 16.3137 20.1163C16.3421 20.131 16.3664 20.1521 16.3846 20.1778C16.5192 20.4718 16.675 20.7658 16.8379 21.0599C17.0008 21.3539 17.1708 21.641 17.3479 21.9282C17.525 22.2154 17.6737 22.5026 17.8225 22.7966H17.8367C17.9854 22.4957 18.1412 22.2017 18.2971 21.9146C18.4529 21.6274 18.6158 21.3402 18.7787 21.053C18.9417 20.7658 19.0975 20.4718 19.2533 20.1915C19.2587 20.1646 19.2737 20.1403 19.2958 20.1231C19.3239 20.1082 19.3565 20.1033 19.3879 20.1094H20.8825C20.8909 20.1076 20.8995 20.1074 20.908 20.1088C20.9164 20.1103 20.9245 20.1133 20.9318 20.1177C20.939 20.1222 20.9452 20.128 20.9502 20.1348C20.9551 20.1415 20.9586 20.1492 20.9604 20.1573C20.9675 20.1641 20.9533 20.1915 20.9392 20.2052V20.2052Z" fill="#FF61F6"/>
<path d="M24.2117 27.4188C23.6866 27.4271 23.1663 27.322 22.6887 27.1111C22.2445 26.9106 21.8721 26.5868 21.6192 26.1812C21.3571 25.7641 21.2296 25.2444 21.2296 24.6222C21.2224 24.1162 21.357 23.6177 21.6192 23.1795C21.888 22.7341 22.2773 22.3677 22.7454 22.1197C23.2412 21.853 23.8362 21.7231 24.5375 21.7231C24.5872 21.7225 24.6368 21.7248 24.6862 21.7299C24.75 21.7368 24.8208 21.7368 24.9058 21.7436V19.5829C24.9058 19.535 24.9271 19.5077 24.9767 19.5077H26.4146C26.4305 19.5056 26.4466 19.5094 26.4597 19.5183C26.4728 19.5271 26.482 19.5404 26.4854 19.5556V26.0786C26.4854 26.2017 26.4925 26.3385 26.4996 26.4889C26.5067 26.6393 26.5208 26.7692 26.5279 26.8855C26.5294 26.9086 26.5234 26.9315 26.5107 26.9512C26.498 26.9708 26.4792 26.9861 26.4571 26.9949C26.0861 27.1454 25.6988 27.2555 25.3025 27.3231C24.9425 27.3858 24.5775 27.4178 24.2117 27.4188V27.4188ZM24.9058 26.0513V23.0427C24.8428 23.028 24.7789 23.0166 24.7146 23.0086C24.6367 23.0017 24.5587 22.9949 24.4808 22.9949C24.2032 22.9919 23.9288 23.0528 23.6804 23.1727C23.4384 23.2891 23.2311 23.4632 23.0783 23.6786C22.9225 23.8974 22.8446 24.1915 22.8446 24.547C22.8384 24.787 22.8793 25.0259 22.965 25.2513C23.0335 25.4335 23.1423 25.5992 23.2837 25.7368C23.4203 25.8626 23.5852 25.9562 23.7654 26.0103C23.9552 26.0702 24.1537 26.1003 24.3533 26.0992C24.4596 26.0992 24.5587 26.0923 24.6508 26.0855C24.7374 26.0914 24.8242 26.0798 24.9058 26.0513V26.0513Z" fill="#FF61F6"/>
</g>
</g>
<defs>
<clipPath id="clip0_1_469">
<rect width="135" height="48" fill="white"/>
</clipPath>
<clipPath id="clip1_1_469">
<rect width="17" height="16" fill="white" transform="translate(12 16)"/>
</clipPath>
</defs>
</svg>
